<svg width="80" height="80" viewBox="0 0 80 80" fill="none" xmlns="http://www.w3.org/2000/svg">
<path d="M37.9262 23.8208C37.9262 22.8722 38.7694 22.029 39.7181 22.029C40.6667 22.029 41.5099 22.8722 41.5099 23.8208V35.942C41.5099 36.8906 40.6667 37.7339 39.7181 37.7339C38.7694 37.7339 37.9262 36.8906 37.9262 35.942V23.8208ZM65.5415 3.26746C65.5415 1.47563 64.0659 0 62.274 0H17.2675C15.4756 0 14 1.47563 14 3.26746V76.7325C14 78.5244 15.4756 80 17.2675 80H62.274C64.0659 80 65.5415 78.5244 65.5415 76.7325V3.26746ZM61.5362 75.2569C61.5362 75.6785 61.22 75.9947 60.7984 75.9947H18.6377C18.2161 75.9947 17.8999 75.6785 17.8999 75.2569V4.63768C17.8999 4.21607 18.2161 3.89987 18.6377 3.89987H60.7984C61.22 3.89987 61.5362 4.21607 61.5362 4.63768V75.2569ZM24.4348 9.48617C23.697 9.48617 23.17 10.0132 23.17 10.751C22.8538 12.859 22.1159 16.3373 22.1159 16.9697L23.17 43.004L22.1159 69.0382C22.1159 69.776 22.643 70.303 23.3808 70.303H55.9499C56.6877 70.303 57.2148 69.776 57.2148 69.0382L56.1607 43.004L57.2148 16.9697L56.1607 10.751C56.1607 10.0132 55.6337 9.48617 54.8959 9.48617H24.4348ZM39.6126 53.0171C38.664 53.0171 37.8208 53.4387 37.1884 53.9657C36.556 54.5982 36.2398 55.4414 36.2398 56.39C36.2398 57.3386 36.6614 58.1818 37.1884 58.8142C37.8208 59.4466 38.664 59.7628 39.6126 59.7628C40.5613 59.7628 41.4045 59.3412 42.0369 58.8142C42.6693 58.1818 42.9855 57.3386 42.9855 56.39C42.9855 55.4414 42.5639 54.5982 42.0369 53.9657C41.4045 53.3333 40.5613 53.0171 39.6126 53.0171ZM34.6588 51.4361C35.9236 50.1713 37.7154 49.4335 39.6126 49.4335C41.5099 49.4335 43.3017 50.1713 44.5665 51.4361C45.8314 52.7009 46.5692 54.4928 46.5692 56.39C46.5692 58.2872 45.8314 60.079 44.5665 61.3439C43.3017 62.6087 41.5099 63.3465 39.6126 63.3465C37.7154 63.3465 35.9236 62.6087 34.6588 61.3439C33.3939 60.079 32.6561 58.2872 32.6561 56.39C32.6561 54.4928 33.3939 52.7009 34.6588 51.4361ZM49.2042 15.7049C48.4664 15.7049 47.9394 16.2319 47.9394 16.9697C47.9394 17.7075 48.4664 18.2345 49.2042 18.2345H54.5797L53.5257 41.7391H25.6996L24.6456 18.2345H49.7773C50.5152 18.2345 51.0422 17.7075 51.0422 16.9697C51.0422 16.2319 50.5152 15.7049 49.7773 15.7049H24.6456L25.3834 12.0158H53.7365L54.5797 15.7049H49.2042Z" fill="black"/>
</svg>
