<svg width="80" height="80" viewBox="0 0 80 80" fill="none" xmlns="http://www.w3.org/2000/svg">
<path d="M31.0813 43.5404C30.1128 44.1567 28.3518 44.8611 27.1191 44.8611C23.4211 44.8611 20.1632 41.4272 20.1632 37.553C20.1632 36.2323 20.7796 34.3833 21.3959 33.4147L31.0813 43.6284V43.5404ZM10.1256 42.7479C11.0942 42.836 11.9747 42.0436 11.9747 41.075C11.9747 40.1065 11.2703 39.226 10.2137 39.1379L1.84903 38.6096C0.880491 38.5216 0 39.314 0 40.2826C0 41.2511 0.704393 42.1316 1.76098 42.2196L10.1256 42.7479ZM19.723 54.2824C20.0752 53.3138 19.5469 52.3453 18.6664 51.9931C17.6979 51.6409 16.7293 52.0812 16.3771 53.0497L13.6476 60.8861C13.2954 61.8546 13.8237 62.8231 14.7042 63.1753C15.6727 63.5275 16.6413 63.0873 16.9935 62.1187L19.723 54.2824ZM13.2954 50.1441C14.1759 49.7919 14.6162 48.7353 14.1759 47.7667C13.7357 46.8863 12.6791 46.446 11.7986 46.8863L4.13831 50.2321C3.25782 50.5843 2.81757 51.6409 3.25782 52.6094C3.69806 53.4899 4.75465 53.9302 5.63514 53.4899L13.2954 50.1441ZM27.6474 55.1629C27.4713 54.1943 26.5908 53.4899 25.6223 53.578C24.6538 53.666 23.9494 54.5465 24.1255 55.5151L25.2701 63.7917C25.4462 64.7602 26.3267 65.4646 27.2952 65.3766C28.2638 65.2885 28.9682 64.408 28.7921 63.4395L27.6474 55.1629ZM16.5532 18.2703C17.1696 16.6854 19.0186 15.3647 20.6915 15.3647H31.2574L35.7479 10.7861C37.597 8.67293 41.4711 7 44.2007 7C50.8043 7 55.9992 12.6351 55.9992 19.503C55.9992 21.1759 55.4709 23.6413 54.7666 25.2262L67.0934 38.1694C67.6217 38.6977 68.062 39.7543 68.062 40.3706C68.062 40.6348 67.9739 40.987 67.9739 41.2511L60.7539 67.4897H73.9613C76.6908 67.4897 79.1562 69.3388 79.9486 71.8922C80.2127 72.7727 79.4203 73.7412 78.4518 73.7412H33.8109C32.8423 73.7412 32.0499 72.8607 32.314 71.8922C33.0184 69.2507 35.5718 67.4897 38.1253 67.4897H54.5024L61.5463 41.2511L50.8924 29.9808L48.0748 32.9745V44.0687C48.0748 46.7102 46.2258 48.6472 43.7604 48.6472C42.7919 48.6472 41.3831 48.1189 40.6787 47.3265L17.6979 23.201C16.9935 22.4086 16.2891 20.9998 16.2891 19.9432C16.2891 19.4149 16.5532 18.6225 16.6413 18.0942L16.5532 18.2703Z" fill="black"/>
</svg>
