<svg width="80" height="80" viewBox="0 0 80 80" fill="none" xmlns="http://www.w3.org/2000/svg">
<path fill-rule="evenodd" clip-rule="evenodd" d="M25.4105 5.55691C25.4105 5.24955 25.66 5 25.9674 5C26.2747 5 26.5243 5.24955 26.5243 5.55691V9.48556C26.5243 9.79292 26.2747 10.0418 25.9674 10.0418C25.66 10.0418 25.4105 9.79292 25.4105 9.48556V8.87719L17.496 8.8779V9.48838C17.496 9.79574 17.2465 10.0446 16.9391 10.0446C16.6318 10.0446 16.3822 9.79574 16.3822 9.48838V5.55973C16.3822 5.25237 16.6318 5.00282 16.9391 5.00282C17.2465 5.00282 17.496 5.25237 17.496 5.55973V6.1413L25.4105 6.13989V5.55691ZM54.5895 5.55691C54.5895 5.24955 54.34 5 54.0326 5C53.7253 5 53.4757 5.24955 53.4757 5.55691V9.48556C53.4757 9.79292 53.7253 10.0418 54.0326 10.0418C54.34 10.0418 54.5895 9.79292 54.5895 9.48556V8.87719L62.504 8.8779V9.48838C62.504 9.79574 62.7535 10.0446 63.0609 10.0446C63.3682 10.0446 63.6178 9.79574 63.6178 9.48838V5.55973C63.6178 5.25237 63.3682 5.00282 63.0609 5.00282C62.7535 5.00282 62.504 5.25237 62.504 5.55973V6.1413L54.5895 6.13989V5.55691ZM62.4687 7.25441L62.4694 7.76409L54.7249 7.76338V7.253L62.4687 7.25441ZM49.2996 5.58299C49.2996 5.27563 49.0501 5.02608 48.7427 5.02608C48.4354 5.02608 48.1858 5.27563 48.1858 5.58299V9.51164C48.1858 9.819 48.4354 10.0678 48.7427 10.0678C49.0501 10.0678 49.2996 9.819 49.2996 9.51164V8.90328H51.7789V9.51376C51.7789 9.82111 52.0285 10.07 52.3358 10.07C52.6432 10.07 52.8927 9.82111 52.8927 9.51376V5.5851C52.8927 5.27775 52.6432 5.0282 52.3358 5.0282C52.0285 5.0282 51.7789 5.27775 51.7789 5.5851V6.16598H49.2996V5.58299ZM51.7437 7.27908V7.78946H49.4364V7.27908H51.7437ZM76.4464 5.58651C76.4464 5.27916 76.1968 5.02961 75.8895 5.02961C75.5821 5.02961 75.3326 5.27916 75.3326 5.58651V9.51517C75.3326 9.82252 75.5821 10.0714 75.8895 10.0714C76.1968 10.0714 76.4464 9.82252 76.4464 9.51517V8.9068H80L79.9986 6.17021H76.4464V5.58651ZM78.8897 7.28331L78.8904 7.79299H76.5824V7.28331H78.8897ZM65.5162 5.55691C65.5162 5.24955 65.2666 5 64.9593 5C64.6519 5 64.4024 5.24955 64.4024 5.55691V9.48556C64.4024 9.79292 64.6519 10.0418 64.9593 10.0418C65.2666 10.0418 65.5162 9.79292 65.5162 9.48556V8.87719L73.4306 8.8779V9.48838C73.4306 9.79574 73.6802 10.0446 73.9875 10.0446C74.2949 10.0446 74.5444 9.79574 74.5444 9.48838V5.55973C74.5444 5.25237 74.2949 5.00282 73.9875 5.00282C73.6802 5.00282 73.4306 5.25237 73.4306 5.55973V6.1413L65.5162 6.13989V5.55691ZM73.3954 7.25441L73.3961 7.76409L65.6515 7.76338V7.253L73.3954 7.25441ZM17.5313 7.25441L17.5306 7.76409L25.2751 7.76338V7.253L17.5313 7.25441ZM30.7004 5.58299C30.7004 5.27563 30.9499 5.02608 31.2573 5.02608C31.5646 5.02608 31.8142 5.27563 31.8142 5.58299V9.51164C31.8142 9.819 31.5646 10.0678 31.2573 10.0678C30.9499 10.0678 30.7004 9.819 30.7004 9.51164V8.90328H28.2211V9.51376C28.2211 9.82111 27.9715 10.07 27.6642 10.07C27.3568 10.07 27.1073 9.82111 27.1073 9.51376V5.5851C27.1073 5.27775 27.3568 5.0282 27.6642 5.0282C27.9715 5.0282 28.2211 5.27775 28.2211 5.5851V6.16598H30.7004V5.58299ZM28.2563 7.27908V7.78946H30.5636V7.27908H28.2563ZM3.55363 5.58651C3.55363 5.27916 3.80318 5.02961 4.11054 5.02961C4.41789 5.02961 4.66744 5.27916 4.66744 5.58651V9.51517C4.66744 9.82252 4.41789 10.0714 4.11054 10.0714C3.80318 10.0714 3.55363 9.82252 3.55363 9.51517V8.9068H0L0.00140989 6.17021H3.55363V5.58651ZM1.11029 7.28331L1.10958 7.79299H3.41757V7.28331H1.11029ZM46.2606 5.57664C46.2606 5.26929 46.5102 5.01974 46.8175 5.01974C47.1249 5.01974 47.3744 5.26929 47.3744 5.57664V9.5053C47.3744 9.81265 47.1249 10.0615 46.8175 10.0615C46.5102 10.0615 46.2606 9.81265 46.2606 9.5053V8.89693H33.7605V9.50741C33.7605 9.81477 33.511 10.0636 33.2036 10.0636C32.8963 10.0636 32.6467 9.81477 32.6467 9.50741V5.57805C32.6467 5.2707 32.8963 5.02115 33.2036 5.02115C33.511 5.02115 33.7605 5.2707 33.7605 5.57805V6.15963H46.2606V5.57664ZM33.7669 7.27274L33.7662 7.78312H46.2331V7.27274H33.7669ZM14.4838 5.55691C14.4838 5.24955 14.7334 5 15.0407 5C15.3481 5 15.5976 5.24955 15.5976 5.55691V9.48556C15.5976 9.79292 15.3481 10.0418 15.0407 10.0418C14.7334 10.0418 14.4838 9.79292 14.4838 9.48556V8.87719L6.56938 8.8779V9.48838C6.56938 9.79574 6.31983 10.0446 6.01248 10.0446C5.70512 10.0446 5.45557 9.79574 5.45557 9.48838V5.55973C5.45557 5.25237 5.70512 5.00282 6.01248 5.00282C6.31983 5.00282 6.56938 5.25237 6.56938 5.55973V6.1413L14.4838 6.13989V5.55691ZM6.60463 7.25441L6.60393 7.76409L14.3485 7.76338V7.253L6.60463 7.25441Z" fill="black"/>
<path fill-rule="evenodd" clip-rule="evenodd" d="M64.3847 48.3683C64.5609 48.118 64.5017 47.7726 64.2515 47.5964C64.0019 47.4194 63.6565 47.4793 63.4795 47.7289C62.143 49.6181 61.0489 51.862 60.143 54.3448C59.2428 56.8114 58.5259 59.517 57.938 62.3452C57.8752 62.6455 58.0684 62.9395 58.3687 63.0015C58.6683 63.0643 58.9629 62.8718 59.025 62.5715C59.603 59.7912 60.3066 57.1364 61.1871 54.7226C62.0626 52.3244 63.1108 50.1673 64.3847 48.3683ZM69.2573 48.3894C69.4427 48.1462 69.3947 47.798 69.1508 47.6133C68.9069 47.4286 68.5594 47.4758 68.3747 47.7197C67.6761 48.6418 67.0748 50.7073 66.656 53.4213C66.2507 56.0451 66.0011 59.3224 65.987 62.7809C65.9863 63.0875 66.2331 63.3364 66.5397 63.3378C66.8456 63.3392 67.0952 63.0918 67.0966 62.7851C67.11 59.4014 67.356 56.1812 67.7564 53.5905C68.1491 51.0457 68.6757 49.1571 69.2573 48.3894ZM55.3649 20.8084C55.2831 20.513 54.9772 20.3396 54.6818 20.4214C54.3864 20.5025 54.213 20.8084 54.2948 21.1038C55.1739 26.3676 57.9958 37.0835 63.2032 41.4654C63.4351 41.6671 63.7862 41.6424 63.9878 41.4112C64.1901 41.1792 64.1654 40.8275 63.9335 40.6258C58.5217 36.2291 56.5824 25.9087 55.3649 20.8084ZM67.1452 33.1344C67.0966 32.832 66.8111 32.6261 66.5087 32.6755C66.2056 32.7248 66.0004 33.0103 66.0498 33.3127C66.2295 34.411 66.4495 35.46 66.7152 36.4519C66.9838 37.4529 67.2996 38.4031 67.6704 39.2942C67.7882 39.5776 68.1131 39.7115 68.3965 39.5938C68.6799 39.4768 68.8146 39.1511 68.6968 38.8677C68.3465 38.0253 68.0462 37.1216 67.7896 36.1649C67.5309 35.1992 67.318 34.1862 67.1452 33.1344ZM64.778 17.5114C64.7766 17.2054 64.5271 16.958 64.2211 16.9594C63.9145 16.9608 63.6678 17.2097 63.6685 17.5163C63.691 21.4125 64.0611 23.7988 64.5172 26.7335C64.5863 27.1804 64.6582 27.6436 64.783 28.4803C64.8274 28.7842 65.1094 28.9942 65.4132 28.9498C65.717 28.9054 65.9278 28.6227 65.8834 28.3189C65.8249 27.9291 65.717 27.234 65.6134 26.5636C65.1644 23.674 64.7992 21.3237 64.778 17.5114ZM58.0782 65.631C58.0938 65.325 57.8583 65.0642 57.5516 65.0487C57.2457 65.0325 56.9842 65.2686 56.9687 65.5746L56.6493 71.6449C55.8894 71.9741 55.2021 72.1285 54.6057 72.0664C54.0326 72.0072 53.5271 71.733 53.1042 71.2008C53.0872 65.4703 53.9557 60.7859 55.5433 56.7353C57.1146 52.7248 59.3937 49.3284 62.2177 46.1484C64.2465 46.1463 66.3212 46.1202 68.3951 46.0941C70.2266 46.0708 72.0587 46.0483 74.2504 46.0448V72.3731C73.3001 73.6927 67.9707 73.587 66.4763 72.1045L66.5975 66.0067C66.6032 65.7001 66.3599 65.447 66.0533 65.4414C65.7473 65.435 65.4943 65.6782 65.4879 65.9849L65.3639 72.2215C64.7886 73.3762 58.2376 72.954 57.7575 71.7203L58.0782 65.631ZM66.0124 73.1358C66.0202 73.1344 66.0272 73.133 66.0343 73.1309C67.6472 74.6895 73.5264 75.1019 75.1964 73.0125C75.3071 72.9032 75.3621 72.7601 75.3621 72.6163H75.3642V11.298C75.3642 10.9899 75.1147 10.7411 74.8073 10.7411C74.6811 10.7411 74.5648 10.7834 74.471 10.8539C72.9491 12.8037 66.3804 12.87 64.2945 10.8151C64.1098 10.7101 63.8905 10.7227 63.7234 10.8285C62.7478 12.9814 54.8968 13.2464 53.2769 10.8299C53.0682 10.696 52.8031 10.7192 52.622 10.8701C51.9156 11.3607 51.1543 11.6032 50.3394 11.6025C49.4885 11.6011 48.5643 11.3346 47.5682 10.8059C47.2968 10.6635 46.9613 10.7672 46.8182 11.0393C46.7618 11.1464 46.7434 11.2634 46.7596 11.3755C47.0318 14.0416 47.4279 16.731 48.0694 19.4676C48.7152 22.219 49.6083 25.0247 50.8723 27.9114C52.2765 31.2078 53.9148 34.0931 55.7047 36.6626C57.3049 38.9601 59.0285 41.0086 60.8155 42.8746C60.5441 43.0607 60.3454 43.3209 60.2206 43.6148C60.1261 43.8397 60.0775 44.0843 60.0768 44.3303C60.0761 44.5778 60.1226 44.8245 60.2178 45.0515C60.3616 45.3941 60.609 45.6972 60.9636 45.8967C58.251 49.033 56.0508 52.3928 54.5077 56.3313C52.8553 60.549 51.9586 65.4237 51.9953 71.3897C51.996 71.5088 52.034 71.6188 52.0982 71.709C52.7432 72.6121 53.5504 73.0731 54.4922 73.1711C55.2993 73.255 56.1862 73.0597 57.1386 72.641C58.184 74.3187 64.7146 74.6888 66.0124 73.1358ZM61.9357 45.036C61.5635 45.0212 61.3372 44.8428 61.2442 44.6208C61.2047 44.527 61.1856 44.4276 61.1856 44.3303C61.1856 44.2323 61.2054 44.1344 61.2427 44.0455C61.3273 43.846 61.5205 43.6924 61.8187 43.6881L61.8419 43.6888V43.6902H74.2504V44.9317C72.3196 44.9352 70.3506 44.9606 68.3817 44.9852C66.398 45.0099 64.4136 45.0353 61.971 45.0353C61.959 45.0353 61.947 45.0353 61.9357 45.036ZM74.2504 42.5771H62.0732C60.1656 40.6294 58.3222 38.4743 56.6183 36.0275C54.8665 33.5122 53.2649 30.6925 51.8945 27.4765L51.8923 27.4723C50.6587 24.6553 49.7846 21.9109 49.1529 19.2152C48.5974 16.8452 48.2287 14.5182 47.9665 12.2158C48.7885 12.5443 49.5794 12.71 50.3394 12.7114C51.2812 12.7128 52.1638 12.4618 52.9864 11.955C54.3167 13.9486 62.0266 14.3842 64.0273 11.9324C65.6494 13.6701 72.1743 14.2665 74.2504 12.237V42.5771Z" fill="black"/>
<path d="M64.0971 48.166C64.1281 48.1216 64.1394 48.0652 64.1309 48.0151C64.1225 47.9644 64.0936 47.915 64.0492 47.884C64.004 47.8523 63.9476 47.841 63.8976 47.8495C63.8468 47.8579 63.7975 47.8876 63.7658 47.9327C63.1095 48.8597 62.5096 49.879 61.9632 50.971C61.4169 52.0686 60.9206 53.2395 60.4737 54.4647C60.0253 55.6948 59.6221 56.9806 59.2619 58.3017C58.9045 59.6115 58.5823 60.977 58.2905 62.3763L58.282 62.4186C58.2714 62.4722 58.2834 62.5265 58.3109 62.5688C58.337 62.6103 58.3786 62.6414 58.4293 62.6548L58.442 62.6576C58.4949 62.6682 58.5506 62.6562 58.5936 62.628C58.6359 62.6012 58.6697 62.5554 58.681 62.4997C58.9693 61.1109 59.2929 59.744 59.6545 58.4173C60.0169 57.0885 60.4166 55.8111 60.8565 54.6029C61.2992 53.3889 61.7863 52.2364 62.3213 51.1634C62.8564 50.0905 63.4478 49.0867 64.0971 48.166ZM64.8246 47.8939C64.8648 48.1216 64.8161 48.3662 64.6723 48.5706C64.0492 49.449 63.4774 50.4239 62.9516 51.4778C62.4257 52.5317 61.9491 53.6596 61.5177 54.8425C61.0792 56.0473 60.6845 57.3056 60.3313 58.602C59.9816 59.8857 59.6644 61.2272 59.3775 62.6026L59.369 62.6463C59.3183 62.8881 59.1709 63.0897 58.9785 63.2159C58.7987 63.335 58.5739 63.3886 58.3454 63.3541L58.294 63.3456C58.0529 63.2941 57.852 63.1503 57.7244 62.9565C57.6053 62.776 57.551 62.5504 57.5855 62.3227L57.594 62.2734C57.8872 60.86 58.2164 59.4684 58.5851 58.117C58.9538 56.7642 59.3627 55.4594 59.8124 54.225C60.2707 52.9688 60.7768 51.7732 61.3344 50.6573C61.8963 49.5364 62.5145 48.4868 63.1934 47.5266C63.3379 47.3222 63.5522 47.1946 63.7792 47.1558C64.0069 47.117 64.2508 47.1657 64.4538 47.3088C64.6568 47.4526 64.7851 47.6669 64.8246 47.8939ZM69.5393 48.6003L69.5195 48.6263C69.2658 48.9732 69.0169 49.5794 68.7836 50.3866C68.5326 51.2586 68.3014 52.3654 68.1047 53.6441C67.9024 54.9441 67.7395 56.4153 67.6268 57.9937C67.5168 59.5227 67.4533 61.1405 67.4477 62.7852C67.447 63.0368 67.3441 63.2638 67.1805 63.4267C67.017 63.5895 66.7879 63.6896 66.5383 63.6889C66.2895 63.6882 66.0618 63.5853 65.8996 63.4224C65.7361 63.2603 65.6353 63.0312 65.636 62.7795C65.643 61.0644 65.7072 59.3986 65.8179 57.8442C65.9335 56.2214 66.1013 54.7072 66.3078 53.3678C66.5221 51.9777 66.7851 50.7517 67.084 49.7599C67.3821 48.7694 67.724 47.9968 68.0941 47.5076C68.245 47.3088 68.4635 47.1897 68.6926 47.1579C68.921 47.1262 69.165 47.1826 69.363 47.3328L69.3948 47.3588C69.5752 47.5076 69.6831 47.7148 69.7134 47.9313C69.7437 48.1611 69.6887 48.4022 69.5393 48.6003ZM68.9845 48.1674C69.0127 48.1258 69.0225 48.0751 69.0169 48.0271C69.0099 47.9771 68.9824 47.927 68.9387 47.8939C68.8914 47.8601 68.8379 47.8474 68.7885 47.8544C68.737 47.8608 68.6884 47.8883 68.6553 47.932C68.338 48.3514 68.0342 49.0486 67.7593 49.9615C67.4696 50.9245 67.2137 52.1172 67.0043 53.475C66.7999 54.8024 66.6335 56.2976 66.52 57.8936C66.4086 59.4494 66.3445 61.1003 66.3381 62.7824C66.3381 62.8359 66.3614 62.8874 66.398 62.924C66.4347 62.9628 66.4869 62.9868 66.5411 62.9868C66.5954 62.9868 66.6476 62.9642 66.6842 62.9276C66.7209 62.8909 66.7456 62.8387 66.7456 62.7838C66.7519 61.1039 66.8154 59.4712 66.9246 57.9443C67.0381 56.3617 67.2038 54.87 67.4096 53.537C67.6077 52.2392 67.846 51.1028 68.1082 50.192C68.3705 49.2819 68.6644 48.5897 68.9767 48.1773L68.9845 48.1674ZM55.0266 20.9022C55.0118 20.8487 54.9751 20.8049 54.93 20.7796C54.8835 20.7542 54.8278 20.7457 54.7756 20.7598L54.7615 20.7634C54.7143 20.7796 54.6755 20.8148 54.6529 20.8557C54.6276 20.9022 54.6191 20.9572 54.6332 21.0087L54.6473 21.0792C55.1647 24.1654 56.3498 29.112 58.2876 33.5412C59.632 36.6162 61.3386 39.4388 63.4288 41.1969C63.4753 41.2371 63.5303 41.2533 63.5832 41.2498C63.6339 41.2463 63.6868 41.2223 63.7235 41.18L63.7355 41.1652C63.7637 41.1264 63.7756 41.0778 63.7728 41.0305C63.7693 40.9805 63.746 40.9297 63.7051 40.8931L63.6847 40.8762C58.6873 36.7889 56.6261 27.8347 55.372 22.3876L55.0266 20.9022ZM55.2782 20.1684C55.4777 20.2819 55.6371 20.4736 55.7033 20.7147L56.0572 22.2311C57.293 27.5992 59.326 36.4301 64.1549 40.3531L64.181 40.3749C64.36 40.5406 64.4601 40.7591 64.4749 40.984C64.4905 41.2138 64.4171 41.4528 64.2529 41.6417L64.2381 41.6601C64.0738 41.837 63.8546 41.9371 63.6297 41.9519C63.3999 41.9674 63.1609 41.8941 62.972 41.7299C60.7902 39.8906 59.0243 36.9806 57.6433 33.8218C55.6723 29.3172 54.4704 24.2895 53.9487 21.1673C53.8923 20.9361 53.9311 20.6999 54.0411 20.5075C54.1553 20.308 54.3463 20.1494 54.5867 20.0831L54.6466 20.069C54.8694 20.0225 55.0935 20.0619 55.2782 20.1684ZM67.4921 33.0766L67.4978 33.1112C67.5809 33.6152 67.6747 34.115 67.779 34.6085C67.8848 35.1076 68.0025 35.5975 68.1294 36.0741C68.2556 36.5464 68.3944 37.006 68.5418 37.448C68.6884 37.8872 68.8498 38.3172 69.0218 38.7331C69.1177 38.9644 69.11 39.2132 69.0218 39.4261C68.933 39.6404 68.7624 39.823 68.5326 39.9181C68.3014 40.0147 68.0518 40.0077 67.8382 39.9196C67.6239 39.8314 67.4414 39.6601 67.3462 39.4289C67.1587 38.9792 66.9831 38.5097 66.821 38.0254C66.6603 37.5439 66.5108 37.0476 66.3755 36.5429C66.243 36.0445 66.1182 35.527 66.0061 34.9941C65.8947 34.4668 65.7939 33.924 65.703 33.3692C65.6628 33.1225 65.7269 32.8821 65.8623 32.6939C65.9969 32.5063 66.2056 32.3689 66.4523 32.3287L66.4869 32.3231C66.7258 32.2956 66.9514 32.3597 67.1284 32.488C67.3159 32.6241 67.4519 32.8313 67.4921 33.0766ZM66.7963 33.1782C66.7858 33.1288 66.7554 33.0851 66.7167 33.0576C66.6737 33.028 66.6194 33.0139 66.5665 33.0224L66.5545 33.0245C66.5045 33.0351 66.4601 33.0668 66.4319 33.1055C66.4023 33.1464 66.3882 33.2021 66.3966 33.2564C66.4855 33.7985 66.5848 34.3314 66.6941 34.8503C66.802 35.3628 66.9232 35.8675 67.055 36.361C67.1876 36.8559 67.3328 37.338 67.4879 37.8026C67.6437 38.2665 67.8129 38.7204 67.9954 39.1596C68.0159 39.2118 68.0575 39.2506 68.1047 39.2696C68.1519 39.2886 68.2097 39.2907 68.2619 39.2689C68.3141 39.2477 68.3528 39.2061 68.3719 39.1596C68.3916 39.1117 68.3937 39.0546 68.3726 39.0038C68.1949 38.5759 68.0286 38.1304 67.8749 37.6708C67.7212 37.2112 67.5788 36.7374 67.4498 36.256C67.3194 35.7674 67.1989 35.2655 67.091 34.7551C66.9838 34.2497 66.8866 33.7266 66.7984 33.1908L66.7963 33.1782ZM64.427 17.5129C64.427 17.4586 64.403 17.4064 64.3657 17.3697C64.329 17.3331 64.2769 17.3105 64.2226 17.3105C64.1683 17.3105 64.1161 17.3345 64.0802 17.3705C64.0428 17.4099 64.0196 17.4621 64.0196 17.515C64.0301 19.4451 64.1288 21.0073 64.2797 22.4496C64.4327 23.9011 64.6385 25.2228 64.8641 26.68L65.1313 28.4296C65.139 28.486 65.17 28.534 65.2102 28.5636C65.2532 28.5946 65.3075 28.6094 65.3625 28.6016C65.4175 28.5939 65.4661 28.5629 65.4971 28.5206C65.5267 28.4804 65.5422 28.4261 65.5359 28.3711L65.2652 26.6158C65.041 25.1615 64.8352 23.8412 64.6857 22.4193C64.5349 20.9875 64.4376 19.4345 64.427 17.5129ZM64.862 16.8706C65.0255 17.0328 65.1284 17.2605 65.1291 17.51C65.139 19.3986 65.2363 20.9304 65.385 22.3474C65.5352 23.7735 65.7382 25.0755 65.9603 26.5101L66.2317 28.2668C66.2669 28.5156 66.1999 28.756 66.0611 28.9421C65.9229 29.1268 65.7128 29.2615 65.464 29.2981C65.2165 29.3334 64.9762 29.2664 64.7901 29.1275C64.604 28.9887 64.4714 28.7786 64.4348 28.5312L64.1704 26.7871C63.9413 25.3103 63.7326 23.9695 63.5804 22.5215C63.4274 21.0644 63.3287 19.4811 63.3174 17.5178C63.3167 17.2654 63.4182 17.0363 63.5804 16.8742C63.7432 16.712 63.9709 16.6091 64.2198 16.6084C64.4693 16.6077 64.6984 16.7078 64.862 16.8706ZM57.7272 65.6134C57.73 65.5577 57.7103 65.5049 57.6757 65.4668C57.6433 65.4322 57.5989 65.4076 57.5517 65.4012L57.5326 65.3998C57.4777 65.397 57.4241 65.4174 57.3867 65.4513C57.3508 65.4851 57.3261 65.5316 57.3205 65.5817C57.1809 67.6726 57.1033 69.7853 56.9884 71.8804L56.7882 71.9671C56.3864 72.1405 56.0008 72.2702 55.6385 72.3464C55.262 72.4253 54.9039 72.4507 54.5698 72.4161C54.2363 72.3823 53.9191 72.2836 53.6251 72.1172C53.3347 71.9516 53.0675 71.7204 52.8285 71.4201L52.7531 71.3263V71.2008C52.7447 68.3134 52.959 65.6888 53.3756 63.2786C53.7929 60.8607 54.414 58.6528 55.2155 56.607C56.01 54.5796 56.9835 52.7073 58.1149 50.94C59.2435 49.1769 60.5315 47.5168 61.9548 45.9144L62.0584 45.7981L65.287 45.7791L71.1846 45.7107L74.6029 45.6938V72.4852L74.3978 72.7411C73.7682 73.3763 72.2399 73.6752 70.6552 73.6427C69.0945 73.6117 67.4421 73.2635 66.5285 72.6051C66.4164 72.5247 66.3141 72.4394 66.2281 72.3541L66.1217 72.2498L66.2465 65.9997C66.2465 65.9447 66.2253 65.8926 66.1894 65.8552C66.1534 65.8178 66.102 65.7932 66.0477 65.7925C65.992 65.7918 65.9391 65.8136 65.9025 65.8489C65.8644 65.8848 65.8397 65.937 65.839 65.992L65.7128 72.3104L65.679 72.3788C65.5627 72.6135 65.3181 72.7947 64.9825 72.9244C64.2332 73.2163 62.8973 73.3023 61.5706 73.2219C60.2467 73.1415 58.9059 72.892 58.1481 72.5148C57.7885 72.3358 57.5326 72.113 57.4297 71.8472L57.4022 71.7775L57.7272 65.6134ZM58.1974 64.9959C58.3511 65.1679 58.4413 65.3991 58.4293 65.6473L58.1135 71.6428C58.1706 71.7182 58.2926 71.8 58.4625 71.8846C59.1357 72.2202 60.3729 72.4443 61.6115 72.5198C62.8501 72.5952 64.0752 72.5233 64.7287 72.2688C64.8627 72.2173 64.9621 72.1631 65.0149 72.1095L65.1369 65.9779C65.1425 65.7276 65.249 65.5013 65.4146 65.3427C65.5803 65.1827 65.8101 65.0861 66.059 65.0903C66.3085 65.0946 66.5355 65.2017 66.6955 65.3674C66.8555 65.533 66.9528 65.7622 66.9486 66.0124L66.8309 71.9516L66.9387 72.0355C67.7325 72.6079 69.2319 72.9117 70.6693 72.9406C72.082 72.9695 73.408 72.7397 73.898 72.2462V46.3966L71.1903 46.4128L65.2927 46.4812L62.377 46.4995C61.0193 48.0384 59.7878 49.633 58.7071 51.3206C57.6003 53.0492 56.6479 54.8813 55.8711 56.8636C55.0858 58.8671 54.4774 61.0292 54.0693 63.3971C53.6646 65.7382 53.4538 68.2816 53.4552 71.0718C53.6167 71.2579 53.7901 71.4017 53.972 71.5053C54.1792 71.6231 54.4041 71.6929 54.6417 71.7168C54.9025 71.7436 55.1887 71.7225 55.4946 71.6583C55.7534 71.604 56.0262 71.518 56.3103 71.406L56.6176 65.5542C56.631 65.3061 56.7431 65.0847 56.9158 64.9296C57.0836 64.7795 57.3099 64.6899 57.5503 64.697L57.5679 64.6977C57.8196 64.7104 58.0423 64.8239 58.1974 64.9959ZM65.9356 72.7933L66.1421 72.7468L66.4093 72.9914C67.2299 73.6491 68.9161 74.0587 70.6178 74.089C72.3048 74.1186 73.9832 73.776 74.7996 72.9315C74.8743 72.8476 74.9335 72.7862 74.9941 72.6953L75.0096 72.6163L75.0118 11.2981C75.0118 11.2424 74.9885 11.1902 74.9518 11.1535C74.9152 11.1169 74.863 11.0936 74.8073 11.0936L74.7107 11.1169L74.5754 11.267C73.6632 12.1926 71.6879 12.6755 69.6556 12.6875C67.6394 12.6995 65.5352 12.2533 64.3438 11.3241L64.0893 11.1063L64.0174 11.0936L63.9808 11.0978C63.8236 11.377 63.5747 11.6237 63.2568 11.8373C62.3256 12.4612 60.7296 12.8236 59.0673 12.8856C57.4149 12.9476 55.6744 12.7164 54.4408 12.1574C53.8465 11.8881 53.3587 11.5377 53.0407 11.1042L52.9639 11.0943C52.9216 11.0964 52.8786 11.1134 52.8462 11.1401L52.8215 11.1592C52.4408 11.4235 52.0418 11.623 51.6308 11.7549C51.2149 11.8874 50.7835 11.9544 50.3394 11.9537C49.8798 11.9529 49.4025 11.881 48.9126 11.7408C48.4283 11.6005 47.9228 11.3918 47.4047 11.1169C47.3561 11.0908 47.299 11.088 47.2489 11.1028C47.1989 11.119 47.1544 11.1535 47.1291 11.2008L47.1086 11.2642L47.1093 11.3411C47.2447 12.6685 47.4117 14.0022 47.6232 15.3402C47.8333 16.6733 48.092 18.0211 48.4121 19.388C48.7314 20.7507 49.1149 22.1324 49.5738 23.5303C50.0334 24.9289 50.5699 26.343 51.1945 27.7712C51.8924 29.4102 52.6488 30.9456 53.451 32.3893C54.2518 33.8288 55.1041 35.1844 55.9938 36.4618C56.7875 37.601 57.6137 38.6817 58.4618 39.706C59.319 40.7422 60.191 41.7151 61.0686 42.6322L61.3542 42.9318L61.0137 43.1651C60.9114 43.2349 60.8205 43.3209 60.7437 43.4168C60.6612 43.519 60.5935 43.6332 60.5442 43.7509C60.5075 43.8398 60.4779 43.9342 60.4582 44.0315C60.4391 44.1337 60.4279 44.2352 60.4279 44.3318C60.4279 44.4298 60.4377 44.5327 60.4575 44.6342C60.4758 44.7301 60.5047 44.8253 60.5421 44.9155C60.6027 45.0586 60.6845 45.1933 60.786 45.3082C60.8804 45.4153 60.9982 45.5126 61.1356 45.5894L61.5114 45.8009L61.2294 46.1266C59.8858 47.6796 58.6669 49.2911 57.5947 51.0006C56.5253 52.7052 55.599 54.5105 54.8355 56.4597C54.0178 58.5463 53.3862 60.7979 52.9653 63.2638C52.5423 65.7375 52.3287 68.4297 52.3464 71.3883L52.3562 71.449L52.395 71.5223C52.6854 71.9241 53.0104 72.2286 53.3643 72.4408C53.7189 72.653 54.1094 72.7778 54.5282 72.8215C54.8954 72.8588 55.2846 72.8335 55.6906 72.7503C56.1037 72.6664 56.5415 72.5191 56.9969 72.3189L57.2753 72.1969L57.4375 72.4549C57.4918 72.5423 57.5714 72.6297 57.6694 72.7108C58.3687 73.2959 59.9041 73.6568 61.4768 73.7478C63.0545 73.838 64.6441 73.6568 65.4457 73.1577C65.5669 73.0816 65.6684 72.9977 65.7424 72.9103L65.8179 72.8201L65.9356 72.7933ZM70.6066 74.7911C68.8082 74.7594 66.9979 74.3131 66.0413 73.5962L65.8193 73.7541C64.8916 74.3322 63.1426 74.5479 61.4387 74.4499C59.7328 74.3512 58.0381 73.9353 57.2211 73.2536L57.0265 73.0703C56.619 73.2346 56.2193 73.3594 55.8316 73.4383C55.3551 73.5363 54.8954 73.5659 54.4563 73.5208C53.9353 73.4665 53.4482 73.3107 53.0034 73.0442C52.5628 72.7799 52.1631 72.4049 51.8113 71.9135L51.6372 71.671L51.6774 71.6308C51.6555 71.554 51.6428 71.4722 51.6428 71.3897C51.6259 68.3846 51.843 65.6529 52.2716 63.1454C52.701 60.6302 53.346 58.3327 54.1799 56.2031C54.9589 54.2137 55.9056 52.3689 56.9997 50.6256C58.0233 48.995 59.1773 47.4505 60.4469 45.9595L60.2601 45.7734C60.1029 45.5958 59.9795 45.3956 59.8928 45.1876C59.8371 45.053 59.7941 44.9127 59.7666 44.7696C59.7391 44.6286 59.725 44.4791 59.7257 44.329C59.7264 44.181 59.7405 44.035 59.768 43.8962C59.7983 43.753 59.8413 43.6121 59.897 43.4788C59.9732 43.2977 60.0747 43.1256 60.1952 42.9755L60.3066 42.8486C59.4882 41.9829 58.6888 41.0855 57.919 40.1543C57.0596 39.1159 56.2207 38.0197 55.4157 36.8636C54.5169 35.5729 53.6526 34.1982 52.8363 32.7305C52.0221 31.2656 51.2551 29.7084 50.5488 28.049C49.9122 26.5926 49.3687 25.1594 48.9041 23.7474C48.4403 22.3347 48.0518 20.934 47.7269 19.5473C47.4061 18.1797 47.1446 16.8128 46.9296 15.4502C46.716 14.1002 46.5475 12.758 46.4114 11.4264C46.398 11.334 46.3994 11.2381 46.415 11.1444C46.4305 11.0513 46.4622 10.9611 46.5059 10.8772C46.6236 10.6537 46.821 10.4993 47.0402 10.431C47.2616 10.3626 47.5083 10.3788 47.7304 10.4951C48.209 10.7482 48.6687 10.9385 49.1057 11.0647C49.5372 11.1874 49.9503 11.2515 50.3394 11.2515C50.7088 11.2515 51.0704 11.1958 51.4165 11.0859C51.7598 10.9752 52.094 10.8081 52.4147 10.5868C52.5614 10.4704 52.7418 10.4028 52.923 10.3922C53.1077 10.3809 53.2994 10.426 53.4672 10.5339L53.5264 10.5727L53.5687 10.6347C53.8056 10.9879 54.2138 11.2825 54.7298 11.5159C55.8647 12.0298 57.4882 12.242 59.0419 12.1835C60.5851 12.1264 62.0443 11.8042 62.8663 11.2536C63.1222 11.0816 63.3097 10.8906 63.4027 10.684L63.4464 10.5875L63.536 10.5311C63.6741 10.4444 63.8349 10.3957 63.9977 10.3915C64.1591 10.3887 64.3213 10.426 64.4679 10.5092C64.5666 10.567 64.6857 10.6904 64.7738 10.7672C65.8376 11.5984 67.7748 11.9967 69.6528 11.9854C71.5152 11.9741 73.2966 11.5617 74.0728 10.7757C74.1299 10.7108 74.1919 10.6248 74.2603 10.5734C74.3399 10.5134 74.4288 10.4648 74.5204 10.4352C74.6114 10.4049 74.7086 10.3887 74.8073 10.3887C75.0583 10.3887 75.2867 10.4902 75.4509 10.6544C75.6152 10.8187 75.7167 11.0471 75.7167 11.2981V72.9688H75.6434C75.6018 73.0682 75.5391 73.1648 75.4559 73.2494L75.3057 73.4193C74.3414 74.4168 72.4648 74.8242 70.6066 74.7911ZM61.9216 45.3871C61.6834 45.3779 61.4825 45.3159 61.3231 45.22C61.1314 45.1037 60.9975 44.9388 60.9206 44.7569C60.8924 44.6899 60.8706 44.618 60.8565 44.5475C60.841 44.4756 60.8332 44.4023 60.8332 44.3304L60.8558 44.1182C60.8684 44.0463 60.891 43.9744 60.9192 43.9081C60.9918 43.7389 61.1131 43.5895 61.2801 43.4859C61.4247 43.3949 61.6044 43.3399 61.8145 43.3371L74.6029 43.3378V45.2828H74.2504C72.3865 45.2856 70.4797 45.311 68.5749 45.3342L68.2556 45.3378C66.2599 45.3631 64.2557 45.3878 61.971 45.3878L61.9216 45.3871ZM61.6862 44.6166C61.7489 44.654 61.8356 44.6793 61.9428 44.685L61.971 44.6829C64.4637 44.6829 66.3635 44.6589 68.2471 44.6356L68.5664 44.6321C70.3514 44.6103 72.1377 44.587 73.898 44.5814V44.0428H61.7715C61.7235 44.0491 61.6827 44.0632 61.6516 44.083C61.6115 44.1069 61.5826 44.1429 61.5663 44.1817L61.5459 44.2507L61.5381 44.3304L61.5459 44.4094L61.5678 44.4848C61.5889 44.5348 61.6284 44.5828 61.6862 44.6166ZM61.9259 42.9297L61.8229 42.8239C60.8607 41.8412 59.9154 40.8071 58.9996 39.7151C58.0811 38.6189 57.1865 37.4586 56.3293 36.2285C55.4495 34.9645 54.6036 33.6195 53.8063 32.1856C53.0097 30.7538 52.2604 29.2333 51.5709 27.614C50.9478 26.1907 50.4155 24.7879 49.9622 23.4069C49.5083 22.0252 49.1283 20.6534 48.8104 19.295C48.5319 18.1071 48.2986 16.9235 48.1033 15.7477C47.908 14.5746 47.748 13.4094 47.6169 12.2547L47.5499 11.671L48.0977 11.8895C48.4896 12.046 48.8745 12.1644 49.2481 12.242C49.621 12.3202 49.9862 12.3604 50.3394 12.3604C50.7743 12.3604 51.2001 12.3026 51.6111 12.1856C52.0221 12.0686 52.4204 11.8909 52.8018 11.6562L53.0901 11.4785L53.2783 11.7598C53.3509 11.8684 53.4538 11.9755 53.58 12.0791C54.4316 12.7735 56.2384 13.1986 58.134 13.2564C60.0373 13.3156 62.0083 13.0033 63.1715 12.2272C63.4013 12.0735 63.6001 11.9001 63.7545 11.7112L64.0062 11.4024L64.3121 11.7217C65.0819 12.5077 66.9987 13.04 68.9838 13.1464C70.9668 13.2529 72.99 12.9335 73.9677 12.0206L74.6029 11.4172V42.9297H61.9259ZM62.2205 42.2247H73.898V12.9469C72.6833 13.6864 70.7884 13.9479 68.9485 13.8485C66.9775 13.7421 65.0396 13.2183 64.047 12.426C63.9011 12.5648 63.739 12.6931 63.562 12.8109C62.2699 13.673 60.1445 14.0213 58.1142 13.9585C56.0769 13.8958 54.1052 13.4157 53.1359 12.6248C53.0506 12.5564 52.9731 12.4845 52.9026 12.4098C52.5466 12.6036 52.18 12.7552 51.8043 12.8623C51.3334 12.9963 50.8434 13.0632 50.3394 13.0625C49.9347 13.0618 49.5216 13.0174 49.1043 12.93C48.866 12.8807 48.625 12.8165 48.3825 12.739C48.4988 13.6998 48.6362 14.6649 48.797 15.6321C48.9887 16.7868 49.2192 17.9549 49.4956 19.1356C49.8079 20.4708 50.1829 21.8229 50.6319 23.1898C51.081 24.5567 51.6041 25.9384 52.2145 27.332L52.2181 27.3391C52.8976 28.9351 53.6364 30.4338 54.421 31.8444C55.2028 33.2515 56.0375 34.5768 56.9074 35.8266C57.7533 37.0406 58.6352 38.1847 59.5396 39.264C60.4145 40.3073 61.3119 41.2914 62.2205 42.2247Z" fill="black"/>
<path fill-rule="evenodd" clip-rule="evenodd" d="M15.4362 48.3683C15.2599 48.118 15.3191 47.7726 15.5694 47.5964C15.819 47.4194 16.1644 47.4793 16.3413 47.7289C17.6779 49.6181 18.772 51.862 19.6778 54.3448C20.578 56.8114 21.295 59.517 21.8829 62.3452C21.9456 62.6455 21.7525 62.9395 21.4522 63.0015C21.1526 63.0643 20.8579 62.8718 20.7959 62.5715C20.2178 59.7912 19.5143 57.1364 18.6338 54.7226C17.7583 52.3244 16.71 50.1673 15.4362 48.3683ZM10.5636 48.3894C10.3782 48.1462 10.4261 47.798 10.67 47.6133C10.9139 47.4286 11.2615 47.4758 11.4462 47.7197C12.1448 48.6418 12.7461 50.7073 13.1648 53.4213C13.5702 56.0451 13.8197 59.3224 13.8338 62.7809C13.8345 63.0875 13.5878 63.3364 13.2811 63.3378C12.9752 63.3392 12.7256 63.0918 12.7242 62.7851C12.7108 59.4014 12.4648 56.1812 12.0644 53.5905C11.6717 51.0457 11.1452 49.1571 10.5636 48.3894ZM24.456 20.8084C24.5377 20.513 24.8437 20.3396 25.1391 20.4214C25.4344 20.5025 25.6078 20.8084 25.5261 21.1038C24.647 26.3676 21.8251 37.0835 16.6177 41.4654C16.3857 41.6671 16.0347 41.6424 15.8331 41.4112C15.6307 41.1792 15.6554 40.8275 15.8873 40.6258C21.2992 36.2291 23.2385 25.9087 24.456 20.8084ZM12.6756 33.1344C12.7242 32.832 13.0097 32.6261 13.3122 32.6755C13.6153 32.7248 13.8204 33.0103 13.7711 33.3127C13.5913 34.411 13.3714 35.46 13.1056 36.4519C12.837 37.4529 12.5212 38.4031 12.1504 39.2942C12.0327 39.5776 11.7077 39.7115 11.4243 39.5938C11.1409 39.4768 11.0063 39.1511 11.124 38.8677C11.4744 38.0253 11.7747 37.1216 12.0313 36.1649C12.29 35.1992 12.5029 34.1862 12.6756 33.1344ZM15.0428 17.5114C15.0442 17.2054 15.2938 16.958 15.5997 16.9594C15.9064 16.9608 16.1531 17.2097 16.1524 17.5163C16.1298 21.4125 15.7597 23.7988 15.3036 26.7335C15.2346 27.1804 15.1626 27.6436 15.0379 28.4803C14.9935 28.7842 14.7115 28.9942 14.4076 28.9498C14.1038 28.9054 13.893 28.6227 13.9374 28.3189C13.996 27.9291 14.1038 27.234 14.2074 26.5636C14.6565 23.674 15.0217 21.3237 15.0428 17.5114ZM21.7426 65.631C21.7271 65.325 21.9626 65.0642 22.2692 65.0487C22.5752 65.0325 22.8367 65.2686 22.8522 65.5746L23.1716 71.6449C23.9315 71.9741 24.6188 72.1285 25.2152 72.0664C25.7883 72.0072 26.2938 71.733 26.7167 71.2008C26.7336 65.4703 25.8652 60.7859 24.2776 56.7353C22.7063 52.7248 20.4272 49.3284 17.6032 46.1484C15.5743 46.1463 13.4997 46.1202 11.4257 46.0941C9.59427 46.0708 7.76211 46.0483 5.57043 46.0448V72.3731C6.5207 73.6927 11.8501 73.587 13.3446 72.1045L13.2233 66.0067C13.2177 65.7001 13.4609 65.447 13.7676 65.4414C14.0735 65.435 14.3266 65.6782 14.3329 65.9849L14.457 72.2215C15.0322 73.3762 21.5833 72.954 22.0634 71.7203L21.7426 65.631ZM13.8084 73.1358C13.8007 73.1344 13.7936 73.133 13.7866 73.1309C12.1737 74.6895 6.29441 75.1019 4.62439 73.0125C4.51371 72.9032 4.45873 72.7601 4.45873 72.6163H4.45661V11.298C4.45661 10.9899 4.70616 10.7411 5.01352 10.7411C5.13971 10.7411 5.25602 10.7834 5.34978 10.8539C6.87176 12.8037 13.4405 12.87 15.5264 10.8151C15.7111 10.7101 15.9303 10.7227 16.0974 10.8285C17.0731 12.9814 24.924 13.2464 26.544 10.8299C26.7527 10.696 27.0177 10.7192 27.1989 10.8701C27.9053 11.3607 28.6666 11.6032 29.4815 11.6025C30.3324 11.6011 31.2566 11.3346 32.2527 10.8059C32.5241 10.6635 32.8596 10.7672 33.0027 11.0393C33.0591 11.1464 33.0775 11.2634 33.0613 11.3755C32.7891 14.0416 32.393 16.731 31.7515 19.4676C31.1057 22.219 30.2126 25.0247 28.9486 27.9114C27.5443 31.2078 25.906 34.0931 24.1162 36.6626C22.5159 38.9601 20.7924 41.0086 19.0053 42.8746C19.2767 43.0607 19.4755 43.3209 19.6003 43.6148C19.6948 43.8397 19.7434 44.0843 19.7441 44.3303C19.7448 44.5778 19.6983 44.8245 19.6031 45.0515C19.4593 45.3941 19.2119 45.6972 18.8573 45.8967C21.5699 49.033 23.7701 52.3928 25.3132 56.3313C26.9656 60.549 27.8623 65.4237 27.8256 71.3897C27.8249 71.5088 27.7868 71.6188 27.7227 71.709C27.0777 72.6121 26.2705 73.0731 25.3287 73.1711C24.5215 73.255 23.6347 73.0597 22.6823 72.641C21.6369 74.3187 15.1062 74.6888 13.8084 73.1358ZM17.8852 45.036C18.2574 45.0212 18.4837 44.8428 18.5767 44.6208C18.6162 44.527 18.6352 44.4276 18.6352 44.3303C18.6352 44.2323 18.6155 44.1344 18.5781 44.0455C18.4935 43.846 18.3004 43.6924 18.0022 43.6881L17.9789 43.6888V43.6902H5.57043V44.9317C7.50128 44.9352 9.4702 44.9606 11.4391 44.9852C13.4228 45.0099 15.4073 45.0353 17.8499 45.0353C17.8619 45.0353 17.8739 45.0353 17.8852 45.036ZM5.57043 42.5771H17.7477C19.6553 40.6294 21.4987 38.4743 23.2026 36.0275C24.9544 33.5122 26.556 30.6925 27.9264 27.4765L27.9285 27.4723C29.1622 24.6553 30.0363 21.9109 30.668 19.2152C31.2235 16.8452 31.5921 14.5182 31.8544 12.2158C31.0324 12.5443 30.2415 12.71 29.4815 12.7114C28.5397 12.7128 27.6571 12.4618 26.8345 11.955C25.5042 13.9486 17.7942 14.3842 15.7936 11.9324C14.1715 13.6701 7.6465 14.2665 5.57043 12.237V42.5771Z" fill="black"/>
<path d="M15.1492 48.5706C15.0047 48.3662 14.9561 48.1216 14.9963 47.8939C15.0357 47.6669 15.164 47.4526 15.3671 47.3088C15.5701 47.1657 15.814 47.117 16.0417 47.1558C16.2687 47.1946 16.483 47.3222 16.6275 47.5252C17.3064 48.4868 17.9246 49.5364 18.485 50.6573C19.044 51.7732 19.5502 52.9688 20.0084 54.225C20.4582 55.4594 20.867 56.7642 21.2357 58.117C21.6044 59.4684 21.9336 60.86 22.2269 62.2734L22.2353 62.3227C22.2699 62.5504 22.2156 62.776 22.0965 62.9565C21.9689 63.1503 21.768 63.2941 21.5269 63.3456L21.4754 63.3541C21.247 63.3886 21.0221 63.335 20.8424 63.2173C20.6499 63.0897 20.5026 62.8881 20.4518 62.6463L20.4434 62.6068C20.1565 61.2272 19.8392 59.8857 19.4896 58.602C19.1364 57.3056 18.7416 56.0473 18.3031 54.8425C17.8717 53.6596 17.3952 52.5317 16.8693 51.4778C16.3434 50.4239 15.7717 49.449 15.1492 48.5706ZM15.6899 48.0144C15.6815 48.0652 15.6927 48.1216 15.7238 48.166C16.373 49.0867 16.9645 50.0905 17.4995 51.1634C18.0346 52.2364 18.5217 53.3889 18.9644 54.6029C19.4043 55.8111 19.804 57.0885 20.1663 58.4173C20.528 59.744 20.8515 61.1109 21.1398 62.4997C21.1511 62.5554 21.185 62.6012 21.2266 62.6287C21.2703 62.6562 21.326 62.6682 21.3788 62.6576L21.3915 62.6548C21.4423 62.6414 21.4839 62.6103 21.5085 62.5716C21.5374 62.5265 21.5494 62.4722 21.5388 62.4186L21.5304 62.3784C21.2385 60.977 20.9164 59.6115 20.559 58.3017C20.1987 56.9806 19.7955 55.6948 19.3472 54.4647C18.9002 53.2395 18.404 52.0686 17.8562 50.9717C17.3113 49.879 16.7114 48.8597 16.0558 47.932C16.0234 47.8876 15.974 47.8579 15.9233 47.8495C15.8732 47.841 15.8168 47.8523 15.7717 47.884C15.7273 47.915 15.6984 47.9644 15.6899 48.0144ZM10.3013 48.6263L10.2816 48.6003C10.1321 48.4022 10.0771 48.1611 10.1075 47.9327C10.1378 47.7148 10.2456 47.5076 10.4261 47.3588L10.4578 47.3328C10.6559 47.1826 10.8998 47.1262 11.1282 47.1579C11.3573 47.1897 11.5759 47.3088 11.7267 47.5076C12.0968 47.9968 12.4387 48.7694 12.7369 49.7599C13.0358 50.7517 13.2987 51.9777 13.513 53.3678C13.7196 54.7072 13.8874 56.2214 14.003 57.8442C14.1137 59.3986 14.1778 61.0644 14.1849 62.7795C14.1856 63.0312 14.0848 63.2603 13.9219 63.4231C13.7591 63.5853 13.5314 63.6882 13.2825 63.6889C13.033 63.6896 12.8039 63.5895 12.6403 63.4267C12.4768 63.2638 12.3739 63.0368 12.3732 62.7866C12.3675 61.1405 12.3041 59.5227 12.1941 57.9937C12.0813 56.4153 11.9185 54.9441 11.7176 53.6441C11.5195 52.3654 11.2882 51.2586 11.038 50.3866C10.8039 49.5794 10.5551 48.9732 10.3013 48.6263ZM10.8039 48.0271C10.7983 48.0751 10.8082 48.1258 10.8364 48.1674L10.8441 48.1773C11.1564 48.5897 11.4504 49.2819 11.7126 50.1906C11.9749 51.1028 12.2131 52.2392 12.4126 53.537C12.6171 54.87 12.7827 56.3617 12.8962 57.9443C13.0055 59.4712 13.0689 61.1039 13.0753 62.7838C13.0753 62.8387 13.0999 62.8909 13.1366 62.9276C13.1733 62.9642 13.2254 62.9868 13.2797 62.9868C13.334 62.9868 13.3862 62.9628 13.4221 62.9269C13.4595 62.8874 13.4827 62.8359 13.4827 62.7824C13.4764 61.1003 13.4122 59.4494 13.3009 57.8936C13.1874 56.2976 13.021 54.8024 12.8166 53.475C12.6072 52.1172 12.3513 50.9245 12.0616 49.9615C11.7866 49.0486 11.4828 48.3514 11.1656 47.932C11.1324 47.8883 11.0838 47.8608 11.0338 47.8544C10.983 47.8474 10.9294 47.8601 10.8864 47.8911C10.8385 47.927 10.811 47.9771 10.8039 48.0271ZM24.1175 20.7147C24.1838 20.4736 24.3431 20.2819 24.5426 20.1684C24.7273 20.0619 24.9515 20.0225 25.1742 20.069L25.2342 20.0831C25.4746 20.1494 25.6656 20.308 25.7791 20.5075C25.8898 20.6999 25.9285 20.9361 25.8721 21.1673C25.3505 24.2895 24.1486 29.3172 22.1775 33.8218C20.7965 36.9806 19.0307 39.8906 16.8488 41.7299C16.6599 41.8941 16.4209 41.9674 16.1911 41.9519C15.9663 41.9371 15.747 41.837 15.5842 41.6601L15.568 41.6417C15.4037 41.4528 15.3304 41.2138 15.3459 40.984C15.3607 40.7591 15.4608 40.5406 15.6378 40.3778L15.6659 40.3531C20.4948 36.4301 22.5279 27.5992 23.7637 22.2311L24.1175 20.7147ZM24.8916 20.7796C24.8457 20.8049 24.8091 20.8487 24.7943 20.9022L24.4489 22.3876C23.1948 27.8347 21.1335 36.7889 16.1369 40.8755L16.1157 40.8931C16.0748 40.9297 16.0516 40.9805 16.048 41.0305C16.0452 41.0778 16.0572 41.1264 16.0854 41.1652L16.0974 41.18C16.134 41.2223 16.1869 41.2463 16.2377 41.2498C16.2905 41.2533 16.3455 41.2371 16.3864 41.2011C18.4822 39.4388 20.1889 36.6162 21.5332 33.5412C23.4711 29.112 24.6561 24.1654 25.1735 21.0792L25.1876 21.0087C25.2017 20.9572 25.1933 20.9022 25.1679 20.8571C25.1453 20.8148 25.1066 20.7796 25.0593 20.7634L25.0452 20.7598C24.9931 20.7457 24.9374 20.7542 24.8916 20.7796ZM12.3231 33.1119L12.3287 33.0766C12.3689 32.8313 12.505 32.6241 12.6932 32.4887C12.8694 32.3597 13.095 32.2956 13.3269 32.3231L13.3685 32.3287C13.6153 32.3689 13.8239 32.5063 13.9586 32.6924C14.0939 32.8821 14.1581 33.1225 14.1179 33.3692C14.027 33.924 13.9261 34.4668 13.8148 34.9941C13.7027 35.527 13.5779 36.0445 13.4454 36.5429C13.31 37.0476 13.1606 37.5439 12.9998 38.0254C12.8377 38.5097 12.6622 38.9792 12.4754 39.4289C12.3795 39.6601 12.1969 39.8314 11.9826 39.9196C11.769 40.0077 11.5195 40.0147 11.2896 39.9188C11.0584 39.823 10.8878 39.6404 10.799 39.4261C10.7109 39.2132 10.7031 38.9644 10.7983 38.7345C10.971 38.3172 11.1324 37.8872 11.2791 37.448C11.4264 37.006 11.5653 36.5464 11.6915 36.0741C11.8184 35.5975 11.9361 35.1076 12.0418 34.6085C12.1462 34.115 12.2399 33.6152 12.3231 33.1119ZM13.1049 33.0576C13.0654 33.0851 13.0351 33.1288 13.0245 33.1782L13.0224 33.1908C12.9343 33.7266 12.837 34.2497 12.7299 34.7551C12.622 35.2655 12.5015 35.7674 12.371 36.256C12.242 36.7374 12.0996 37.2112 11.946 37.6708C11.7923 38.1304 11.6259 38.5759 11.449 39.0024C11.4271 39.0546 11.4292 39.1117 11.449 39.1596C11.468 39.2061 11.5068 39.2477 11.5575 39.2682C11.6111 39.2907 11.6689 39.2886 11.7161 39.2696C11.7634 39.2506 11.805 39.2118 11.8254 39.161C12.008 38.7204 12.1772 38.2665 12.333 37.8026C12.4881 37.338 12.6333 36.8559 12.7658 36.361C12.8976 35.8675 13.0189 35.3628 13.1267 34.8503C13.236 34.3314 13.3354 33.7985 13.4242 33.2564C13.4327 33.2021 13.4186 33.1464 13.3897 33.1048C13.3608 33.0668 13.3164 33.0351 13.2663 33.0245L13.2543 33.0224C13.2015 33.0139 13.1472 33.028 13.1049 33.0576ZM14.6917 17.51C14.6924 17.2605 14.7953 17.0328 14.9589 16.8706C15.1224 16.7078 15.3515 16.6077 15.6011 16.6084C15.8499 16.6091 16.0776 16.712 16.2398 16.8749C16.4026 17.0363 16.5041 17.2654 16.5034 17.5178C16.4921 19.4811 16.3935 21.0644 16.2405 22.5215C16.0882 23.9695 15.8795 25.3103 15.6504 26.7871L15.3861 28.5312C15.3494 28.7786 15.2169 28.9887 15.0301 29.1268C14.8447 29.2664 14.6043 29.3334 14.3583 29.2981C14.108 29.2615 13.8979 29.1268 13.7598 28.9421C13.6209 28.756 13.5539 28.5156 13.5892 28.2696L13.8592 26.5115C14.0826 25.0755 14.2857 23.7735 14.4358 22.3474C14.5846 20.9304 14.6818 19.3986 14.6917 17.51ZM15.4552 17.3697C15.4178 17.4064 15.3938 17.4586 15.3938 17.5129C15.3833 19.4345 15.286 20.9875 15.1351 22.4193C14.9857 23.8412 14.7798 25.1615 14.5543 26.6158L14.2857 28.3711C14.2786 28.4261 14.2941 28.4804 14.3237 28.5206C14.3548 28.5629 14.4034 28.5939 14.4584 28.6016C14.5134 28.6094 14.5676 28.5946 14.6092 28.5636C14.6508 28.534 14.6818 28.486 14.6896 28.4296L14.9568 26.68C15.1824 25.2228 15.3882 23.9011 15.5412 22.4496C15.692 21.0073 15.7907 19.4451 15.8013 17.515C15.8013 17.4621 15.778 17.4099 15.7414 17.3733C15.7047 17.3345 15.6526 17.3105 15.5983 17.3105C15.544 17.3105 15.4918 17.3331 15.4552 17.3697ZM21.3915 65.648C21.3795 65.3991 21.4698 65.1679 21.6241 64.9966C21.7785 64.8239 22.0013 64.7104 22.253 64.6977L22.2692 64.6963C22.511 64.6899 22.7373 64.7795 22.9043 64.9303C23.0777 65.0847 23.1898 65.3061 23.2032 65.5542L23.5106 71.406C23.7947 71.518 24.0675 71.604 24.3262 71.6583C24.6321 71.7225 24.9184 71.7436 25.1792 71.7168C25.4168 71.6929 25.6416 71.6231 25.8489 71.5053C26.0308 71.4017 26.2042 71.2579 26.3656 71.0718C26.367 68.2816 26.1562 65.7382 25.7516 63.3971C25.3434 61.0292 24.7351 58.8671 23.9498 56.8636C23.1729 54.8813 22.2205 53.0492 21.1138 51.3206C20.0331 49.633 18.8015 48.0384 17.4438 46.4995L14.5282 46.4812L8.6306 46.4128L5.9229 46.3966V72.2462C6.41284 72.7397 7.73884 72.9695 9.15155 72.9406C10.5889 72.9117 12.0884 72.6079 12.8821 72.0355L12.99 71.9516L12.8723 66.0138C12.868 65.7622 12.9653 65.533 13.1253 65.3674C13.2854 65.2017 13.5123 65.0946 13.7619 65.0903C14.0107 65.0861 14.2406 65.1827 14.4062 65.3427C14.5719 65.5013 14.6783 65.7276 14.684 65.9779L14.8059 72.1095C14.8588 72.1631 14.9582 72.2173 15.0921 72.2688C15.7456 72.5233 16.9708 72.5952 18.2094 72.5198C19.448 72.4443 20.6852 72.2202 21.3584 71.8846C21.5283 71.8 21.6502 71.7182 21.7073 71.6428L21.3915 65.648ZM22.1458 65.4668C22.1106 65.5049 22.0908 65.5577 22.0936 65.6134L22.4186 71.7775L22.3911 71.8472C22.2882 72.113 22.0323 72.3358 21.6728 72.5148C20.915 72.892 19.5742 73.1415 18.2503 73.2219C16.9236 73.3023 15.5877 73.2163 14.8383 72.9244C14.5028 72.7947 14.2582 72.6135 14.1419 72.3788L14.108 72.3104L13.9818 65.992C13.9811 65.937 13.9565 65.8848 13.9184 65.8489C13.8817 65.8136 13.8289 65.7918 13.7732 65.7925C13.7189 65.7932 13.6674 65.8178 13.6315 65.8552C13.5955 65.8926 13.5744 65.9447 13.5744 65.9997L13.6992 72.2498L13.5927 72.3541C13.5067 72.4394 13.4045 72.5247 13.2924 72.6051C12.3788 73.2635 10.7264 73.6117 9.16565 73.6427C7.58093 73.6752 6.05261 73.3763 5.4238 72.7425L5.21796 72.4852V45.6938L8.63624 45.7107L14.5338 45.7791L17.7625 45.7981L17.8661 45.9144C19.2894 47.5168 20.5773 49.1769 21.7059 50.94C22.8374 52.7073 23.8109 54.5796 24.6054 56.607C25.4069 58.6528 26.0279 60.8607 26.4453 63.2786C26.8619 65.6888 27.0762 68.3134 27.0677 71.2008V71.3263L26.9923 71.4201C26.7533 71.7204 26.4862 71.9516 26.1957 72.1172C25.9018 72.2836 25.5845 72.3823 25.2511 72.4161C24.9169 72.4507 24.5588 72.4253 24.1824 72.3464C23.82 72.2702 23.4344 72.1405 23.0326 71.9671L22.8324 71.8804C22.7175 69.7853 22.64 67.6726 22.5004 65.5817C22.4948 65.5316 22.4701 65.4851 22.4341 65.4527C22.3968 65.4174 22.3432 65.397 22.2882 65.3998L22.2706 65.4012C22.2219 65.4076 22.1775 65.4322 22.1458 65.4668ZM13.8634 72.7884L14.003 72.8201L14.0784 72.9103C14.1524 72.9977 14.2539 73.0816 14.3752 73.1584C15.1767 73.6568 16.7664 73.838 18.344 73.7478C19.9168 73.6568 21.4521 73.2959 22.15 72.7122C22.2494 72.6297 22.3291 72.5423 22.3834 72.4549L22.5455 72.1969L22.824 72.3189C23.2794 72.5191 23.7171 72.6664 24.1302 72.7503C24.5363 72.8335 24.9254 72.8588 25.2927 72.8215C25.7114 72.7778 26.102 72.653 26.4565 72.4408C26.8104 72.2286 27.1354 71.9241 27.4258 71.5223L27.4639 71.449L27.4731 71.3897C27.4921 68.4297 27.2785 65.7375 26.8555 63.2638C26.4347 60.7979 25.8031 58.5463 24.9853 56.4597C24.2219 54.5105 23.2956 52.7052 22.2262 51.0006C21.1539 49.2911 19.9351 47.6796 18.5915 46.1266L18.3095 45.8009L18.6852 45.5894C18.8227 45.5126 18.9404 45.4153 19.0349 45.3082C19.1364 45.1933 19.2182 45.0586 19.2781 44.9155C19.3162 44.8253 19.3451 44.7301 19.3634 44.6356C19.3831 44.5327 19.393 44.4298 19.393 44.3318C19.393 44.2352 19.3817 44.1337 19.362 44.0315C19.3429 43.9342 19.3133 43.8398 19.2767 43.7509C19.2273 43.6332 19.1597 43.519 19.0772 43.4168C19.0003 43.3209 18.9094 43.2349 18.8072 43.1651L18.4667 42.9318L18.7522 42.6322C19.6299 41.7151 20.5019 40.7422 21.3591 39.706C22.2071 38.6817 23.0333 37.601 23.8271 36.4618C24.7167 35.1844 25.569 33.8288 26.3698 32.3893C27.1721 30.9456 27.9285 29.4102 28.625 27.774C29.2509 26.343 29.7874 24.9289 30.247 23.5303C30.706 22.1324 31.0894 20.7507 31.4088 19.388C31.7288 18.0211 31.9875 16.6733 32.1976 15.3416C32.4091 14.0022 32.5762 12.6685 32.7115 11.3411L32.7122 11.2642L32.6904 11.2015C32.6664 11.1535 32.622 11.119 32.5719 11.1035C32.5219 11.088 32.4648 11.0908 32.4162 11.1162C31.898 11.3918 31.3926 11.6005 30.9083 11.7401C30.4183 11.881 29.9411 11.9529 29.4815 11.9537C29.0374 11.9544 28.6059 11.8874 28.1914 11.7549C27.779 11.623 27.38 11.4235 26.9994 11.1592L26.9747 11.1401C26.9423 11.1134 26.8993 11.0964 26.857 11.0943L26.7801 11.1042C26.4622 11.5377 25.9744 11.8881 25.3801 12.1574C24.1464 12.7164 22.4059 12.9476 20.7535 12.8856C19.0913 12.8236 17.4953 12.4612 16.564 11.8373C16.2461 11.6237 15.9973 11.377 15.8401 11.0978L15.8034 11.0936L15.7315 11.1063L15.477 11.3241C14.2857 12.2533 12.1814 12.6995 10.1653 12.6875C8.1329 12.6755 6.15765 12.1926 5.24686 11.2684L5.1101 11.1169L5.01352 11.0936C4.95783 11.0936 4.90567 11.1169 4.86901 11.1535C4.83235 11.1902 4.80909 11.2424 4.80909 11.2981L4.8112 72.6163L4.8253 72.6953C4.88593 72.7841 4.94655 72.8476 5.01987 72.93C5.8376 73.776 7.51608 74.1186 9.20301 74.089C10.9047 74.0587 12.591 73.6491 13.4101 72.9942L13.6787 72.7468L13.8634 72.7884ZM13.7795 73.5962C12.8229 74.3131 11.0126 74.7594 9.21429 74.7911C7.35606 74.8242 5.47949 74.4168 4.51513 73.4193L4.36497 73.2494C4.28179 73.1648 4.21905 73.0682 4.17746 72.9688H4.10414V11.2981C4.10414 11.0471 4.20566 10.8187 4.36991 10.6544C4.53416 10.4902 4.76256 10.3887 5.01352 10.3887C5.11222 10.3887 5.2095 10.4049 5.30044 10.4359C5.39208 10.4648 5.4809 10.5134 5.56056 10.5734C5.62894 10.6241 5.69168 10.7108 5.74808 10.7757C6.52422 11.5617 8.30562 11.9741 10.1681 11.9854C12.0461 11.9967 13.9832 11.5984 15.0456 10.7686C15.1344 10.6911 15.2536 10.5677 15.353 10.5092C15.4996 10.426 15.6617 10.3887 15.8203 10.3915C15.986 10.3957 16.1467 10.4444 16.2849 10.5311L16.3744 10.5875L16.4181 10.684C16.5112 10.8906 16.6987 11.0816 16.9546 11.2536C17.7766 11.8042 19.2358 12.1264 20.7789 12.1835C22.3326 12.242 23.9561 12.0298 25.0911 11.5159C25.6071 11.2825 26.0153 10.9879 26.2521 10.6347L26.2944 10.5727L26.3536 10.5339C26.5214 10.426 26.7131 10.3809 26.8978 10.3922C27.079 10.4028 27.2595 10.4704 27.4061 10.5868C27.7269 10.8081 28.061 10.9752 28.4043 11.0852C28.7504 11.1958 29.1121 11.2515 29.4815 11.2515C29.8706 11.2515 30.2837 11.1874 30.7151 11.064C31.1522 10.9385 31.6118 10.7482 32.0891 10.4951C32.3125 10.3788 32.5593 10.3626 32.7792 10.431C32.9998 10.4993 33.1972 10.6537 33.3135 10.8772C33.3587 10.9611 33.3904 11.0513 33.4059 11.143C33.4214 11.2381 33.4228 11.334 33.4094 11.4264C33.2734 12.758 33.1049 14.1002 32.8913 15.4502C32.6763 16.8128 32.4147 18.1797 32.094 19.5473C31.769 20.934 31.3806 22.3347 30.9167 23.7474C30.4522 25.1594 29.9087 26.5926 29.2721 28.049C28.5657 29.7084 27.7988 31.2656 26.9846 32.7305C26.1682 34.1982 25.304 35.5729 24.4052 36.8636C23.6001 38.0197 22.7612 39.1159 21.9019 40.1543C21.1321 41.0855 20.3327 41.9829 19.5142 42.8486L19.6256 42.9755C19.7462 43.1256 19.8477 43.2977 19.9238 43.4788C19.9795 43.6121 20.0225 43.753 20.0514 43.8933C20.0803 44.035 20.0944 44.181 20.0951 44.329C20.0958 44.4791 20.0817 44.6286 20.0542 44.7696C20.0267 44.9127 19.9837 45.053 19.928 45.1862C19.8413 45.3956 19.718 45.5958 19.5608 45.7734L19.374 45.9595C20.6436 47.4505 21.7976 48.995 22.8211 50.6256C23.9152 52.3689 24.862 54.2137 25.6409 56.2031C26.4749 58.3327 27.1199 60.6302 27.5492 63.1454C27.9778 65.6529 28.1949 68.3846 28.1766 71.3897C28.178 71.4722 28.1653 71.554 28.1435 71.6308L28.1837 71.671L28.0095 71.9135C27.6578 72.4049 27.2581 72.7799 26.8175 73.0442C26.3727 73.3107 25.8855 73.4665 25.3646 73.5208C24.9254 73.5659 24.4658 73.5363 23.9892 73.4383C23.6015 73.3594 23.2018 73.2346 22.7944 73.0703L22.5998 73.2536C21.7828 73.9353 20.0881 74.3512 18.3821 74.4499C16.6782 74.5479 14.9293 74.3322 14.003 73.7555L13.7795 73.5962ZM17.8781 44.685C17.9852 44.6793 18.0719 44.654 18.134 44.6166C18.1925 44.5828 18.232 44.5348 18.2531 44.4848L18.2764 44.4094V44.255L18.2545 44.1831C18.2383 44.1429 18.2094 44.1069 18.1706 44.083C18.1382 44.0632 18.0973 44.0491 18.0494 44.0428H5.9229V44.5814C7.68315 44.587 9.46948 44.6103 11.2544 44.6321L11.5723 44.6356C13.4574 44.6589 15.3572 44.6829 17.8499 44.6829L17.8781 44.685ZM18.497 45.2193C18.3384 45.3159 18.1375 45.3779 17.8992 45.3871L17.8499 45.3864C15.5651 45.3878 13.561 45.3631 11.5653 45.3378L11.2474 45.3342C9.34118 45.311 7.4343 45.2856 5.57043 45.2828H5.21796V43.3378L18.0064 43.3371C18.2164 43.3399 18.3962 43.3949 18.5414 43.4852C18.7078 43.5895 18.829 43.7389 18.9009 43.9081C18.9298 43.9744 18.9524 44.0463 18.9658 44.1182L18.9876 44.3304C18.9876 44.4023 18.9799 44.4756 18.9658 44.5475L18.9002 44.7569C18.8234 44.9388 18.6895 45.1037 18.497 45.2193ZM5.9229 42.2247H17.6003C18.509 41.2914 19.4064 40.3073 20.2812 39.264C21.1857 38.1847 22.0676 37.0406 22.9135 35.8266C23.7834 34.5768 24.618 33.2515 25.3998 31.8444C26.1844 30.4338 26.9232 28.9351 27.6028 27.3391L27.6063 27.332C28.2168 25.9384 28.7399 24.5567 29.1889 23.1898C29.638 21.8229 30.013 20.4708 30.3253 19.1356C30.6016 17.9549 30.8321 16.7868 31.0239 15.6335C31.1846 14.6649 31.3221 13.6998 31.4384 12.739C31.1959 12.8165 30.9548 12.8807 30.7165 12.93C30.2992 13.0174 29.8861 13.0618 29.4815 13.0625C28.9774 13.0632 28.4875 12.9963 28.0166 12.8623C27.6409 12.7552 27.2743 12.6036 26.9183 12.4098L26.6864 12.6248C25.7156 13.4157 23.7439 13.8958 21.7066 13.9585C19.6764 14.0213 17.551 13.673 16.2588 12.8109C16.0819 12.6931 15.9197 12.5648 15.7738 12.426C14.7812 13.2183 12.8433 13.7421 10.8723 13.8485C9.03242 13.9479 7.13752 13.6864 5.9229 12.9469V42.2247ZM5.21796 42.9297V11.4172L5.85311 12.0206C6.83087 12.9335 8.85406 13.2529 10.8371 13.1464C12.8222 13.04 14.7389 12.5077 15.5087 11.7217L15.8147 11.4024L16.0664 11.7112C16.2207 11.9001 16.4195 12.0735 16.6493 12.2272C17.8125 13.0033 19.7835 13.3156 21.6869 13.2564C23.5825 13.1986 25.3893 12.7735 26.2415 12.0798C26.367 11.9755 26.4699 11.8684 26.5425 11.7598L26.7308 11.4785L27.0191 11.6562C27.4005 11.8909 27.7988 12.0686 28.2097 12.1856C28.6207 12.3026 29.0465 12.3604 29.4815 12.3604C29.8346 12.3604 30.1998 12.3202 30.5727 12.242C30.9463 12.1644 31.3312 12.046 31.7232 11.8895L32.2709 11.671L32.204 12.2547C32.0728 13.4094 31.9128 14.5746 31.7176 15.7477C31.5223 16.9235 31.2889 18.1071 31.0105 19.295C30.6926 20.6534 30.3126 22.0252 29.8586 23.4069C29.4053 24.7879 28.8731 26.1907 28.2506 27.6126C27.5605 29.2333 26.8111 30.7538 26.0145 32.1856C25.2173 33.6195 24.3713 34.9645 23.4915 36.2285C22.6343 37.4586 21.7398 38.6189 20.8212 39.7151C19.9055 40.8071 18.9602 41.8412 17.9979 42.8239L17.895 42.9297H5.21796Z" fill="black"/>
</svg>
