<svg width="300" height="301" viewBox="0 0 300 301" fill="none" xmlns="http://www.w3.org/2000/svg">
<path fill-rule="evenodd" clip-rule="evenodd" d="M202.734 0.5C208.608 0.5 213.922 2.87312 217.771 6.71006C221.62 10.547 224 15.8478 224 21.7001V279.3C224 285.155 221.62 290.453 217.771 294.29C213.922 298.127 208.605 300.5 202.734 300.5H97.2659C91.3954 300.5 86.0782 298.127 82.2293 294.29C78.3805 290.453 76 285.152 76 279.3V21.7001C76 15.8478 78.3805 10.547 82.2293 6.71006C86.0782 2.87312 91.3954 0.5 97.2659 0.5H202.734V0.5ZM149.999 200.692C149.786 200.692 149.553 200.671 149.296 200.632C149.056 200.596 148.826 200.54 148.605 200.471C143.333 198.79 138.449 196.33 133.99 193.122C129.534 189.917 125.506 185.967 121.938 181.301C119.145 177.646 116.627 173.538 114.402 169.009C112.189 164.505 110.269 159.592 108.657 154.303C106.812 148.239 105.589 142.407 104.778 137.327C103.202 127.438 103.172 120.384 103.172 119.946C103.172 118.777 103.621 117.701 104.363 116.887C105.098 116.079 106.13 115.534 107.302 115.42C107.458 115.406 117.865 114.341 129.693 110.129C135.617 108.018 141.873 105.123 147.316 101.185C148.114 100.606 149.056 100.314 149.996 100.314C150.935 100.314 151.877 100.606 152.675 101.185C158.115 105.123 164.374 108.021 170.298 110.129C182.126 114.341 192.536 115.406 192.692 115.42C193.864 115.534 194.896 116.079 195.632 116.887C196.373 117.701 196.819 118.777 196.819 119.943C196.819 120.381 196.792 127.438 195.213 137.324C194.402 142.404 193.179 148.236 191.334 154.3C189.725 159.591 187.805 164.505 185.589 169.009C183.364 173.538 180.846 177.643 178.053 181.298C174.488 185.964 170.46 189.911 166.004 193.119C161.542 196.327 156.661 198.787 151.389 200.471C151.168 200.543 150.938 200.596 150.707 200.635H150.701C150.444 200.674 150.211 200.695 149.999 200.695V200.692ZM148.357 166.911C147.818 166.911 147.283 166.815 146.781 166.627C146.281 166.446 145.812 166.171 145.393 165.816L134.277 156.339C133.32 155.522 132.782 154.395 132.692 153.232C132.602 152.079 132.955 150.883 133.775 149.929C134.594 148.975 135.725 148.438 136.891 148.349C138.048 148.26 139.244 148.611 140.204 149.428L147.657 155.781C153.046 148.734 158.393 141.596 163.848 134.605C164.61 133.618 165.705 133.028 166.856 132.873C167.984 132.721 169.168 132.986 170.155 133.708L170.242 133.77C171.234 134.531 171.827 135.622 171.982 136.773C172.135 137.897 171.866 139.077 171.148 140.061L151.981 165.122C151.601 165.62 151.126 166.028 150.591 166.329C150.061 166.624 149.469 166.818 148.844 166.884L148.602 166.905L148.357 166.917V166.911ZM112.461 123.893C112.658 127.059 113.101 131.892 114.085 137.592C114.841 141.975 115.912 146.843 117.428 151.804C120.658 162.373 125.069 171.001 130.62 177.643C136.003 184.086 142.474 188.665 149.999 191.342C157.544 188.659 164.027 184.065 169.416 177.599C174.973 170.935 179.384 162.275 182.611 151.664C184.118 146.712 185.179 141.862 185.93 137.497C186.902 131.836 187.339 127.039 187.536 123.893C183.906 123.315 178.28 122.218 171.916 120.271C164.954 118.142 157.107 114.991 149.999 110.376C142.887 114.991 135.04 118.142 128.081 120.271C121.717 122.218 116.094 123.315 112.461 123.893V123.893ZM192.121 11.3579C191.505 14.8967 189.713 18.039 187.165 20.3704C184.318 22.9731 180.526 24.5621 176.366 24.5621H123.631C119.474 24.5621 115.682 22.9731 112.832 20.3704H112.826C110.281 18.042 108.492 14.8997 107.876 11.3579H97.2629C94.3979 11.3579 91.8021 12.5147 89.9271 14.3869C88.049 16.2592 86.8886 18.844 86.8886 21.7001V279.3C86.8886 282.156 88.049 284.744 89.9271 286.613C91.8051 288.485 94.3979 289.642 97.2629 289.642H202.731C205.596 289.642 208.192 288.485 210.067 286.613C211.945 284.741 213.105 282.156 213.105 279.3V21.7001C213.105 18.844 211.945 16.2562 210.067 14.3869C208.189 12.5147 205.596 11.3579 202.731 11.3579H192.118H192.121ZM113.636 11.4205C114.178 13.3465 115.26 15.0428 116.714 16.3367C118.544 17.9705 120.969 18.9632 123.631 18.9632H176.366C179.028 18.9632 181.453 17.9705 183.283 16.3367C184.734 15.0428 185.819 13.3435 186.361 11.4205H113.639H113.636Z" fill="#111111"/>
</svg>
