<?xml version="1.0" encoding="UTF-8"?>
<!DOCTYPE svg PUBLIC "-//W3C//DTD SVG 1.1//EN" "http://www.w3.org/Graphics/SVG/1.1/DTD/svg11.dtd">
<!-- Creator: CorelDRAW 2020 (64 Bit) -->
<svg xmlns="http://www.w3.org/2000/svg" xml:space="preserve" width="5.2916mm" height="5.2916mm" version="1.1" style="shape-rendering:geometricPrecision; text-rendering:geometricPrecision; image-rendering:optimizeQuality; fill-rule:evenodd; clip-rule:evenodd"
viewBox="0 0 57.01 57.01"
 xmlns:xlink="http://www.w3.org/1999/xlink"
 xmlns:xodm="http://www.corel.com/coreldraw/odm/2003">
 <defs>
  <style type="text/css">
   <![CDATA[
    .fil0 {fill:#0963BD;fill-rule:nonzero}
   ]]>
  </style>
 </defs>
 <g id="Camada_x0020_1">
  <metadata id="CorelCorpID_0Corel-Layer"/>
  <path class="fil0" d="M28.51 0l0 0c15.74,0 28.51,12.77 28.51,28.51l0 0c0,15.74 -12.77,28.51 -28.51,28.51l0 0c-15.74,-0 -28.51,-12.77 -28.51,-28.51l-0 0c0,-15.74 12.77,-28.51 28.51,-28.51zm-1.55 5.7l0 18.33 -7.87 -7.87 -2.65 2.65 9.71 9.71 -9.71 9.71 2.64 2.64 7.87 -7.87 0 18.33 3.16 -3.1 9.19 -9.19 1.26 -1.32 -1.26 -1.32 -7.87 -7.87 7.87 -7.87 1.26 -1.32 -1.26 -1.32 -9.19 -9.19 -3.16 -3.1zm3.68 8.91l4.71 4.71 -4.71 4.71 0 -9.42zm0 18.38l4.71 4.71 -4.71 4.71 0 -9.42z"/>
 </g>
</svg>
