<svg width="24" height="24" viewBox="0 0 24 24" fill="none" xmlns="http://www.w3.org/2000/svg">
<g clip-path="url(#clip0_2051_11863)">
<path d="M6.91794 14.3993C8.32116 13.1799 10.1334 12.5063 12.0108 12.5063C12.7239 12.5063 13.4275 12.6035 14.1029 12.7908L11.5512 14.8399C10.4201 14.9361 9.34583 15.3858 8.49109 16.1284C8.37536 16.2319 8.23976 16.3118 8.09217 16.3636C7.94458 16.4152 7.78795 16.4378 7.63136 16.43C7.47477 16.422 7.32134 16.3838 7.18001 16.3174C7.03866 16.2511 6.91222 16.1578 6.80801 16.0434C6.7038 15.9288 6.62391 15.7952 6.57297 15.6503C6.52205 15.5052 6.50108 15.3518 6.51131 15.1989C6.52154 15.0459 6.56276 14.8964 6.63256 14.7592C6.70237 14.6219 6.79936 14.4996 6.91794 14.3993Z" fill="#FF9400"/>
<path d="M12.0107 7.75392C8.8327 7.74964 5.77264 8.93045 3.45445 11.0556C3.33709 11.1584 3.24188 11.2831 3.17444 11.4223C3.10701 11.5615 3.06867 11.7125 3.0617 11.8664C3.05474 12.0203 3.07927 12.174 3.13388 12.3185C3.18848 12.463 3.27204 12.5954 3.37966 12.7079C3.48728 12.8204 3.61682 12.9108 3.76064 12.9737C3.90446 13.0366 4.05969 13.0709 4.21723 13.0744C4.37476 13.0779 4.53142 13.0506 4.67804 12.9942C4.82465 12.9377 4.95825 12.8532 5.07102 12.7456C6.95332 11.0253 9.4339 10.0682 12.0107 10.0682C14.5875 10.0682 17.0681 11.0253 18.9505 12.7456C19.0632 12.8532 19.1968 12.9377 19.3434 12.9942C19.49 13.0506 19.6467 13.0779 19.8043 13.0744C19.9617 13.0709 20.117 13.0366 20.2608 12.9737C20.4047 12.9108 20.5342 12.8204 20.6418 12.7079C20.7494 12.5954 20.833 12.463 20.8876 12.3185C20.9421 12.174 20.9667 12.0203 20.9598 11.8664C20.9527 11.7125 20.9144 11.5615 20.847 11.4223C20.7796 11.2831 20.6843 11.1584 20.567 11.0556C18.2488 8.93045 15.1887 7.74964 12.0107 7.75392Z" fill="#FF9400"/>
<path d="M23.6059 7.32192C20.4145 4.53837 16.2872 3 12.0104 3C7.73348 3 3.60613 4.53837 0.414876 7.32192C0.294938 7.42207 0.196688 7.54465 0.125898 7.68245C0.0551072 7.82025 0.0132048 7.97049 0.00265196 8.12434C-0.00790078 8.2782 0.0131092 8.43257 0.0644476 8.57837C0.115786 8.72418 0.196416 8.85849 0.301602 8.97339C0.406789 9.0883 0.534407 9.1815 0.676959 9.24752C0.819513 9.31353 0.974123 9.35101 1.13171 9.35779C1.28929 9.36456 1.44668 9.34047 1.5946 9.28694C1.74252 9.23341 1.87802 9.15151 1.99311 9.04606C4.75029 6.64217 8.31564 5.31371 12.0101 5.31371C15.7045 5.31371 19.2699 6.64217 22.0271 9.04606C22.2611 9.25066 22.5686 9.35598 22.8821 9.33888C23.1956 9.32178 23.4893 9.18365 23.6986 8.95487C23.9079 8.72609 24.0157 8.4254 23.9982 8.11895C23.9807 7.81251 23.8393 7.52541 23.6052 7.32082L23.6059 7.32192Z" fill="#FF9400"/>
<path d="M12.0107 21.0727C13.0069 21.0727 13.8145 20.2832 13.8145 19.3094C13.8145 18.3356 13.0069 17.5461 12.0107 17.5461C11.0146 17.5461 10.207 18.3356 10.207 19.3094C10.207 20.2832 11.0146 21.0727 12.0107 21.0727Z" fill="#FF9400"/>
<path d="M21 16V17.5H17V19.5H21V21L24 18.5L21 16ZM16 16.5H20V14.5H16V13L13 15.5L16 18V16.5Z" fill="#FF9400"/>
</g>
<defs>
<clipPath id="clip0_2051_11863">
<rect width="24" height="24" fill="white"/>
</clipPath>
</defs>
</svg>
