
<svg width="40" height="40" viewBox="0 0 40 40" fill="none" xmlns="http://www.w3.org/2000/svg">
<g clip-path="url(#clip0_1307_346)">
<path d="M20.0915 26.6941L12.2811 34.5045C11.8192 34.9683 11.2702 35.3363 10.6657 35.5874C10.0611 35.8385 9.41298 35.9678 8.75838 35.9678C8.10379 35.9678 7.45563 35.8385 6.85111 35.5874C6.24659 35.3363 5.6976 34.9683 5.23565 34.5045C4.76944 34.0439 4.3993 33.4954 4.14667 32.8907C3.89404 32.286 3.76395 31.6372 3.76395 30.9818C3.76395 30.3265 3.89404 29.6776 4.14667 29.0729C4.3993 28.4682 4.76944 27.9197 5.23565 27.4591L13.0461 19.6487C13.4251 19.2696 13.6381 18.7555 13.6381 18.2194C13.6381 17.6834 13.4251 17.1693 13.0461 16.7902C12.667 16.4112 12.1529 16.1982 11.6168 16.1982C11.0808 16.1982 10.5667 16.4112 10.1876 16.7902L2.3772 24.6208C0.80376 26.3334 -0.0472031 28.5877 0.00202253 30.9129C0.0512482 33.238 0.996857 35.4543 2.64137 37.0988C4.28589 38.7433 6.50215 39.6889 8.82732 39.7382C11.1525 39.7874 13.4068 38.9364 15.1194 37.363L22.95 29.5526C23.1377 29.3649 23.2865 29.1421 23.3881 28.8968C23.4897 28.6516 23.542 28.3888 23.542 28.1234C23.542 27.8579 23.4897 27.5951 23.3881 27.3499C23.2865 27.1046 23.1377 26.8818 22.95 26.6941C22.7623 26.5064 22.5395 26.3576 22.2942 26.256C22.049 26.1544 21.7862 26.1021 21.5207 26.1021C21.2553 26.1021 20.9925 26.1544 20.7473 26.256C20.502 26.3576 20.2792 26.5064 20.0915 26.6941ZM13.4889 26.2513C13.677 26.4378 13.9001 26.5854 14.1453 26.6856C14.3906 26.7858 14.6532 26.8366 14.9181 26.835C15.1831 26.8366 15.4457 26.7858 15.6909 26.6856C15.9362 26.5854 16.1593 26.4378 16.3474 26.2513L26.2513 16.3474C26.6303 15.9683 26.8433 15.4542 26.8433 14.9181C26.8433 14.3821 26.6303 13.868 26.2513 13.4889C25.8722 13.1099 25.3581 12.8969 24.8221 12.8969C24.286 12.8969 23.7719 13.1099 23.3928 13.4889L13.4889 23.3928C13.3002 23.58 13.1505 23.8026 13.0483 24.0479C12.9461 24.2932 12.8935 24.5563 12.8935 24.8221C12.8935 25.0878 12.9461 25.3509 13.0483 25.5962C13.1505 25.8415 13.3002 26.0641 13.4889 26.2513ZM37.987 31.948H35.974V29.935C35.974 29.4012 35.7619 28.8892 35.3844 28.5116C35.0069 28.1341 34.4949 27.9221 33.961 27.9221C33.4272 27.9221 32.9151 28.1341 32.5376 28.5116C32.1601 28.8892 31.948 29.4012 31.948 29.935V31.948H29.935C29.4012 31.948 28.8892 32.1601 28.5116 32.5376C28.1341 32.9151 27.9221 33.4272 27.9221 33.961C27.9221 34.4949 28.1341 35.0069 28.5116 35.3844C28.8892 35.7619 29.4012 35.974 29.935 35.974H31.948V37.987C31.948 38.5209 32.1601 39.0329 32.5376 39.4104C32.9151 39.7879 33.4272 40 33.961 40C34.4949 40 35.0069 39.7879 35.3844 39.4104C35.7619 39.0329 35.974 38.5209 35.974 37.987V35.974H37.987C38.5209 35.974 39.0329 35.7619 39.4104 35.3844C39.7879 35.0069 40 34.4949 40 33.961C40 33.4272 39.7879 32.9151 39.4104 32.5376C39.0329 32.1601 38.5209 31.948 37.987 31.948ZM29.5526 22.95L37.363 15.1194C38.9364 13.4068 39.7874 11.1525 39.7382 8.82732C39.6889 6.50215 38.7433 4.28589 37.0988 2.64137C35.4543 0.996857 33.238 0.0512482 30.9129 0.00202253C28.5877 -0.0472031 26.3334 0.80376 24.6208 2.3772L16.7902 10.1876C16.6025 10.3753 16.4536 10.5981 16.3521 10.8433C16.2505 11.0886 16.1982 11.3514 16.1982 11.6168C16.1982 11.8823 16.2505 12.1451 16.3521 12.3903C16.4536 12.6355 16.6025 12.8584 16.7902 13.0461C16.9779 13.2337 17.2007 13.3826 17.446 13.4842C17.6912 13.5858 17.954 13.6381 18.2194 13.6381C18.4849 13.6381 18.7477 13.5858 18.9929 13.4842C19.2382 13.3826 19.461 13.2337 19.6487 13.0461L27.4591 5.23565C27.921 4.77187 28.47 4.40387 29.0745 4.15277C29.6791 3.90167 30.3272 3.77241 30.9818 3.77241C31.6364 3.77241 32.2846 3.90167 32.8891 4.15277C33.4936 4.40387 34.0426 4.77187 34.5045 5.23565C34.9707 5.69624 35.3409 6.24478 35.5935 6.84949C35.8461 7.45419 35.9762 8.10303 35.9762 8.75838C35.9762 9.41374 35.8461 10.0626 35.5935 10.6673C35.3409 11.272 34.9707 11.8205 34.5045 12.2811L26.6941 20.0915C26.5055 20.2787 26.3557 20.5013 26.2535 20.7466C26.1513 20.9919 26.0987 21.255 26.0987 21.5207C26.0987 21.7865 26.1513 22.0496 26.2535 22.2949C26.3557 22.5402 26.5055 22.7628 26.6941 22.95C26.8813 23.1386 27.1039 23.2884 27.3492 23.3906C27.5945 23.4928 27.8576 23.5454 28.1234 23.5454C28.3891 23.5454 28.6522 23.4928 28.8975 23.3906C29.1428 23.2884 29.3654 23.1386 29.5526 22.95Z" fill="#FF9400"/>
</g>
<defs>
<clipPath id="clip0_1307_346">
<rect width="40" height="40" fill="white"/>
</clipPath>
</defs>
</svg>
