<svg width="104" height="104" viewBox="0 0 104 104" fill="none" xmlns="http://www.w3.org/2000/svg">
<path d="M80.9527 25.8197L74.7544 69.2124C74.4682 71.2095 72.0242 72.0254 70.5969 70.5972L66.2227 66.2224L70.1236 38.9121C70.306 37.6348 69.9254 36.3427 69.0807 35.3687C68.2334 34.3909 67.0108 33.8304 65.7241 33.8304C65.512 33.8304 65.2976 33.8472 65.0879 33.8772L37.7767 37.7776L33.4031 33.4036C31.9752 31.9761 32.7899 29.531 34.7885 29.2456L78.1812 23.0479C79.7982 22.8167 81.1839 24.2024 80.9527 25.8197ZM44.8082 80.7518L44.7004 81.0204C44.177 82.3249 42.6591 82.9398 41.3888 82.3399C29.1398 76.5507 23.4464 66.6494 21.3768 62.1017C20.7907 60.8138 21.413 59.3026 22.734 58.7942L23.0032 58.6908C24.2378 58.2178 25.6085 58.8131 26.141 60.023C30.702 70.3757 39.5827 75.6757 43.6133 77.6337C44.7696 78.1959 45.2865 79.5596 44.8082 80.7518ZM65.3703 35.8579C65.4908 35.8408 65.6074 35.832 65.7241 35.832C67.1828 35.832 68.3565 37.1314 68.1418 38.6294L64.4538 64.4538L61.9447 82.0221C61.9132 82.2441 61.8443 82.4477 61.7627 82.64C61.7439 82.6851 61.7235 82.7301 61.7038 82.774C61.6119 82.9545 61.5079 83.1254 61.3798 83.2735C61.3701 83.2847 61.356 83.2953 61.3448 83.3074C61.2231 83.4432 61.0835 83.5598 60.9366 83.664C60.8992 83.6903 60.8627 83.7168 60.8253 83.7418C60.6618 83.8425 60.4913 83.9288 60.3119 83.9904C60.2866 83.9974 60.2604 84.0033 60.235 84.0104C60.073 84.0608 59.9037 84.0917 59.7329 84.107C59.6893 84.1117 59.6451 84.1182 59.6024 84.12C59.408 84.1259 59.2133 84.1155 59.0201 84.0758C58.991 84.0693 58.9636 84.0581 58.9347 84.0505C58.7689 84.0095 58.6072 83.9492 58.4487 83.8711C58.4001 83.8464 58.351 83.821 58.3032 83.7948C58.1224 83.6894 57.9466 83.5672 57.7864 83.4078L20.5934 46.2139C19.8786 45.4997 19.7257 44.5322 20.0005 43.7075C20.207 43.0873 20.654 42.5489 21.2864 42.2576C21.497 42.1613 21.7288 42.0918 21.9785 42.0556L65.3703 35.8579ZM51.9996 0C23.2812 0 0 23.2821 0 52.001C0 80.7194 23.2812 104 51.9996 104C80.7182 104 103.999 80.7194 103.999 52.001C103.999 23.2821 80.7182 0 51.9996 0Z" fill="white"/>
</svg>
