<svg width="81" height="80" viewBox="0 0 81 80" fill="none" xmlns="http://www.w3.org/2000/svg">
<path fill-rule="evenodd" clip-rule="evenodd" d="M6.23187 2.44492H16.0115V26.1265H18.4565V2.44492H39.2525V48.0455H41.6974V2.44492H62.4934V21.2225H64.9383V2.44492H74.718C75.7272 2.44492 75.8268 0 74.718 0H6.21766C4.90991 0 4.83884 2.44492 6.21766 2.44492H6.23187ZM9.68603 41.592H24.5545C25.0805 41.5494 25.3506 41.2509 25.2084 40.597L21.5126 27.9318C21.342 27.3063 20.9156 26.8657 19.9916 26.9225H14.32C13.524 26.9367 13.1118 27.349 12.9412 28.0171L9.20273 40.8387C9.0748 41.322 9.21695 41.5778 9.67182 41.6063L9.68603 41.592ZM56.2105 36.7022H71.0791C71.605 36.6596 71.8751 36.361 71.7329 35.7072L68.0371 23.0419C67.8666 22.4165 67.4401 21.9758 66.5162 22.0327H60.8445C60.0485 22.0469 59.6363 22.4591 59.4799 23.1272L55.7415 35.9488C55.6135 36.4321 55.7557 36.688 56.2105 36.7164V36.7022ZM32.9696 63.6105H47.8381C48.3641 63.5679 48.6341 63.2694 48.492 62.6155L44.7962 49.9503C44.6256 49.3248 44.1992 48.8841 43.2752 48.941H37.6036C36.8076 48.9552 36.3953 49.3674 36.239 50.0355L32.5005 62.8571C32.3726 63.3404 32.5147 63.5963 32.9696 63.6247V63.6105ZM17.2482 49.7797C17.7884 49.7797 18.229 50.2203 18.229 50.7605V57.0149C18.229 57.5551 17.7884 57.9957 17.2482 57.9957C16.7081 57.9957 16.2674 57.5551 16.2674 57.0149V50.7605C16.2674 50.2203 16.7081 49.7797 17.2482 49.7797ZM23.0762 48.8984C22.5787 49.1258 22.3655 49.7086 22.6071 50.2061L25.2511 55.8778C25.4785 56.3753 26.0613 56.5885 26.5588 56.3468C27.0563 56.1194 27.2695 55.5366 27.0279 55.0391L24.384 49.3674C24.1565 48.8699 23.5737 48.6567 23.0762 48.8984ZM11.4202 48.8984C11.9177 49.1258 12.131 49.7086 11.8893 50.2061L9.24538 55.8778C9.01794 56.3753 8.43514 56.5885 7.93763 56.3468C7.44012 56.1194 7.2269 55.5366 7.46855 55.0391L10.1125 49.3674C10.3399 48.8699 10.9227 48.6567 11.4202 48.8984ZM27.9661 46.1976C27.6107 46.6098 27.6676 47.2352 28.094 47.5764L32.8843 51.5991C33.2965 51.9545 33.922 51.8977 34.2631 51.4712C34.6185 51.059 34.5617 50.4335 34.1352 50.0782L29.3449 46.0554C28.9327 45.7001 28.3072 45.7569 27.9661 46.1834V46.1976ZM6.53038 46.1976C6.88575 46.6098 6.82889 47.2352 6.40245 47.5764L1.61212 51.5991C1.19989 51.9545 0.574448 51.8977 0.233297 51.4712C-0.122069 51.059 -0.0652104 50.4335 0.361229 50.0924L5.15156 46.0697C5.56379 45.7143 6.18923 45.7711 6.53038 46.1976ZM63.7301 44.8756C64.2703 44.8756 64.7109 45.3163 64.7109 45.8564V52.1109C64.7109 52.651 64.2703 53.0917 63.7301 53.0917C63.1899 53.0917 62.7493 52.651 62.7493 52.1109V45.8564C62.7493 45.3163 63.1899 44.8756 63.7301 44.8756ZM69.5581 43.9943C69.0606 44.2217 68.8474 44.8045 69.089 45.3021L71.7329 50.9737C71.9604 51.4712 72.5432 51.6844 73.0407 51.4428C73.5382 51.2153 73.7514 50.6326 73.5098 50.135L70.8658 44.4634C70.6384 43.9659 70.0556 43.7527 69.5581 43.9943ZM57.9021 43.9943C58.3996 44.2217 58.6128 44.8045 58.3712 45.3021L55.7273 50.9737C55.4998 51.4712 54.917 51.6844 54.4195 51.4428C53.922 51.2153 53.7088 50.6326 53.9504 50.135L56.5943 44.4634C56.8218 43.9659 57.4046 43.7527 57.9021 43.9943ZM74.4479 41.2935C74.0926 41.7058 74.1494 42.3312 74.5759 42.6724L79.3662 46.6951C79.7784 47.0505 80.4039 46.9936 80.745 46.5672C81.1004 46.1549 81.0435 45.5295 80.6171 45.1741L75.8267 41.1514C75.4145 40.796 74.7891 40.8529 74.4479 41.2651V41.2935ZM53.0123 41.2935C53.3676 41.7058 53.3108 42.3312 52.8843 42.6724L48.094 46.6951C47.6818 47.0505 47.0563 46.9936 46.7152 46.5672C46.3598 46.1549 46.4167 45.5295 46.8431 45.1883L51.6334 41.1656C52.0457 40.8102 52.6711 40.8671 53.0123 41.2935ZM40.4892 71.7839C41.0293 71.7839 41.47 72.2246 41.47 72.7647V79.0192C41.47 79.5593 41.0293 80 40.4892 80C39.949 80 39.5083 79.5593 39.5083 79.0192V72.7647C39.5083 72.2246 39.949 71.7839 40.4892 71.7839ZM46.3172 70.9026C45.8196 71.1301 45.6064 71.7129 45.8481 72.2104L48.492 77.882C48.7194 78.3795 49.3022 78.5927 49.7997 78.3511C50.2973 78.1237 50.5105 77.5409 50.2688 77.0434L47.6249 71.3717C47.3975 70.8742 46.8147 70.661 46.3172 70.9026ZM34.6612 70.9026C35.1587 71.1301 35.3719 71.7129 35.1302 72.2104L32.4863 77.882C32.2589 78.3795 31.6761 78.5927 31.1786 78.3511C30.6811 78.1237 30.4678 77.5409 30.7095 77.0434L33.3534 71.3717C33.5808 70.8742 34.1636 70.661 34.6612 70.9026ZM51.207 68.2018C50.8516 68.6141 50.9085 69.2395 51.3349 69.5807L56.1253 73.6034C56.5375 73.9588 57.1629 73.9019 57.5041 73.4755C57.8594 73.0633 57.8026 72.4378 57.3761 72.0967L52.5858 68.0739C52.1736 67.7186 51.5481 67.7754 51.207 68.2018ZM29.7713 68.2018C30.1267 68.6141 30.0698 69.2395 29.6434 69.5807L24.8531 73.6034C24.4408 73.9588 23.8154 73.9019 23.4742 73.4755C23.1189 73.0633 23.1757 72.4378 23.6022 72.0967L28.3925 68.0739C28.8047 67.7186 29.4302 67.7754 29.7713 68.2018ZM13.7372 44.0085H20.7735H13.7372H20.7735H13.7372V44.0085ZM13.7372 44.0085C13.7372 45.3589 15.315 46.4534 17.2482 46.4534C19.1956 46.4534 20.7592 45.3589 20.7592 44.0085H13.723H13.7372ZM36.9781 66.027H44.0144H36.9781H44.0144H36.9781ZM36.9781 66.027C36.9781 67.3774 38.556 68.4719 40.4892 68.4719C42.4366 68.4719 44.0002 67.3774 44.0002 66.027H36.9639H36.9781ZM60.2191 39.1187H67.2553H60.2191H67.2553H60.2191ZM60.2191 39.1187C60.2191 40.4691 61.7969 41.5636 63.7301 41.5636C65.6775 41.5636 67.2411 40.4691 67.2411 39.1187H60.2049H60.2191Z" fill="black"/>
</svg>
