<svg width="80" height="80" viewBox="0 0 80 80" fill="none" xmlns="http://www.w3.org/2000/svg">
<path d="M8.08605 4.1721C7.56454 4.1721 7.04302 3.96349 6.62581 3.54628C6.2086 3.12907 6 2.71186 6 2.08605C6 1.56454 6.2086 1.04302 6.62581 0.625815C7.04302 0.208605 7.46023 0 8.08605 0H50.5372C51.0587 0 51.5802 0.208605 51.9974 0.625815C52.4146 1.04302 52.6232 1.46023 52.6232 2.08605C52.6232 2.60756 52.4146 3.12907 51.9974 3.54628C51.5802 3.96349 51.163 4.1721 50.5372 4.1721H35.7262V17.7314L58.6728 36.6102C58.8814 36.7145 58.9857 36.8188 59.09 37.0274C59.1943 37.1317 59.2986 37.3403 59.4029 37.5489C60.133 39.1134 60.6545 40.7823 60.8631 42.4511C61.0717 44.2243 60.9674 45.9974 60.6545 47.7705C60.3416 49.2308 59.9244 50.691 59.2986 52.0469C58.6728 53.4029 57.8383 54.7588 56.8996 56.0104C55.9609 57.2621 54.9179 58.4094 53.6662 59.3481C52.5189 60.2868 51.163 61.2256 49.807 61.8514C48.2425 62.5815 46.678 63.2073 45.0091 63.5202C43.3403 63.8331 41.6714 63.9374 39.8983 63.7288H39.794H39.6897C39.3768 63.7288 39.1682 63.6245 38.8553 63.6245C38.5424 63.6245 38.3338 63.5202 38.0209 63.5202C37.8123 63.5202 37.708 63.4159 37.4993 63.3116C37.2907 63.2073 37.1864 63.103 36.9778 62.9987L7.04302 37.1317C6.83442 36.9231 6.62581 36.7145 6.52151 36.4016C6.41721 36.193 6.31291 35.8801 6.31291 35.5671C6.31291 32.3338 6.41721 29.4133 7.04302 26.91C7.56454 24.3025 8.50326 22.0078 9.85919 20.0261C11.1108 18.1486 12.884 16.4798 14.97 15.0196C17.0561 13.6636 19.6636 12.5163 22.7927 11.5776V4.2764H8.19035L8.08605 4.1721ZM44.279 57.2621C43.7575 57.3664 43.236 57.2621 42.8188 57.0535C42.4016 56.7405 41.9844 56.3233 41.8801 55.8018C41.7758 55.2803 41.8801 54.7588 42.0887 54.3416C42.4016 53.9244 42.8188 53.5072 43.3403 53.4029C44.4876 53.09 45.4263 52.7771 46.2608 52.2555C47.0952 51.734 47.8253 51.1082 48.3468 50.4824C48.9726 49.7523 49.3898 48.9179 49.7027 47.8748C50.0156 46.8318 50.2243 45.7888 50.3286 44.5372C50.3286 44.0156 50.6415 43.4941 51.0587 43.1812C51.4759 42.8683 51.9974 42.6597 52.5189 42.6597C53.0404 42.6597 53.5619 42.9726 53.8748 43.3898C54.1877 43.807 54.3964 44.3286 54.3964 44.8501C54.292 46.5189 53.9791 47.9791 53.4576 49.3351C52.9361 50.691 52.3103 51.9426 51.4759 52.9857C50.6415 54.0287 49.5984 54.9674 48.3468 55.6975C47.0952 56.4276 45.7392 56.9492 44.1747 57.3664L44.279 57.2621ZM41.1499 48.1877C40.837 48.605 40.3155 48.9179 39.794 49.0222C39.2725 49.1265 38.751 49.0222 38.2295 48.7093C37.8123 48.3964 37.4993 47.8748 37.395 47.3533C37.2907 46.8318 37.395 46.3103 37.708 45.7888C39.1682 43.807 40.6284 42.0339 42.193 40.5737C43.7575 39.1134 45.322 37.9661 46.9909 37.1317C47.721 36.7145 48.5554 36.4016 49.2855 36.193C49.807 35.9844 50.3286 35.8801 50.9544 35.7758L35.5176 23.0508V29.309V29.5176C35.5176 30.8735 35.4133 32.1252 35.309 33.1682C35.1004 34.2112 34.8918 35.1499 34.4746 35.9844C33.9531 36.9231 33.3272 37.7575 32.4928 38.1747C31.6584 38.6962 30.6154 38.9048 29.2595 39.0091H28.9465C27.9035 39.0091 26.8605 38.8005 26.1304 38.279C25.296 37.8618 24.5658 37.1317 24.0443 36.193C23.6271 35.4628 23.2099 34.6284 23.0013 33.6897C22.7927 32.751 22.5841 31.6037 22.5841 30.4563V29.8305V15.7497C20.2894 16.4798 18.412 17.4185 16.8475 18.4615C15.1786 19.5046 13.927 20.7562 12.9883 22.2164C11.9452 23.781 11.2151 25.5541 10.7979 27.6402C10.3807 29.7262 10.1721 32.0209 10.1721 34.6284L34.266 55.4889C34.266 55.2803 34.266 55.176 34.3703 54.9674C34.4746 54.5502 34.4746 54.133 34.5789 53.7158C34.6832 53.4029 34.7875 52.9857 34.7875 52.6728C34.8918 52.3598 34.9961 51.9426 35.1004 51.5254C35.309 51.0039 35.6219 50.5867 36.1434 50.3781C36.5606 50.1695 37.1864 50.0652 37.708 50.2738C38.2295 50.4824 38.6467 50.7953 38.8553 51.3168C39.0639 51.734 39.1682 52.3598 38.9596 52.8814C38.8553 53.1943 38.751 53.5072 38.6467 53.8201C38.5424 54.133 38.5424 54.4459 38.4381 54.7588C38.2295 55.6975 38.1252 56.4276 38.1252 57.0535C38.1252 57.6793 38.2295 58.3051 38.4381 58.7223C38.5424 59.0352 38.751 59.2438 38.9596 59.4524C39.1682 59.661 39.4811 59.7653 39.794 59.8696L40.0026 59.9739C41.3585 60.0782 42.7145 59.9739 43.9661 59.7653C45.322 59.5567 46.5737 59.0352 47.721 58.5137C48.8683 57.9922 49.807 57.2621 50.7458 56.5319C51.6845 55.6975 52.6232 54.7588 53.3533 53.8201C54.0834 52.8814 54.7093 51.734 55.2308 50.691C55.7523 49.648 56.0652 48.5007 56.3781 47.3533C56.5867 46.1017 56.691 44.8501 56.5867 43.7027C56.4824 42.5554 56.2738 41.5124 55.7523 40.4694C54.605 40.1565 53.4576 40.0522 52.3103 40.1565C51.163 40.2608 50.0156 40.678 48.8683 41.1995C47.5124 41.9296 46.2608 42.8683 44.9048 44.1199C43.5489 45.3716 42.2973 46.9361 40.9413 48.7093L41.1499 48.1877ZM51.8931 68.1095C52.1017 71.2386 52.3103 74.3677 52.5189 77.4967C52.5189 78.1226 52.3103 78.7484 51.9974 79.1656C51.5802 79.5828 51.0587 79.8957 50.4329 80H50.3286C49.7027 80 49.1812 79.7914 48.6597 79.4785C48.2425 79.0613 47.9296 78.5398 47.9296 77.914C47.5124 76.3494 47.4081 70.5085 47.3038 68.5267C47.3038 67.9009 47.5124 67.2751 47.8253 66.8579C48.2425 66.4407 48.764 66.1278 49.3898 66.0235H49.4941C50.1199 66.0235 50.6415 66.2321 51.163 66.545C51.5802 66.9622 51.8931 67.4837 51.8931 68.1095ZM61.2803 55.9061C61.8018 55.5932 62.4276 55.4889 63.0535 55.5932C66.0782 56.219 69.103 56.8449 72.1278 57.4707C72.7536 57.575 73.1708 57.9922 73.4837 58.4094C73.7966 58.9309 73.9009 59.4524 73.7966 60.0782C73.6923 60.704 73.2751 61.2256 72.7536 61.5385C72.2321 61.8514 71.6063 61.9557 70.9804 61.8514C69.3116 61.5385 63.0535 59.9739 61.9061 59.9739C61.2803 59.8696 60.8631 59.4524 60.5502 59.0352C60.2373 58.5137 60.133 57.9922 60.2373 57.3664C60.3416 56.7405 60.7588 56.219 61.2803 55.9061ZM59.6115 63.4159L64.4094 71.4472C64.7223 71.9687 64.8266 72.5945 64.7223 73.2203C64.618 73.8462 64.2008 74.3677 63.6793 74.6806C63.1578 74.9935 62.5319 75.0978 62.0104 74.9935C61.4889 74.8892 60.9674 74.472 60.6545 73.9505C58.9857 71.3429 57.4211 68.631 55.8566 65.9192C55.5437 65.3977 55.4394 64.7718 55.5437 64.146C55.648 63.5202 56.0652 62.9987 56.5867 62.6858C57.1082 62.3729 57.734 62.2686 58.2555 62.3729C58.7771 62.4772 59.2986 62.8944 59.6115 63.4159Z" fill="black"/>
</svg>
