<svg width="80" height="80" viewBox="0 0 80 80" fill="none" xmlns="http://www.w3.org/2000/svg">
<path fill-rule="evenodd" clip-rule="evenodd" d="M31.9045 60.4391V60.4487H32.5251V60.3819H32.5728H32.716V60.3341L32.7351 60.315H32.8401H32.8496V60.2864L32.8878 60.2482H32.9165H32.9642V60.21L32.9833 60.2291L33.031 60.1814H33.0406V60.1718H33.0788V60.1241L33.0883 60.1146H33.1074V60.105H33.1456L33.1551 60.0477H33.1742V60.0382H33.2124V60L33.222 59.9905H33.2506V59.9714H33.2792V59.9332L33.2888 59.9236H33.3174V59.9045H33.3461V59.8663L33.3842 59.8568V59.8282H33.4033V59.7995L33.4129 59.79H33.4511V59.7613H33.4702L33.4797 59.7231H33.5179V59.6945H33.537V59.6754L46.2052 47.0072V74.8735H46.2721V75.1408H46.3389V75.3413H46.4057V75.4749H46.4725V75.5418H46.5394V75.6086H46.6062V75.7422H46.673V75.8091H46.7398V75.8759H46.8067V75.9427H46.9308V76.0095H46.9976V76.0764H47.0644V76.1432H47.1885V76.21H47.3795V76.2768H47.6277V76.3437H48.2482V76.2768H48.4391V76.21H48.5632V76.1432H48.6873V76.0764H48.8114V76.0095H48.8783V75.9427H48.9451V75.8759H49.0119V75.8091H49.0788V75.7422H49.1456V75.6754H49.2124V75.6086H49.2792V75.4749H49.3461V75.4081H49.4129V75.2076H49.4797V75.0072H49.5465V22.0334H68.7924V74.8735H68.8592V75.1408H68.926V75.3413H68.9928V75.4749H69.0597V75.5418H69.1265V75.6754H69.1933V75.7422H69.2601V75.8091H69.327V75.8759H69.3938V75.9427H69.5179V76.0095H69.5847V76.0764H69.6515V76.1432H69.7756V76.21H69.9666V76.2768H70.2148V76.3437H70.8353V76.2768H71.0262V76.21H71.1504V76.1432H71.2745V76.0764H71.3986V76.0095H71.4654V75.9427H71.5322V75.8759H71.599V75.8091H71.6659V75.7422H71.7327V75.6754H71.7995V75.6086H71.8663V75.4749H71.9332V75.4081H72V75.2076H72.0668V75.074H72.1336V20.7255V20.105H72.0668V19.9141H72V19.7136H71.9332V19.6468H71.9236V19.599H71.8663V19.5131H71.7995V19.4463H71.7804V19.4081H71.7327V19.3795H71.7136V19.3508H71.6659V19.3126H71.6468V19.284H71.6086V19.2458H71.5799V19.2267H71.5418V19.1885H71.5131V19.1695H71.4845V19.1217H71.4463V19.1026H71.4177V19.0549H71.3126V19.0453H71.2935V18.9881H71.2458V18.9785H71.1694V18.9212H71.1122H71.0453V18.8544H70.7971V18.7876H70.1766H48.7255L48.716 18.778L48.7064 18.7876H48.6301L48.5823 18.7399L48.5346 18.7876L48.4869 18.7399L48.4391 18.7876L48.3532 18.7017L48.3055 18.7494L48.2577 18.7017L48.21 18.7494L48.1623 18.7017L48.1146 18.7494L48.0668 18.7017L48.0191 18.7494L47.9714 18.7017L47.9236 18.7494L47.8759 18.7017L47.8091 18.7685H47.7613L47.7422 18.7494L47.7231 18.7685L47.6945 18.7971L47.6468 18.7494L47.5609 18.8353L47.5036 18.7971L47.4654 18.8353H47.4558V18.8449L47.4081 18.8926L47.3604 18.8449L47.3126 18.8926H47.2745V18.9308L47.2554 18.9499H47.1981V18.9594H47.1504V19.0167H47.1313V19.0263H47.0835V19.0358L47.0453 19.074H46.9976V19.0931H46.9594V19.1408H46.9308V19.1599H46.8926V19.1981H46.864V19.2172H46.8353V19.2554H46.7971V19.284H46.7685V19.3222H46.7303V19.3508H46.7112V19.3986L46.673 19.4368L46.6157 19.494L46.5585 19.5513H46.5489V19.5609L33.9284 32.1814V4.16229H33.8616V3.96181H33.7947V3.76134H33.7279V3.69451H33.6611V3.56086H33.5943V3.49403H33.5274V3.42721H33.4606V3.36038H33.3938V3.29356H33.327V3.22673H33.2601V3.1599H33.1933V3.09308H33.0692V3.02625H32.9451V2.95943H32.821V2.8926H32.5728V2.82578H31.9523V2.8926H31.7613V2.95943H31.5704V3.02625H31.4463V3.09308H31.3795V3.1599H31.2554V3.22673H31.1885V3.29356H31.1217V3.36038H31.0549V3.42721H30.9881V3.49403H30.9212V3.62768H30.8544V3.69451H30.7876V3.82816H30.7208V3.96181H30.6539V4.29594H30.5871V57.1265H11.3413V4.09547H11.2745V3.96181H11.2076V3.76134H11.1408V3.69451H11.074V3.56086H11.0072V3.49403H10.9403V3.42721H10.8735V3.36038H10.8067V3.29356H10.7399V3.22673H10.673V3.1599H10.6062V3.09308H10.4821V3.02625H10.358V2.95943H10.2339V2.8926H9.91885V2.82578H9.42243V2.8926H9.17422V2.95943H8.98329V3.02625H8.85919V3.09308H8.79236V3.1599H8.66826V3.22673H8.60143V3.29356H8.53461V3.36038H8.46778V3.42721H8.40095V3.56086H8.33413V3.62768H8.2673V3.69451H8.20048V3.82816H8.13365V3.96181H8.06683V4.29594H8V58.5012V59.1217H8.06683V59.3126H8.13365V59.389V59.4368H8.19093V59.5227H8.20048V59.5609H8.25776V59.5895H8.2673V59.685H8.33413V59.7518H8.38186V59.79H8.40095V59.8186H8.43914V59.8568H8.45823V59.8759H8.49642V59.9236H8.52506V59.9427H8.56325V59.9905H8.59189V60H8.65871V60.0668H8.72554V60.1336H8.81146V60.1909H8.85919H8.92601V60.2578H8.93556H9.12649V60.315V60.3246H9.26014V60.3819H9.3747V60.3914H9.99523V60.3819H31.7422L31.7613 60.401L31.7804 60.3819H31.8473L31.8568 60.3914L31.8663 60.3819L31.9045 60.4391ZM14.1002 65.6611C14.1002 65.3556 13.9857 65.0406 13.7088 64.7637C13.432 64.4869 13.1169 64.3723 12.8115 64.3723C12.4678 64.3723 12.1432 64.5251 11.9045 64.7637L8.74463 67.9236C8.52506 68.1432 8.38186 68.4391 8.36277 68.7637C8.34368 69.0883 8.45823 69.432 8.74463 69.7279C9.04057 70.0239 9.38425 70.1289 9.70883 70.1098C10.0239 70.0907 10.3294 69.9475 10.5394 69.7279L13.7088 66.5585C13.9475 66.3198 14.1002 65.9952 14.1002 65.6516V65.6611ZM17.747 67.5895C17.642 67.3031 17.4224 67.0453 17.0788 66.8831C16.7255 66.7208 16.3914 66.7208 16.105 66.8258C15.7804 66.9403 15.5227 67.1981 15.389 67.5036L13.4988 71.5609C13.3556 71.8663 13.327 72.2196 13.4415 72.5442C13.5465 72.8306 13.7566 73.0883 14.1098 73.2506C14.463 73.4129 14.7971 73.4129 15.0835 73.3079C15.4081 73.1933 15.6659 72.9356 15.8091 72.6301L17.6993 68.5728C17.8425 68.2673 17.8711 67.9141 17.7566 67.5895H17.747ZM28.0955 64.7637C27.8186 65.0406 27.7041 65.3556 27.7041 65.6516C27.7041 65.9952 27.8568 66.3198 28.0955 66.5585L31.2649 69.7279C31.4845 69.9475 31.7804 70.0907 32.105 70.1098C32.4296 70.1289 32.7733 70.0239 33.0692 69.7279C33.3652 69.432 33.4702 69.0883 33.4511 68.7637C33.432 68.4487 33.2888 68.1432 33.0692 67.9236L29.8998 64.7542C29.6802 64.5346 29.3842 64.3914 29.0597 64.3723C28.7351 64.3532 28.3914 64.4678 28.0955 64.7542V64.7637ZM24.7255 66.8831C24.3437 67.0549 24.1241 67.3413 24.0382 67.6563C23.9427 67.9618 23.9809 68.2959 24.1146 68.5728L26.0048 72.6301C26.148 72.9356 26.3962 73.1838 26.7303 73.3079C27.0167 73.4129 27.3508 73.4129 27.7041 73.2506C28.0573 73.0883 28.2673 72.8306 28.3723 72.5442C28.4869 72.2196 28.4582 71.8663 28.315 71.5609L26.4248 67.5036C26.2816 67.1981 26.0334 66.9499 25.6993 66.8258C25.4129 66.7208 25.0788 66.7208 24.7255 66.8831ZM20.926 67.3126C20.5442 67.3126 20.2387 67.4559 20.0191 67.6659C19.7709 67.9141 19.6468 68.2482 19.6468 68.5823V73.0597C19.6468 73.3938 19.7709 73.7279 20.0191 73.9761C20.2387 74.1957 20.5442 74.3389 20.926 74.3389C21.3079 74.3389 21.6134 74.1957 21.8329 73.9761C22.0811 73.7279 22.2052 73.3938 22.2052 73.0597V68.5823C22.2052 68.2482 22.0811 67.9141 21.8329 67.6659C21.6134 67.4463 21.3174 67.3031 20.926 67.3031V67.3126ZM52.4678 14.3198C52.4678 14.6253 52.3532 14.9403 52.0764 15.2172C51.7995 15.494 51.4845 15.6086 51.179 15.6086C50.8353 15.6086 50.5107 15.4558 50.2721 15.2172L47.1122 12.0573C46.8926 11.8377 46.7494 11.5418 46.7303 11.2172C46.7112 10.8926 46.8258 10.5489 47.1122 10.253C47.4081 9.95704 47.7518 9.85203 48.0764 9.87112C48.3914 9.89021 48.6969 10.0334 48.9069 10.253L52.0764 13.4224C52.315 13.6611 52.4678 13.9857 52.4678 14.3294V14.3198ZM56.1145 12.3914C56.0095 12.6778 55.79 12.9356 55.4463 13.0979C55.0931 13.2601 54.7589 13.2601 54.4725 13.1551C54.148 13.0406 53.8902 12.7828 53.7566 12.4773L51.8663 8.42005C51.7231 8.11456 51.6945 7.76134 51.8091 7.43675C51.9141 7.15036 52.1241 6.8926 52.4773 6.73031C52.8305 6.56802 53.1647 6.56802 53.4511 6.67303C53.7757 6.78759 54.0334 7.04535 54.1766 7.35084L56.0668 11.4081C56.21 11.7136 56.2387 12.0668 56.1241 12.3914H56.1145ZM66.463 15.2172C66.1861 14.9403 66.0716 14.6253 66.0716 14.3294C66.0716 13.9857 66.2243 13.6611 66.463 13.4224L69.6324 10.253C69.852 10.0334 70.148 9.89021 70.4725 9.87112C70.7971 9.85203 71.1408 9.95704 71.4367 10.253C71.7327 10.5489 71.8377 10.8926 71.8186 11.2172C71.7995 11.5322 71.6563 11.8377 71.4367 12.0573L68.2673 15.2267C68.0477 15.4463 67.7518 15.5895 67.4272 15.6086C67.1026 15.6277 66.7589 15.5131 66.463 15.2267V15.2172ZM63.0931 13.0979C62.7112 12.926 62.4916 12.6396 62.4057 12.3246C62.3103 12.0191 62.3484 11.685 62.4821 11.4081L64.3723 7.35084C64.5155 7.04535 64.7637 6.79714 65.0978 6.67303C65.3842 6.56802 65.7184 6.56802 66.0716 6.73031C66.4248 6.8926 66.6348 7.15036 66.7398 7.43675C66.8544 7.76134 66.8258 8.11456 66.6826 8.42005L64.7924 12.4773C64.6492 12.7828 64.4009 13.031 64.0668 13.1551C63.7804 13.2601 63.4463 13.2601 63.0931 13.0979V13.0979ZM59.2935 12.6683C58.9117 12.6683 58.6062 12.5251 58.3866 12.315C58.1384 12.0668 58.0143 11.7327 58.0143 11.3986V6.92124C58.0143 6.58711 58.1384 6.25298 58.3866 6.00477C58.6062 5.7852 58.9117 5.642 59.2935 5.642C59.6754 5.642 59.9809 5.7852 60.2005 6.00477C60.4487 6.25298 60.5728 6.58711 60.5728 6.92124V11.3986C60.5728 11.7327 60.4487 12.0668 60.2005 12.315C59.9809 12.5346 59.685 12.6778 59.2935 12.6778V12.6683ZM33.7661 54.8449V36.8401L46.1862 24.42V42.4248L33.7661 54.8449V54.8449ZM52.6873 32.2959H52.7542V32.3628H52.821V32.4296H52.8878V32.4964H52.9546V32.5632H53.0787V32.6301H54.7685V32.6969H54.8353V32.8305H54.9021V32.9642H54.969V33.031H55.0358V33.0978H55.1026V33.1647H55.1694V33.2315H55.2363V33.2983H55.3031V33.3652H55.3699V33.432H55.494V33.4988H55.685V33.5656H55.8759V33.6325H62.4344V33.5656H62.6253V33.4988H62.7494V33.432H62.8735V33.3652H62.9403V33.2983H63.0644V33.2315H63.1313V33.1647H63.1981V33.0978H63.2649V32.9642H63.3317V32.8974H63.3986V32.7637H63.4654V32.6969H63.5322V32.6301H65.1551V32.5632H65.3461V32.4964H65.4129V32.4296H65.4797V32.3628H65.5465V32.2959H65.6134V32.0955H65.6802V31.6945H65.6134V31.5609H65.5465V31.4272H65.4797V31.3604H65.4129V31.2936H65.3461V31.2267H65.2219V31.1599H63.6563V31.0931H63.5895V29.9666H63.6563V29.8998H65.2219V29.8329H65.3461V29.7661H65.4129V29.6993H65.4797V29.6325H65.5465V29.5656H65.6134V29.3652H65.6802V28.9642H65.6134V28.8305H65.5465V28.6969H65.4797V28.6301H65.4129V28.5632H65.2888V28.4964H65.0978V28.4296H63.599V27.2363H65.1647V27.1695H65.2888V27.1026H65.4129V27.0358H65.4797V26.969H65.5465V26.8353H65.6134V26.7017H65.6802V26.2339H65.6134V26.1002H65.5465V26.0334H65.4797V25.9666H65.4129V25.8998H65.3461V25.8329H65.2219V25.7661H63.5322V25.6993H63.4654V25.6325H63.3986V25.432H63.3317V25.3652H63.2649V25.2983H63.1981V25.2315H63.1313V25.1647H63.0644V25.0979H62.9976V25.031H62.9308V24.9642H62.8067V24.8974H62.6826V24.8305H62.4344V24.7637H55.7518V24.8305H55.5609V24.8974H55.494V24.9642H55.3699V25.031H55.2458V25.0979H55.179V25.1647H55.1122V25.2315H55.0453V25.2983H54.9785V25.3652H54.9117V25.4988H54.8449V25.6325H54.778V25.6993H54.7112V25.7661H53.0215V25.8329H52.8974V25.8998H52.8305V25.9666H52.7637V26.0334H52.6969V26.1671H52.6301V26.7685H52.6969V26.9021H52.7637V26.969H52.8305V27.0358H52.8974V27.1026H53.0215V27.1695H53.1456V27.2363H54.6444V28.4296H53.0787V28.4964H52.9546V28.5632H52.8878V28.6301H52.821V28.6969H52.7542V28.7637H52.6873V28.8974H52.6205V29.4988H52.6873V29.6325H52.7542V29.6993H52.821V29.7661H52.8878V29.8329H53.0119V29.8998H54.5776V29.9666H54.6444V31.1599H53.0787V31.2267H52.9546V31.2936H52.8878V31.3604H52.821V31.4272H52.7542V31.494H52.6873V31.5609H52.6205V32.1623H52.6873V32.2959V32.2959ZM56.6873 30.043V30.1766H56.7542V30.3103H56.821V30.4439H56.8878V30.5776H56.9546V30.7112H57.0215V30.778H57.0883V30.9117H57.1551V30.9785H57.2219V31.0453H57.2888V31.1122H57.3556V31.179H57.4224V31.2458H57.4893V31.3126H57.5561V31.3795H57.6802V31.4463H57.8043V31.5131H57.8711V31.5799H57.9952V31.6468H58.1193V31.7136H58.3103V31.7804H58.5012V31.8473H58.8735V31.9141H59.4367V31.8473H59.8091V31.7804H60V31.7136H60.1241V31.6468H60.2482V31.5799H60.3723V31.5131H60.4964V31.4463H60.5632V31.3795H60.6301V31.3126H60.7542V31.2458H60.821V31.179H60.8878V31.1122H60.9546V31.0453H61.0215V30.9785H61.0883V30.9117H61.1551V30.8449H61.2219V30.778H61.2888V30.6444H61.3556V30.5776H61.4224V30.3771H61.4893V30.2434H61.5561V30.1098H61.6229V29.9093H61.6897V29.7088H61.7566V28.8496H61.6897V28.5155H61.6229V28.2482H61.5561V28.1146H61.4893V27.9809H61.4224V27.8473H61.3556V27.7804H61.2888V27.6468H61.2219V27.58H61.1551V27.4463H61.0883V27.3795H61.0215V27.3126H60.9546V27.2458H60.8878V27.179H60.821V27.1122H60.6969V27.0453H60.6301V26.9785H60.5632V26.9117H60.4391V26.8449H60.315V26.778H60.1909V26.7112H60.0668V26.6444H59.8759V26.5776H59.685V26.5107H58.5585V26.5776H58.3675V26.6444H58.2434V26.7112H58.0525V26.778H57.9284V26.8449H57.8043V26.9117H57.7375V26.9785H57.6134V27.0453H57.5465V27.1122H57.4797V27.179H57.4129V27.2458H57.3461V27.3126H57.2792V27.3795H57.2124V27.4463H57.1456V27.5131H57.0788V27.58H57.0119V27.7136H56.9451V27.8473H56.8783V27.9141H56.8114V28.0477H56.7446V28.1814H56.6778V28.3819H56.611V28.6492H56.5441V29.7088H56.611V30.043H56.6778H56.6873ZM61.6897 38.9308V39.0644H61.7566V39.1981H61.8234V39.3317H61.8902V39.3986H61.957V39.4654H62.0239V39.5322H62.0907V39.599H62.2148V39.6659H62.3389V39.7327H62.5298V39.7995H65.2792V39.7327H65.4033V39.6659H65.5274V39.599H65.6515V39.5322H65.7184V39.4654H65.7852V39.3986H65.852V39.3317H65.9188V39.2649H65.9857V39.1313H66.0525V38.9976H66.1193V38.7971H66.1861V38.3962H66.1193V38.0621H66.0525V37.9952H65.9857V37.8616H65.9188V37.7947H65.852V37.7279H65.7852V37.6611H65.7184V37.5943H65.5943V37.5274H65.5274V37.4606H65.3365V37.3938H62.3962V37.4606H62.2052V37.5274H62.1384V37.5943H62.0716V37.6611H62.0048V37.7279H61.9379V37.7947H61.8711V37.8616H61.8043V37.9284H61.7375V38.0621H61.6706V38.1957H61.6038V38.9212H61.6706L61.6897 38.9308ZM52.1241 38.9976V39.1313H52.1909V39.1981H52.2578V39.3317H52.3246V39.3986H52.3914V39.4654H52.4582V39.5322H52.5251V39.599H52.6492V39.6659H52.7733V39.7327H52.8974V39.7995H55.7136V39.7327H55.8377V39.6659H55.9618V39.599H56.0859V39.5322H56.1527V39.4654H56.2196V39.3986H56.2864V39.3317H56.3532V39.2649H56.42V39.1313H56.4869V38.9976H56.5537V38.864H56.6205L56.5537 38.1384H56.4869V38.0048H56.42V37.9379H56.3532V37.8043H56.2864V37.7375H56.2196V37.6706H56.1527V37.6038H56.0859V37.537H55.9618V37.4702H55.7709V37.4033H52.8305V37.4702H52.6396V37.537H52.5728V37.6038H52.4487V37.6706H52.3819V37.7375H52.315V37.8043H52.2482V37.9379H52.1814V38.0716H52.1146V38.2721H52.0477V38.9976H52.1146H52.1241ZM61.6802 57.6706V57.8043H61.747V57.9379H61.8138V58.0716H61.8807V58.1384H61.9475V58.2052H62.0143V58.2721H62.0811V58.3389H62.2052V58.4057H62.3293V58.4726H62.5203V58.5394H65.2697V58.4726H65.3938V58.4057H65.5179V58.3389H65.642V58.2721H65.7088V58.2052H65.7756V58.1384H65.8425V58.0716H65.9093V58.0048H65.9761V57.8711H66.043V57.7375H66.1098V57.537H66.1766V57.136H66.1098V56.8019H66.043V56.7351H65.9761V56.6014H65.9093V56.5346H65.8425V56.4678H65.7756V56.401H65.7088V56.3341H65.5847V56.2673H65.5179V56.2005H65.327V56.1336H62.3866V56.2005H62.1957V56.2673H62.1289V56.3341H62.062V56.401H61.9952V56.4678H61.9284V56.5346H61.8616V56.6014H61.7947V56.6683H61.7279V56.8019H61.6611V56.9356H61.5943V57.6611H61.6611L61.6802 57.6706ZM52.1241 57.7375V57.8711H52.1909V57.9379H52.2578V58.0716H52.3246V58.1384H52.3914V58.2052H52.4582V58.2721H52.5251V58.3389H52.6492V58.4057H52.7733V58.4726H52.8974V58.5394H55.7136V58.4726H55.8377V58.4057H55.9618V58.3389H56.0859V58.2721H56.1527V58.2052H56.2196V58.1384H56.2864V58.0716H56.3532V58.0048H56.42V57.8711H56.4869V57.7375H56.5537V57.6038H56.6205V57.0692H56.5537V56.8687H56.4869V56.7351H56.42V56.6683H56.3532V56.5346H56.2864V56.4678H56.2196V56.401H56.1527V56.3341H56.0859V56.2673H55.9618V56.2005H55.7709V56.1336H52.8305V56.2005H52.6396V56.2673H52.5728V56.3341H52.4487V56.401H52.3819V56.4678H52.315V56.5346H52.2482V56.6683H52.1814V56.8019H52.1146V57.0024H52.0477V57.7279H52.1146L52.1241 57.7375ZM60 79.1313V79.2649H60.0668V79.3986H60.1336V79.4654H60.2005V79.5322H60.2673V79.599H60.3341V79.6659H60.4009V79.7327H60.4678V79.7995H60.5919V79.8664H60.716V79.9332H60.8401V80H61.4606V79.9332H61.6515V79.8664H61.8425V79.7995H61.9093V79.7327H61.9761V79.6659H62.043V79.599H62.1098V79.5322H62.1766V79.4654H62.2434V79.3986H62.3103V79.2649H62.3771V79.1313H62.4439V78.864H62.5107V76.1432H62.4439V75.9427H62.3771V75.8091H62.3103V75.6754H62.2434V75.6086H62.1766V75.5418H62.1098V75.4749H62.043V75.4081H61.9761V75.3413H61.9093V75.2745H61.7852V75.2076H61.6611V75.1408H61.537V75.074H60.9165V75.1408H60.7255V75.2076H60.6014V75.2745H60.4773V75.3413H60.4105V75.4081H60.3437V75.4749H60.2768V75.5418H60.21V75.6086H60.1432V75.6754H60.0764V75.8091H60.0095V75.9427H59.9427V79.1313H60.0095H60ZM55.8091 79.0644V79.1981H55.8759V79.3317H55.9427V79.4654H56.0095V79.5322H56.0764V79.599H56.1432V79.6659H56.21V79.7327H56.3341V79.7995H56.4009V79.8664H56.5251V79.9332H56.716V80H57.2792V79.9332H57.5274V79.8664H57.6515V79.7995H57.7184V79.7327H57.8425V79.6659H57.9093V79.599H57.9761V79.5322H58.043V79.3986H58.1098V79.3317H58.1766V79.1981H58.2434V78.864H58.3103V76.1432H58.2434V75.8759H58.1766V75.7422H58.1098V75.6754H58.043V75.5418H57.9761V75.4749H57.9093V75.4081H57.8425V75.3413H57.7184V75.2745H57.6515V75.2076H57.5274V75.1408H57.2792V75.074H56.6587V75.1408H56.5346V75.2076H56.4105V75.2745H56.2864V75.3413H56.2196V75.4081H56.1527V75.4749H56.0859V75.5418H56.0191V75.6086H55.9523V75.7422H55.8854V75.8759H55.8186V76.0764H55.7518V79.0644H55.8186H55.8091ZM51.6181 78.864V79.1313H51.685V79.2649H51.7518V79.3986H51.8186V79.5322H51.8854V79.599H51.9523V79.6659H52.0191V79.7327H52.0859V79.7995H52.21V79.8664H52.3341V79.9332H52.5251V80H53.2124V79.9332H53.3365V79.8664H53.4606V79.7995H53.5274V79.7327H53.6515V79.6659H53.7184V79.599H53.7852V79.5322H53.852V79.4654H53.9188V79.3986H53.9857V79.1981H54.0525V79.0644H54.1193V76.0095H54.0525V75.8759H53.9857V75.6754H53.9188V75.6086H53.852V75.5418H53.7852V75.4749H53.7184V75.4081H53.6515V75.3413H53.5847V75.2745H53.5179V75.2076H53.327V75.1408H53.136V75.074H52.5728V75.1408H52.3246V75.2076H52.2005V75.2745H52.0764V75.3413H52.0095V75.4081H51.9427V75.4749H51.8759V75.5418H51.8091V75.6754H51.7422V75.8091H51.6754V75.9427H51.6086V76.21H51.5418V78.864H51.6086H51.6181ZM64.1145 78.9308V79.1313H64.1814V79.2649H64.2482V79.3986H64.315V79.5322H64.3819V79.599H64.4487V79.6659H64.5155V79.7327H64.5823V79.7995H64.7064V79.8664H64.8305V79.9332H64.9546V80H65.7088V79.9332H65.8329V79.8664H66.0239V79.7995H66.0907V79.7327H66.1575V79.6659H66.2243V79.599H66.2912V79.5322H66.358V79.4654H66.4248V79.3986H66.4916V79.1981H66.5585V78.9976H66.6253V76.0095H66.5585V75.8759H66.4916V75.6754H66.4248V75.6086H66.358V75.5418H66.2912V75.4749H66.2243V75.4081H66.1575V75.3413H66.0334V75.2745H65.9666V75.2076H65.8425V75.1408H65.6515V75.074H65.031V75.1408H64.8401V75.2076H64.716V75.2745H64.5919V75.3413H64.5251V75.4081H64.4582V75.4749H64.3914V75.5418H64.3246V75.6086H64.2577V75.8091H64.1909V75.9427H64.1241V76.21H64.0573V78.9308H64.1241H64.1145ZM52.6778 50.9021V51.0358H52.7446V51.1026H52.8114V51.1694H52.8783V51.2363H52.9451V51.3031H53.0692V51.3699H54.7589V51.4368H54.8258V51.5704H54.8926V51.7041H54.9594V51.7709H55.0262V51.8377H55.0931V51.9045H55.1599V51.9714H55.2267V52.0382H55.2935V52.105H55.3604V52.1718H55.4845V52.2387H55.6754V52.3055H55.8663V52.3723H62.4248V52.3055H62.6157V52.2387H62.7398V52.1718H62.864V52.105H62.9308V52.0382H63.0549V51.9714H63.1217V51.9045H63.1885V51.8377H63.2554V51.7041H63.3222V51.6372H63.389V51.5036H63.4558V51.4368H63.5227V51.3699H65.1456V51.3031H65.3365V51.2363H65.4033V51.1694H65.4702V51.1026H65.537V51.0358H65.6038V50.8353H65.6706V50.4344H65.6038V50.3007H65.537V50.1671H65.4702V50.1002H65.4033V50.0334H65.3365V49.9666H65.2124V49.8998H63.6468V49.8329H63.5799V48.7064H63.6468V48.6396H65.2124V48.5728H65.3365V48.506H65.4033V48.4391H65.4702V48.3723H65.537V48.3055H65.6038V48.105H65.6706V47.7041H65.6038V47.5704H65.537V47.4368H65.4702V47.3699H65.4033V47.3031H65.2792V47.2363H65.0883V47.1694H63.5895V45.9761H65.1551V45.9093H65.2792V45.8425H65.4033V45.7757H65.4702V45.7088H65.537V45.5752H65.6038V45.4415H65.6706V44.9737H65.6038V44.8401H65.537V44.7733H65.4702V44.7064H65.4033V44.6396H65.3365V44.5728H65.2124V44.506H63.5227V44.4391H63.4558V44.3723H63.389V44.1718H63.3222V44.105H63.2554V44.0382H63.1885V43.9714H63.1217V43.9045H63.0549V43.8377H62.9881V43.7709H62.9212V43.7041H62.7971V43.6372H62.673V43.5704H62.4248V43.5036H55.7422V43.5704H55.5513V43.6372H55.4845V43.7041H55.3604V43.7709H55.2363V43.8377H55.1694V43.9045H55.1026V43.9714H55.0358V44.0382H54.969V44.105H54.9021V44.2387H54.8353V44.3723H54.7685V44.4391H54.7017V44.506H53.0119V44.5728H52.8878V44.6396H52.821V44.7064H52.7542V44.7733H52.6873V44.9069H52.6205V45.5084H52.6873V45.642H52.7542V45.7088H52.821V45.7757H52.8878V45.8425H53.0119V45.9093H53.136V45.9761H54.6348V47.1694H53.0692V47.2363H52.9451V47.3031H52.8783V47.3699H52.8114V47.4368H52.7446V47.5036H52.6778V47.6372H52.611V48.2387H52.6778V48.3723H52.7446V48.4391H52.8114V48.506H52.8783V48.5728H53.0024V48.6396H54.568V48.7064H54.6348V49.8998H53.0692V49.9666H52.9451V50.0334H52.8783V50.1002H52.8114V50.1671H52.7446V50.2339H52.6778V50.3007H52.611V50.9021H52.6778V50.9021ZM56.611 48.4487V48.7828H56.6778V48.9165H56.7446V49.0501H56.8114V49.1838H56.8783V49.3174H56.9451V49.4511H57.0119V49.5179H57.0788V49.6515H57.1456V49.7184H57.2124V49.7852H57.2792V49.852H57.3461V49.9189H57.4129V49.9857H57.4797V50.0525H57.5465V50.1193H57.6706V50.1862H57.7947V50.253H57.8616V50.3198H57.9857V50.3866H58.1098V50.4535H58.3007V50.5203H58.4916V50.5871H58.864V50.6539H59.4272V50.5871H59.7995V50.5203H59.9904V50.4535H60.1146V50.3866H60.2387V50.3198H60.3628V50.253H60.4869V50.1862H60.5537V50.1193H60.6205V50.0525H60.7446V49.9857H60.8114V49.9189H60.8783V49.852H60.9451V49.7852H61.0119V49.7184H61.0787V49.6515H61.1456V49.5847H61.2124V49.5179H61.2792V49.3842H61.3461V49.3174H61.4129V49.1169H61.4797V48.9833H61.5465V48.8496H61.6134V48.6492H61.6802V48.4487H61.747V47.5895H61.6802V47.2554H61.6134V46.9881H61.5465V46.8544H61.4797V46.7208H61.4129V46.5871H61.3461V46.5203H61.2792V46.3866H61.2124V46.3198H61.1456V46.1862H61.0787V46.1193H61.0119V46.0525H60.9451V45.9857H60.8783V45.9189H60.8114V45.852H60.6873V45.7852H60.6205V45.7184H60.5537V45.6516H60.4296V45.5847H60.3055V45.5179H60.1814V45.4511H60.0573V45.3842H59.8663V45.3174H59.6754V45.2506H58.5489V45.3174H58.358V45.3842H58.2339V45.4511H58.043V45.5179H57.9188V45.5847H57.7947V45.6516H57.7279V45.7184H57.6038V45.7852H57.537V45.852H57.4702V45.9189H57.4033V45.9857H57.3365V46.0525H57.2697V46.1193H57.2029V46.1862H57.136V46.253H57.0692V46.3198H57.0024V46.4535H56.9356V46.5871H56.8687V46.6539H56.8019V46.7876H56.7351V46.9212H56.6683V47.1217H56.6014V47.389H56.5346V48.4487H56.6014H56.611ZM52.6778 69.6802V69.8138H52.7446V69.8807H52.8114V69.9475H52.8783V70.0143H52.9451V70.0811H53.136V70.148H54.7589V70.2148H54.8258V70.3484H54.8926V70.4821H54.9594V70.5489H55.0262V70.6158H55.0931V70.6826H55.1599V70.7494H55.2267V70.8162H55.3508V70.8831H55.4177V70.9499H55.5418V71.0167H55.6659V71.0835H55.9141V71.1504H62.3484V71.0835H62.4725V71.0167H62.6635V70.9499H62.7876V70.8831H62.9117V70.8162H62.9785V70.7494H63.0453V70.6826H63.1122V70.6158H63.179V70.5489H63.2458V70.4821H63.3126V70.4153H63.3795V70.2816H63.4463V70.2148H63.5131V70.148H65.0787V70.0811H65.2697V70.0143H65.3938V69.9475H65.4606V69.8807H65.5274V69.747H65.5943V69.6134H65.6611V69.2124H65.5943V69.0119H65.5274V68.9451H65.4606V68.8783H65.3938V68.8115H65.327V68.7446H65.2029V68.6778H63.6372V68.611H63.5704V67.4177H65.1933V67.3508H65.3174V67.284H65.3842V67.2172H65.4511V67.1504H65.5179V67.0835H65.5847V66.8831H65.6515V66.4821H65.5847V66.3484H65.5179V66.2148H65.4511V66.148H65.3842V66.0811H65.3174V66.0143H65.0692V65.9475H63.5704V64.7542H63.6372V64.6874H65.2029V64.6205H65.327V64.5537H65.3938V64.4869H65.4606V64.42H65.5274V64.3532H65.5943V64.2196H65.6611V63.7518H65.5943V63.6181H65.5274V63.5513H65.4606V63.4845H65.3938V63.4177H65.327V63.3508H65.2601V63.284H65.0692V63.2172H63.5036V63.1504H63.4367V63.0835H63.3699V62.9499H63.3031V62.8831H63.2363V62.8162H63.1694V62.7494H63.1026V62.6826H63.0358V62.6158H62.969V62.5489H62.9021V62.4821H62.778V62.4153H62.6539V62.3485H62.463V62.2816H62.2721V62.2148H55.895V62.2816H55.6468V62.3485H55.5227V62.4153H55.3986V62.4821H55.3317V62.5489H55.2076V62.6158H55.1408V62.6826H55.074V62.7494H55.0072V62.8162H54.9403V62.8831H54.8735V63.0167H54.8067V63.1504H54.7398V63.2172H53.1169V63.284H52.9928V63.3508H52.8687V63.4177H52.8019V63.4845H52.7351V63.5513H52.6682V63.685H52.6014V64.2864H52.6682V64.42H52.7351V64.4869H52.8019V64.5537H52.926V64.6205H52.9928V64.6874H54.5585V64.7542H54.6253V65.9475H53.1265V66.0143H52.9356V66.0811H52.8687V66.148H52.8019V66.2148H52.7351V66.2816H52.6682V66.3484H52.6014V66.9499H52.6682V67.0835H52.7351V67.1504H52.8019V67.2172H52.8687V67.284H52.9356V67.3508H53.1265V67.4177H54.6253V68.611H54.5585V68.6778H52.9928V68.7446H52.8687V68.8115H52.8019V68.8783H52.7351V68.9451H52.6682V69.0788H52.6014V69.6802H52.6682H52.6778ZM56.611 67.5609H56.6778V67.6945H56.7446V67.8282H56.8114V67.9618H56.8783V68.0955H56.9451V68.2291H57.0119V68.2959H57.0788V68.3628H57.1456V68.4296H57.2124V68.4964H57.2792V68.5632H57.3461V68.6301H57.4129V68.6969H57.4797V68.7637H57.5465V68.8305H57.6134V68.8974H57.6802V68.9642H57.8043V69.031H57.9284V69.0979H58.0525V69.1647H58.1766V69.2315H58.3007V69.2983H58.5489V69.3652H59.6754V69.2983H59.9236V69.2315H60.1146V69.1647H60.2387V69.0979H60.3628V69.031H60.4296V68.9642H60.5537V68.8974H60.6205V68.8305H60.7446V68.7637H60.8114V68.6969H60.8783V68.6301H60.9451V68.5632H61.0119V68.4964H61.0787V68.4296H61.1456V68.2959H61.2124V68.2291H61.2792V68.0955H61.3461V68.0286H61.4129V67.895H61.4797V67.7613H61.5465V67.494H61.6134V67.2936H61.6802V67.0931H61.747V66.3675H61.6802V66.0334H61.6134V65.8329H61.5465V65.6325H61.4797V65.4988H61.4129V65.3652H61.3461V65.2983H61.2792V65.1647H61.2124V65.0979H61.1456V64.9642H61.0787V64.8974H61.0119V64.8306H60.9451V64.7637H60.8783V64.6969H60.8114V64.6301H60.6873V64.5632H60.6205V64.4964H60.5537V64.4296H60.4296V64.3628H60.3628V64.2959H60.2387V64.2291H60.0477V64.1623H59.9236V64.0955H59.6086V64.0286H58.6062V64.0955H58.358V64.1623H58.1671V64.2291H58.043V64.2959H57.9188V64.3628H57.7947V64.4296H57.7279V64.4964H57.6038V64.5632H57.537V64.6301H57.4702V64.6969H57.4033V64.7637H57.3365V64.8306H57.2697V64.8974H57.2029V64.9642H57.136V65.031H57.0692V65.0979H57.0024V65.2315H56.9356V65.2983H56.8687V65.432H56.8019V65.5656H56.7351V65.6993H56.6683V65.8329H56.6014V66.1002H56.5346L56.6014 67.5609H56.611ZM21.8234 4.05728V4.19093H21.8902V4.32458H21.957V4.39141H22.0239V4.45823H22.0907V4.52506H22.1575V4.59189H22.2243V4.65871H22.2912V4.72554H22.4153V4.79236H22.5394V4.85919H22.6635V4.92601H23.284V4.85919H23.5322V4.79236H23.599V4.72554H23.7231V4.65871H23.79V4.59189H23.8568V4.52506H23.9236V4.45823H23.9905V4.39141H24.0573V4.32458H24.1241V4.19093H24.1909V4.05728H24.2578V3.78998H24.3246V1.06921H24.2578V0.868735H24.1909V0.735083H24.1241V0.601432H24.0573V0.534606H23.9905V0.46778H23.9236V0.400955H23.8568V0.334129H23.79V0.267303H23.7231V0.200477H23.599V0.133652H23.4749V0.0668258H23.3508V0H22.7876V0.0668258H22.5394V0.133652H22.4153V0.200477H22.2912V0.267303H22.2243V0.334129H22.1575V0.400955H22.0907V0.46778H22.0239V0.534606H21.957V0.601432H21.8902V0.735083H21.8234V0.868735H21.7566V4.05728H21.8234V4.05728ZM25.9475 3.8568V4.05728H26.0143V4.19093H26.0811V4.32458H26.148V4.45823H26.2148V4.52506H26.2816V4.59189H26.3484V4.65871H26.4153V4.72554H26.5394V4.79236H26.6635V4.85919H26.8544V4.92601H27.5418V4.85919H27.6659V4.79236H27.79V4.72554H27.8568V4.65871H27.9809V4.59189H28.0477V4.52506H28.1146V4.45823H28.1814V4.32458H28.2482V4.25776H28.315V4.12411H28.3819V3.99045H28.4487V1.00239H28.3819V0.801909H28.315V0.601432H28.2482V0.534606H28.1814V0.46778H28.1146V0.400955H28.0477V0.334129H27.9809V0.267303H27.8568V0.200477H27.79V0.133652H27.6659V0.0668258H27.4749V0H26.9117V0.0668258H26.6635V0.133652H26.5394V0.200477H26.4153V0.267303H26.3484V0.334129H26.2816V0.400955H26.2148V0.46778H26.148V0.601432H26.0811V0.735083H26.0143V0.868735H25.9475V1.13604H25.8807V3.8568H25.9475V3.8568ZM13.4511 3.8568V4.05728H13.5179V4.19093H13.5847V4.32458H13.6516V4.39141H13.7184V4.45823H13.7852V4.52506H13.852V4.59189H13.9189V4.65871H13.9857V4.72554H14.0525V4.79236H14.1766V4.85919H14.3675V4.92601H15.0549V4.85919H15.179V4.79236H15.3699V4.72554H15.4368V4.65871H15.5036V4.59189H15.5704V4.52506H15.6372V4.45823H15.7041V4.39141H15.7709V4.32458H15.8377V4.12411H15.9045V3.99045H15.9714V0.935561H15.9045V0.801909H15.8377V0.601432H15.7709V0.534606H15.7041V0.46778H15.6372V0.400955H15.5704V0.334129H15.5036V0.267303H15.3795V0.200477H15.3126V0.133652H15.1885V0.0668258H15.0644V0H14.4439V0.0668258H14.1957V0.133652H14.0716V0.200477H13.9475V0.267303H13.8807V0.334129H13.8138V0.400955H13.747V0.46778H13.6802V0.534606H13.6134V0.735083H13.5465V0.868735H13.4797V1.06921H13.4129V3.8568H13.4797H13.4511ZM17.642 3.99045V4.12411H17.7088V4.25776H17.7757V4.39141H17.8425V4.45823H17.9093V4.52506H17.9761V4.59189H18.043V4.65871H18.1098V4.72554H18.2339V4.79236H18.358V4.85919H18.5489V4.92601H19.1122V4.85919H19.3604V4.79236H19.4845V4.72554H19.5513V4.65871H19.6754V4.59189H19.7422V4.52506H19.8091V4.45823H19.8759V4.32458H19.9427V4.25776H20.0095V4.12411H20.0764V3.92363H20.1432V1.06921H20.0764V0.868735H20.0095V0.668258H19.9427V0.601432H19.8759V0.46778H19.8091V0.400955H19.7422V0.334129H19.6754V0.267303H19.5513V0.200477H19.4845V0.133652H19.3604V0.0668258H19.1122V0H18.5489V0.0668258H18.358V0.133652H18.2339V0.200477H18.1098V0.267303H18.043V0.334129H17.9761V0.400955H17.9093V0.46778H17.8425V0.534606H17.7757V0.668258H17.7088V0.801909H17.642V0.935561H17.5752V3.99045H17.642ZM14.5203 16.401H14.5871V16.4678H14.6539V16.5346H14.7208V16.6014H14.7876V16.6683H14.9117V16.7351H16.6014V16.8019H16.6683V16.9356H16.7351V17.0692H16.8019V17.136H16.8687V17.2029H16.9356V17.2697H17.0024V17.3365H17.0692V17.4033H17.136V17.4702H17.2029V17.537H17.327V17.6038H17.5179V17.6706H17.7088V17.7375H24.2673V17.6706H24.4582V17.6038H24.5823V17.537H24.7064V17.4702H24.7733V17.4033H24.8974V17.3365H24.9642V17.2697H25.031V17.2029H25.0978V17.0692H25.1647V17.0024H25.2315V16.8687H25.2983V16.8019H25.3652V16.7351H26.9881V16.6683H27.179V16.6014H27.2458V16.5346H27.3126V16.4678H27.3795V16.401H27.4463V16.2005H27.5131V15.7995H27.4463V15.6659H27.3795V15.5322H27.3126V15.4654H27.2458V15.3986H27.179V15.3317H27.0549V15.2649H25.4893V15.1981H25.4224V14.0716H25.4893V14.0048H27.0549V13.9379H27.179V13.8711H27.2458V13.8043H27.3126V13.7375H27.3795V13.6706H27.4463V13.4702H27.5131V13.0692H27.4463V12.9356H27.3795V12.8019H27.3126V12.7351H27.2458V12.6683H27.1217V12.6014H26.9308V12.5346H25.432V11.3413H26.9976V11.2745H27.1217V11.2076H27.2458V11.1408H27.3126V11.074H27.3795V10.9403H27.4463V10.8067H27.5131V10.3389H27.4463V10.2053H27.3795V10.1384H27.3126V10.0716H27.2458V10.0048H27.179V9.93795H27.0549V9.87112H25.3652V9.8043H25.2983V9.73747H25.2315V9.53699H25.1647V9.47017H25.0978V9.40334H25.031V9.33652H24.9642V9.26969H24.8974V9.20286H24.8305V9.13604H24.7637V9.06921H24.6396V9.00239H24.5155V8.93556H24.2673V8.86873H17.5847V8.93556H17.3938V9.00239H17.327V9.06921H17.2029V9.13604H17.0788V9.20286H17.0119V9.26969H16.9451V9.33652H16.8783V9.40334H16.8115V9.47017H16.7446V9.60382H16.6778V9.73747H16.611V9.8043H16.5442V9.87112H14.8544V9.93795H14.7303V10.0048H14.6635V10.0716H14.5967V10.1384H14.5298V10.2721H14.463V10.8735H14.5298V11.0072H14.5967V11.074H14.6635V11.1408H14.7303V11.2076H14.8544V11.2745H14.9785V11.3413H16.4773V12.5346H14.9117V12.6014H14.7876V12.6683H14.7208V12.7351H14.6539V12.8019H14.5871V12.8687H14.5203V13.0024H14.4535V13.6038H14.5203V13.7375H14.5871V13.8043H14.6539V13.8711H14.7208V13.9379H14.8449V14.0048H16.4105V14.0716H16.4773V15.2649H14.9117V15.3317H14.7876V15.3986H14.7208V15.4654H14.6539V15.5322H14.5871V15.599H14.5203V15.6659H14.4535V16.2673H14.5203V16.401V16.401ZM18.5203 14.148V14.2816H18.5871V14.4153H18.6539V14.5489H18.7208V14.6826H18.7876V14.8162H18.8544V14.8831H18.9212V15.0167H18.9881V15.0835H19.0549V15.1504H19.1217V15.2172H19.1885V15.284H19.2554V15.3508H19.3222V15.4177H19.389V15.4845H19.5131V15.5513H19.6372V15.6181H19.7041V15.685H19.8282V15.7518H19.9523V15.8186H20.1432V15.8854H20.3341V15.9523H20.7064V16.0191H21.2697V15.9523H21.642V15.8854H21.8329V15.8186H21.957V15.7518H22.0811V15.685H22.2052V15.6181H22.3294V15.5513H22.3962V15.4845H22.463V15.4177H22.5871V15.3508H22.6539V15.284H22.7208V15.2172H22.7876V15.1504H22.8544V15.0835H22.9212V15.0167H22.9881V14.9499H23.0549V14.8831H23.1217V14.7494H23.1885V14.6826H23.2554V14.4821H23.3222V14.3484H23.389V14.2148H23.4558V14.0143H23.5227V13.8138H23.5895V12.9547H23.5227V12.6205H23.4558V12.3532H23.389V12.2196H23.3222V12.0859H23.2554V11.9523H23.1885V11.8854H23.1217V11.7518H23.0549V11.685H22.9881V11.5513H22.9212V11.4845H22.8544V11.4177H22.7876V11.3508H22.7208V11.284H22.6539V11.2172H22.5298V11.1504H22.463V11.0835H22.3962V11.0167H22.2721V10.9499H22.148V10.8831H22.0239V10.8162H21.8998V10.7494H21.7088V10.6826H21.5179V10.6158H20.3914V10.6826H20.2005V10.7494H20.0764V10.8162H19.8854V10.8831H19.7613V10.9499H19.6372V11.0167H19.5704V11.0835H19.4463V11.1504H19.3795V11.2172H19.3126V11.284H19.2458V11.3508H19.179V11.4177H19.1122V11.4845H19.0453V11.5513H18.9785V11.6181H18.9117V11.685H18.8449V11.8186H18.778V11.9523H18.7112V12.0191H18.6444V12.1527H18.5776V12.2864H18.5107V12.4869H18.4439V12.7542H18.3771V13.8138H18.4439V14.148H18.5107H18.5203ZM23.5227 23.0358V23.1695H23.5895V23.3031H23.6563V23.4368H23.7231V23.5036H23.79V23.5704H23.8568V23.6372H23.9236V23.7041H24.0477V23.7709H24.1718V23.8377H24.3628V23.9045H27.1122V23.8377H27.2363V23.7709H27.3604V23.7041H27.4845V23.6372H27.5513V23.5704H27.6181V23.5036H27.685V23.4368H27.7518V23.3699H27.8186V23.2363H27.8854V23.1026H27.9523V22.9021H28.0191V22.5012H27.9523V22.1671H27.8854V22.1002H27.8186V21.9666H27.7518V21.8998H27.685V21.8329H27.6181V21.7661H27.5513V21.6993H27.4272V21.6325H27.3604V21.5656H27.1694V21.4988H24.2291V21.5656H24.0382V21.6325H23.9714V21.6993H23.9045V21.7661H23.8377V21.8329H23.7709V21.8998H23.7041V21.9666H23.6372V22.0334H23.5704V22.1671H23.5036V22.3007H23.4368V23.0263H23.5036L23.5227 23.0358ZM13.957 23.1026V23.2363H14.0239V23.3031H14.0907V23.4368H14.1575V23.5036H14.2243V23.5704H14.2912V23.6372H14.358V23.7041H14.4821V23.7709H14.6062V23.8377H14.7303V23.9045H17.5465V23.8377H17.6706V23.7709H17.7947V23.7041H17.9189V23.6372H17.9857V23.5704H18.0525V23.5036H18.1193V23.4368H18.1862V23.3699H18.253V23.2363H18.3198V23.1026H18.3866V22.969H18.4535L18.3866 22.2434H18.3198V22.1098H18.253V22.043H18.1862V21.9093H18.1193V21.8425H18.0525V21.7757H17.9857V21.7088H17.9189V21.642H17.7947V21.5752H17.6038V21.5084H14.6635V21.5752H14.4726V21.642H14.4057V21.7088H14.2816V21.7757H14.2148V21.8425H14.148V21.9093H14.0811V22.043H14.0143V22.1766H13.9475V22.3771H13.8807V23.1026H13.9475H13.957ZM23.5131 41.7757V41.9093H23.58V42.043H23.6468V42.1766H23.7136V42.2434H23.7804V42.3103H23.8473V42.3771H23.9141V42.4439H24.0382V42.5107H24.1623V42.5776H24.3532V42.6444H27.1026V42.5776H27.2267V42.5107H27.3508V42.4439H27.4749V42.3771H27.5418V42.3103H27.6086V42.2434H27.6754V42.1766H27.7422V42.1098H27.8091V41.9761H27.8759V41.8425H27.9427V41.642H28.0095V41.241H27.9427V40.9069H27.8759V40.8401H27.8091V40.7064H27.7422V40.6396H27.6754V40.5728H27.6086V40.506H27.5418V40.4391H27.4177V40.3723H27.3508V40.3055H27.1599V40.2387H24.2196V40.3055H24.0286V40.3723H23.9618V40.4391H23.895V40.506H23.8282V40.5728H23.7613V40.6396H23.6945V40.7064H23.6277V40.7733H23.5609V40.9069H23.494V41.0406H23.4272V41.7661H23.494L23.5131 41.7757ZM13.957 41.8425V41.9761H14.0239V42.043H14.0907V42.1766H14.1575V42.2434H14.2243V42.3103H14.2912V42.3771H14.358V42.4439H14.4821V42.5107H14.6062V42.5776H14.7303V42.6444H17.5465V42.5776H17.6706V42.5107H17.7947V42.4439H17.9189V42.3771H17.9857V42.3103H18.0525V42.2434H18.1193V42.1766H18.1862V42.1098H18.253V41.9761H18.3198V41.8425H18.3866V41.7088H18.4535V41.1742H18.3866V40.9737H18.3198V40.8401H18.253V40.7733H18.1862V40.6396H18.1193V40.5728H18.0525V40.506H17.9857V40.4391H17.9189V40.3723H17.7947V40.3055H17.6038V40.2387H14.6635V40.3055H14.4726V40.3723H14.4057V40.4391H14.2816V40.506H14.2148V40.5728H14.148V40.6396H14.0811V40.7733H14.0143V40.9069H13.9475V41.1074H13.8807V41.8329H13.9475L13.957 41.8425ZM14.5203 35.0072V35.1408H14.5871V35.2076H14.6539V35.2745H14.7208V35.3413H14.7876V35.4081H14.9117V35.4749H16.6014V35.5418H16.6683V35.6754H16.7351V35.8091H16.8019V35.8759H16.8687V35.9427H16.9356V36.0095H17.0024V36.0764H17.0692V36.1432H17.136V36.21H17.2029V36.2768H17.327V36.3437H17.5179V36.4105H17.7088V36.4773H24.2673V36.4105H24.4582V36.3437H24.5823V36.2768H24.7064V36.21H24.7733V36.1432H24.8974V36.0764H24.9642V36.0095H25.031V35.9427H25.0978V35.8091H25.1647V35.7422H25.2315V35.6086H25.2983V35.5418H25.3652V35.4749H26.9881V35.4081H27.179V35.3413H27.2458V35.2745H27.3126V35.2076H27.3795V35.1408H27.4463V34.9403H27.5131V34.5394H27.4463V34.4057H27.3795V34.2721H27.3126V34.2052H27.2458V34.1384H27.179V34.0716H27.0549V34.0048H25.4893V33.9379H25.4224V32.8115H25.4893V32.7446H27.0549V32.6778H27.179V32.611H27.2458V32.5442H27.3126V32.4773H27.3795V32.4105H27.4463V32.21H27.5131V31.8091H27.4463V31.6754H27.3795V31.5418H27.3126V31.4749H27.2458V31.4081H27.1217V31.3413H26.9308V31.2745H25.432V30.0811H26.9976V30.0143H27.1217V29.9475H27.2458V29.8807H27.3126V29.8138H27.3795V29.6802H27.4463V29.5465H27.5131V29.0788H27.4463V28.9451H27.3795V28.8783H27.3126V28.8115H27.2458V28.7446H27.179V28.6778H27.0549V28.611H25.3652V28.5442H25.2983V28.4773H25.2315V28.2768H25.1647V28.21H25.0978V28.1432H25.031V28.0764H24.9642V28.0095H24.8974V27.9427H24.8305V27.8759H24.7637V27.8091H24.6396V27.7422H24.5155V27.6754H24.2673V27.6086H17.5847V27.6754H17.3938V27.7422H17.327V27.8091H17.2029V27.8759H17.0788V27.9427H17.0119V28.0095H16.9451V28.0764H16.8783V28.1432H16.8115V28.21H16.7446V28.3437H16.6778V28.4773H16.611V28.5442H16.5442V28.611H14.8544V28.6778H14.7303V28.7446H14.6635V28.8115H14.5967V28.8783H14.5298V29.0119H14.463V29.6134H14.5298V29.747H14.5967V29.8138H14.6635V29.8807H14.7303V29.9475H14.8544V30.0143H14.9785V30.0811H16.4773V31.2745H14.9117V31.3413H14.7876V31.4081H14.7208V31.4749H14.6539V31.5418H14.5871V31.6086H14.5203V31.7422H14.4535V32.3437H14.5203V32.4773H14.5871V32.5442H14.6539V32.611H14.7208V32.6778H14.8449V32.7446H16.4105V32.8115H16.4773V34.0048H14.9117V34.0716H14.7876V34.1384H14.7208V34.2052H14.6539V34.2721H14.5871V34.3389H14.5203V34.4057H14.4535V35.0072H14.5203V35.0072ZM18.4535 32.5537V32.8878H18.5203V33.0215H18.5871V33.1551H18.6539V33.2888H18.7208V33.4224H18.7876V33.5561H18.8544V33.6229H18.9212V33.7566H18.9881V33.8234H19.0549V33.8902H19.1217V33.957H19.1885V34.0239H19.2554V34.0907H19.3222V34.1575H19.389V34.2243H19.5131V34.2912H19.6372V34.358H19.7041V34.4248H19.8282V34.4916H19.9523V34.5585H20.1432V34.6253H20.3341V34.6921H20.7064V34.7589H21.2697V34.6921H21.642V34.6253H21.8329V34.5585H21.957V34.4916H22.0811V34.4248H22.2052V34.358H22.3294V34.2912H22.3962V34.2243H22.463V34.1575H22.5871V34.0907H22.6539V34.0239H22.7208V33.957H22.7876V33.8902H22.8544V33.8234H22.9212V33.7566H22.9881V33.6897H23.0549V33.6229H23.1217V33.4893H23.1885V33.4224H23.2554V33.222H23.3222V33.0883H23.389V32.9547H23.4558V32.7542H23.5227V32.5537H23.5895V31.6945H23.5227V31.3604H23.4558V31.0931H23.389V30.9594H23.3222V30.8258H23.2554V30.6921H23.1885V30.6253H23.1217V30.4916H23.0549V30.4248H22.9881V30.2912H22.9212V30.2243H22.8544V30.1575H22.7876V30.0907H22.7208V30.0239H22.6539V29.957H22.5298V29.8902H22.463V29.8234H22.3962V29.7566H22.2721V29.6897H22.148V29.6229H22.0239V29.5561H21.8998V29.4893H21.7088V29.4224H21.5179V29.3556H20.3914V29.4224H20.2005V29.4893H20.0764V29.5561H19.8854V29.6229H19.7613V29.6897H19.6372V29.7566H19.5704V29.8234H19.4463V29.8902H19.3795V29.957H19.3126V30.0239H19.2458V30.0907H19.179V30.1575H19.1122V30.2243H19.0453V30.2912H18.9785V30.358H18.9117V30.4248H18.8449V30.5585H18.778V30.6921H18.7112V30.7589H18.6444V30.8926H18.5776V31.0263H18.5107V31.2267H18.4439V31.494H18.3771V32.5537H18.4439H18.4535ZM14.5203 53.7852V53.9189H14.5871V53.9857H14.6539V54.0525H14.7208V54.1193H14.7876V54.1862H14.9785V54.253H16.6014V54.3198H16.6683V54.4535H16.7351V54.5871H16.8019V54.6539H16.8687V54.7208H16.9356V54.7876H17.0024V54.8544H17.0692V54.9212H17.1933V54.9881H17.2601V55.0549H17.3842V55.1217H17.5084V55.1885H17.7566V55.2554H24.1909V55.1885H24.315V55.1217H24.506V55.0549H24.6301V54.9881H24.7542V54.9212H24.821V54.8544H24.8878V54.7876H24.9547V54.7208H25.0215V54.6539H25.0883V54.5871H25.1551V54.5203H25.222V54.3866H25.2888V54.3198H25.3556V54.253H26.9212V54.1862H27.1122V54.1193H27.2363V54.0525H27.3031V53.9857H27.3699V53.852H27.4368V53.7184H27.5036V53.3174H27.4368V53.1169H27.3699V53.0501H27.3031V52.9833H27.2363V52.9165H27.1694V52.8496H27.0453V52.7828H25.4797V52.716H25.4129V51.5227H27.0358V51.4558H27.1599V51.389H27.2267V51.3222H27.2936V51.2554H27.3604V51.1885H27.4272V50.9881H27.494V50.5871H27.4272V50.4535H27.3604V50.3198H27.2936V50.253H27.2267V50.1862H27.1599V50.1193H26.9117V50.0525H25.4129V48.8592H25.4797V48.7924H27.0453V48.7255H27.1694V48.6587H27.2363V48.5919H27.3031V48.5251H27.3699V48.4582H27.4368V48.3246H27.5036V47.8568H27.4368V47.7231H27.3699V47.6563H27.3031V47.5895H27.2363V47.5227H27.1694V47.4558H27.1026V47.389H26.9117V47.3222H25.3461V47.2554H25.2792V47.1885H25.2124V47.0549H25.1456V46.9881H25.0788V46.9212H25.0119V46.8544H24.9451V46.7876H24.8783V46.7208H24.8115V46.6539H24.7446V46.5871H24.6205V46.5203H24.4964V46.4535H24.3055V46.3866H24.1146V46.3198H17.7375V46.3866H17.4893V46.4535H17.3652V46.5203H17.241V46.5871H17.1742V46.6539H17.0501V46.7208H16.9833V46.7876H16.9165V46.8544H16.8496V46.9212H16.7828V46.9881H16.716V47.1217H16.6492V47.2554H16.5823V47.3222H14.9594V47.389H14.8353V47.4558H14.7112V47.5227H14.6444V47.5895H14.5776V47.6563H14.5107V47.79H14.4439V48.3914H14.5107V48.5251H14.5776V48.5919H14.6444V48.6587H14.7685V48.7255H14.8353V48.7924H16.401V48.8592H16.4678V50.0525H14.969V50.1193H14.778V50.1862H14.7112V50.253H14.6444V50.3198H14.5776V50.3866H14.5107V50.4535H14.4439V51.0549H14.5107V51.1885H14.5776V51.2554H14.6444V51.3222H14.7112V51.389H14.778V51.4558H14.969V51.5227H16.4678V52.716H16.401V52.7828H14.8353V52.8496H14.7112V52.9165H14.6444V52.9833H14.5776V53.0501H14.5107V53.1838H14.4439V53.7852H14.5107H14.5203ZM18.4535 51.6659H18.5203V51.7995H18.5871V51.9332H18.6539V52.0668H18.7208V52.2005H18.7876V52.3341H18.8544V52.401H18.9212V52.4678H18.9881V52.5346H19.0549V52.6014H19.1217V52.6683H19.1885V52.7351H19.2554V52.8019H19.3222V52.8687H19.389V52.9356H19.4558V53.0024H19.5227V53.0692H19.6468V53.136H19.7709V53.2029H19.895V53.2697H20.0191V53.3365H20.1432V53.4033H20.3914V53.4702H21.5179V53.4033H21.7661V53.3365H21.957V53.2697H22.0811V53.2029H22.2052V53.136H22.2721V53.0692H22.3962V53.0024H22.463V52.9356H22.5871V52.8687H22.6539V52.8019H22.7208V52.7351H22.7876V52.6683H22.8544V52.6014H22.9212V52.5346H22.9881V52.401H23.0549V52.3341H23.1217V52.2005H23.1885V52.1336H23.2554V52H23.3222V51.8663H23.389V51.599H23.4558V51.3986H23.5227V51.1981H23.5895V50.4726H23.5227V50.1384H23.4558V49.9379H23.389V49.7375H23.3222V49.6038H23.2554V49.4702H23.1885V49.4033H23.1217V49.2697H23.0549V49.2029H22.9881V49.0692H22.9212V49.0024H22.8544V48.9356H22.7876V48.8687H22.7208V48.8019H22.6539V48.7351H22.5298V48.6683H22.463V48.6014H22.3962V48.5346H22.2721V48.4678H22.2052V48.401H22.0811V48.3341H21.8902V48.2673H21.7661V48.2005H21.4511V48.1336H20.4487V48.2005H20.2005V48.2673H20.0095V48.3341H19.8854V48.401H19.7613V48.4678H19.6372V48.5346H19.5704V48.6014H19.4463V48.6683H19.3795V48.7351H19.3126V48.8019H19.2458V48.8687H19.179V48.9356H19.1122V49.0024H19.0453V49.0692H18.9785V49.136H18.9117V49.2029H18.8449V49.3365H18.778V49.4033H18.7112V49.537H18.6444V49.6706H18.5776V49.8043H18.5107V49.9379H18.4439V50.2052H18.3771L18.4439 51.6659H18.4535Z" fill="black"/>
</svg>
