<svg width="80" height="80" viewBox="0 0 80 80" fill="none" xmlns="http://www.w3.org/2000/svg">
<path d="M60.7121 4.72412C60.7121 2.1271 62.8371 0 65.4341 0H72.8185V80H65.4341C62.8371 80 60.7121 77.875 60.7121 75.2759V64.4961C56.8987 64.1954 53.8751 60.9855 53.8751 57.101V22.9011C53.8751 19.0159 56.8987 15.8068 60.7121 15.506V4.72412Z" fill="black"/>
<path d="M45.0058 39.7572C45.013 37.996 43.5405 36.5683 41.7169 36.5683C39.8933 36.5683 38.4092 37.996 38.4021 39.7572C38.395 41.5184 39.8675 42.9461 41.691 42.9461C43.5146 42.9461 44.9987 41.5184 45.0058 39.7572Z" fill="black"/>
<path d="M15.7647 32.3163C20.0197 32.3163 23.4555 35.6477 23.4388 39.7572C23.4221 43.8667 19.9592 47.198 15.7042 47.198C11.4492 47.198 8.0134 43.8667 8.03009 39.7572C8.04678 35.6477 11.5097 32.3163 15.7647 32.3163Z" fill="black"/>
<path d="M36.3866 39.7572C36.3985 36.8219 33.9443 34.4423 30.905 34.4423C27.8658 34.4423 25.3923 36.8219 25.3803 39.7572C25.3684 42.6925 27.8226 45.0721 30.8619 45.0721C33.9012 45.0721 36.3747 42.6925 36.3866 39.7572Z" fill="black"/>
<path d="M46.0451 23.5838C47.8687 23.5838 49.3412 25.0116 49.3341 26.7728C49.3269 28.534 47.8428 29.9617 46.0193 29.9617C44.1957 29.9617 42.7232 28.534 42.7303 26.7728C42.7375 25.0116 44.2216 23.5838 46.0451 23.5838Z" fill="black"/>
<path d="M29.3329 17.8904C29.3496 13.7809 25.9138 10.4495 21.6588 10.4495C17.4038 10.4495 13.9409 13.7809 13.9242 17.8904C13.9075 21.9999 17.3433 25.3313 21.5983 25.3313C25.8533 25.3313 29.3162 21.9999 29.3329 17.8904Z" fill="black"/>
<path d="M35.8853 17.7569C38.9246 17.7569 41.3788 20.1365 41.3668 23.0718C41.3549 26.0072 38.8814 28.3867 35.8421 28.3867C32.8028 28.3867 30.3487 26.0072 30.3606 23.0718C30.3725 20.1365 32.846 17.7569 35.8853 17.7569Z" fill="black"/>
<path d="M49.3341 52.7423C49.3412 50.9811 47.8687 49.5534 46.0451 49.5534C44.2216 49.5534 42.7375 50.9811 42.7303 52.7423C42.7232 54.5035 44.1957 55.9313 46.0193 55.9313C47.8428 55.9313 49.3269 54.5035 49.3341 52.7423Z" fill="black"/>
<path d="M21.6589 54.1831C25.9139 54.1831 29.3497 57.5144 29.3331 61.6239C29.3164 65.7334 25.8535 69.0648 21.5985 69.0648C17.3435 69.0648 13.9076 65.7334 13.9243 61.6239C13.941 57.5144 17.4039 54.1831 21.6589 54.1831Z" fill="black"/>
<path d="M41.3676 56.4427C41.3795 53.5073 38.9253 51.1278 35.886 51.1278C32.8467 51.1278 30.3733 53.5073 30.3613 56.4427C30.3494 59.378 32.8036 61.7576 35.8429 61.7576C38.8822 61.7576 41.3557 59.378 41.3676 56.4427Z" fill="black"/>
</svg>
