<svg width="80" height="80" viewBox="0 0 80 80" fill="none" xmlns="http://www.w3.org/2000/svg">
<path d="M78.2748 4H1.73229C0.779502 4 0.00711496 4.77236 0.00711496 5.7251V13.0839C0.00711496 14.0367 0.779502 14.8091 1.73229 14.8091H78.2748C79.2276 14.8091 80 14.0367 80 13.0839V5.7251C80 4.77236 79.2276 4 78.2748 4Z" fill="black"/>
<path d="M2.99191 14.841V75.2914C2.99191 75.557 3.25097 75.7722 3.57054 75.7722H7.14441C7.46398 75.7722 7.72304 75.557 7.72304 75.2914V14.841C7.72304 14.5754 7.46398 14.3601 7.14441 14.3601H3.57054C3.25097 14.3601 2.99191 14.5754 2.99191 14.841Z" fill="black"/>
<path d="M79.2846 71.6071H0.711424C0.318515 71.6071 0 71.8661 0 72.1856V75.1936C0 75.5131 0.318515 75.7722 0.711424 75.7722H79.2846C79.6775 75.7722 79.996 75.5131 79.996 75.1936V72.1856C79.996 71.8661 79.6775 71.6071 79.2846 71.6071Z" fill="black"/>
<path d="M72.1595 14.2288V74.6792C72.1595 74.9448 72.4186 75.1601 72.7382 75.1601H76.312C76.6316 75.1601 76.8906 74.9448 76.8906 74.6792V14.2288C76.8906 13.9632 76.6316 13.748 76.312 13.748H72.7382C72.4186 13.748 72.1595 13.9632 72.1595 14.2288Z" fill="black"/>
<path d="M70.4954 30.4929H9.51216C9.24425 30.4929 9.02707 30.8379 9.02707 31.2635V36.0234C9.02707 36.449 9.24425 36.794 9.51216 36.794H70.4954C70.7633 36.794 70.9805 36.449 70.9805 36.0234V31.2635C70.9805 30.8379 70.7633 30.4929 70.4954 30.4929Z" fill="black"/>
<path d="M40.5578 32.5795C40.5578 32.4665 40.3099 32.3749 40.004 32.3749C39.6982 32.3749 39.4502 32.4665 39.4502 32.5795V41.3538C39.4502 41.4668 39.6982 41.5584 40.004 41.5584C40.3099 41.5584 40.5578 41.4668 40.5578 41.3538V32.5795Z" fill="black"/>
<path d="M37.9895 44.6396C37.9895 45.1948 38.2155 45.6988 38.5802 46.0635C38.9441 46.4274 39.4488 46.6535 40.004 46.6535C40.5592 46.6535 41.0639 46.4274 41.4279 46.0635C41.7925 45.6988 42.0186 45.1948 42.0186 44.6396C42.0186 44.0823 41.794 43.5769 41.4321 43.2158C41.0667 42.8497 40.5613 42.6251 40.004 42.6251C39.4453 42.6251 38.9413 42.8497 38.5802 43.2115C38.2141 43.5769 37.9895 44.0823 37.9895 44.6396ZM37.0718 47.5719C36.3218 46.822 35.8569 45.7841 35.8569 44.6396C35.8569 43.5001 36.3218 42.4637 37.0718 41.7116C37.8274 40.9574 38.8631 40.4925 40.004 40.4925C41.1435 40.4925 42.18 40.9574 42.932 41.7074C43.6863 42.4637 44.1512 43.5001 44.1512 44.6396C44.1512 45.7841 43.6863 46.822 42.9363 47.5719C42.1863 48.3219 41.1485 48.786 40.004 48.786C38.8595 48.786 37.8217 48.3219 37.0718 47.5719Z" fill="black"/>
<path fill-rule="evenodd" clip-rule="evenodd" d="M10.5377 29.6661H69.4704V15.5201H10.5377V29.6661Z" fill="black"/>
<path fill-rule="evenodd" clip-rule="evenodd" d="M10.5377 29.6661H69.4704V15.5201H10.5377V29.6661Z" fill="black"/>
<path d="M12.3036 61.6069C12.2237 61.5269 11.9836 61.6375 11.7673 61.8537C11.551 62.07 11.4405 62.3101 11.5204 62.39L17.7247 68.5943C17.8047 68.6743 18.0448 68.5637 18.261 68.3475C18.4773 68.1312 18.5878 67.8911 18.5079 67.8112L12.3036 61.6069Z" fill="black"/>
<path d="M12.7693 57.3694C12.6866 57.2867 12.4442 57.395 12.2279 57.6113C12.0117 57.8275 11.9034 58.0699 11.9861 58.1526L21.9613 68.1278C22.044 68.2105 22.2864 68.1022 22.5026 67.8859C22.7189 67.6697 22.8272 67.4273 22.7445 67.3446L12.7693 57.3694Z" fill="black"/>
</svg>
