<svg width="80" height="80" viewBox="0 0 80 80" fill="none" xmlns="http://www.w3.org/2000/svg">
<path fill-rule="evenodd" clip-rule="evenodd" d="M46.6715 50.9106H41.3426V34.348C41.6099 34.4559 46.6484 45.1019 47.4871 46.7824C48.3509 48.5134 48.2602 48.0501 47.7064 48.849C47.4459 49.2247 46.6827 50.4069 46.6715 50.9106V50.9106ZM30.973 47.8861L37.8263 34.1741L37.8861 50.9106H32.5572C32.5453 50.3726 31.4033 48.4739 30.973 48.3182V47.8861V47.8861ZM37.8861 14.4728V26.5708L28.1053 46.1643C27.5918 46.1579 27.4361 46.0426 27.0898 45.9365C26.6831 45.8119 26.3745 45.9286 25.9564 45.8424C25.3983 45.7273 24.4732 45.8366 23.8286 45.9985C22.9069 46.2299 22.7625 46.3803 22.0927 46.7111C20.6126 47.4421 21.3084 47.2988 20.6022 47.7409C20.4389 47.8431 19.5451 48.8675 19.4492 49.0364C19.136 49.5881 18.8202 50.1293 18.6228 50.7304C17.1871 55.1025 19.7353 61.69 16.3806 63.4665C15.0934 64.1482 13.9332 64.4487 12.4876 63.7792C11.3433 63.2493 10.6751 62.2115 10.2338 60.9923C13.8092 59.6981 14.293 55.7904 13.9783 55.6634L10.0898 55.5129C10.0897 53.5317 10.2458 51.683 8.36132 51.6786C7.69126 51.6771 6.92097 52.2392 6.79019 52.8681C6.60312 53.7674 6.63316 54.4503 6.63316 55.5194H2.74453C2.74453 58.1563 4.37097 60.2101 6.38362 60.8818C7.43698 61.2333 6.4038 61.6001 8.27493 64.4633C9.77879 66.7645 13.041 68.0106 15.9375 67.2721C18.5633 66.6026 20.6763 64.5137 21.3695 61.8304C22.0562 59.1721 21.1507 53.3528 21.9159 51.5031C22.2591 50.6733 22.94 50.0267 23.7224 49.6371C24.723 49.1388 25.3904 49.0018 26.7151 49.3357C27.4087 49.5104 28.5864 50.2857 28.8127 50.9106L25.0681 51.0547C24.7869 51.1682 25.1845 53.5254 25.2824 53.9368C26.5756 59.3647 30.6416 64.1747 36.3293 65.2855C36.4292 65.3051 37.2361 65.3439 37.3068 66.1076L37.5598 68.8395C38.0208 70.6916 40.84 70.9635 41.5575 68.897L41.7408 66.1834C41.774 65.6932 42.2588 65.3959 42.8381 65.2962C48.4898 64.324 52.6687 59.3547 53.9313 53.9939C54.0311 53.5702 54.4539 51.173 54.1607 51.0547L50.4161 50.904C50.7953 49.8677 53.1577 48.4647 55.4584 49.6129C56.285 50.0254 56.8522 50.5749 57.2683 51.4036C58.0993 53.058 57.1667 59.1826 57.8437 61.7739C58.4096 63.9401 59.3436 64.8597 60.7849 66.1058C61.8518 67.0282 64.4146 67.8796 66.4893 67.3439C67.7536 67.0175 68.0655 66.9378 69.0383 66.2924C69.724 65.8375 70.4495 65.2426 70.9257 64.5073C71.3285 63.8853 71.975 62.8872 72.1378 62.1188C72.5069 60.3771 72.2489 61.456 73.9944 60.3028C75.3679 59.3953 76.4841 57.7918 76.4841 55.5194H72.5955C72.5955 54.4502 72.6255 53.7673 72.4385 52.868C72.3077 52.2392 71.5374 51.677 70.8673 51.6786C68.9829 51.683 69.139 53.5317 69.139 55.5194L65.2503 55.6634C64.9816 55.7719 65.3836 57.1442 65.4831 57.447C66.0003 59.0216 67.3638 60.4018 68.9949 60.9922C68.5462 62.2318 67.9289 63.1785 66.7896 63.7558C64.412 64.9604 61.0374 63.2555 61.071 60.2027C61.0895 58.5249 61.0737 56.8382 61.0737 55.1594C61.0737 53.1169 61.1018 52.2529 60.588 50.6762C60.2764 49.7198 59.2743 48.1743 58.5371 47.6863C57.8301 47.2183 58.7371 47.5379 57.0388 46.6643C56.0951 46.1789 56.5958 46.3162 55.2299 45.9528C53.8018 45.5728 52.1915 45.8678 50.9921 46.3019L41.3696 26.5576L41.3425 14.4729C42.1197 14.4556 43.7427 13.1273 44.1097 12.5592C44.8219 11.4565 45.2312 10.8969 45.2312 9H33.9974C33.9974 10.8969 34.4067 11.4565 35.1189 12.5592C35.4858 13.1272 37.1088 14.4555 37.886 14.4729L37.8861 14.4728ZM8.78713 37.4574C8.39959 37.4574 8.20595 37.1667 8.20595 36.8762V33.679C8.20595 33.3883 8.39959 33.0978 8.78713 33.0978C9.17457 33.0978 9.3682 33.3883 9.3682 33.679V36.8762C9.3682 37.1667 9.17457 37.4574 8.78713 37.4574ZM11.6388 37.7929C11.2878 37.6291 11.235 37.2839 11.3579 37.0206L12.7091 34.123C12.8318 33.8597 13.1301 33.6781 13.4814 33.8419C13.8325 34.0057 13.8854 34.3508 13.7624 34.6144L12.4113 37.512C12.2885 37.7752 11.9903 37.9567 11.6388 37.7929V37.7929ZM14.1388 39.3713C13.865 39.0973 13.9335 38.7551 14.1388 38.5494L16.3994 36.2888C16.605 36.0833 16.9474 36.0147 17.2214 36.2888C17.4957 36.5628 17.4271 36.9054 17.2214 37.1109L14.9607 39.3713C14.7555 39.5769 14.413 39.6454 14.1388 39.3713ZM5.89893 37.7929C6.25003 37.6291 6.30296 37.2839 6.18017 37.0206L4.82892 34.123C4.7063 33.8597 4.40774 33.6781 4.05637 33.8419C3.70532 34.0057 3.65261 34.3508 3.7754 34.6144L5.12638 37.512C5.24949 37.7752 5.54772 37.9567 5.89893 37.7929ZM3.39899 39.3713C3.67307 39.0973 3.60442 38.7551 3.39899 38.5494L1.13839 36.2888C0.933067 36.0833 0.590237 36.0147 0.31638 36.2888C0.0423582 36.5628 0.110726 36.9054 0.31638 37.1109L2.57692 39.3713C2.78247 39.5769 3.12464 39.6454 3.39893 39.3713H3.39899ZM16.9561 49.1328L14.0239 40.9076C13.8335 40.4125 13.4146 40.0697 12.9578 40.0697H4.58015C4.16123 40.0697 3.74237 40.3745 3.55199 40.8314L0.12473 49.0566C-0.256034 49.9705 0.277069 51.0368 1.15289 51.0368C2.14235 51.0368 14.9476 51.0368 15.8899 51.0368C16.7277 51.0368 17.2988 50.0467 16.9561 49.1328L16.9561 49.1328ZM71.3848 37.4574C70.9973 37.4574 70.8036 37.1667 70.8036 36.8762V33.679C70.8036 33.3883 70.9973 33.0978 71.3848 33.0978C71.7723 33.0978 71.9659 33.3883 71.9659 33.679V36.8762C71.9659 37.1667 71.7723 37.4574 71.3848 37.4574ZM74.2365 37.7929C73.8855 37.6291 73.8327 37.2839 73.9556 37.0206L75.3068 34.123C75.4295 33.8597 75.7278 33.6781 76.0791 33.8419C76.4302 34.0057 76.4831 34.3508 76.3601 34.6144L75.009 37.512C74.8862 37.7752 74.588 37.9567 74.2365 37.7929V37.7929ZM76.7365 39.3713C76.4627 39.0973 76.5311 38.7551 76.7365 38.5494L78.9971 36.2888C79.2027 36.0833 79.5451 36.0147 79.8191 36.2888C80.0934 36.5628 80.0248 36.9054 79.8191 37.1109L77.5584 39.3713C77.3532 39.5769 77.0107 39.6454 76.7365 39.3713ZM68.4966 37.7929C68.8477 37.6291 68.9007 37.2839 68.7779 37.0206L67.4266 34.123C67.304 33.8597 67.0054 33.6781 66.6541 33.8419C66.303 34.0057 66.2503 34.3508 66.3731 34.6144L67.7241 37.512C67.8472 37.7752 68.1454 37.9567 68.4966 37.7929V37.7929ZM65.9967 39.3713C66.2708 39.0973 66.2021 38.7551 65.9967 38.5494L63.7361 36.2888C63.5308 36.0833 63.1879 36.0147 62.9141 36.2888C62.6401 36.5628 62.7084 36.9054 62.9141 37.1109L65.1746 39.3713C65.3802 39.5769 65.7223 39.6454 65.9966 39.3713H65.9967ZM79.5538 49.1328L76.6216 40.9076C76.4312 40.4125 76.0123 40.0697 75.5555 40.0697H67.1778C66.7589 40.0697 66.3401 40.3745 66.1497 40.8314L62.7224 49.0566C62.3417 49.9705 62.8748 51.0368 63.7506 51.0368C64.74 51.0368 77.5453 51.0368 78.4876 51.0368C79.3254 51.0368 79.8965 50.0467 79.5538 49.1328L79.5538 49.1328Z" fill="black"/>
</svg>
