<svg width="80" height="80" viewBox="0 0 80 80" fill="none" xmlns="http://www.w3.org/2000/svg">
<path fill-rule="evenodd" clip-rule="evenodd" d="M43.2139 0.819612C43.4173 1.39327 43.5736 2.50362 43.6881 3.3346C43.6945 3.44692 43.7293 3.50947 43.8786 3.518C45.2982 3.52938 45.5313 3.40782 45.8306 3.84286C46.3197 4.494 46.6808 5.24964 46.921 6.03086C47.1762 6.86611 47.2949 7.74473 47.2928 8.57358L47.2864 9.35409H47.0618C47.0575 9.90429 47.0682 9.93841 47.6113 9.93415C48.5787 9.92562 49.4744 10.817 49.4936 11.8449V17.4194L50.5414 18.1118C54.3971 19.1681 57.8098 21.3511 60.3419 24.2898C62.8384 27.1894 64.4854 30.8268 64.8665 34.8587C65.5069 41.5841 64.8729 50.7591 64.8729 57.2918C64.8729 60.4209 64.1222 63.3859 62.7936 66.0146C61.4736 68.6242 59.5799 70.901 57.2838 72.6774C57.2668 74.3003 57.0073 75.7327 56.5069 76.8821C55.9488 78.1631 55.0916 79.1085 53.9364 79.6111C52.6725 80.1606 51.2096 80.113 49.6628 79.5542C48.2212 79.0353 46.6957 78.07 45.1851 76.7456H35.6249C34.1151 78.0721 32.5867 79.0374 31.1458 79.5542C29.5983 80.113 28.1382 80.1627 26.8743 79.6111C25.7661 79.1284 24.933 78.2434 24.375 77.0442C23.8774 75.9793 23.598 74.6529 23.5376 73.1431C21.0638 71.3816 19.0152 69.0549 17.5821 66.363C16.1433 63.6496 15.3251 60.5596 15.3251 57.2918C15.3251 52.367 14.5375 40.2967 15.414 35.0379C15.7971 30.9675 17.4548 27.2476 19.9734 24.2898C22.499 21.3277 25.8962 19.1205 29.759 18.0841L30.7286 17.4429C30.7733 17.0341 30.5857 16.8479 30.2004 16.8522H24.6821C23.7494 16.8244 23.3016 16.4455 23.2888 15.4674V13.02C23.2476 11.9793 23.7821 11.5094 24.7795 11.5073H25.3531V7.30755C25.4939 6.79432 25.6709 6.38984 26.0519 6.00456C26.3682 5.68255 26.7727 5.44654 27.2831 5.2866C27.5688 5.19561 28.8974 5.21481 29.2201 5.25817C29.7547 5.33139 30.2025 5.57805 30.5445 5.91997C30.9447 6.32089 31.1565 6.78365 31.2759 7.32888V11.5073H32.3379V11.1376C32.3038 10.7502 32.6365 10.4275 33.009 10.3322C33.2165 10.3436 33.3097 10.259 33.3011 10.0877V9.35409H33.0587L33.0545 8.57358C33.0502 7.74899 33.1803 6.86825 33.4334 6.03939C33.68 5.234 34.0433 4.47054 34.5131 3.84286C34.8053 3.518 34.7271 3.54004 35.9085 3.53791C36.0386 3.52724 36.114 3.46185 36.1253 3.3346C36.2398 2.50362 36.3955 1.39327 36.5988 0.819612C36.6898 0.568681 36.8717 0.400209 37.1532 0.322016C37.5854 0.216099 38.0382 0.13364 38.501 0.0817479C38.9616 0.0277232 39.4315 0 39.9056 0C40.3812 0 40.8511 0.0277232 41.3117 0.0817479C41.7731 0.13364 42.2273 0.216099 42.6602 0.322016C42.9069 0.369643 43.1123 0.512524 43.2139 0.819612ZM40.2561 10.7566C38.3347 10.7566 36.7765 12.3404 36.7765 14.2945C36.7765 16.2486 38.3347 17.8324 40.2561 17.8324C42.1775 17.8324 43.7357 16.2486 43.7357 14.2945C43.7357 12.3404 42.1775 10.7566 40.2561 10.7566ZM16.8919 51.1657C19.5924 52.0876 28.9578 55.1215 40.0983 55.1215C51.238 55.1215 60.6035 52.0876 63.304 51.1657V36.9102C60.6035 37.9829 51.238 40.3465 40.0983 40.3465C28.9578 40.3465 19.5924 37.9829 16.8919 36.9102V51.1657Z" fill="black"/>
</svg>
