<svg width="80" height="80" viewBox="0 0 80 80" fill="none" xmlns="http://www.w3.org/2000/svg">
<path fill-rule="evenodd" clip-rule="evenodd" d="M28.8929 75.8256H36.321C36.7583 75.7401 37.0966 75.5726 37.3256 75.3143C37.5728 75.0354 37.7259 74.6203 37.7755 74.0559V34.0807H41.9497L41.9462 74.0767C41.9392 74.635 42.0654 75.0389 42.3112 75.3038C42.5588 75.5706 42.9574 75.7411 43.4903 75.8256H51.143L51.5926 76.1834C51.8495 76.3498 51.9259 76.3801 52.0924 76.7004C52.2707 77.0432 52.4327 76.804 52.4327 77.8049V78.0463H52.4292C52.4292 78.614 52.39 78.7829 52.0472 79.2056C51.7197 79.6112 51.357 79.8817 50.8785 79.9719C50.7415 79.9942 50.5728 79.9964 50.3108 79.9966V80.0001H29.4585V79.9966C28.4236 79.9954 28.6245 79.8741 28.0333 79.5321C27.9488 79.4831 27.9064 79.4586 27.8164 79.3682L27.8147 79.37C27.7338 79.2891 27.7072 79.2425 27.654 79.15H27.6505C27.5706 79.01 27.2876 78.9753 27.2946 78.2146L27.2917 77.7153C27.2622 77.0745 27.4027 77.05 27.6604 76.6415C27.8607 76.2859 27.9694 76.219 28.1972 76.1403L28.5645 75.8256H28.8929ZM18.6412 35.3104C18.0537 34.7129 17.3122 34.8552 16.8645 35.2956L11.9363 40.1421C11.4884 40.5827 11.334 41.3216 11.9216 41.9188C12.5089 42.5161 13.2501 42.3742 13.6981 41.9336L18.6262 37.0871C19.074 36.6467 19.2285 35.9076 18.6412 35.3104ZM23.4811 39.1974C22.6965 38.9045 22.0843 39.3464 21.8649 39.9349L19.4468 46.4099C19.227 46.998 19.3992 47.733 20.1841 48.0263C20.9689 48.3192 21.5809 47.8776 21.8009 47.2883L24.219 40.8136C24.4386 40.2253 24.2664 39.4908 23.4811 39.1974ZM14.7804 30.35C15.0603 31.1394 14.6082 31.7442 14.0165 31.9541L7.50186 34.2636C6.91026 34.4737 6.17775 34.2887 5.8975 33.4988C5.61783 32.7094 6.06989 32.1052 6.66246 31.8947L13.1765 29.585C13.7689 29.3759 14.5004 29.5603 14.7804 30.35ZM13.4241 24.104C13.4171 24.9418 12.7856 25.3546 12.1571 25.35L5.24604 25.292C4.61791 25.2872 3.99249 24.8627 4.00007 24.0251C4.00706 23.1874 4.6387 22.7735 5.26703 22.7791L12.1779 22.837C12.8064 22.8421 13.4309 23.2656 13.4241 24.104ZM61.532 35.3104C62.1195 34.7129 62.861 34.8552 63.3087 35.2954L68.2369 40.1419C68.6848 40.5825 68.8392 41.3212 68.2516 41.9186C67.6643 42.5159 66.9231 42.3738 66.4751 41.9334L61.547 37.0869C61.0992 36.6465 60.9447 35.9076 61.532 35.3104ZM56.6921 39.1974C57.4765 38.9045 58.0889 39.3464 58.3083 39.9351L60.7264 46.4101C60.9462 46.9982 60.774 47.7332 59.9891 48.0265C59.2043 48.3193 58.5923 47.8778 58.3725 47.2885L55.9544 40.8138C55.7347 40.2257 55.9067 39.4908 56.6921 39.1974ZM65.3927 30.35C65.1129 31.1394 65.5649 31.7442 66.1567 31.9541L72.6713 34.2636C73.2629 34.4737 73.9954 34.2887 74.2757 33.4988C74.5554 32.7094 74.1033 32.1052 73.5109 31.8947L66.9969 29.585C66.4045 29.3759 65.6726 29.5603 65.3927 30.35ZM66.7491 24.104C66.7561 24.9418 67.3875 25.3546 68.0161 25.35L74.9271 25.292C75.5553 25.2872 76.1807 24.8627 76.1731 24.0251C76.1663 23.1874 75.5347 22.7735 74.9062 22.7791L67.9953 22.837C67.3668 22.8423 66.7425 23.2656 66.7491 24.104ZM29.8029 39.4626C30.5783 39.9079 31.1153 40.557 31.1153 41.749C31.1153 42.9409 29.9597 44.3301 28.5342 44.3301C27.1086 44.3301 25.953 42.9578 25.953 41.749C25.953 40.5401 26.5131 39.8953 27.3343 39.4632V31.4506C25.8568 31.4506 24.371 31.4477 22.8938 31.4514C18.7152 31.4621 19.4682 30.296 20.353 26.537C22.0439 19.3552 23.6729 12.1468 25.3826 4.97358C26.0224 2.28941 25.9487 -0.0305353 29.3829 0.000366249H50.0914C53.8962 0.00367019 53.7734 2.32576 54.4649 5.50007C56.0304 12.6885 57.7606 19.8125 59.3461 27.0429C60.3348 31.5518 60.6405 31.45 56.1819 31.45L29.7906 31.4498L29.8029 39.4626Z" fill="black"/>
</svg>
