<svg width="80" height="80" viewBox="0 0 80 80" fill="none" xmlns="http://www.w3.org/2000/svg">
<path fill-rule="evenodd" clip-rule="evenodd" d="M78.5531 47.2134C79.4362 48.0016 79.4848 49.4062 78.6565 50.2317L53.7304 75.0893C52.9016 75.9152 51.4969 75.8641 50.7105 74.9779L46.1819 69.8782L12.5263 64.8242C12.0417 65.6459 11.4439 66.409 10.7386 67.0881C8.73713 69.0165 5.97943 70.1097 3.17145 70.0888C2.02534 70.0807 1.09151 69.1446 1.08599 67.9981L1.00002 50.2894C0.9945 49.1429 1.91887 48.2213 3.06498 48.2293C7.0933 48.2593 10.8867 50.6093 12.7751 54.1605L33.2223 55.2863L25.5252 46.6181C24.7913 45.791 24.8221 44.5434 25.5945 43.7723L47.4055 22.0217C48.1789 21.2506 49.4268 21.2232 50.2516 21.9593L58.9344 29.707C62.4521 26.1326 63.642 20.6213 61.5049 15.6909C58.6842 9.18425 51.1234 6.11975 44.65 8.86012C40.1385 10.7697 37.1954 15.0103 36.9699 19.9263C36.9211 20.9894 36.0191 21.8014 34.9546 21.739C33.8906 21.6771 33.0674 20.7651 33.1167 19.7015C33.4105 13.3073 37.2397 7.79063 43.1097 5.30623C51.533 1.74043 61.3713 5.72765 65.0411 14.1937C67.7943 20.5455 66.305 27.6403 61.8332 32.2939L78.5531 47.2134ZM7.83954 64.0823C7.10398 64.791 6.20164 65.3179 5.22559 65.6256L5.16307 52.7419C6.99821 53.3721 8.58743 54.7761 9.35436 56.5695C10.4347 59.0931 9.81181 62.1824 7.83954 64.0823ZM29.9217 45.3553L48.978 26.3521L55.8451 32.4796L36.0328 52.2373L29.9217 45.3553ZM13.9239 60.845C14.0429 60.033 14.0709 59.2065 14.0048 58.3827L37.1008 59.6537L37.278 59.8531L41.8884 65.0445L13.9239 60.845ZM52.3299 70.5889L44.7365 62.039L55.9873 50.8195C56.7937 50.0151 56.7877 48.7015 55.9732 47.8851C55.158 47.0683 53.8442 47.0582 53.0377 47.8626L41.9591 58.9111L38.8103 55.3663L58.9664 35.2661L62.504 38.4225L59.4175 41.5006C58.6111 42.305 58.6176 43.6193 59.4321 44.4355C60.2467 45.2518 61.5607 45.2621 62.3671 44.4576L65.6257 41.2074L74.1584 48.8207L52.3299 70.5889Z" fill="black"/>
</svg>
