<svg width="80" height="80" viewBox="0 0 80 80" fill="none" xmlns="http://www.w3.org/2000/svg">
<path d="M29.7956 8.26775C29.7956 7.56908 29.2577 7.00002 28.5974 7.00002H11.4433C10.783 7.00002 10.2451 7.56908 10.2451 8.26775V13.1424C10.2451 13.8411 10.783 14.4102 11.4433 14.4102H28.5974C29.2577 14.4102 29.7956 13.8411 29.7956 13.1424V8.26775Z" fill="black"/>
<path d="M32.5855 27.3918C29.7974 27.3918 29.7974 27.5475 29.7974 29.1944V46.35H26.4526V15.5824H14.0102V63.0231H35.2356V29.2067L35.2363 28.9464C35.2389 28.2905 35.2405 27.9112 35.0539 27.6919C34.7981 27.3912 34.1887 27.3914 32.7435 27.3918L32.5855 27.3918Z" fill="black"/>
<path fill-rule="evenodd" clip-rule="evenodd" d="M80 28.7619C80 24.0891 76.3762 20.2464 71.949 20.2464H46.6297C42.2041 20.2464 38.5804 24.0801 38.5804 28.7619V63.9397C38.5804 68.6215 42.2127 72.4554 46.6297 72.4554H71.949C76.3677 72.4554 80 68.6125 80 63.9397V28.7619ZM70.2586 64.3269C70.2586 65.0093 69.7242 66.1095 68.5565 66.1095H52.65V68.9151H70.8408C72.6248 68.9151 74.0834 67.361 74.0834 65.4847V27.6041C74.0834 25.7278 72.6248 24.1737 70.8408 24.1737H52.65V26.1817H68.5565C69.6544 26.1817 70.2586 27.2243 70.2586 27.7446C70.2586 28.2326 69.7378 29.2067 68.5565 29.2067H52.65V33.1884H68.5565C69.7669 33.1884 70.2586 34.3822 70.2586 34.9801C70.2586 35.5076 69.6834 36.5646 68.5565 36.5646H52.65V40.5462H68.5565C69.6256 40.5462 70.2586 41.6788 70.2586 42.2441C70.2586 42.8041 69.6256 43.9225 68.5565 43.9225H52.65V47.9039H68.5565C69.7533 47.9039 70.2586 49.0943 70.2586 49.6903C70.2586 50.2196 69.8944 51.2804 68.5565 51.2804H52.65V55.2599H68.5565C69.7258 55.2599 70.2586 56.3874 70.2586 56.9996C70.2586 57.5127 69.5693 58.6364 68.5565 58.6364H52.65V62.6178H68.5565C69.6477 62.6178 70.2586 63.5794 70.2586 64.3269Z" fill="black"/>
<path d="M0 36.3775C0 35.6716 0.544535 35.0953 1.21174 35.0953H5.47735C6.14455 35.0953 6.68936 35.6716 6.68936 36.3775V38.9652H10.2451V55.5572H6.68936V58.1447C6.68936 58.8506 6.14455 59.4269 5.47735 59.4269H1.21174C0.544535 59.4269 0 58.8506 0 58.1447V36.3775Z" fill="black"/>
</svg>
