<svg width="80" height="80" viewBox="0 0 80 80" fill="none" xmlns="http://www.w3.org/2000/svg">
<g clip-path="url(#clip0_545_1968)">
<path fill-rule="evenodd" clip-rule="evenodd" d="M51.851 42.9465V12.0288C51.851 8.83858 50.5836 5.77899 48.3278 3.52314C46.0719 1.26729 43.0124 -3.05176e-05 39.8221 -3.05176e-05C36.6318 -3.05176e-05 33.5723 1.26729 31.3164 3.52314C29.0606 5.77899 27.7932 8.83858 27.7932 12.0288V42.9247C25.1208 44.7965 22.9304 47.2755 21.4018 50.1581C19.8733 53.0407 19.0502 56.2448 19.0001 59.5072C18.9804 64.9165 21.1079 70.1125 24.9157 73.9546C28.7234 77.7967 33.9001 79.9708 39.3094 79.9997C44.773 80.0282 50.0251 77.8895 53.9146 74.0523C57.8041 70.2152 60.0138 64.9925 60.0593 59.529C60.1097 56.3112 59.3911 53.1278 57.9635 50.2436C56.5358 47.3594 54.4402 44.8577 51.851 42.9465ZM39.3094 74.2831C35.4207 74.256 31.7015 72.6877 28.9676 69.9222C26.2336 67.1568 24.708 63.4199 24.7255 59.5312C24.7461 56.4749 25.7455 53.5056 27.5772 51.0588H38.3973C38.7818 51.0441 39.1457 50.881 39.4125 50.6038C39.6793 50.3265 39.8284 49.9567 39.8284 49.5719C39.8284 49.1871 39.6793 48.8172 39.4125 48.54C39.1457 48.2627 38.7818 48.0996 38.3973 48.0849H30.4704C30.9874 47.676 31.5296 47.3 32.0938 46.959L33.464 46.1299V42.1414H38.4017C38.5871 42.1543 38.7732 42.1289 38.9484 42.0668C39.1236 42.0048 39.2841 41.9073 39.42 41.7805C39.5559 41.6537 39.6643 41.5003 39.7384 41.3299C39.8125 41.1594 39.8508 40.9755 39.8508 40.7897C39.8508 40.6038 39.8125 40.4199 39.7384 40.2495C39.6643 40.079 39.5559 39.9256 39.42 39.7989C39.2841 39.6721 39.1236 39.5746 38.9484 39.5125C38.7732 39.4505 38.5871 39.4251 38.4017 39.438H33.4727V36.7302H38.4104C38.5958 36.7432 38.7819 36.7178 38.9571 36.6557C39.1323 36.5936 39.2928 36.4961 39.4288 36.3694C39.5647 36.2426 39.673 36.0892 39.7471 35.9187C39.8212 35.7483 39.8595 35.5644 39.8595 35.3785C39.8595 35.1927 39.8212 35.0088 39.7471 34.8383C39.673 34.6679 39.5647 34.5145 39.4288 34.3877C39.2928 34.2609 39.1323 34.1635 38.9571 34.1014C38.7819 34.0393 38.5958 34.0139 38.4104 34.0269H33.4727V30.7845H38.4104C38.5958 30.7974 38.7819 30.7721 38.9571 30.71C39.1323 30.6479 39.2928 30.5504 39.4288 30.4237C39.5647 30.2969 39.673 30.1435 39.7471 29.973C39.8212 29.8026 39.8595 29.6187 39.8595 29.4328C39.8595 29.247 39.8212 29.0631 39.7471 28.8926C39.673 28.7222 39.5647 28.5688 39.4288 28.442C39.2928 28.3152 39.1323 28.2178 38.9571 28.1557C38.7819 28.0936 38.5958 28.0682 38.4104 28.0812H33.4727V25.3712H38.4104C38.5958 25.3841 38.7819 25.3588 38.9571 25.2967C39.1323 25.2346 39.2928 25.1371 39.4288 25.0103C39.5647 24.8836 39.673 24.7302 39.7471 24.5597C39.8212 24.3893 39.8595 24.2054 39.8595 24.0195C39.8595 23.8337 39.8212 23.6498 39.7471 23.4793C39.673 23.3089 39.5647 23.1555 39.4288 23.0287C39.2928 22.9019 39.1323 22.8045 38.9571 22.7424C38.7819 22.6803 38.5958 22.6549 38.4104 22.6678H33.4727V19.4255H38.4104C38.5958 19.4384 38.7819 19.4131 38.9571 19.351C39.1323 19.2889 39.2928 19.1914 39.4288 19.0646C39.5647 18.9379 39.673 18.7845 39.7471 18.614C39.8212 18.4436 39.8595 18.2597 39.8595 18.0738C39.8595 17.888 39.8212 17.7041 39.7471 17.5336C39.673 17.3632 39.5647 17.2098 39.4288 17.083C39.2928 16.9562 39.1323 16.8588 38.9571 16.7967C38.7819 16.7346 38.5958 16.7092 38.4104 16.7221H33.4727V12.0267C33.5036 10.3616 34.1867 8.77525 35.3751 7.60867C36.5635 6.44209 38.1623 5.78851 39.8276 5.78851C41.4928 5.78851 43.0916 6.44209 44.28 7.60867C45.4684 8.77525 46.1515 10.3616 46.1824 12.0267V46.119L47.5351 46.9481C49.6857 48.2507 51.4502 50.1031 52.6467 52.3145C53.8433 54.5258 54.4287 57.0162 54.3427 59.529C54.2995 63.4771 52.6929 67.2471 49.8749 70.0127C47.057 72.7783 43.2576 74.3139 39.3094 74.2831Z" fill="black"/>
<path fill-rule="evenodd" clip-rule="evenodd" d="M30.2108 57.5457C29.8896 58.5332 29.7139 59.5622 29.6893 60.6004C29.6893 63.2082 30.7253 65.7092 32.5693 67.5532C34.4133 69.3972 36.9143 70.4331 39.5221 70.4331C42.1299 70.4331 44.6309 69.3972 46.4749 67.5532C48.3189 65.7092 49.3549 63.2082 49.3549 60.6004C49.3296 59.5666 49.1539 58.542 48.8334 57.5588L30.2108 57.5457Z" fill="black"/>
</g>
<defs>
<clipPath id="clip0_545_1968">
<rect width="80" height="80" fill="white"/>
</clipPath>
</defs>
</svg>
