<svg width="80" height="80" viewBox="0 0 80 80" fill="none" xmlns="http://www.w3.org/2000/svg">
<g clip-path="url(#clip0_545_1971)">
<path fill-rule="evenodd" clip-rule="evenodd" d="M16.9824 17.0189H53.3664L53.6274 17.6649C53.7912 18.417 56.2046 18.5913 55.9956 17.6305L55.8006 17.0117C55.2674 15.3197 54.3366 15.2785 53.4373 15.2708H17.1249C15.4965 15.2708 14.5953 16.7584 14.4242 17.5434L13.1453 21.7385V31.4395L16.9824 17.0189ZM64.5083 60.2176L64.9491 61.3299H5.47015L7.30364 54.2206C4.2846 54.4433 4.7911 49.9471 4.61757 49.3568L0.211752 63.4282C-0.266549 66.476 1.85227 68.4886 3.19627 68.5849H67.223C71.0436 67.86 70.3553 62.5986 69.8158 61.8592L69.058 60.2185C68.4217 58.8626 64.222 58.9014 64.5083 60.2176Z" fill="black"/>
<path fill-rule="evenodd" clip-rule="evenodd" d="M41.3052 58.3584H72.8624V59.0886C71.7274 59.2542 70.8496 60.2097 70.8496 61.3544V62.5636C70.8496 63.1316 71.3288 63.5965 71.9151 63.5965H77.4943C78.08 63.5965 78.5597 63.1316 78.5597 62.5636V61.3544C78.5597 60.2097 77.6824 59.2542 76.5474 59.0886V57.953C78.5631 57.0325 80 54.6446 80 51.8442C80 50.7183 79.7676 49.6593 79.3593 48.7353L64.4158 14.045C64.3575 13.8784 64.2885 13.7186 64.2097 13.567L64.2088 13.5646C63.9905 13.1438 63.6984 12.7869 63.3552 12.5201C62.997 12.2218 62.5289 12.0005 61.8902 12C60.3712 12 59.1399 13.5147 59.1399 15.3835C59.1399 15.7437 59.1798 16.0939 59.2707 16.4169L69.3665 52.2539C70.3523 55.7541 71.2438 57.402 72.8634 58.0363V58.1884C70.7349 57.6945 69.1016 56.0824 68.0235 52.2539L58.5897 18.7674H37.8434C36.7288 18.7761 36.0376 19.195 36.0945 20.3393L35.9807 53.403C36.094 56.7201 37.8526 58.3865 41.3052 58.3584ZM76.5474 56.7836V55.3608C77.485 54.6161 78.1057 53.3188 78.1057 51.8437C78.1057 49.5329 76.5833 47.6598 74.7051 47.6598C72.8269 47.6598 71.3045 49.5334 71.3045 51.8437C71.3045 53.3192 71.9253 54.6161 72.8629 55.3608V56.7831C71.3439 55.924 70.2886 54.0355 70.2886 51.8432C70.2886 48.8423 72.266 46.4095 74.7051 46.4095C77.1443 46.4095 79.1217 48.8423 79.1217 51.8432C79.1217 54.0355 78.0664 55.9245 76.5474 56.7836ZM74.7047 54.1105C75.7225 54.1105 76.5474 53.0955 76.5474 51.8437C76.5474 50.5919 75.7225 49.5769 74.7047 49.5769C73.6873 49.5769 72.8624 50.5919 72.8624 51.8437C72.8624 53.096 73.6873 54.1105 74.7047 54.1105Z" fill="black"/>
<path fill-rule="evenodd" clip-rule="evenodd" d="M0.422681 31.9936C0.814946 32.4769 1.48816 32.4648 1.98591 32.0808C2.48365 31.6972 2.20853 30.9084 3.28179 30.6416C4.10618 30.4362 4.63163 30.7699 5.23583 31.2943C5.62664 31.8188 6.05293 32.5747 6.05293 33.2173C6.05293 34.9437 6.03737 48.2673 6.05293 51.3961C6.06168 53.1835 8.37249 52.9041 8.39777 51.5709L8.39485 44.0955C9.06467 41.8476 9.85455 39.2201 10.5603 36.8579C10.8116 37.9431 12.3846 37.6763 12.4035 36.6923L12.3992 25.0402C12.3987 23.7424 12.4594 21.7347 12.2611 20.8834C12.0628 20.0321 11.9777 19.789 11.2749 18.8587C10.572 17.9285 9.19737 17.359 7.90975 17.5958C6.82482 17.7953 5.68545 18.989 5.4638 19.5546C5.24215 20.1202 5.37776 20.6369 5.69128 21.0234C6.00529 21.4103 6.54435 21.4006 6.94245 21.0931C7.34055 20.7861 7.44846 20.1551 8.30784 19.9411C8.96794 19.7769 9.3884 20.0437 9.87156 20.4636C10.1846 20.8834 10.5258 21.4882 10.5258 22.0025L10.5239 24.9463L8.30201 32.3195C8.27965 32.1306 8.25194 31.9616 8.21889 31.8193C7.97148 30.7558 7.86503 30.4517 6.98668 29.2895C6.10883 28.1273 4.39054 27.6145 2.78259 27.9104C1.4274 28.1598 0.41296 29.4527 0.136381 30.1592C-0.140198 30.8658 0.030416 31.5103 0.422681 31.9936ZM10.5229 29.2285C10.5224 30.4236 10.5219 31.6265 10.5224 32.7195L8.39437 39.7808L8.39339 37.0124C8.39339 36.8012 8.39437 36.5746 8.39631 36.3383C9.03939 34.1771 9.81371 31.6004 10.5229 29.2285Z" fill="black"/>
<path d="M17.9132 22.059C17.9759 22.122 18.061 22.1568 18.1504 22.1568C18.2394 22.1568 18.3245 22.1215 18.3872 22.059C18.4732 21.9728 18.5753 21.9041 18.6881 21.8576C18.8003 21.8106 18.9214 21.7874 19.0434 21.7874C19.1654 21.7874 19.2859 21.8106 19.3987 21.8576C19.5115 21.9041 19.6135 21.9728 19.6996 22.059C19.7623 22.122 19.8478 22.1568 19.9368 22.1568C20.0257 22.1568 20.1108 22.1215 20.1735 22.059C20.2595 21.9728 20.3616 21.9041 20.4744 21.8576C20.5867 21.8106 20.7077 21.7874 20.8297 21.7874C20.9517 21.7874 21.0728 21.8106 21.185 21.8576C21.2978 21.9041 21.3999 21.9728 21.4859 22.059C21.5486 22.122 21.6337 22.1568 21.7226 22.1568C21.8116 22.1568 21.8967 22.1215 21.9598 22.059C22.1343 21.8857 22.3701 21.7878 22.616 21.7878C22.8625 21.7878 23.0982 21.8857 23.2723 22.059C23.335 22.122 23.4205 22.1568 23.5095 22.1568C23.5984 22.1568 23.6835 22.122 23.7467 22.059C23.7724 22.0271 23.8055 22.0004 23.8424 21.9815C23.8794 21.9627 23.9202 21.952 23.9615 21.9496C24.0028 21.9472 24.0441 21.9539 24.0835 21.9689C24.1224 21.984 24.1574 22.0067 24.1871 22.0363C24.2162 22.0653 24.2396 22.1007 24.2541 22.1399C24.2692 22.1786 24.2755 22.2203 24.2736 22.2619C24.2711 22.3036 24.2605 22.3438 24.2415 22.381C24.2225 22.4178 24.1963 22.4508 24.1637 22.4769C23.9897 22.6503 23.7535 22.7481 23.5075 22.7481C23.2616 22.7481 23.0258 22.6508 22.8513 22.4769C22.7881 22.414 22.7031 22.3791 22.6141 22.3791C22.5252 22.3791 22.4401 22.414 22.3774 22.4769C22.2029 22.6503 21.9671 22.7481 21.7212 22.7481C21.4752 22.7481 21.239 22.6508 21.065 22.4769C21.0339 22.4459 20.9969 22.4212 20.9561 22.4043C20.9153 22.3873 20.872 22.3786 20.8278 22.3786C20.7835 22.3786 20.7398 22.3873 20.6994 22.4043C20.6586 22.4212 20.6217 22.4459 20.5906 22.4769C20.4165 22.6503 20.1803 22.7481 19.9344 22.7481C19.6884 22.7481 19.4522 22.6508 19.2782 22.4769C19.247 22.4459 19.2101 22.4212 19.1693 22.4043C19.1284 22.3873 19.0852 22.3786 19.0409 22.3786C18.9972 22.3786 18.9534 22.3873 18.9126 22.4043C18.8718 22.4212 18.8348 22.4459 18.8037 22.4769C18.7177 22.5631 18.6156 22.6319 18.5029 22.6784C18.3906 22.7249 18.2695 22.7491 18.1475 22.7491C18.0255 22.7491 17.905 22.7249 17.7922 22.6784C17.6799 22.6314 17.5774 22.5631 17.4913 22.4769C17.4451 22.4198 17.4223 22.3481 17.4257 22.275C17.4296 22.2019 17.4602 22.1331 17.5122 22.0813C17.5642 22.0295 17.6333 21.999 17.7062 21.9951C17.7791 21.9912 17.8515 22.0145 17.9084 22.0605L17.9132 22.059Z" fill="black"/>
<path d="M31.5958 29.8292C31.5054 29.7391 31.3829 29.6887 31.256 29.6887C31.1287 29.6887 31.0062 29.7391 30.9158 29.8292C30.6659 30.0781 30.3276 30.218 29.9752 30.218C29.6228 30.218 29.2845 30.0781 29.0346 29.8292C28.9447 29.7391 28.8227 29.6887 28.6949 29.6887C28.5675 29.6887 28.445 29.7396 28.3551 29.8292C28.1052 30.0781 27.7669 30.218 27.4145 30.218C27.0621 30.218 26.7238 30.0781 26.474 29.8292C26.384 29.7391 26.262 29.6887 26.1342 29.6887C26.0068 29.6887 25.8844 29.7396 25.7944 29.8292C25.671 29.9527 25.5242 30.051 25.3628 30.1173C25.2014 30.1841 25.0284 30.2185 24.8534 30.2185C24.6789 30.2185 24.5058 30.1841 24.344 30.1173C24.1826 30.0505 24.0358 29.9527 23.9123 29.8292C23.8326 29.7493 23.7879 29.6418 23.7879 29.5289C23.7879 29.4161 23.8326 29.3081 23.9123 29.2287C23.9921 29.1488 24.1 29.1042 24.2127 29.1042C24.3255 29.1042 24.4334 29.1493 24.5131 29.2287C24.6035 29.3188 24.7255 29.3691 24.8529 29.3691C24.9803 29.3691 25.1027 29.3183 25.1932 29.2287C25.3166 29.1047 25.4629 29.0064 25.6243 28.9396C25.7857 28.8728 25.9587 28.8384 26.1337 28.8389C26.3082 28.8384 26.4817 28.8723 26.6431 28.9396C26.8045 29.0064 26.9513 29.1047 27.0743 29.2287C27.1647 29.3188 27.2867 29.3691 27.414 29.3691C27.5414 29.3691 27.6639 29.3188 27.7543 29.2287C27.8773 29.1047 28.0241 29.0064 28.1855 28.9396C28.3468 28.8728 28.5199 28.8384 28.6949 28.8389C28.8698 28.8384 29.0429 28.8723 29.2043 28.9396C29.3657 29.0064 29.5124 29.1047 29.6354 29.2287C29.7258 29.3188 29.8478 29.3691 29.9752 29.3691C30.1025 29.3691 30.225 29.3188 30.3154 29.2287C30.5653 28.9798 30.9031 28.8398 31.256 28.8398C31.6084 28.8398 31.9467 28.9798 32.1966 29.2287C32.287 29.3188 32.409 29.3691 32.5363 29.3691C32.6637 29.3691 32.7862 29.3188 32.8766 29.2287C32.916 29.189 32.9626 29.1575 33.0146 29.1367C33.0662 29.1154 33.1216 29.1042 33.177 29.1042C33.2329 29.1042 33.2883 29.1154 33.3398 29.1367C33.3913 29.158 33.438 29.1895 33.4779 29.2287C33.5172 29.2679 33.5484 29.3149 33.5697 29.3662C33.5911 29.418 33.6023 29.4728 33.6023 29.5285C33.6023 29.5841 33.5916 29.6393 33.5702 29.6912C33.5488 29.7425 33.5177 29.7895 33.4784 29.8287C33.2285 30.0781 32.8902 30.2175 32.5373 30.2175C32.1844 30.2175 31.8451 30.0781 31.5958 29.8292Z" fill="black"/>
<path d="M24.4737 48.9072C24.3284 48.7624 24.1315 48.6806 23.9259 48.6806C23.7208 48.6806 23.5235 48.762 23.3786 48.9072C22.9761 49.3087 22.4308 49.5339 21.8625 49.5339C21.2943 49.5339 20.7489 49.3087 20.3465 48.9072C20.2016 48.762 20.0043 48.6806 19.7986 48.6806C19.593 48.6806 19.3962 48.762 19.2513 48.9072C18.8488 49.3087 18.3035 49.5339 17.7352 49.5339C17.167 49.5339 16.6216 49.3087 16.2192 48.9072C16.0738 48.762 15.877 48.6806 15.6714 48.6806C15.4657 48.6806 15.2689 48.762 15.124 48.9072C14.9247 49.1063 14.6885 49.2641 14.4284 49.3716C14.1679 49.4791 13.8894 49.5348 13.6079 49.5348C13.3265 49.5348 13.0475 49.4791 12.7874 49.3716C12.5274 49.2636 12.2912 49.1058 12.0919 48.9072C11.9635 48.7789 11.8916 48.6046 11.8916 48.4235C11.8916 48.2419 11.9635 48.068 12.0919 47.9392C12.2202 47.8109 12.3947 47.7387 12.576 47.7387C12.7578 47.7387 12.9318 47.8109 13.0601 47.9392C13.2055 48.0845 13.4023 48.1663 13.6079 48.1663C13.8136 48.1663 14.0104 48.0845 14.1558 47.9392C14.3541 47.7397 14.5903 47.5813 14.8504 47.4738C15.1109 47.3659 15.3894 47.3111 15.6714 47.3116C15.9533 47.3111 16.2323 47.3659 16.4923 47.4738C16.7529 47.5813 16.9891 47.7397 17.1874 47.9392C17.3328 48.084 17.5296 48.1658 17.7352 48.1658C17.9409 48.1658 18.1377 48.084 18.2831 47.9392C18.4814 47.7397 18.7176 47.5813 18.9777 47.4738C19.2382 47.3659 19.5172 47.3111 19.7986 47.3116C20.0806 47.3111 20.3596 47.3659 20.6196 47.4738C20.8802 47.5813 21.1159 47.7397 21.3147 47.9392C21.4601 48.084 21.6569 48.1658 21.8625 48.1658C22.0681 48.1658 22.265 48.084 22.4103 47.9392C22.8128 47.5382 23.3577 47.3126 23.9259 47.3126C24.4942 47.3126 25.0395 47.5382 25.442 47.9392C25.5874 48.084 25.7842 48.1658 25.9898 48.1658C26.1949 48.1658 26.3923 48.084 26.5376 47.9392C26.666 47.8109 26.84 47.7387 27.0213 47.7387C27.2031 47.7387 27.3771 47.8109 27.5054 47.9392C27.6337 48.0675 27.7062 48.2419 27.7062 48.4235C27.7062 48.6046 27.6337 48.7789 27.5054 48.9072C27.1034 49.3087 26.5581 49.5339 25.9898 49.5339C25.4216 49.5339 24.8762 49.3087 24.4737 48.9072Z" fill="black"/>
<path d="M10.2453 54.8766C10.4353 55.0665 10.6929 55.173 10.9617 55.173C11.2305 55.173 11.4882 55.067 11.6782 54.8766C11.9378 54.6156 12.2469 54.4089 12.5872 54.2675C12.9279 54.1265 13.2925 54.0549 13.6609 54.0558C14.0299 54.0549 14.3944 54.127 14.7347 54.2675C15.0754 54.4084 15.3841 54.6156 15.6436 54.8766C15.8337 55.066 16.0913 55.173 16.3601 55.173C16.6289 55.173 16.8865 55.0665 17.0766 54.8766C17.3362 54.6156 17.6453 54.4089 17.9856 54.2675C18.3258 54.1265 18.6904 54.0549 19.0588 54.0558C19.4278 54.0549 19.7923 54.127 20.1326 54.2675C20.4733 54.4084 20.782 54.6156 21.042 54.8766C21.2321 55.066 21.4897 55.173 21.7585 55.173C22.0273 55.173 22.2849 55.0665 22.475 54.8766C23.0014 54.3517 23.714 54.0573 24.4577 54.0573C25.2014 54.0573 25.914 54.3517 26.4404 54.8766C26.6305 55.066 26.8881 55.173 27.1569 55.173C27.4252 55.173 27.6833 55.0665 27.8734 54.8766C28.0411 54.7086 28.2686 54.6147 28.5067 54.6147C28.7439 54.6147 28.9714 54.7086 29.1396 54.8766C29.3083 55.0447 29.4021 55.2723 29.4021 55.5091C29.4021 55.7469 29.3078 55.9744 29.1396 56.142C28.6137 56.6664 27.9006 56.9614 27.1574 56.9614C26.4142 56.9614 25.7011 56.6664 25.1742 56.142C24.9841 55.9527 24.7265 55.8456 24.4577 55.8456C24.1894 55.8456 23.9318 55.9522 23.7417 56.142C23.2153 56.6664 22.5022 56.9614 21.7585 56.9614C21.0153 56.9614 20.3022 56.6664 19.7758 56.142C19.6815 56.0481 19.5702 55.973 19.4472 55.9226C19.3242 55.8713 19.1925 55.8456 19.0588 55.8456C18.9261 55.8456 18.7939 55.8713 18.6709 55.9226C18.548 55.9735 18.4362 56.0481 18.3424 56.142C17.8159 56.6664 17.1029 56.9614 16.3596 56.9614C15.6164 56.9614 14.9033 56.6664 14.3769 56.142C14.2826 56.0481 14.1713 55.973 14.0483 55.9226C13.9254 55.8713 13.7936 55.8456 13.66 55.8456C13.5268 55.8456 13.395 55.8713 13.2721 55.9226C13.1491 55.9735 13.0378 56.0481 12.9435 56.142C12.6829 56.402 12.3738 56.6083 12.034 56.7497C11.6933 56.8907 11.3292 56.9628 10.9608 56.9628C10.5923 56.9628 10.2278 56.8902 9.8875 56.7497C9.54725 56.6088 9.2381 56.402 8.97757 56.142C8.80987 55.974 8.71557 55.7464 8.71557 55.5091C8.71557 55.2718 8.80987 55.0442 8.97757 54.8766C9.14526 54.7086 9.37372 54.6147 9.61093 54.6147C9.84862 54.6147 10.0771 54.7086 10.2453 54.8766Z" fill="black"/>
<path d="M23.6932 20.2096C23.6689 20.1859 23.6402 20.1675 23.6091 20.1544C23.5765 20.1409 23.542 20.1341 23.507 20.1341C23.472 20.1341 23.437 20.1409 23.4049 20.1544C23.3724 20.168 23.3432 20.1873 23.3184 20.212C23.1799 20.3505 22.9918 20.428 22.7954 20.428C22.5995 20.428 22.4114 20.3505 22.2729 20.212C22.2481 20.1873 22.2184 20.1675 22.1863 20.1544C22.1538 20.1409 22.1193 20.1341 22.0843 20.1341C22.0493 20.1341 22.0143 20.1409 21.9817 20.1544C21.9491 20.168 21.92 20.1873 21.8952 20.212C21.8266 20.2808 21.745 20.3355 21.6555 20.3728C21.5656 20.4101 21.4694 20.429 21.3726 20.429C21.2754 20.429 21.1792 20.4096 21.0897 20.3728C20.9998 20.3355 20.9186 20.2808 20.8501 20.212C20.8137 20.1665 20.7947 20.1094 20.7981 20.0513C20.801 19.9932 20.8258 19.938 20.8671 19.8968C20.9084 19.8556 20.9634 19.8309 21.0217 19.828C21.08 19.8251 21.1374 19.8435 21.1826 19.8803C21.2327 19.9302 21.3002 19.9583 21.3712 19.9583C21.4417 19.9583 21.5097 19.9302 21.5603 19.8803C21.6288 19.8116 21.7105 19.7568 21.7999 19.7196C21.8898 19.6828 21.9861 19.6634 22.0833 19.6639C22.1805 19.6639 22.2767 19.6828 22.3667 19.7196C22.4566 19.7568 22.5378 19.8116 22.6063 19.8803C22.6564 19.9302 22.7244 19.9583 22.7949 19.9583C22.8659 19.9583 22.9334 19.9302 22.984 19.8803C23.0525 19.8116 23.1342 19.7568 23.2236 19.7196C23.3136 19.6828 23.4098 19.6634 23.507 19.6639C23.6042 19.6639 23.7005 19.6828 23.7904 19.7196C23.8803 19.7568 23.9615 19.8116 24.03 19.8803C24.0801 19.9302 24.1482 19.9583 24.2186 19.9583C24.2896 19.9583 24.3572 19.9302 24.4072 19.8803C24.4252 19.8624 24.4447 19.845 24.4646 19.829L24.4816 19.8145L24.4855 19.8116L24.4889 19.8087L24.4962 19.8033L24.5001 19.8009C24.5458 19.7685 24.5949 19.7409 24.6464 19.7196C24.7246 19.6871 24.8082 19.6687 24.8928 19.6644L24.9113 19.6634H24.9463L24.9638 19.6644C25.0484 19.6682 25.1325 19.6871 25.2107 19.7196C25.289 19.752 25.3609 19.7975 25.4236 19.8542L25.428 19.8576L25.4309 19.86L25.4348 19.8639L25.4377 19.8663L25.4416 19.8702L25.4445 19.8726L25.4513 19.8794C25.5014 19.9292 25.5694 19.9573 25.6404 19.9573C25.7114 19.9573 25.7789 19.9292 25.8295 19.8794C25.8455 19.86 25.864 19.843 25.8854 19.8295L25.8903 19.8256L25.8937 19.8237L25.8961 19.8217L25.8985 19.8193L25.9009 19.8174L25.9068 19.8135L25.9092 19.8116L25.9238 19.8019L25.9262 19.7999L25.9287 19.7985L25.9311 19.7966L25.934 19.7946L25.9369 19.7932L25.9393 19.7912L25.9418 19.7898L25.9452 19.7874L25.9481 19.7859L25.951 19.784L25.9534 19.7825L25.9568 19.7801L25.9627 19.7762L25.9651 19.7748L25.9709 19.7709L25.9734 19.7694L26.0055 19.7535L26.0079 19.7525L26.0176 19.7476L26.02 19.7467L26.0234 19.7447L26.0268 19.7433L26.0298 19.7423L26.0322 19.7409L26.0356 19.7389L26.0385 19.7375L26.0414 19.7365L26.0443 19.7351L26.0545 19.7307L26.0575 19.7297L26.0604 19.7283L26.0638 19.7268L26.0696 19.7239L26.074 19.722L26.1396 19.7002L26.1659 19.6929L26.1702 19.692L26.1834 19.6886L26.2184 19.6808L26.2227 19.6803L26.2271 19.6794L26.2402 19.6769L26.2495 19.6755L26.3063 19.6692H26.3151L26.3195 19.6687H26.3807L26.3851 19.6692H26.3938L26.4682 19.6774L26.477 19.6794L26.4813 19.6798L26.5469 19.6944L26.5513 19.6958L26.5557 19.6968L26.6257 19.72L26.6301 19.722L26.6344 19.7234L26.6388 19.7254L26.6427 19.7273L26.6515 19.7312L26.6553 19.7331L26.6597 19.7351L26.6675 19.7389L26.6719 19.7409L26.6913 19.7505L26.6952 19.753L26.6991 19.7549L26.703 19.7573L26.7069 19.7593L26.7691 19.798L26.773 19.8009L26.7769 19.8033L26.7846 19.8091L26.788 19.812L26.7919 19.815L26.8668 19.8789L26.8799 19.8919L26.8848 19.8963C26.9329 19.938 26.9946 19.9607 27.0588 19.9607C27.1142 19.9607 27.1672 19.9438 27.2124 19.9123L27.2153 19.9104L27.2372 19.8929L27.2498 19.8803L27.2532 19.8774L27.26 19.8706L27.2634 19.8677C27.3281 19.8062 27.4044 19.7573 27.487 19.7229C27.5769 19.6857 27.6732 19.6668 27.7704 19.6668C27.8676 19.6668 27.9639 19.6857 28.0538 19.7229C28.1437 19.7602 28.2249 19.815 28.2934 19.8837C28.3435 19.9336 28.4115 19.9617 28.482 19.9617H28.5126L28.5263 19.9597L28.5292 19.9593L28.536 19.9583L28.5389 19.9578L28.5423 19.9573L28.5452 19.9568L28.5486 19.9564L28.552 19.9554L28.5549 19.9544L28.5583 19.9534L28.57 19.9496L28.5734 19.9486L28.588 19.9438L28.6259 19.9249L28.6288 19.9229L28.6317 19.9215L28.6376 19.9176L28.6424 19.9137L28.6454 19.9118L28.6502 19.9079L28.6531 19.906L28.6556 19.9041L28.658 19.9016L28.6604 19.8997L28.6726 19.8876C28.6881 19.8682 28.7066 19.8513 28.7275 19.8377C28.8592 19.7307 29.024 19.6711 29.1951 19.6711C29.391 19.6711 29.5791 19.7491 29.7176 19.8871C29.7677 19.937 29.8358 19.9651 29.9067 19.9651C29.9777 19.9651 30.0457 19.937 30.0958 19.8871C30.1167 19.8614 30.1425 19.8401 30.1721 19.8251C30.2018 19.8101 30.2339 19.8014 30.2669 19.7995C30.3 19.7975 30.333 19.8028 30.3641 19.815C30.3952 19.8271 30.4234 19.845 30.4468 19.8682C30.4701 19.8915 30.4886 19.9196 30.5002 19.9505C30.5119 19.9815 30.5172 20.0145 30.5153 20.0479C30.5138 20.0808 30.5051 20.1133 30.49 20.1428C30.4749 20.1723 30.4536 20.1985 30.4278 20.2193C30.2893 20.3568 30.1021 20.4338 29.9067 20.4338C29.7118 20.4338 29.5242 20.3568 29.3856 20.2193C29.3356 20.1694 29.2675 20.1413 29.1966 20.1413C29.1256 20.1413 29.058 20.1694 29.008 20.2193C28.8694 20.3578 28.6808 20.4353 28.4849 20.4353C28.3163 20.4353 28.1534 20.3777 28.0232 20.2735L28.0164 20.2682L28.0091 20.2624L28.0018 20.2561C27.9882 20.2445 27.9741 20.2314 27.961 20.2188C27.9109 20.1689 27.8428 20.1409 27.7719 20.1409C27.7267 20.1409 27.6824 20.1525 27.6435 20.1738C27.6382 20.1767 27.6333 20.1796 27.628 20.183L27.6251 20.1849L27.6173 20.1902L27.6144 20.1922L27.6095 20.1961L27.6076 20.198L27.5978 20.2057L27.5808 20.2227L27.5604 20.2416L27.54 20.259L27.5181 20.2764L27.4817 20.3031L27.4744 20.3079L27.4433 20.3273L27.4044 20.3491L27.3961 20.3534L27.3879 20.3573L27.3801 20.3612L27.3636 20.3689L27.3222 20.3859L27.2975 20.3946L27.28 20.4004L27.2362 20.4125L27.2012 20.4203L27.1662 20.4261L27.1575 20.427L27.1482 20.428L27.1395 20.429L27.121 20.4309L27.1123 20.4314L27.0846 20.4329H27.0476L27.0107 20.4309L26.9922 20.429L26.9659 20.4261L26.9567 20.4246L26.9305 20.4203L26.8955 20.4125L26.8517 20.4004L26.8342 20.3946L26.826 20.3917L26.8172 20.3888L26.8089 20.3859L26.7676 20.3689L26.7346 20.3534L26.6879 20.3273L26.6646 20.3128L26.65 20.3031L26.6135 20.2764L26.599 20.2648L26.5717 20.2416L26.5581 20.229L26.5518 20.2227L26.545 20.2164L26.5353 20.2067L26.5304 20.2028L26.5285 20.2009L26.526 20.199L26.4823 20.1699L26.4794 20.1685L26.4765 20.1665L26.4036 20.1423H26.4006L26.3977 20.1418H26.3336L26.3306 20.1423H26.3277L26.2548 20.1665L26.2519 20.1685L26.249 20.1699L26.2082 20.197L26.2062 20.199L26.1989 20.2048L26.1873 20.2164L26.1741 20.229L26.1678 20.2353L26.1644 20.2382C26.1007 20.2968 26.0273 20.3438 25.9476 20.3767C25.8577 20.414 25.7614 20.4329 25.6647 20.4329C25.5675 20.4329 25.4713 20.4135 25.3818 20.3767C25.2919 20.3394 25.2107 20.2847 25.1422 20.2159C25.1174 20.1912 25.0882 20.1714 25.0557 20.1583C25.0231 20.1447 24.9886 20.1379 24.9536 20.1379C24.9181 20.1379 24.8836 20.1447 24.8515 20.1583C24.8189 20.1718 24.7898 20.1912 24.765 20.2159C24.6964 20.2847 24.6148 20.3394 24.5253 20.3767C24.4354 20.414 24.3392 20.4329 24.2425 20.4329C24.1452 20.4329 24.049 20.4135 23.9596 20.3767C23.8696 20.3394 23.7885 20.2847 23.7199 20.2159L23.7175 20.213L23.6932 20.2096Z" fill="black"/>
<path d="M20.2002 26.2803C20.1671 26.2483 20.1277 26.2222 20.0854 26.2047C20.0412 26.1863 19.9936 26.1771 19.9454 26.1771C19.8978 26.1771 19.8502 26.1863 19.8059 26.2047C19.7617 26.2231 19.7214 26.2498 19.6873 26.2837C19.4978 26.473 19.2406 26.579 18.9728 26.579C18.705 26.579 18.4483 26.473 18.2588 26.2837C18.2247 26.2498 18.1844 26.2231 18.1402 26.2047C18.0959 26.1863 18.0483 26.1771 18.0006 26.1771C17.9525 26.1771 17.9054 26.1863 17.8607 26.2047C17.8164 26.2231 17.7761 26.2498 17.7421 26.2837C17.6482 26.3776 17.5369 26.4522 17.4144 26.503C17.2919 26.5539 17.1602 26.58 17.028 26.58C16.8948 26.58 16.7636 26.5539 16.6411 26.503C16.5186 26.4522 16.4068 26.3776 16.3135 26.2837C16.2634 26.2217 16.2381 26.1437 16.242 26.0643C16.2464 25.9849 16.2794 25.9093 16.3363 25.8532C16.3927 25.7965 16.4676 25.7636 16.5473 25.7592C16.627 25.7553 16.7052 25.7805 16.7675 25.8304C16.836 25.8987 16.9284 25.9369 17.0251 25.9369C17.1218 25.9369 17.2147 25.8987 17.2832 25.8304C17.3765 25.7365 17.4883 25.6614 17.6108 25.611C17.7338 25.5602 17.865 25.5345 17.9977 25.5345C18.1309 25.534 18.2622 25.5602 18.3847 25.611C18.5076 25.6619 18.6189 25.7365 18.7128 25.8304C18.7813 25.8987 18.8736 25.9369 18.9704 25.9369C19.0671 25.9369 19.1599 25.8987 19.2285 25.8304C19.3218 25.7365 19.4336 25.6614 19.5561 25.611C19.6786 25.5602 19.8103 25.5345 19.943 25.5345C20.0757 25.534 20.2074 25.5602 20.3299 25.611C20.4524 25.6619 20.5637 25.7365 20.6576 25.8304C20.7261 25.8987 20.8189 25.9369 20.9157 25.9369C21.0124 25.9369 21.1052 25.8987 21.1738 25.8304C21.1986 25.8057 21.2248 25.7825 21.252 25.7602L21.2763 25.7408L21.2812 25.7374L21.2861 25.7335L21.2958 25.7263L21.3006 25.7224C21.3629 25.6779 21.4299 25.6406 21.5004 25.6115C21.6078 25.5674 21.7221 25.5418 21.8373 25.5365L21.8625 25.5355H21.9131L21.9374 25.5365C22.0531 25.5418 22.1678 25.5674 22.2747 25.6115C22.3817 25.6556 22.4799 25.7181 22.5659 25.796L22.5712 25.8013L22.5751 25.8047L22.5805 25.8101L22.5844 25.8134L22.5892 25.8188L22.5931 25.8222L22.598 25.8275L22.6019 25.8314C22.6704 25.8996 22.7632 25.9379 22.8605 25.9379C22.9572 25.9379 23.05 25.8996 23.1186 25.8314C23.14 25.8047 23.1657 25.7815 23.1949 25.7631L23.2017 25.7573L23.2061 25.7544L23.21 25.7515L23.2172 25.7457L23.2211 25.7427L23.2245 25.7398L23.2318 25.734L23.2357 25.7311L23.2391 25.7282L23.242 25.7263L23.2469 25.7224L23.2503 25.72L23.2542 25.7176L23.2571 25.7156L23.262 25.7127L23.2658 25.7098L23.2692 25.7074L23.2722 25.7055L23.277 25.7026L23.2809 25.6996L23.2848 25.6972L23.2882 25.6948L23.2926 25.6919L23.296 25.6895L23.2984 25.688L23.3033 25.6846L23.3077 25.6822L23.3115 25.6798L23.314 25.6783L23.3193 25.675L23.3232 25.6725L23.3271 25.6706L23.3295 25.6691L23.3349 25.6658L23.3426 25.6609L23.3456 25.6595L23.3504 25.6565L23.3543 25.6546L23.3582 25.6522L23.3611 25.6507L23.366 25.6478L23.3699 25.6459L23.3742 25.644L23.3776 25.6425L23.3825 25.6401L23.3864 25.6377L23.3903 25.6357L23.3937 25.6343L23.3985 25.6319L23.4029 25.6299L23.4054 25.6289L23.4112 25.626L23.416 25.6241L23.4204 25.6222L23.4229 25.6212L23.4282 25.6188L23.4331 25.6168L23.4374 25.6149L23.4404 25.6139L23.4812 25.597L23.487 25.5951L23.4928 25.5926L23.5395 25.5771L23.5517 25.5737L23.5633 25.5704L23.5755 25.567L23.5813 25.5655L23.5993 25.5612L23.6226 25.5553L23.6576 25.5495L23.6761 25.5466L23.6883 25.5447L23.7004 25.5432L23.7062 25.5423L23.7237 25.5408L23.768 25.5374L23.7738 25.5369L23.7864 25.536H23.7928L23.7991 25.5355H23.8623L23.8686 25.536H23.8749L23.9381 25.5408L23.9498 25.5418L23.9561 25.5423L23.9624 25.5432L23.9682 25.5437L23.9916 25.5476L24.0042 25.5495L24.0392 25.5553L24.1092 25.5728L24.115 25.5747L24.1209 25.5762L24.1675 25.5917L24.1734 25.5941L24.1792 25.596L24.2434 25.6227L24.2487 25.6251L24.2545 25.6275L24.2604 25.6304L24.3245 25.6653L24.3299 25.6687L24.3352 25.6716L24.3833 25.7021L24.3931 25.7089L24.3984 25.7122L24.413 25.7224L24.4179 25.7263L24.4227 25.7297L24.481 25.7762L24.4854 25.78L24.4951 25.7878L24.4995 25.7921L24.5044 25.796L24.5087 25.7999L24.5428 25.8338L24.5598 25.8483C24.6259 25.905 24.71 25.9364 24.798 25.9364C24.8733 25.9364 24.9467 25.9132 25.0075 25.8706L25.0109 25.8677L25.0279 25.8556L25.0415 25.844L25.0546 25.8314L25.0595 25.827L25.077 25.8096C25.1654 25.7258 25.2695 25.6585 25.3822 25.612C25.5047 25.5612 25.6365 25.5355 25.7692 25.5355C25.9019 25.5355 26.0336 25.5612 26.1561 25.612C26.2786 25.6628 26.3904 25.7374 26.4837 25.8314C26.5522 25.8996 26.6451 25.9379 26.7418 25.9379H26.768L26.8074 25.9335L26.8468 25.9248L26.8643 25.919L26.8682 25.9176L26.8726 25.9161L26.8842 25.9118L26.9153 25.8963L26.9192 25.8938L26.927 25.89L26.9464 25.8779L26.9498 25.8754L26.9537 25.873L26.9571 25.8706L26.961 25.8677L26.9644 25.8653L26.995 25.8391L26.9984 25.8357C27.0198 25.8096 27.0456 25.7863 27.0738 25.7679C27.2536 25.6217 27.4792 25.5403 27.713 25.5403C27.9808 25.5403 28.2375 25.6464 28.4275 25.8352C28.4961 25.9035 28.5889 25.9418 28.6856 25.9418C28.7828 25.9418 28.8752 25.9035 28.9437 25.8352C28.9724 25.8004 29.0079 25.7713 29.0482 25.7505C29.0886 25.7297 29.1328 25.718 29.178 25.7156C29.2232 25.7132 29.2684 25.7205 29.3107 25.7365C29.353 25.7529 29.3914 25.7776 29.4235 25.8096C29.4556 25.8415 29.4804 25.8798 29.4964 25.9224C29.5124 25.9645 29.5197 26.0101 29.5173 26.0551C29.5149 26.1001 29.5032 26.1447 29.4828 26.1844C29.4624 26.2251 29.4332 26.2604 29.3977 26.289C29.2082 26.4764 28.9525 26.582 28.6856 26.582C28.4188 26.582 28.1631 26.4764 27.9735 26.289C27.905 26.2207 27.8121 26.1824 27.7154 26.1824C27.6187 26.1824 27.5258 26.2207 27.4573 26.289C27.2677 26.4783 27.0106 26.5839 26.7428 26.5839C26.5124 26.5839 26.2902 26.5054 26.1118 26.3631L26.1026 26.3558L26.0934 26.3481L26.0836 26.3398C26.0647 26.3234 26.0462 26.3064 26.0282 26.2885C25.9597 26.2202 25.8669 26.182 25.7701 26.182C25.7079 26.182 25.6476 26.1975 25.5947 26.227C25.5874 26.2309 25.5806 26.2352 25.5733 26.2396L25.5699 26.2415L25.5587 26.2488L25.5553 26.2517L25.5485 26.2565L25.5456 26.2594L25.5388 26.2653L25.4994 26.3045L25.4809 26.3219L25.4532 26.3466L25.4143 26.3776L25.3949 26.3921L25.3745 26.4067L25.3438 26.427L25.3011 26.4522L25.2583 26.4754L25.2136 26.4967L25.18 26.5113L25.1577 26.52L25.146 26.5243L25.0993 26.5398L25.0643 26.55L25.041 26.5558L25.0167 26.5616L24.9802 26.5689L24.9438 26.5747L24.9073 26.579L24.8587 26.5829L24.8334 26.5839H24.7829L24.7576 26.5829L24.7197 26.58L24.7076 26.579L24.6711 26.5747L24.6346 26.5689L24.5982 26.5616L24.5496 26.55L24.5374 26.5466L24.5141 26.5398L24.4674 26.5243L24.4324 26.5113L24.3989 26.4967L24.3542 26.4754L24.3114 26.4522L24.2686 26.427L24.238 26.4067L24.2074 26.3849L24.1977 26.3776L24.1588 26.3466L24.1311 26.3219L24.1126 26.3045L24.0689 26.2609L24.065 26.258L24.062 26.2551L24.0586 26.2522L24.047 26.2435L24.0431 26.241L24.0392 26.2391L24.0353 26.2367L23.9692 26.2038L23.9614 26.2008L23.959 26.1999L23.9551 26.1984L23.9512 26.1975L23.9468 26.1965L23.943 26.1955L23.9381 26.1946L23.9337 26.1936L23.9289 26.1926L23.9245 26.1916L23.9196 26.1907L23.9157 26.1897L23.8914 26.1849L23.8871 26.1839L23.8827 26.1834L23.8749 26.1824H23.8146L23.8103 26.1829L23.8005 26.1839L23.7962 26.1849L23.7806 26.1887L23.7762 26.1897L23.7714 26.1907L23.7597 26.1936L23.7553 26.1946L23.7398 26.1984L23.732 26.2013L23.7281 26.2033L23.7242 26.2047L23.7164 26.2086L23.7121 26.2105L23.7082 26.2125L23.7057 26.2134L23.6591 26.2367L23.6552 26.2391L23.6513 26.241L23.6474 26.2435L23.6435 26.2464L23.6367 26.2522L23.6328 26.2551L23.6294 26.258L23.6003 26.287L23.5823 26.3045L23.5735 26.3127L23.5692 26.3166C23.4822 26.3965 23.382 26.4604 23.2731 26.5059C23.1506 26.5568 23.0189 26.5829 22.8862 26.5829C22.7535 26.5829 22.6218 26.5568 22.4993 26.5059C22.3768 26.4551 22.2655 26.3805 22.1717 26.2866C22.1377 26.2531 22.0973 26.2255 22.0531 26.2076C22.0089 26.1892 21.9612 26.1795 21.9136 26.1795C21.8655 26.1795 21.8183 26.1887 21.7736 26.2076C21.7294 26.226 21.689 26.2527 21.655 26.2866C21.5612 26.3805 21.4499 26.4551 21.3274 26.5059C21.2049 26.5568 21.0731 26.5829 20.9409 26.5829C20.8077 26.5829 20.6765 26.5568 20.554 26.5059C20.4315 26.4551 20.3202 26.3805 20.2264 26.2866L20.223 26.2822L20.2002 26.2803Z" fill="black"/>
<path d="M19.6135 39.872C19.5601 39.8201 19.4978 39.779 19.4293 39.7509C19.3579 39.7214 19.282 39.7063 19.2047 39.7063C19.1279 39.7063 19.0516 39.7214 18.9807 39.7509C18.9092 39.7804 18.845 39.8235 18.7901 39.8778C18.4858 40.1819 18.0732 40.3519 17.6425 40.3519C17.2128 40.3519 16.7996 40.1819 16.4953 39.8778C16.4409 39.8235 16.3763 39.7804 16.3048 39.7509C16.2333 39.7214 16.1575 39.7063 16.0807 39.7063C16.0034 39.7063 15.9276 39.7214 15.8561 39.7509C15.7847 39.7804 15.7205 39.8235 15.6656 39.8778C15.5149 40.0289 15.3365 40.1485 15.1397 40.2303C14.9428 40.3117 14.7314 40.3538 14.5185 40.3538C14.3046 40.3538 14.0936 40.3117 13.8973 40.2303C13.6999 40.1485 13.521 40.0289 13.3708 39.8778C13.2901 39.7785 13.2498 39.6526 13.2566 39.5252C13.2634 39.3974 13.3174 39.2768 13.4078 39.1863C13.4982 39.0957 13.6187 39.042 13.7466 39.0352C13.8744 39.0289 14.0003 39.0691 14.0999 39.1495C14.2098 39.2594 14.3585 39.3209 14.5141 39.3209C14.6691 39.3209 14.8189 39.2594 14.9287 39.1495C15.0789 38.9984 15.2578 38.8783 15.4546 38.7969C15.652 38.7156 15.8634 38.6739 16.0763 38.6739C16.2897 38.6734 16.5012 38.7151 16.698 38.7969C16.8954 38.8783 17.0743 38.9984 17.2245 39.1495C17.3343 39.2589 17.4831 39.3204 17.6386 39.3204C17.7937 39.3204 17.9429 39.2594 18.0532 39.1495C18.2034 38.9984 18.3828 38.8783 18.5792 38.7969C18.7765 38.7156 18.988 38.6739 19.2009 38.6739C19.4142 38.6734 19.6252 38.7151 19.8225 38.7969C20.0199 38.8783 20.1983 38.9984 20.349 39.1495C20.4588 39.2594 20.608 39.3209 20.7631 39.3209C20.9187 39.3209 21.0674 39.2594 21.1772 39.1495C21.2176 39.1097 21.2594 39.072 21.3031 39.0371L21.3109 39.0308L21.3265 39.0192L21.3342 39.0129L21.3576 38.9955L21.3736 38.9838L21.3819 38.9785C21.4815 38.9068 21.5894 38.8468 21.7032 38.7998C21.8753 38.7286 22.059 38.688 22.2442 38.6788L22.2845 38.6778H22.3643L22.4046 38.6788C22.5903 38.6875 22.774 38.7286 22.9461 38.7998C23.1177 38.871 23.2756 38.9713 23.4132 39.0957L23.422 39.1039L23.4278 39.1093L23.4365 39.1175L23.4424 39.1228L23.4647 39.1451L23.471 39.1509C23.5814 39.2608 23.7301 39.3223 23.8862 39.3223C24.0417 39.3223 24.1909 39.2608 24.3008 39.1509C24.3358 39.1078 24.3771 39.071 24.4233 39.041L24.4262 39.0386L24.4286 39.0361L24.434 39.0318L24.4403 39.0265L24.4461 39.0221L24.4495 39.0192L24.452 39.0173L24.4573 39.0129L24.4636 39.0081L24.4695 39.0032L24.4733 39.0003L24.4758 38.9989L24.4933 38.9858L24.4976 38.9829L24.5049 38.9771L24.5113 38.9727L24.5137 38.9713L24.5176 38.9688L24.522 38.9654L24.5292 38.9601L24.5351 38.9558L24.538 38.9538L24.5414 38.9514L24.5463 38.948L24.5535 38.9432L24.5599 38.9393L24.5657 38.9354L24.571 38.932L24.5783 38.9277L24.5842 38.9238L24.5876 38.9214L24.5905 38.9194L24.5963 38.916L24.6031 38.9117L24.6094 38.9078L24.6133 38.9054L24.6158 38.9039L24.6216 38.9006L24.6284 38.8967L24.6347 38.8928L24.6386 38.8904L24.641 38.8889L24.6474 38.8851L24.6537 38.8817L24.6561 38.8802L24.66 38.8778L24.6649 38.8754L24.6731 38.871L24.6794 38.8676L24.6911 38.8618L24.6994 38.8575L24.7057 38.8541L24.7125 38.8507L24.7178 38.8483L24.7261 38.8444L24.7329 38.841L24.7397 38.8381L24.7455 38.8352L24.7533 38.8318L24.7601 38.8289L24.764 38.8269L24.7728 38.8226L24.7801 38.8192L24.7864 38.8158L24.7903 38.8139L24.7932 38.8129L24.7995 38.81L24.8068 38.8071L24.8136 38.8042L24.818 38.8022L24.8204 38.8013L24.8272 38.7984L24.8549 38.7868L24.9196 38.763L24.9293 38.7596L24.9385 38.7562L24.9478 38.7533L24.9575 38.7504L24.9667 38.7475L24.9764 38.7446L24.9954 38.7388L25.0148 38.7335L25.0338 38.7282L25.0435 38.7257L25.0722 38.7185L25.0916 38.7136L25.1402 38.7039L25.1694 38.6996L25.1986 38.6947L25.2384 38.6889L25.2482 38.6875L25.3259 38.6797L25.4037 38.6759H25.4834L25.4936 38.6763L25.5033 38.6768L25.5136 38.6773L25.5622 38.6797L25.5719 38.6807L25.5821 38.6817L25.6404 38.6875L25.6501 38.6889L25.6599 38.6899L25.7474 38.703L25.796 38.7127L25.864 38.7296L25.8825 38.7345L25.8922 38.7369L25.9014 38.7398L25.9112 38.7427L25.9204 38.7456L25.9301 38.7485L25.9394 38.7514L25.9491 38.7543L26.0322 38.7848L26.1061 38.8158L26.1148 38.8197L26.1333 38.8284L26.1858 38.8545L26.2645 38.8981L26.282 38.9088L26.3564 38.9567L26.3895 38.98L26.3972 38.9858L26.4055 38.9916L26.4444 39.0206L26.4911 39.0584L26.4983 39.0647L26.5061 39.071L26.5134 39.0773L26.5863 39.1451L26.6184 39.1742C26.7244 39.2657 26.86 39.3156 27.0005 39.3156C27.1215 39.3156 27.2391 39.2783 27.3373 39.2095L27.3436 39.2047L27.349 39.2008L27.3548 39.1964L27.3655 39.1877L27.3713 39.1834L27.3767 39.179L27.382 39.1742L27.3879 39.1693L27.3932 39.1645L27.4146 39.1446L27.4287 39.1306L27.4506 39.1102C27.5925 38.9756 27.7592 38.8676 27.941 38.7926C28.1384 38.7112 28.3498 38.6696 28.5627 38.6696C28.7761 38.6691 28.9871 38.7107 29.1844 38.7926C29.3818 38.8739 29.5606 38.994 29.7108 39.1451C29.8207 39.255 29.9699 39.3165 30.125 39.3165H30.1609L30.1687 39.316L30.1833 39.3151L30.1901 39.3146L30.2047 39.3127L30.2115 39.3117L30.2188 39.3107L30.2392 39.3078L30.28 39.2991L30.2936 39.2952L30.3005 39.2928L30.3073 39.2909L30.3141 39.2884L30.3209 39.2865L30.3345 39.2817L30.3471 39.2768L30.3607 39.271L30.3734 39.2652L30.3802 39.2623L30.3928 39.2565L30.4118 39.2463L30.4176 39.2429L30.4239 39.2395L30.4297 39.2361L30.4361 39.2323L30.4711 39.209L30.4827 39.2003L30.4881 39.1959L30.4939 39.1916L30.5046 39.1829L30.5367 39.1538C30.5707 39.1117 30.612 39.0749 30.6577 39.0449C30.9464 38.81 31.3091 38.6797 31.6843 38.6797C32.1145 38.6797 32.5272 38.8502 32.8315 39.1538C32.9418 39.2637 33.0905 39.3252 33.2466 39.3252C33.4021 39.3252 33.5513 39.2637 33.6612 39.1538C33.7069 39.0976 33.7638 39.0512 33.8289 39.0177C33.894 38.9848 33.9645 38.9654 34.0369 38.9616C34.1098 38.9577 34.1823 38.9693 34.2498 38.995C34.3179 39.0211 34.3796 39.0608 34.4311 39.1122C34.4827 39.1635 34.5225 39.225 34.5488 39.2933C34.5745 39.3611 34.5862 39.4337 34.5823 39.5064C34.5789 39.579 34.5595 39.6502 34.5264 39.7146C34.4934 39.7795 34.4467 39.8366 34.3903 39.8821C34.086 40.1838 33.6753 40.3528 33.2466 40.3528C32.8178 40.3528 32.4071 40.1838 32.1028 39.8821C31.9925 39.7727 31.8438 39.7112 31.6882 39.7112C31.5331 39.7112 31.3839 39.7727 31.2741 39.8821C30.9693 40.1862 30.5566 40.3562 30.1264 40.3562C29.7565 40.3562 29.3993 40.2303 29.113 40.0013L29.0984 39.9896L29.0828 39.9766L29.0673 39.964C29.0371 39.9378 29.0065 39.9102 28.9778 39.8821C28.8675 39.7727 28.7188 39.7112 28.5632 39.7112C28.4636 39.7112 28.3668 39.7364 28.2813 39.7833C28.2696 39.7896 28.2584 39.7964 28.2473 39.8037L28.2443 39.8056L28.2409 39.8076L28.2385 39.8095L28.2234 39.8197L28.2176 39.8235L28.2152 39.8255L28.2118 39.8279L28.2093 39.8298L28.2064 39.8323L28.204 39.8342L28.2006 39.8366L28.1982 39.839L28.1948 39.8415L28.1923 39.8439L28.1894 39.8463L28.187 39.8482L28.1841 39.8507L28.1816 39.8531L28.1787 39.8555L28.1763 39.8579L28.1734 39.8603L28.1709 39.8628L28.168 39.8652L28.1656 39.8676L28.1534 39.8797L28.151 39.8821L28.1218 39.9102L28.1073 39.9238L28.0922 39.9373L28.047 39.9766L28.0003 40.0143L27.9682 40.0385L27.9362 40.0618L27.9196 40.0734L27.9031 40.0845L27.8535 40.1165L27.8365 40.1267L27.8025 40.146L27.785 40.1557L27.768 40.1654L27.733 40.1838L27.698 40.2013L27.662 40.2177L27.626 40.2332L27.5901 40.2477L27.5716 40.2545L27.5526 40.2613L27.5342 40.2681L27.5157 40.2744L27.4972 40.2802L27.4778 40.286L27.4588 40.2913L27.4394 40.2966L27.4204 40.302L27.3825 40.3117L27.3636 40.316L27.3441 40.3204L27.3052 40.3281L27.2469 40.3383L27.227 40.3412L27.2075 40.3436L27.1677 40.3485L27.1477 40.3504L27.1079 40.3533L27.068 40.3552L27.0282 40.3562H26.9883L26.9485 40.3552L26.9086 40.3533L26.8687 40.3504L26.8488 40.3485L26.789 40.3412L26.7691 40.3383L26.7492 40.3349L26.7103 40.3281L26.6714 40.3204L26.6325 40.3117L26.6131 40.3068L26.5941 40.302L26.5372 40.286L26.4993 40.2744L26.4808 40.2681L26.4254 40.2477L26.407 40.2405L26.389 40.2332L26.353 40.2177L26.317 40.2013L26.2991 40.1925L26.2816 40.1838L26.2466 40.1654L26.2116 40.146L26.1775 40.1267L26.1605 40.1165L26.1109 40.0845L26.0944 40.0734L26.0463 40.0385L26.0152 40.0143L25.9685 39.9766L25.9233 39.9373L25.9082 39.9238L25.8937 39.9102L25.8791 39.8962L25.8626 39.8797L25.8601 39.8773L25.8577 39.8744L25.8504 39.8671L25.8431 39.8599L25.8285 39.8477L25.8261 39.8453L25.8057 39.8284L25.8028 39.8264L25.7999 39.824L25.794 39.8201L25.7911 39.8177L25.7503 39.7906L25.7469 39.7887L25.741 39.7848L25.7376 39.7833L25.7347 39.7814L25.7289 39.7785L25.7255 39.777L25.7226 39.7751L25.709 39.7693L25.7031 39.7664L25.6963 39.7635L25.6905 39.7606L25.6803 39.7562L25.6565 39.7461L25.6531 39.7451L25.6497 39.7441L25.6463 39.7427L25.6258 39.7369L25.5952 39.7281L25.5884 39.7262L25.585 39.7257L25.5748 39.7228L25.5714 39.7223L25.568 39.7214L25.517 39.7141L25.5131 39.7136L25.5063 39.7126H25.5024L25.499 39.7122L25.4951 39.7117H25.4124L25.4086 39.7122L25.4052 39.7126H25.4013L25.3979 39.7131L25.394 39.7136L25.3736 39.7165L25.3697 39.717L25.3493 39.7199L25.3376 39.7214L25.3342 39.7223L25.3308 39.7228L25.3206 39.7257L25.3172 39.7262L25.3133 39.7272L25.3099 39.7281L25.3065 39.7291L25.3026 39.7301L25.2856 39.7349L25.2817 39.7359L25.2715 39.7388L25.2676 39.7398L25.2642 39.7407L25.2574 39.7427L25.254 39.7441L25.2472 39.7461L25.237 39.7504L25.2098 39.762L25.1859 39.7722L25.183 39.7737L25.1796 39.7751L25.1767 39.777L25.1733 39.7785L25.1704 39.78L25.167 39.7814L25.1641 39.7833L25.1607 39.7848L25.1548 39.7887L25.1432 39.7964L25.1398 39.7984L25.1106 39.8177L25.1077 39.8201L25.1018 39.824L25.0989 39.8264L25.096 39.8284L25.0698 39.8502L25.0576 39.8623L25.0547 39.8647L25.045 39.8744L25.0425 39.8773L25.0377 39.8821L25.009 39.9102L24.9871 39.9306C24.8476 40.0589 24.6867 40.1615 24.5113 40.2347C24.3139 40.316 24.103 40.3581 23.8901 40.3581C23.6767 40.3581 23.4657 40.316 23.2688 40.2347C23.072 40.1528 22.8931 40.0332 22.7424 39.8821C22.688 39.8284 22.6228 39.7843 22.5519 39.7553C22.4804 39.7257 22.4046 39.7102 22.3278 39.7102C22.2505 39.7102 22.1747 39.7252 22.1032 39.7553C22.0318 39.7848 21.9676 39.8279 21.9127 39.8821C21.762 40.0332 21.5836 40.1528 21.3863 40.2347C21.1894 40.316 20.978 40.3581 20.7651 40.3581C20.5517 40.3581 20.3407 40.316 20.1438 40.2347C19.9465 40.1528 19.7681 40.0332 19.6174 39.8821L19.6121 39.8754L19.6135 39.872Z" fill="black"/>
<path d="M15.6436 54.8766C15.8337 55.066 16.0913 55.173 16.3601 55.173C16.6289 55.173 16.8865 55.0665 17.0766 54.8766C17.3362 54.6156 17.6453 54.4089 17.9856 54.2675C18.3258 54.1265 18.6904 54.0549 19.0588 54.0558C19.4278 54.0549 19.7923 54.127 20.1326 54.2675C20.4733 54.4084 20.782 54.6156 21.042 54.8766C21.2321 55.066 21.4897 55.173 21.7585 55.173C22.0273 55.173 22.2849 55.0665 22.475 54.8766C22.7346 54.6156 23.0442 54.4093 23.3845 54.2684C23.7247 54.1279 24.0893 54.0563 24.4577 54.0573C24.8266 54.0563 25.1912 54.1279 25.5315 54.2684C25.8722 54.4093 26.1804 54.6156 26.4404 54.8766C26.6305 55.066 26.8881 55.173 27.1569 55.173C27.4252 55.173 27.6833 55.0665 27.8734 54.8766C28.3998 54.3517 29.1129 54.0582 29.8566 54.0582C30.6003 54.0582 31.3129 54.3526 31.8393 54.8776C32.0294 55.0669 32.287 55.1739 32.5558 55.1739C32.8241 55.1739 33.0822 55.0674 33.2723 54.8776C33.44 54.7095 33.6675 54.6156 33.9056 54.6156C34.1429 54.6156 34.3703 54.7095 34.5385 54.8776C34.7067 55.0456 34.801 55.2732 34.801 55.51C34.801 55.7478 34.7067 55.9754 34.5385 56.1429C34.0126 56.6674 33.2995 56.9623 32.5558 56.9623C31.8126 56.9623 31.0995 56.6674 30.5731 56.1429C30.383 55.9536 30.1254 55.8466 29.8566 55.8466C29.5883 55.8466 29.3297 55.9522 29.1396 56.142C28.6137 56.6664 27.9006 56.9614 27.1574 56.9614C26.4142 56.9614 25.7011 56.6664 25.1742 56.142C25.0799 56.0481 24.9691 55.9739 24.8461 55.9235C24.7231 55.8722 24.5914 55.8456 24.4577 55.8456C24.325 55.8456 24.1928 55.8722 24.0699 55.9235C23.9469 55.9744 23.8355 56.0481 23.7417 56.142C23.2153 56.6664 22.5022 56.9614 21.7585 56.9614C21.0153 56.9614 20.3022 56.6664 19.7758 56.142C19.6815 56.0481 19.5702 55.973 19.4472 55.9226C19.3242 55.8713 19.1925 55.8456 19.0588 55.8456C18.9261 55.8456 18.7939 55.8713 18.6709 55.9226C18.548 55.9735 18.4362 56.0481 18.3424 56.142C18.0818 56.402 17.7722 56.6093 17.4325 56.7507C17.0917 56.8911 16.7281 56.9614 16.3596 56.9614C15.9912 56.9614 15.6262 56.8911 15.2859 56.7507C14.9457 56.6097 14.6375 56.402 14.3769 56.142C14.2092 55.974 14.114 55.7473 14.114 55.51C14.114 55.2727 14.2083 55.0451 14.376 54.8776C14.5437 54.7095 14.7721 54.6156 15.0094 54.6156C15.247 54.6156 15.4755 54.7086 15.6436 54.8766Z" fill="black"/>
<path d="M27.4082 22.933C27.4709 22.996 27.556 23.0308 27.6454 23.0308C27.7344 23.0308 27.8194 22.9955 27.8821 22.933C27.9682 22.8468 28.0702 22.7781 28.183 22.7316C28.2958 22.6846 28.4163 22.6614 28.5383 22.6614C28.6603 22.6614 28.7814 22.6846 28.8937 22.7316C29.0064 22.7781 29.1085 22.8468 29.1945 22.933C29.2572 22.996 29.3428 23.0308 29.4317 23.0308C29.5207 23.0308 29.6058 22.9955 29.6685 22.933C29.7545 22.8468 29.8566 22.7781 29.9694 22.7316C30.0821 22.6846 30.2027 22.6614 30.3247 22.6614C30.4467 22.6614 30.5677 22.6846 30.6805 22.7316C30.7933 22.7781 30.8953 22.8468 30.9814 22.933C31.0441 22.996 31.1296 23.0308 31.2181 23.0308C31.307 23.0308 31.3921 22.9955 31.4553 22.933C31.6293 22.7597 31.8655 22.6618 32.1115 22.6618C32.3579 22.6618 32.5937 22.7597 32.7677 22.933C32.8304 22.996 32.916 23.0308 33.0049 23.0308C33.0939 23.0308 33.1794 22.996 33.2421 22.933C33.2679 22.9011 33.3009 22.8744 33.3379 22.8555C33.3748 22.8367 33.4156 22.826 33.457 22.8236C33.4983 22.8212 33.5401 22.8279 33.579 22.8429C33.6179 22.858 33.6528 22.8807 33.6825 22.9103C33.7117 22.9393 33.735 22.9747 33.7496 23.0139C33.7646 23.0526 33.771 23.0943 33.769 23.1359C33.7666 23.1776 33.7559 23.2178 33.7369 23.255C33.718 23.2918 33.6917 23.3248 33.6592 23.3509C33.4847 23.5243 33.2489 23.6221 33.003 23.6221C32.757 23.6221 32.5208 23.5248 32.3468 23.3509C32.2836 23.288 32.1985 23.2531 32.1096 23.2531C32.0206 23.2531 31.9355 23.288 31.8728 23.3509C31.6988 23.5243 31.4626 23.6221 31.2166 23.6221C30.9707 23.6221 30.7349 23.5248 30.5604 23.3509C30.5293 23.3199 30.4924 23.2952 30.4515 23.2783C30.4107 23.2613 30.3674 23.2526 30.3232 23.2526C30.2795 23.2526 30.2357 23.2613 30.1949 23.2783C30.1541 23.2952 30.1171 23.3199 30.086 23.3509C29.9115 23.5243 29.6758 23.6221 29.4298 23.6221C29.1838 23.6221 28.9481 23.5248 28.7736 23.3509C28.7425 23.3199 28.7055 23.2952 28.6647 23.2783C28.6239 23.2613 28.5806 23.2526 28.5364 23.2526C28.4922 23.2526 28.4484 23.2613 28.4081 23.2783C28.3672 23.2952 28.3303 23.3199 28.2992 23.3509C28.2131 23.4371 28.1111 23.5059 27.9983 23.5524C27.8855 23.5989 27.765 23.6231 27.643 23.6231C27.521 23.6231 27.4004 23.5989 27.2877 23.5524C27.1749 23.5054 27.0728 23.4371 26.9868 23.3509C26.9406 23.2938 26.9178 23.2221 26.9216 23.149C26.9255 23.0759 26.9562 23.0071 27.0077 22.9553C27.0597 22.9035 27.1287 22.873 27.2016 22.8691C27.2745 22.8652 27.3465 22.8885 27.4038 22.9345L27.4082 22.933Z" fill="black"/>
<path d="M31.9283 45.6102C31.783 45.4654 31.5861 45.3836 31.3805 45.3836C31.1754 45.3836 30.978 45.4654 30.8332 45.6102C30.4307 46.0116 29.8853 46.2368 29.3171 46.2368C28.7489 46.2368 28.2035 46.0116 27.801 45.6102C27.6562 45.4649 27.4588 45.3836 27.2532 45.3836C27.0476 45.3836 26.8507 45.4649 26.7059 45.6102C26.3034 46.0116 25.758 46.2368 25.1898 46.2368C24.6216 46.2368 24.0762 46.0116 23.6737 45.6102C23.5284 45.4649 23.3315 45.3836 23.1259 45.3836C22.9203 45.3836 22.7235 45.4649 22.5786 45.6102C22.3793 45.8092 22.1431 45.9671 21.883 46.0746C21.6225 46.1821 21.344 46.2378 21.0625 46.2378C20.7811 46.2378 20.5021 46.1821 20.242 46.0746C19.982 45.9666 19.7457 45.8087 19.5464 45.6102C19.4181 45.4819 19.3462 45.3075 19.3462 45.1264C19.3462 44.9448 19.4181 44.771 19.5464 44.6422C19.6748 44.5139 19.8493 44.4417 20.0306 44.4417C20.2124 44.4417 20.3864 44.5134 20.5147 44.6422C20.66 44.7875 20.8569 44.8693 21.0625 44.8693C21.2681 44.8693 21.465 44.7875 21.6103 44.6422C21.8087 44.4427 22.0449 44.2843 22.3049 44.1768C22.5655 44.0688 22.8445 44.0141 23.1259 44.0146C23.4078 44.0136 23.6869 44.0688 23.9469 44.1768C24.2074 44.2843 24.4437 44.4427 24.642 44.6422C24.7873 44.787 24.9842 44.8688 25.1898 44.8688C25.3954 44.8688 25.5923 44.7875 25.7376 44.6422C25.9359 44.4427 26.1722 44.2843 26.4322 44.1768C26.6928 44.0688 26.9718 44.0141 27.2532 44.0146C27.5351 44.0136 27.8142 44.0688 28.0742 44.1768C28.3347 44.2843 28.5705 44.4427 28.7693 44.6422C28.9146 44.787 29.1115 44.8688 29.3171 44.8688C29.5227 44.8688 29.7196 44.7875 29.8649 44.6422C30.2674 44.2412 30.8123 44.0156 31.3805 44.0156C31.9487 44.0156 32.4941 44.2412 32.8966 44.6422C33.0419 44.787 33.2388 44.8688 33.4444 44.8688C33.6495 44.8688 33.8469 44.7875 33.9922 44.6422C34.1205 44.5139 34.2945 44.4417 34.4759 44.4417C34.6576 44.4417 34.8317 44.5134 34.96 44.6422C35.0883 44.7705 35.1607 44.9448 35.1607 45.1264C35.1607 45.3075 35.0883 45.4819 34.96 45.6102C34.558 46.0116 34.0126 46.2368 33.4444 46.2368C32.8762 46.2368 32.3308 46.0116 31.9283 45.6102Z" fill="black"/>
<path d="M26.474 29.8292C26.384 29.7391 26.262 29.6887 26.1342 29.6887C26.0068 29.6887 25.8844 29.7396 25.7944 29.8292C25.5446 30.0781 25.2058 30.2185 24.8534 30.2185C24.501 30.2185 24.1622 30.0781 23.9123 29.8292C23.8224 29.7391 23.6999 29.6869 23.5726 29.6869C23.4452 29.6869 23.3227 29.7378 23.2323 29.8273C22.9825 30.0762 22.6442 30.2162 22.2918 30.2162C21.9393 30.2162 21.601 30.0762 21.3512 29.8273C21.2613 29.7373 21.1393 29.6869 21.0114 29.6869C20.8841 29.6869 20.7616 29.7378 20.6717 29.8273C20.5482 29.9508 20.4014 30.0491 20.24 30.1155C20.0786 30.1823 19.9056 30.2167 19.7306 30.2167C19.5561 30.2167 19.3831 30.1823 19.2212 30.1155C19.0598 30.0486 18.913 29.9508 18.7896 29.8273C18.7098 29.7474 18.6651 29.6399 18.6651 29.5271C18.6651 29.4143 18.7098 29.3063 18.7896 29.2269C18.8693 29.147 18.9772 29.1024 19.09 29.1024C19.2027 29.1024 19.3106 29.1475 19.3903 29.2269C19.4808 29.3169 19.6028 29.3673 19.7301 29.3673C19.8575 29.3673 19.98 29.3165 20.0704 29.2269C20.1938 29.1029 20.3401 29.0046 20.5015 28.9378C20.6629 28.8709 20.8359 28.8366 21.0109 28.837C21.1859 28.8366 21.359 28.8709 21.5203 28.9378C21.6817 29.0046 21.8285 29.1024 21.9515 29.2269C22.0419 29.3169 22.1639 29.3673 22.2913 29.3673C22.4186 29.3673 22.5411 29.3169 22.6315 29.2269C22.7545 29.1029 22.9013 29.0046 23.0627 28.9378C23.224 28.8709 23.3976 28.8366 23.5721 28.837C23.7466 28.8366 23.9196 28.8709 24.0815 28.9378C24.2429 29.0046 24.3901 29.1042 24.5131 29.2287C24.6035 29.3188 24.7255 29.3691 24.8529 29.3691C24.9803 29.3691 25.1027 29.3183 25.1932 29.2287C25.443 28.9798 25.7808 28.8389 26.1337 28.8389C26.4861 28.8389 26.8244 28.9798 27.0743 29.2287C27.1647 29.3188 27.2867 29.3691 27.414 29.3691C27.5414 29.3691 27.6639 29.3188 27.7543 29.2287C27.7937 29.189 27.8398 29.1557 27.8919 29.1349C27.9434 29.1136 27.9988 29.1024 28.0542 29.1024C28.1101 29.1024 28.1655 29.1136 28.217 29.1349C28.2686 29.1562 28.3152 29.1876 28.3551 29.2269C28.3945 29.2661 28.4256 29.3131 28.447 29.3644C28.4683 29.4157 28.4795 29.4709 28.4795 29.5266C28.4795 29.5823 28.4688 29.6375 28.4474 29.6893C28.4261 29.7411 28.3945 29.7899 28.3551 29.8292C28.1052 30.0781 27.7669 30.218 27.4145 30.218C27.0621 30.218 26.7238 30.0781 26.474 29.8292Z" fill="black"/>
<path d="M15.5159 34.3238C15.5903 34.3979 15.6904 34.4396 15.7959 34.4396C15.9009 34.4396 16.001 34.3979 16.0754 34.3238C16.177 34.2221 16.2975 34.1408 16.4307 34.086C16.5634 34.0308 16.7063 34.0028 16.8502 34.0032C16.9941 34.0032 17.1365 34.0308 17.2692 34.086C17.4024 34.1413 17.5229 34.2221 17.6245 34.3238C17.6989 34.3979 17.7995 34.4391 17.9045 34.4391C18.0095 34.4391 18.1096 34.3979 18.184 34.3238C18.2856 34.2221 18.4061 34.1408 18.5393 34.086C18.672 34.0308 18.8149 34.0028 18.9583 34.0032C19.1022 34.0032 19.2451 34.0308 19.3778 34.086C19.511 34.1413 19.6315 34.2221 19.7331 34.3238C19.8075 34.3979 19.9076 34.4391 20.0126 34.4391C20.1176 34.4391 20.2177 34.3979 20.2926 34.3238C20.4982 34.119 20.7763 34.0037 21.0669 34.0037C21.3576 34.0037 21.6356 34.119 21.8413 34.3238C21.9156 34.3979 22.0162 34.4396 22.1207 34.4396C22.2257 34.4396 22.3264 34.3979 22.4007 34.3238C22.4313 34.286 22.4702 34.2546 22.5135 34.2323C22.5572 34.21 22.6054 34.1969 22.6545 34.1945C22.7036 34.1921 22.7522 34.1998 22.7983 34.2173C22.844 34.2347 22.8858 34.2618 22.9203 34.2967C22.9549 34.3316 22.9821 34.3732 22.9996 34.4187C23.0171 34.4647 23.0249 34.5136 23.0224 34.5626C23.0195 34.6115 23.0069 34.6594 22.9845 34.703C22.9621 34.7466 22.931 34.7853 22.8926 34.8158C22.687 35.0207 22.4085 35.1359 22.1183 35.1359C21.8281 35.1359 21.5496 35.0207 21.344 34.8158C21.2696 34.7417 21.169 34.7006 21.064 34.7006C20.959 34.7006 20.8589 34.7422 20.7845 34.8158C20.5789 35.0207 20.3004 35.1359 20.0102 35.1359C19.72 35.1359 19.4415 35.0207 19.2359 34.8158C19.1989 34.779 19.1557 34.75 19.1075 34.7301C19.0594 34.7102 19.0079 34.7001 18.9559 34.7001C18.9039 34.7001 18.8524 34.7102 18.8047 34.7301C18.7566 34.75 18.7129 34.779 18.6764 34.8158C18.4708 35.0207 18.1923 35.1359 17.9021 35.1359C17.6119 35.1359 17.3334 35.0207 17.1277 34.8158C17.0908 34.779 17.0475 34.75 16.9994 34.7301C16.9513 34.7102 16.8998 34.7001 16.8478 34.7001C16.7958 34.7001 16.7442 34.7102 16.6966 34.7301C16.6485 34.75 16.6047 34.779 16.5683 34.8158C16.4667 34.9175 16.3461 34.9984 16.213 35.0536C16.0803 35.1088 15.9378 35.1369 15.794 35.1369C15.6501 35.1369 15.5077 35.1083 15.375 35.0536C15.2423 34.9984 15.1217 34.9175 15.0201 34.8158C14.9657 34.7485 14.9385 34.6638 14.9428 34.5776C14.9472 34.4914 14.9837 34.41 15.0444 34.349C15.1057 34.288 15.1873 34.2517 15.2734 34.2473C15.3594 34.2429 15.4445 34.2701 15.5115 34.3243L15.5159 34.3238Z" fill="black"/>
<path d="M26.7188 35.3541C26.7932 35.4282 26.8933 35.4698 26.9983 35.4698C27.1033 35.4698 27.204 35.4282 27.2778 35.3541C27.3794 35.2524 27.5 35.1715 27.6332 35.1163C27.7659 35.0611 27.9088 35.033 28.0526 35.0335C28.1965 35.033 28.3389 35.0611 28.4716 35.1163C28.6048 35.1715 28.7254 35.2524 28.827 35.3541C28.9013 35.4282 29.002 35.4693 29.1069 35.4693C29.2119 35.4693 29.3121 35.4282 29.3864 35.3541C29.488 35.2524 29.6086 35.1715 29.7418 35.1163C29.8745 35.0611 30.0174 35.033 30.1608 35.0335C30.3046 35.033 30.4476 35.0611 30.5803 35.1163C30.7134 35.1715 30.834 35.2524 30.9356 35.3541C31.0099 35.4282 31.1101 35.4693 31.2151 35.4693C31.3201 35.4693 31.4202 35.4282 31.4946 35.3541C31.7002 35.1492 31.9787 35.0345 32.2689 35.0345C32.5596 35.0345 32.8376 35.1497 33.0432 35.3541C33.1171 35.4282 33.2182 35.4698 33.3227 35.4698C33.4277 35.4698 33.5283 35.4286 33.6027 35.3541C33.6333 35.3163 33.6722 35.2848 33.7155 35.2625C33.7592 35.2403 33.8073 35.2272 33.8564 35.2248C33.9055 35.2219 33.9541 35.2301 34.0003 35.2475C34.046 35.2654 34.0878 35.2921 34.1223 35.3269C34.1568 35.3618 34.184 35.4035 34.2015 35.449C34.219 35.495 34.2268 35.5439 34.2244 35.5928C34.2215 35.6417 34.2088 35.6896 34.1865 35.7332C34.1641 35.7768 34.133 35.8156 34.0946 35.8465C33.889 36.0514 33.6105 36.1662 33.3203 36.1662C33.0301 36.1662 32.7516 36.0509 32.546 35.8465C32.4716 35.7725 32.371 35.7313 32.266 35.7313C32.161 35.7313 32.0608 35.7725 31.9865 35.8465C31.7809 36.0514 31.5023 36.1662 31.2122 36.1662C30.922 36.1662 30.6434 36.0509 30.4378 35.8465C30.4009 35.8097 30.3576 35.7807 30.3095 35.7608C30.2614 35.741 30.2099 35.7308 30.1578 35.7308C30.1058 35.7308 30.0543 35.741 30.0067 35.7608C29.9586 35.7807 29.9148 35.8097 29.8784 35.8465C29.6727 36.0514 29.3947 36.1662 29.104 36.1662C28.8138 36.1662 28.5353 36.0509 28.3297 35.8465C28.2928 35.8097 28.2495 35.7807 28.2014 35.7608C28.1533 35.741 28.1017 35.7308 28.0497 35.7308C27.9977 35.7308 27.9462 35.741 27.8986 35.7608C27.8504 35.7807 27.8067 35.8097 27.7702 35.8465C27.6686 35.9482 27.5481 36.0291 27.4149 36.0843C27.2822 36.139 27.1398 36.1676 26.9959 36.1676C26.852 36.1676 26.7096 36.139 26.5769 36.0843C26.4442 36.0291 26.3237 35.9482 26.2221 35.8465C26.1676 35.7792 26.1404 35.6945 26.1448 35.6083C26.1492 35.5221 26.1856 35.4407 26.2464 35.3797C26.3076 35.3187 26.3893 35.2824 26.4753 35.278C26.5614 35.2737 26.6464 35.3008 26.7135 35.355L26.7188 35.3541Z" fill="black"/>
</g>
<defs>
<clipPath id="clip0_545_1971">
<rect width="80" height="80" fill="white"/>
</clipPath>
</defs>
</svg>
