<svg width="80" height="80" viewBox="0 0 80 80" fill="none" xmlns="http://www.w3.org/2000/svg">
<path d="M63.8177 47.1121L55.2024 22.9472C54.6421 21.4925 53.4136 20.4849 52.072 20.4849H27.46C26.2315 20.4849 24.9977 21.3793 24.4373 22.7209L14.3673 46.8858C13.2466 49.569 14.8145 52.7047 17.3899 52.7047C20.294 52.7047 57.9126 52.7047 60.682 52.7047C63.1442 52.7047 64.8199 49.7953 63.8124 47.1121H63.8177ZM30.9837 54.9407C28.1873 58.9709 22.9287 63.7769 22.9287 67.694C22.9287 71.3847 24.2703 74.8545 26.9589 77.6509C28.4136 79.2188 30.4287 80 32.6647 80H45.3048C47.5408 80 49.669 79.2188 51.1238 77.6509C53.6992 74.8545 55.1485 71.3847 55.1485 67.694C55.1485 63.7769 49.7768 58.9709 46.9804 54.9407C40.3802 54.9407 37.4761 54.9407 30.9837 54.9407ZM23.9901 18.4321C24.7929 17.6293 24.5936 16.6218 23.9901 16.0183L17.3468 9.375C16.7434 8.77155 15.7358 8.56681 14.933 9.375C14.1302 10.1778 14.3296 11.1853 14.933 11.7888L21.5763 18.4321C22.1798 19.0356 23.1873 19.2349 23.9901 18.4321ZM31.3339 13.7931C32.363 13.3136 32.5192 12.2953 32.1583 11.5248L28.1873 3.01185C27.8263 2.23599 26.9481 1.70259 25.919 2.1875C24.8899 2.66703 24.7337 3.67996 25.0947 4.45582L29.0656 12.9688C29.4266 13.7446 30.3048 14.2726 31.3339 13.7931ZM55.5419 18.4321C54.7391 17.6293 54.9384 16.6218 55.5419 16.0183L62.1852 9.375C62.7886 8.77155 63.7962 8.56681 64.599 9.375C65.4072 10.1778 65.2024 11.1853 64.599 11.7888L57.9557 18.4321C57.3522 19.0356 56.3447 19.2349 55.5419 18.4321ZM48.1981 13.7931C47.169 13.3136 47.0128 12.2953 47.3738 11.5248L51.3447 3.01185C51.7057 2.23599 52.5839 1.70259 53.613 2.1875C54.6421 2.66703 54.7983 3.67996 54.4373 4.45582L50.4664 12.9688C50.1054 13.7446 49.2272 14.2726 48.1981 13.7931ZM39.8199 12.8071C38.683 12.8071 38.1119 11.9558 38.1119 11.0991V1.70797C38.1119 0.856681 38.683 0 39.8199 0C40.9567 0 41.5279 0.851293 41.5279 1.70797V11.0991C41.5279 11.9504 40.9567 12.8071 39.8199 12.8071Z" fill="black"/>
</svg>
