<svg width="80" height="80" viewBox="0 0 80 80" fill="none" xmlns="http://www.w3.org/2000/svg">
<path fill-rule="evenodd" clip-rule="evenodd" d="M7.18152 80H14.5659C17.1629 80 19.2879 77.8729 19.2879 75.2759V64.494C23.1013 64.1932 26.1249 60.9841 26.1249 57.0989V22.899C26.1249 19.0145 23.1013 15.8046 19.2879 15.5039V4.72412C19.2879 2.12496 17.1629 0 14.5659 0H7.18152V80Z" fill="black"/>
<path d="M38.2831 43.4317C36.4595 43.4317 34.987 42.004 34.9942 40.2428C35.0013 38.4816 36.4854 37.0539 38.309 37.0539C40.1326 37.0539 41.6051 38.4816 41.5979 40.2428C41.5908 42.004 40.1067 43.4317 38.2831 43.4317Z" fill="black"/>
<path d="M64.2353 47.6837C59.9803 47.6837 56.5445 44.3523 56.5612 40.2428C56.5779 36.1333 60.0408 32.802 64.2958 32.802C68.5508 32.802 71.9866 36.1333 71.9699 40.2428C71.9532 44.3523 68.4903 47.6837 64.2353 47.6837Z" fill="black"/>
<path d="M49.095 45.5577C46.0557 45.5577 43.6015 43.1781 43.6134 40.2428C43.6253 37.3075 46.0988 34.9279 49.1381 34.9279C52.1774 34.9279 54.6316 37.3075 54.6197 40.2428C54.6078 43.1781 52.1343 45.5577 49.095 45.5577Z" fill="black"/>
<path d="M33.9549 56.4162C32.1313 56.4162 30.6588 54.9884 30.6659 53.2272C30.6731 51.466 32.1572 50.0383 33.9808 50.0383C35.8043 50.0383 37.2768 51.466 37.2697 53.2272C37.2625 54.9884 35.7784 56.4162 33.9549 56.4162Z" fill="black"/>
<path d="M58.3412 69.5505C54.0862 69.5505 50.6504 66.2191 50.6671 62.1096C50.6838 58.0001 54.1467 54.6687 58.4017 54.6687C62.6567 54.6687 66.0925 58.0001 66.0758 62.1096C66.0591 66.2191 62.5963 69.5505 58.3412 69.5505Z" fill="black"/>
<path d="M44.1147 62.2431C41.0754 62.2431 38.6213 59.8635 38.6332 56.9282C38.6451 53.9928 41.1186 51.6133 44.1579 51.6133C47.1972 51.6133 49.6513 53.9928 49.6394 56.9282C49.6275 59.8635 47.154 62.2431 44.1147 62.2431Z" fill="black"/>
<path d="M33.9549 30.4466C32.1313 30.4466 30.6588 29.0189 30.6659 27.2577C30.6731 25.4965 32.1572 24.0687 33.9808 24.0687C35.8043 24.0687 37.2768 25.4965 37.2697 27.2577C37.2625 29.0189 35.7784 30.4466 33.9549 30.4466Z" fill="black"/>
<path d="M58.3411 25.8169C54.0861 25.8169 50.6503 22.4856 50.667 18.3761C50.6836 14.2666 54.1465 10.9352 58.4015 10.9352C62.6565 10.9352 66.0924 14.2666 66.0757 18.3761C66.059 22.4856 62.5961 25.8169 58.3411 25.8169Z" fill="black"/>
<path d="M44.114 28.8722C41.0747 28.8722 38.6205 26.4927 38.6324 23.5573C38.6443 20.622 41.1178 18.2424 44.1571 18.2424C47.1964 18.2424 49.6506 20.622 49.6387 23.5573C49.6268 26.4927 47.1533 28.8722 44.114 28.8722Z" fill="black"/>
</svg>
