<svg width="80" height="80" viewBox="0 0 80 80" fill="none" xmlns="http://www.w3.org/2000/svg">
<path fill-rule="evenodd" clip-rule="evenodd" d="M29.1008 51.5938C27.952 51.5938 27.0187 52.5272 27.0187 53.6759C27.0187 54.8246 27.952 55.758 29.1008 55.758C30.2495 55.758 31.1829 54.8246 31.1829 53.6759C31.1829 52.5272 30.2495 51.5938 29.1008 51.5938ZM37.5065 58.3427C37.2304 58.0997 37.131 58.0997 36.772 57.7573L36.6394 52.3062C38.5061 54.7197 40.9638 57.0945 43.6589 58.7679C43.3828 59.0109 42.4163 59.519 41.98 59.7455C39.9697 60.7561 38.7491 59.4693 37.5065 58.3261V58.3427ZM39.3843 19.7935C39.4008 19.6775 39.4064 19.6609 39.4229 19.6388C41.7259 16.6896 66.5675 51.3618 59.8242 55.1174C47.9722 53.9023 38.462 23.9963 39.3843 19.8597V19.799V19.7935ZM69.6161 29.2872L63.9663 32.3081C63.0219 32.8604 61.8621 33.3023 62.1217 34.8707C62.2984 35.9311 63.4748 36.8589 64.8168 36.3729C65.601 36.0802 66.7111 35.3291 67.5616 34.8873C68.5392 34.3792 69.4063 33.8766 70.3838 33.3354C71.3116 32.8273 72.5046 32.3744 72.245 30.7894C72.0683 29.729 70.9085 28.8012 69.6161 29.2872V29.2872ZM63.8393 21.5884C63.1379 21.8811 62.9888 21.9971 62.5966 22.6156L59.2001 27.9672C57.731 30.088 59.6751 31.8 61.3374 31.2643C62.2653 30.9551 62.8065 29.6959 63.3312 28.884C64.0657 27.7408 66.5455 24.416 66.435 23.19C66.319 22.0468 65.0653 21.0858 63.8393 21.5884V21.5884ZM65.6342 38.1513C63.9552 38.7367 63.414 41.8571 66.8271 42.0504C68.0697 42.1167 73.2446 42.5751 74.0896 42.2768C75.5587 41.7522 76.4258 38.5876 72.8138 38.3943C71.5215 38.328 66.4626 37.8751 65.6287 38.1678V38.1513H65.6342ZM55.66 14.7401C54.5333 15.3089 54.4339 15.6403 54.4008 17.2198C54.3676 18.4128 54.3345 19.6333 54.3014 20.8594C54.2682 21.7706 54.0749 23.7809 54.4505 24.4989C55.1353 25.8023 57.1291 25.9514 57.963 24.5486C58.4545 23.7478 58.5318 16.3417 58.206 15.6403C57.847 14.8726 56.8363 14.1381 55.66 14.7401V14.7401ZM66.6117 45.6568C65.2421 46.1925 64.8996 47.4186 65.3857 48.4127C65.9269 49.5227 69.7597 50.6991 71.0355 51.2182C71.9357 51.5938 73.3882 52.4277 74.4817 52.0025C75.3654 51.6601 76.0833 50.4837 75.4924 49.2466C75.0671 48.3519 74.0233 48.1034 72.847 47.645C71.6043 47.17 67.6887 45.2315 66.5952 45.6568H66.6117V45.6568ZM45.4262 31.6178C50.9987 36.9584 54.6272 43.3317 57.0296 50.3401C57.4273 51.3839 58.8135 50.8372 58.576 49.6553C56.146 42.6745 52.5893 36.1962 46.6523 30.8004C45.6416 30.2371 45.001 31.2146 45.4262 31.6178V31.6178ZM39.1357 14.9831C38.9866 12.6966 39.5444 9.40505 40.2955 7.47759C40.9307 5.86493 43.2005 2.6617 44.769 5.13039C45.7962 6.74305 46.0282 10.3329 46.1552 12.5531C46.3043 15.2758 46.8566 17.6285 47.1328 20.1911C45.3047 18.6723 42.0407 15.817 39.1357 14.9886V14.9831ZM23.1859 31.2202C23.6111 32.391 27.6207 40.7139 31.332 46.0379C28.902 45.8722 29.6641 45.9053 26.9745 46.0876C26.4167 45.5629 24.9476 43.2157 24.4782 42.448C23.451 40.7691 20.7061 36.1189 20.3637 34.324C20.187 33.3796 20.8387 33.0206 21.4407 32.5291C21.8825 32.1701 22.7164 31.4521 23.1859 31.2091V31.2257V31.2202ZM25.649 22.8641L34.48 12.8955C34.7064 12.6525 34.8224 12.4868 34.9881 12.2272C35.071 12.3763 35.1372 12.0505 35.1207 12.7353C35.1207 12.912 35.0709 13.2103 35.0709 13.4036L35.0378 16.767C35.0378 28.5085 43.1784 50.6825 55.069 57.8511C54.6438 58.1936 52.3573 59.2705 51.8548 59.1545C41.9413 57.8456 22.1918 26.9013 25.6546 22.8697L25.649 22.8641ZM47.4586 61.2863C48.16 61.822 49.7285 62.6063 50.706 62.9321C52.2745 63.4402 53.1361 63.3574 54.5112 62.6726C56.6983 61.5956 58.7252 60.5021 60.8956 59.4251C65.9048 56.9454 65.3525 51.152 63.4582 45.3585C61.7296 40.0401 59.7524 36.9694 57.0904 32.4683C55.8975 30.4304 54.4947 28.8288 53.4674 26.4816C52.3408 23.8859 51.6228 22.356 51.0981 19.2357C50.2476 14.0663 50.5293 6.7541 48.0937 2.82186C46.9671 0.993808 44.7303 -0.817673 41.6431 0.391822C38.8209 1.50191 37.7716 3.68894 36.4848 4.8653C35.9159 5.38997 35.7171 5.55013 35.2256 6.09136L33.4638 7.96912C33.2374 8.17899 33.138 8.34467 32.906 8.58767L31.1277 10.4489C30.9178 10.6919 30.8018 10.8907 30.6196 11.1171L23.8596 18.7994C19.3696 23.5655 21.7389 24.0847 21.8328 27.2493C21.0485 27.7076 20.557 28.1163 19.8556 28.652C19.4801 28.9282 19.2371 29.127 18.8781 29.4197C18.0938 30.088 17.0832 30.7397 16.5419 32.032C15.5478 34.3958 17.0666 37.3836 18.1104 39.4878L20.4631 43.7956C19.469 43.9889 18.0938 44.9222 17.409 45.4414C16.1332 46.4355 16.8236 45.9771 16.1829 46.568C12.0022 50.434 12.1844 57.5308 8.72162 59.6681C6.8273 60.8279 4.33099 60.5684 4.07141 61.8717C3.35345 65.4781 8.21905 64.9369 11.0412 63.015C12.8527 61.7723 13.8799 60.226 15.0066 57.7959C15.951 55.7414 16.6855 53.328 17.768 51.3674C18.2761 50.4395 19.1045 49.23 19.6954 48.7716C20.2809 48.3132 21.7057 47.3523 22.7164 47.2694C23.1251 47.5953 23.0423 47.4351 23.2742 47.888C20.6454 50.0585 21.5124 57.0724 21.5124 61.5459C21.5124 62.899 21.7057 65.561 21.4959 66.7484C18.6737 66.7981 10.9031 66.406 8.80999 67.2068C7.22494 67.8088 6.11485 68.952 5.41346 70.3879C4.61265 72.0172 4.67892 74.1876 4.69549 76.1482C4.71206 78.7439 4.66235 80.0639 7.53421 79.9976L51.0429 79.9645C53.4564 79.8154 53.4564 78.1364 53.4564 75.8389C53.473 72.2491 53.1637 68.4991 49.132 67.0798C46.7462 66.2458 39.7101 66.8533 36.6781 66.7705V63.1309C37.6556 63.4899 38.114 63.9318 39.4064 64.1085C43.322 64.6442 45.9343 61.8552 47.42 61.2863H47.4531H47.4586ZM8.7161 75.9881C8.54489 69.913 10.7098 70.7359 15.1336 70.7359C17.0776 70.7359 19.0327 70.7027 20.9767 70.7524C26.8033 70.885 25.5496 71.1445 25.5496 58.0776C25.5496 52.1847 24.423 50.1303 28.9959 50.0032C29.8795 49.9701 30.8239 50.0529 31.5584 50.4119C32.4752 50.8537 32.4752 51.1464 32.5857 52.3394C32.8784 55.3438 32.4034 68.6703 32.7514 69.6479C33.3092 71.2495 35.5901 70.8077 37.4678 70.8077C39.4119 70.8077 41.3559 70.8077 43.311 70.7911C49.0713 70.758 49.5021 70.8021 49.5959 76.0102L8.7161 75.9936V75.9881Z" fill="black"/>
</svg>
