<svg width="80" height="80" viewBox="0 0 80 80" fill="none" xmlns="http://www.w3.org/2000/svg">
<path fill-rule="evenodd" clip-rule="evenodd" d="M40.3661 69.0788C38.0893 69.0788 36.2265 68.8718 34.1566 68.2509C26.3948 65.8706 30.6379 61.0065 39.6417 60.7995C41.7115 60.7995 43.8849 61.11 45.6442 61.6274C47.1966 62.1449 49.5769 63.4903 49.8874 64.5252C50.3013 65.9741 47.714 67.5264 46.4721 67.9404C44.7128 68.5614 42.3325 68.9753 40.3661 68.9753V69.0788ZM76.4847 63.9042C76.0707 64.4217 71.4136 66.6985 70.4822 67.1125C69.3438 67.5264 65.3076 65.0426 64.1692 64.4217C62.0994 63.3868 60.133 62.3519 57.9597 61.4204C56.7178 60.7995 55.3724 60.7995 55.0619 62.1449C54.648 63.6973 55.8899 64.1112 57.0283 64.6287L66.3425 69.2858C66.9635 69.5963 68.9298 70.7347 69.5508 70.8382C70.6892 71.0452 74.8288 68.7683 75.9673 68.1474C80.4174 65.8706 80.1069 66.4915 79.8999 62.7658C79.8999 61.2135 78.9685 61.11 77.7266 60.489L62.2029 52.7271C59.8226 51.4852 58.0632 50.5538 54.648 51.0713C52.6816 51.3818 53.5096 53.5551 53.9235 53.8656C54.7515 54.59 56.8213 54.176 58.0632 54.4865C59.0981 54.797 76.2777 63.3868 76.5882 64.0077L76.4847 63.9042ZM3.41963 63.6973C3.93709 63.0763 15.0107 57.7982 15.6316 57.4878L21.8411 54.4865C23.497 54.0725 27.0157 55.2109 26.4983 52.3132C26.3948 51.3818 26.1878 51.1748 25.3599 51.0713C21.6342 50.4503 20.5992 51.3818 17.9085 52.6236C16.8735 53.1411 15.8386 53.6586 14.8037 54.176L2.38471 60.3855C1.03932 61.11 0.107897 61.0065 0.107897 62.7658C-0.0990867 66.6985 -0.202579 65.9741 4.04058 68.0439C11.492 71.7696 9.00818 71.6661 16.6666 67.8369C18.7364 66.802 20.9097 65.7671 22.8761 64.7322C24.0145 64.1112 25.2564 63.9042 24.9459 62.2484C24.6354 60.696 23.3935 60.696 22.0481 61.317C19.8748 62.3519 17.9085 63.4903 15.7351 64.4217C14.1828 65.1461 10.5605 67.5264 9.52563 67.009L6.42089 65.4566C5.28248 64.9392 4.04058 64.4217 3.52312 63.6973H3.41963ZM76.4847 33.0637C75.9673 33.8917 65.7216 38.6523 63.9622 39.5837C57.1318 42.9989 59.0981 42.7919 52.6816 42.6885C51.4397 42.6885 51.4397 42.6885 51.4397 41.3431C51.4397 40.7221 51.3362 39.6872 51.4397 39.2732C51.5432 38.3418 53.3026 37.7209 54.234 37.3069L63.6517 32.6498C64.6867 32.1323 69.2403 29.545 70.1717 29.8555C70.3787 29.959 75.9673 32.6498 76.2777 33.0637H76.4847ZM69.0333 26.3368L59.7191 30.9939C58.2702 31.8218 56.5108 32.6498 55.0619 33.3742C53.4061 34.2021 51.9572 34.9266 50.3013 35.7545C47.6106 36.9964 48.335 37.5139 48.335 40.7221C48.335 41.8605 48.749 43.2059 47.8175 43.7234C47.4036 44.0338 45.7477 44.5513 45.4372 44.9653C44.5058 45.8967 45.0233 49.0014 48.4385 47.0351C52.9921 44.5513 55.6829 47.6561 60.6505 45.0688C62.0994 44.3443 63.6518 43.5164 65.3076 42.7919L79.3825 35.7545C80.0034 35.1336 79.8999 33.7882 79.8999 32.7533C79.7964 30.0625 79.5895 30.8904 74.2079 27.9926C73.0695 27.3717 70.3787 25.8193 69.1368 26.3368H69.0333ZM3.41963 33.2707C3.62661 32.6498 3.52312 32.8568 4.04058 32.5463L6.73136 31.2009C11.1815 29.0276 9.00817 29.0276 17.0805 33.1672C19.4608 34.4091 21.5307 35.3406 24.0145 36.5825C28.4646 38.7558 28.3611 38.1348 28.2576 40.2047C28.2576 41.0326 28.2576 41.757 28.1541 42.6885H23.704C20.8062 42.6885 15.9421 39.6872 13.2513 38.3418C11.8024 37.6174 3.93709 33.7882 3.41963 33.2707ZM0.107897 31.0974C-0.0990867 36.479 -0.616545 35.0301 5.48946 38.2383L18.1154 44.5513C20.0818 45.4827 20.3923 46.1037 22.9795 46.1037C24.5319 46.1037 27.9471 45.8967 29.396 46.2072C31.1554 46.5176 31.9833 47.9665 34.2601 47.6561C34.8811 46.8281 35.295 45.4827 34.2601 44.7583C33.5357 44.2408 32.2938 44.0338 31.5693 43.3094C31.6728 35.7545 32.5008 37.2034 27.0157 34.5126C24.0145 33.0637 21.0132 31.4079 18.1154 30.0625C16.6666 29.338 15.2177 28.6136 13.6653 27.8892C9.00818 25.5088 10.4571 25.8193 4.45454 28.8206C3.00566 29.545 1.03932 30.373 0.107897 31.2009V31.0974ZM38.1928 47.863C35.8125 48.898 33.6392 48.277 29.9135 51.7957C27.3262 54.2795 26.7052 56.2459 26.7052 61.0065C26.7052 66.1811 26.2913 67.7334 29.9135 70.1137C35.1916 73.4255 44.2988 73.4255 49.7839 70.2172C53.3026 68.1474 53.1991 66.0776 53.0956 61.11C53.0956 56.2459 52.5781 54.6935 49.9909 52.0027C48.335 50.2433 45.4372 48.691 42.9534 48.3805C42.1255 48.277 42.022 48.3805 41.7115 47.9665C41.4011 47.4491 41.5045 23.853 41.608 21.2657C45.5407 20.9552 48.2315 20.1273 50.3013 17.8505C53.0956 14.8492 51.1293 11.9514 48.6455 10.1921C43.5744 6.77686 33.8462 7.50131 29.9135 11.3305C28.9821 12.2619 28.0506 13.8143 28.4646 15.6771C29.189 18.5749 32.7078 20.2308 35.295 20.8517C38.6068 21.5762 38.1928 20.2308 38.1928 23.9565C38.1928 28.0961 38.3998 45.3792 38.1928 48.07V47.863Z" fill="black"/>
</svg>
