<svg width="80" height="80" viewBox="0 0 80 80" fill="none" xmlns="http://www.w3.org/2000/svg">
<path d="M54.1127 25.754C54.1127 24.3229 52.9524 23.1626 51.5213 23.1626H48.3656C48.9218 22.6873 49.2755 21.9822 49.2755 21.1932C49.2755 19.7621 48.1152 18.6018 46.6841 18.6018H33.6926C32.2615 18.6018 31.1012 19.7621 31.1012 21.1932C31.1012 21.9822 31.4549 22.6873 32.0111 23.1626H28.8552C27.4241 23.1626 26.2638 24.3229 26.2638 25.754C26.2638 27.1015 27.2927 28.2081 28.6075 28.3327L30.5481 46.2301C29.5062 46.5657 28.7515 47.5423 28.7515 48.6963C28.7515 50.1273 29.9118 51.2876 31.3429 51.2876H35.7585V77.057C35.7585 78.6829 37.0759 80 38.7014 80H41.7296C43.3551 80 44.6726 78.6829 44.6726 77.057V51.2876H49.0331C50.4642 51.2876 51.6245 50.1273 51.6245 48.6963C51.6245 47.5425 50.8699 46.5659 49.828 46.2301L51.7686 28.3327C53.0838 28.2081 54.1127 27.1015 54.1127 25.754ZM33.6625 46.1049L31.7368 28.3454H33.7917L34.9908 39.4021C35.0772 40.199 35.751 40.7894 36.5346 40.7894C36.5906 40.7894 36.6472 40.7863 36.704 40.7801C37.5577 40.6876 38.1746 39.9206 38.0822 39.0667L36.9196 28.3454H48.6397L46.714 46.1049H33.6625Z" fill="black"/>
<path d="M48.531 10.3571C47.8701 10.8978 47.7859 11.8606 48.3429 12.5077C48.8999 13.1548 49.8872 13.2411 50.5481 12.7005L56.1326 8.13248C56.7935 7.59189 56.8778 6.62905 56.3208 5.98194C55.7638 5.33487 54.7764 5.24852 54.1155 5.78916L48.531 10.3571Z" fill="black"/>
<path d="M48.8666 10.748C48.4259 11.1086 48.3697 11.7506 48.7411 12.1821C49.1125 12.6136 49.7709 12.6712 50.2116 12.3106L55.7972 7.74156C56.2379 7.38108 56.294 6.73902 55.9226 6.30752C55.5512 5.87602 54.8928 5.81848 54.4521 6.17896L48.8666 10.748Z" fill="black"/>
<path d="M30.141 12.7C30.8019 13.2407 31.7892 13.1543 32.3462 12.5073C32.9032 11.8601 32.819 10.8973 32.1581 10.3567L26.5736 5.78868C25.9127 5.24809 24.9254 5.33439 24.3684 5.98151C23.8113 6.62862 23.8956 7.59141 24.5565 8.13205L30.141 12.7Z" fill="black"/>
<path d="M30.4776 12.3102C30.9183 12.6707 31.5767 12.6131 31.9481 12.1817C32.3194 11.7502 32.2633 11.1081 31.8226 10.7476L26.237 6.17852C25.7963 5.81804 25.138 5.87563 24.7666 6.30713C24.3952 6.73863 24.4513 7.38063 24.892 7.74111L30.4776 12.3102Z" fill="black"/>
<path d="M42.1596 7.50273C41.8195 8.2797 42.1816 9.1725 42.9684 9.49682C43.7553 9.82114 44.6689 9.45419 45.0091 8.67722L47.8834 2.11209C48.2236 1.33512 47.8615 0.44236 47.0746 0.118041C46.2878 -0.206281 45.3741 0.160658 45.0339 0.937621L42.1596 7.50273Z" fill="black"/>
<path d="M42.6376 7.69711C42.4111 8.21486 42.6522 8.80977 43.1762 9.02588C43.7001 9.24198 44.3085 8.99744 44.535 8.47969L47.4055 1.91745C47.632 1.39971 47.3909 0.804806 46.8669 0.588708C46.343 0.372609 45.7346 0.617143 45.5082 1.13489L42.6376 7.69711Z" fill="black"/>
<path d="M35.6641 8.67754C36.0043 9.45451 36.9179 9.82141 37.7048 9.49709C38.4917 9.17277 38.8538 8.28002 38.5136 7.50305L35.6393 0.937937C35.2991 0.160974 34.3855 -0.205965 33.5986 0.118357C32.8117 0.442676 32.4496 1.33545 32.7898 2.1124L35.6641 8.67754Z" fill="black"/>
<path d="M36.1384 8.48011C36.3648 8.99786 36.9731 9.2424 37.4971 9.0263C38.021 8.8102 38.2622 8.21534 38.0357 7.69759L35.1651 1.13535C34.9386 0.617599 34.3303 0.373065 33.8063 0.589164C33.2825 0.805262 33.0413 1.40016 33.2678 1.91791L36.1384 8.48011Z" fill="black"/>
</svg>
