<svg width="84" height="71" viewBox="0 0 84 71" fill="none" xmlns="http://www.w3.org/2000/svg">
<path d="M0 4.20141C0 1.99281 1.79286 0.199951 4.00146 0.199951C6.2108 0.199951 8.00366 1.99281 8.00366 4.20141V62.7939H79.9985C82.2071 62.7939 84 64.5868 84 66.7961C84 69.0047 82.2071 70.7976 79.9985 70.7976H0V4.20141ZM70.1296 53.0765C70.1296 55.2859 68.3368 57.0787 66.1282 57.0787C63.9196 57.0787 62.1267 55.2859 62.1267 53.0765V11.3937C62.1267 9.18439 63.9196 7.39153 66.1282 7.39153C68.3368 7.39153 70.1296 9.18439 70.1296 11.3937V53.0765ZM54.3753 53.0765C54.3753 55.2859 52.5825 57.0787 50.3739 57.0787C48.1645 57.0787 46.3717 55.2859 46.3717 53.0765V33.891C46.3717 31.6824 48.1645 29.8896 50.3739 29.8896C52.5825 29.8896 54.3753 31.6824 54.3753 33.891V53.0765ZM38.6203 53.0765C38.6203 55.2859 36.8274 57.0787 34.6188 57.0787C32.4102 57.0787 30.6174 55.2859 30.6174 53.0765V18.3472C30.6174 16.1386 32.4102 14.3458 34.6188 14.3458C36.8274 14.3458 38.6203 16.1386 38.6203 18.3472V53.0765ZM22.866 53.0765C22.866 55.2859 21.0731 57.0787 18.8645 57.0787C16.6559 57.0787 14.8631 55.2859 14.8631 53.0765V23.731C14.8631 21.5224 16.6559 19.7295 18.8645 19.7295C21.0731 19.7295 22.866 21.5224 22.866 23.731V53.0765Z" fill="#9EA1A3"/>
</svg>
