<svg width="35" height="36" viewBox="0 0 35 36" fill="none" xmlns="http://www.w3.org/2000/svg">
<path d="M30.5492 24.0304L27.1833 20.6645C26.8708 17.5399 25.8057 14.7705 23.9878 12.3561C22.1698 9.94167 20.3519 7.96754 18.534 6.43368C18.392 7.22901 18.1858 7.96015 17.9154 8.62709C17.6461 9.29517 17.341 9.91326 17.0002 10.4814L14.4864 7.96754C14.8556 7.08699 15.1044 6.11384 15.2328 5.04809C15.3601 3.98348 15.3953 2.30079 15.3385 0C19.7412 2.58483 23.3986 5.82979 26.3107 9.73488C29.2216 13.6411 30.6771 17.7814 30.6771 22.1557C30.6771 22.4682 30.6703 22.7806 30.6566 23.0931C30.6419 23.4055 30.6061 23.718 30.5492 24.0304ZM31.9979 35.1083L27.3537 30.4641C26.2743 31.5719 24.9961 32.4524 23.5191 33.1058C22.042 33.7591 20.4514 34.0857 18.7471 34.0857C15.4237 34.0857 12.6048 32.9279 10.2904 30.6124C7.97485 28.298 6.81707 25.4791 6.81707 22.1557C6.81707 20.0254 7.16531 18.2927 7.8618 16.9576C8.55715 15.6226 9.3593 14.4154 10.2682 13.336L0.681641 3.74943L3.06764 1.36343L34.4265 32.6797L31.9979 35.1083ZM12.8247 28.2911C12.6827 26.8141 12.9877 25.3018 13.7399 23.7543C14.4932 22.2057 15.3811 20.7923 16.4037 19.5141L12.6969 15.8073C11.9583 16.6594 11.3618 17.5541 10.9074 18.4915C10.4529 19.4289 10.2256 20.6503 10.2256 22.1557C10.2256 23.3487 10.4529 24.4707 10.9074 25.5217C11.3618 26.5727 12.0009 27.4958 12.8247 28.2911ZM18.7471 30.6771C19.372 30.6771 19.9617 30.4357 20.5161 29.9528C21.0694 29.4699 21.3461 28.7314 21.3461 27.7372C21.3461 27.0839 21.1547 26.2886 20.7718 25.3512C20.3877 24.4139 19.7128 23.3203 18.7471 22.0705C17.8381 23.2635 17.1922 24.3287 16.8093 25.266C16.4253 26.2034 16.2332 27.0271 16.2332 27.7372C16.2332 28.703 16.4963 29.4342 17.0223 29.9307C17.5473 30.4283 18.1222 30.6771 18.7471 30.6771Z" fill="#9EA1A3"/>
</svg>
