<svg width="25" height="24" viewBox="0 0 25 24" fill="none" xmlns="http://www.w3.org/2000/svg">
<g id="icon">
<g id="Icon">
<path d="M13.7 3.2V20C13.7 20.6 13.1 21.2 12.5 21.2C11.3 21.2 10.7 20.6 10.1 20L6.5 16.4H1.7C1.1 16.4 0.5 15.68 0.5 15.2V8C0.5 7.4 1.1 6.8 1.7 6.8H6.5L10.1 3.2C10.7 2.6 11.3 2 12.5 2C13.1 2 13.7 2.6 13.7 3.2Z" fill="#6F797A"/>
<path d="M21.8749 7.25039C22.4754 6.64987 23.4491 6.64987 24.0496 7.25039C24.6501 7.85092 24.6501 8.82457 24.0496 9.42509L17.5255 15.9492C16.925 16.5497 15.9513 16.5497 15.3508 15.9492C14.7503 15.3487 14.7503 14.375 15.3508 13.7745L21.8749 7.25039Z" fill="#6F797A"/>
<path d="M15.3504 9.42509C14.7499 8.82457 14.7499 7.85092 15.3504 7.25039C15.9509 6.64987 16.9246 6.64987 17.5251 7.25039L24.0492 13.7745C24.6497 14.375 24.6497 15.3487 24.0492 15.9492C23.4487 16.5497 22.475 16.5497 21.8745 15.9492L15.3504 9.42509Z" fill="#6F797A"/>
</g>
</g>
</svg>
