<svg width="25" height="24" viewBox="0 0 25 24" fill="none" xmlns="http://www.w3.org/2000/svg">
<g id="icon" clip-path="url(#clip0_3296_33067)">
<path id="Icon" d="M11.8678 23.9736C11.0933 23.9736 10.3126 23.8854 9.52591 23.7089C8.73919 23.5324 7.93557 23.2803 7.11505 22.9527C7.39669 20.1128 8.21815 17.4606 9.57942 14.9962C10.9407 12.5319 12.6892 10.3609 14.825 8.48326C12.2433 9.79759 10.0075 11.5344 8.1177 13.6936C6.22787 15.8529 4.90791 18.3173 4.1578 21.0868C4.06392 21.0164 3.97567 20.9403 3.89305 20.8586L3.62972 20.5939C2.52662 19.4908 1.68732 18.2586 1.11183 16.8973C0.536339 15.5361 0.249063 14.1161 0.250002 12.6375C0.250002 11.0415 0.56685 9.51595 1.20055 8.06079C1.83424 6.60564 2.71438 5.31477 3.84095 4.1882C5.74204 2.28711 8.20641 1.04929 11.2341 0.474742C14.2617 -0.0998092 18.5098 -0.152853 23.9784 0.315613C24.4009 5.925 24.3305 10.2027 23.7672 13.1487C23.2039 16.0947 21.9834 18.506 20.1058 20.3827C18.9558 21.5327 17.6706 22.4189 16.2501 23.0414C14.8297 23.6638 13.3689 23.9746 11.8678 23.9736Z" fill="#6F797A"/>
</g>
<defs>
<clipPath id="clip0_3296_33067">
<rect width="24" height="24" fill="white" transform="translate(0.25)"/>
</clipPath>
</defs>
</svg>
