<svg width="25" height="24" viewBox="0 0 25 24" fill="none" xmlns="http://www.w3.org/2000/svg">
<g id="icon">
<path id="Icon" d="M1.25 14.6667C1.25 12.3333 1.80556 10.2556 2.91667 8.43333C4.02778 6.61111 5.25 5.07778 6.58333 3.83333C7.91667 2.58889 9.13889 1.63867 10.25 0.982667L11.9167 0V4.4C11.9167 5.22222 12.1944 5.872 12.75 6.34933C13.3056 6.82667 13.9278 7.06578 14.6167 7.06667C14.9944 7.06667 15.3558 6.98889 15.7007 6.83333C16.0456 6.67778 16.362 6.42222 16.65 6.06667L17.25 5.33333C18.85 6.26667 20.1389 7.56089 21.1167 9.216C22.0944 10.8711 22.5833 12.688 22.5833 14.6667C22.5833 16.6222 22.1056 18.4058 21.15 20.0173C20.1944 21.6289 18.9389 22.9004 17.3833 23.832C17.7611 23.2987 18.0558 22.7151 18.2673 22.0813C18.4789 21.4476 18.5842 20.776 18.5833 20.0667C18.5833 19.1778 18.4167 18.3387 18.0833 17.5493C17.75 16.76 17.2722 16.0547 16.65 15.4333L11.9167 10.8L7.21667 15.4333C6.57222 16.0778 6.08333 16.7889 5.75 17.5667C5.41667 18.3444 5.25 19.1778 5.25 20.0667C5.25 20.7778 5.35578 21.4502 5.56733 22.084C5.77889 22.7178 6.07311 23.3009 6.45 23.8333C4.89444 22.9 3.63889 21.6276 2.68333 20.016C1.72778 18.4044 1.25 16.6213 1.25 14.6667ZM11.9167 14.5333L14.75 17.3C15.1278 17.6778 15.4167 18.1 15.6167 18.5667C15.8167 19.0333 15.9167 19.5333 15.9167 20.0667C15.9167 21.1556 15.5278 22.0831 14.75 22.8493C13.9722 23.6156 13.0278 23.9991 11.9167 24C10.8056 24 9.86111 23.6164 9.08333 22.8493C8.30556 22.0822 7.91667 21.1547 7.91667 20.0667C7.91667 19.5556 8.01667 19.0609 8.21667 18.5827C8.41667 18.1044 8.70555 17.6769 9.08333 17.3L11.9167 14.5333Z" fill="#6F797A"/>
</g>
</svg>
