<svg width="18" height="18" viewBox="0 0 18 18" fill="none" xmlns="http://www.w3.org/2000/svg">
<g clip-path="url(#clip0_2872_54671)">
<path d="M7.31243 17.9999C7.13467 18.0008 6.96086 17.9474 6.81423 17.8469C6.66761 17.7464 6.55515 17.6035 6.49189 17.4374L5.09126 13.7952C5.06289 13.7218 5.0195 13.6552 4.96386 13.5995C4.90822 13.5439 4.84157 13.5005 4.76818 13.4721L1.12493 12.0704C0.958976 12.0068 0.816233 11.8942 0.715545 11.7477C0.614856 11.6012 0.560954 11.4277 0.560954 11.2499C0.560954 11.0721 0.614856 10.8986 0.715545 10.7521C0.816233 10.6056 0.958976 10.4931 1.12493 10.4294L4.76712 9.02873C4.84051 9.00036 4.90717 8.95697 4.96281 8.90133C5.01844 8.84569 5.06184 8.77904 5.09021 8.70564L6.49189 5.0624C6.55558 4.89645 6.6681 4.7537 6.81459 4.65301C6.96109 4.55232 7.13467 4.49842 7.31243 4.49842C7.49019 4.49842 7.66378 4.55232 7.81027 4.65301C7.95677 4.7537 8.06928 4.89645 8.13298 5.0624L9.5336 8.70459C9.56197 8.77798 9.60537 8.84464 9.66101 8.90028C9.71664 8.95591 9.7833 8.99931 9.85669 9.02768L13.4778 10.4209C13.6505 10.4849 13.7993 10.6006 13.9039 10.7522C14.0085 10.9038 14.0639 11.084 14.0624 11.2682C14.0598 11.4428 14.0047 11.6127 13.9044 11.7557C13.8041 11.8988 13.6632 12.0084 13.4999 12.0704L9.85775 13.4711C9.78435 13.4994 9.7177 13.5428 9.66206 13.5985C9.60642 13.6541 9.56303 13.7208 9.53466 13.7942L8.13298 17.4374C8.06972 17.6035 7.95726 17.7464 7.81064 17.8469C7.66401 17.9474 7.4902 18.0008 7.31243 17.9999ZM3.09368 6.1874C2.98946 6.1874 2.88769 6.15582 2.80178 6.09683C2.71586 6.03783 2.64983 5.9542 2.61239 5.85693L2.01966 4.31568C2.00681 4.28198 1.98699 4.25136 1.96148 4.22586C1.93597 4.20035 1.90536 4.18052 1.87165 4.16768L0.330402 3.57494C0.233153 3.53749 0.14953 3.47146 0.0905495 3.38555C0.0315696 3.29963 0 3.19786 0 3.09365C0 2.98944 0.0315696 2.88768 0.0905495 2.80176C0.14953 2.71585 0.233153 2.64981 0.330402 2.61236L1.87165 2.01963C1.90533 2.00672 1.93591 1.98688 1.96141 1.96138C1.98691 1.93588 2.00675 1.9053 2.01966 1.87162L2.60712 0.344082C2.64025 0.254154 2.69726 0.174953 2.77203 0.114993C2.84679 0.0550337 2.93648 0.0165817 3.03146 0.00376996C3.14549 -0.0100921 3.26088 0.0145098 3.35934 0.0736744C3.4578 0.132839 3.53369 0.22318 3.57497 0.330371L4.16771 1.87162C4.18061 1.9053 4.20046 1.93588 4.22596 1.96138C4.25146 1.98688 4.28204 2.00672 4.31571 2.01963L5.85696 2.61236C5.95421 2.64981 6.03784 2.71585 6.09682 2.80176C6.1558 2.88768 6.18737 2.98944 6.18737 3.09365C6.18737 3.19786 6.1558 3.29963 6.09682 3.38555C6.03784 3.47146 5.95421 3.53749 5.85696 3.57494L4.31571 4.16768C4.28201 4.18052 4.2514 4.20035 4.22589 4.22586C4.20038 4.25136 4.18055 4.28198 4.16771 4.31568L3.57497 5.85693C3.53753 5.9542 3.47151 6.03783 3.38559 6.09683C3.29967 6.15582 3.1979 6.1874 3.09368 6.1874ZM14.0624 8.9999C13.9487 8.99987 13.8377 8.96538 13.744 8.90099C13.6503 8.8366 13.5783 8.74533 13.5375 8.6392L12.7346 6.55197C12.7205 6.51519 12.6988 6.48179 12.6709 6.45393C12.643 6.42607 12.6096 6.40438 12.5729 6.39025L10.4856 5.58729C10.3796 5.54643 10.2884 5.47441 10.2241 5.38071C10.1598 5.28702 10.1254 5.17604 10.1254 5.0624C10.1254 4.94876 10.1598 4.83779 10.2241 4.74409C10.2884 4.6504 10.3796 4.57838 10.4856 4.53752L12.5729 3.73455C12.6096 3.72043 12.643 3.69873 12.6709 3.67087C12.6988 3.64301 12.7205 3.60961 12.7346 3.57283L13.5316 1.50037C13.568 1.40237 13.6302 1.31606 13.7118 1.25062C13.7933 1.18519 13.891 1.14308 13.9946 1.12877C14.119 1.11371 14.2449 1.14064 14.3523 1.20528C14.4597 1.26993 14.5424 1.36859 14.5873 1.48561L15.3903 3.57283C15.4044 3.60961 15.4261 3.64301 15.454 3.67087C15.4818 3.69873 15.5152 3.72043 15.552 3.73455L17.6392 4.53752C17.7453 4.57838 17.8364 4.6504 17.9008 4.74409C17.9651 4.83779 17.9995 4.94876 17.9995 5.0624C17.9995 5.17604 17.9651 5.28702 17.9008 5.38071C17.8364 5.47441 17.7453 5.54643 17.6392 5.58729L15.552 6.39025C15.5152 6.40438 15.4818 6.42607 15.454 6.45393C15.4261 6.48179 15.4044 6.51519 15.3903 6.55197L14.5873 8.6392C14.5465 8.74533 14.4745 8.8366 14.3808 8.90099C14.2871 8.96538 14.1761 8.99987 14.0624 8.9999Z" fill="#6F797A"/>
</g>
<defs>
<clipPath id="clip0_2872_54671">
<rect width="18" height="18" fill="white"/>
</clipPath>
</defs>
</svg>
