<svg width="80" height="80" viewBox="0 0 80 80" fill="none" xmlns="http://www.w3.org/2000/svg">
<path fill-rule="evenodd" clip-rule="evenodd" d="M66.7095 73.6036H48.6002C51.104 68.1845 54.5338 71.4086 56.06 69.8309C61.5134 64.1717 66.7095 69.042 66.7095 73.6036ZM1.33762 69.5393H4.39014H5.74491C6.05359 69.5393 6.29368 69.7965 6.29368 70.0881V73.0377C6.29368 73.3464 6.03644 73.5865 5.74491 73.5865H4.39014H4.35584H1.54341C1.35477 73.6036 1.18328 73.6207 1.08039 73.655C-0.411575 74.1352 -0.188638 76.4332 1.33762 76.6904L69.7449 76.7076C72.2487 76.7076 72.0943 73.4664 69.865 73.4321C69.865 65.7837 62.3194 61.4621 55.4941 65.938V50.6411C58.9925 50.5725 62.7996 47.5372 64.5488 44.0902C70.4137 47.057 77.5648 43.7987 79.5198 37.6765L80 33.5608C79.6913 29.5479 77.1361 25.8952 73.2262 24.3346C72.5402 24.0602 71.4598 23.8716 70.9453 23.6487C70.9796 21.042 71.7856 19.7215 70.5338 15.4686C66.881 3.17275 51.4126 -1.54321 41.552 8.3003C37.7106 12.1417 37.2304 15.4857 36.6302 19.7901C36.5102 20.7162 36.7674 21.042 36.7503 21.9338C31.3483 23.2028 26.7353 28.9305 26.7524 35.0527C26.7696 39.2371 27.6613 39.3571 28.1586 41.4493L3.17256 41.415C0.634512 41.415 0 43.027 0 44.5704V51.4471C0 53.4879 0.8403 54.5854 3.03537 54.6025H3.17256C3.94427 54.6025 2.93248 54.6025 3.82422 54.6025H3.87567H3.92712H3.97856H4.03001H4.09861H5.53912C5.96785 54.6025 6.31083 54.9456 6.31083 55.3743V59.4386C6.31083 59.8673 5.96785 60.2102 5.53912 60.2102H4.09861H1.33762C0.634513 60.2102 0.0514473 60.7933 0.0514473 61.4964V68.3046C0.0514473 69.0077 0.634513 69.5907 1.33762 69.5907V69.5393ZM36.9389 69.5393H40.3516C41.0547 69.5393 41.6377 68.9562 41.6377 68.2531V61.445C41.6377 60.7419 41.0547 60.1588 40.3516 60.1588H37.0247H36.1158C35.687 60.1588 35.3441 59.8159 35.3441 59.3871V55.3228C35.3441 54.8941 35.687 54.5511 36.1158 54.5511H37.0247H37.0932H37.1447H37.1961H37.2476H37.299H38.7567C40.1801 54.4311 41.6377 53.5393 41.6377 51.3957C41.6377 50.744 41.6206 49.9723 41.6206 49.0463C43.1125 48.6862 44.776 48.6518 46.1479 47.8287C47.7428 48.9605 50.0407 50.5554 52.3387 50.6068V67.0013C49.1318 67.773 47.074 68.8876 45.7363 72.1116C44.9989 73.8951 46.3537 73.5693 41.2604 73.5693H41.089H41.0032H40.9175H40.8317H40.746H40.6602H40.5745H40.5059H40.4373H40.3687H40.3001H40.2315H40.1629H40.0943H40.0257H39.9571H39.8885H39.8199H39.7513H39.6999H39.6484H39.597H39.5455H39.4941H39.4427H39.3912H39.3398H39.2883H39.2369H39.1854H39.134H39.0825H39.0311H38.9796H38.9282H38.8767H38.8253H38.7738H38.7224H38.671H38.6195H38.5681H38.5166H38.448H38.3794H38.3108H38.2422H38.1736H38.105H38.0364H37.9678H37.8992H37.8307H37.7621H37.6935H37.6249H37.5391H37.4534H37.3676H37.2819H37.1961H37.1104H37.0247H35.9957C35.687 73.5693 35.4469 73.3121 35.4469 73.0205V70.0709C35.4469 69.7622 35.7042 69.5222 35.9957 69.5222H37.0247L36.9389 69.5393ZM3.61844 66.4353H6.31083H35.3441H38.0707C38.3108 66.4353 38.4995 66.2467 38.4995 66.0066V63.7087C38.4995 63.4686 38.3108 63.2799 38.0707 63.2799H35.3441H6.31083H3.61844C3.37835 63.2799 3.18971 63.4686 3.18971 63.7087V66.0066C3.18971 66.2467 3.37835 66.4353 3.61844 66.4353ZM4.1329 51.43H37.5391C38.0536 51.43 38.4823 51.0013 38.4823 50.4868V45.4964C38.4823 44.982 38.0536 44.5532 37.5391 44.5532H4.1329C3.61843 44.5532 3.18971 44.982 3.18971 45.4964V50.4868C3.18971 51.0013 3.61843 51.43 4.1329 51.43V51.43ZM12.4845 69.5393H29.4277H31.6742C31.9828 69.5393 32.2229 69.7965 32.2229 70.0881V73.0377C32.2229 73.3464 31.9657 73.5865 31.6742 73.5865H29.4277H12.4845H9.98071C9.67202 73.5865 9.43194 73.3292 9.43194 73.0377V70.0881C9.43194 69.7794 9.68917 69.5393 9.98071 69.5393H12.4845V69.5393ZM13.7535 54.5854H27.9185H31.4684C31.8971 54.5854 32.2401 54.9284 32.2401 55.3571V59.4214C32.2401 59.8501 31.8971 60.1931 31.4684 60.1931H27.9185H13.7535H10.2036C9.77492 60.1931 9.43194 59.8501 9.43194 59.4214V55.3571C9.43194 54.9284 9.77492 54.5854 10.2036 54.5854H13.7535V54.5854ZM55.4941 47.3657C55.4941 34.8812 54.0193 38.774 61.239 31.5543C61.9421 30.8512 63.4512 29.5993 63.6913 28.6904C64.0686 27.3013 62.2851 25.9638 60.9132 27.3357C59.7642 28.5018 56.6088 31.9659 55.4941 32.6862C55.4941 30.714 55.5112 28.7247 55.5112 26.7355C55.5112 24.266 52.8532 24.5747 52.4416 26.0323C52.1672 26.9927 52.373 36.3389 52.373 38.1567C49.2347 36.0988 46.6795 30.8169 44.4159 32.0688C41.0718 33.9037 49.955 39.2885 52.1843 42.564C52.5959 43.1642 52.373 46.4225 52.373 47.3657C49.8692 47.1427 48.4116 45.3249 47.5198 44.7247C45.8392 43.61 44.7074 45.7365 41.6549 45.8051V44.5532C41.6549 42.684 40.7974 41.3807 38.4823 41.3978L31.9314 41.4321C28.433 35.3271 29.7878 28.8105 35.7728 25.758C37.0075 25.1234 38.4995 24.9691 39.3569 24.4889C40.5402 23.8373 39.9228 21.8137 39.8885 20.6647C39.4941 7.76867 55.3741 1.42356 64.0171 10.4439C66.7781 13.325 68.0643 16.7548 68.0129 20.6819C67.9614 24.6604 65.4405 26.4782 69.8307 26.8041C73.6549 27.0956 76.6902 30.3368 76.8617 34.1438C77.119 39.6144 71.3055 43.5071 66.2122 41.3464C65.149 40.9005 64.0686 39.7344 62.9025 40.4032C61.8221 41.0206 61.4105 46.4397 55.4941 47.3828V47.3657Z" fill="black"/>
</svg>
