<svg width="80" height="80" viewBox="0 0 80 80" fill="none" xmlns="http://www.w3.org/2000/svg">
<path fill-rule="evenodd" clip-rule="evenodd" d="M50.118 73.9764V71.7966H53.5336C53.5336 72.9466 53.6022 73.616 53.5164 74.0107H50.1352V73.9764H50.118ZM14.9839 74.0107V49.0032C31.6499 49.0032 48.3158 49.0032 64.9818 49.0032V74.0107H54.9582C55.0955 73.204 55.044 72.2944 55.044 71.6078C55.5246 71.5049 56.0738 70.9899 56.3141 70.6123C56.9663 69.5997 56.7432 66.3901 56.7432 64.8968C56.7432 63.5924 56.6574 62.7685 56.0738 61.67C57.876 61.67 58.3394 61.1551 58.3394 59.4044C58.3394 57.1903 56.3828 57.6022 54.838 57.6022C54.4261 57.6022 54.3231 57.7052 53.9798 57.791L52.4694 53.1397C52.3493 52.7964 52.2291 52.2987 52.0747 52.024C51.9545 51.8009 51.6284 51.3203 51.4396 51.1487C50.8732 50.6681 50.1695 50.3077 49.1568 50.3077H30.7917C28.5432 50.3077 27.9597 51.6636 27.4619 53.1397L25.9687 57.791C25.6426 57.7224 25.6426 57.6022 25.2993 57.6022C23.4113 57.6022 21.6091 57.1732 21.6091 59.5932C21.6091 60.3141 21.7464 60.8633 22.1412 61.2238C22.6046 61.6357 23.0337 61.67 23.8747 61.67C22.9307 63.4551 23.2053 66.2013 23.2053 68.587C23.2053 69.8914 23.6172 71.3161 24.9045 71.6078C24.9045 72.2944 24.8359 73.204 24.9903 74.0107H14.9667H14.9839ZM48.6591 74.0107H31.3238C31.3581 73.7704 31.3752 73.513 31.3752 73.2212V71.7966H48.6076C48.6076 72.5861 48.5561 73.3414 48.6591 74.0107V74.0107ZM29.8477 74.0107H26.4664V73.9764V71.7966H29.882C29.882 72.9466 29.9507 73.616 29.8648 74.0107H29.8477ZM67.5048 69.0161H73.7524V74.0107H67.5048V69.0161ZM80 25.2658V31.2731C79.8112 33.1955 79.0388 33.1611 76.2412 31.6679C76.2412 39.3744 76.2412 47.0809 76.2412 54.7874L76.2583 74.9547C76.2412 75.9159 75.9494 76.4995 75.0054 76.4995H4.99464C3.98198 76.4995 3.74169 75.8473 3.74169 74.7831L3.75885 31.6507C3.12379 31.994 0 33.9507 0 31.4963V25.2487C0 23.9614 2.78052 22.983 4.53122 22.1249C9.86913 19.4645 15.6705 16.2377 20.9912 13.5774C23.6516 12.2386 39.3564 4 40.0086 4C40.6436 4 54.1515 10.9856 55.2843 11.6894L69.2212 18.8466C69.6846 19.0869 69.9077 19.2586 70.4227 19.5332C71.3495 19.9966 72.1047 20.3742 73.0315 20.8376L78.0777 23.4465C78.9015 23.8584 80 24.1674 80 25.2658V25.2658ZM6.24759 69.0161H12.4952V74.0107H6.24759V69.0161ZM15.0011 39.014H64.9989V41.5199H53.6194C53.0187 41.5199 52.5038 42.1892 52.5038 42.7385C52.5038 43.3049 53.053 44.0258 53.6194 44.0258H64.9989V46.5316C48.333 46.5316 31.667 46.5316 15.0011 46.5316V44.0258H38.6698H38.7041H38.7385H38.7728H38.8071H38.8415H38.8758H38.9101H38.9444H38.9788H39.0131H39.0474H39.0817H39.1161H39.1504H39.1847H39.219H39.2534H39.2705H39.3049H39.3392H39.3735H39.4079H39.4422H39.4765H39.5108H39.5452H39.5795H39.6138H39.6481H39.6653H39.6996H39.734H39.7683H39.8026H39.8369H39.8713H39.9056H39.9399H39.9743H40.0086H40.0429H40.0772H40.0944H40.1287H40.1631H40.1974H40.2317H40.266H40.3004H40.3347H40.369H40.4033H40.4377H40.472H40.4892H40.5235H40.5578H40.5921H40.6265H40.6608H40.6951H40.7295H40.7638H40.7981H40.8324H40.8668H40.9011H40.9354H43.5958C44.1279 44.0258 44.7801 43.3221 44.7801 42.7557C44.7801 42.1893 44.1965 41.537 43.5958 41.537H40.9354H38.4295H14.7608V39.0311L15.0011 39.014ZM15.0011 35.4267C15.0011 34.6544 15.6361 34.0193 16.4085 34.0193H63.6087C65.1877 34.0193 65.0161 35.6842 65.0161 36.5252H15.0182V35.4267H15.0011ZM12.4952 34.9633V66.5274H6.24759V30.7411C6.24759 30.1232 9.4572 28.7501 10.2639 28.3382C15.7391 25.6091 21.7121 22.2794 27.1358 19.5847C28.5432 18.881 39.6481 13.0796 40.0086 13.0796L48.5561 17.3534C49.3113 17.731 49.7919 18.0571 50.5814 18.4519L54.8037 20.6488C55.5932 21.0436 56.194 21.3525 57.0006 21.7473L71.8472 29.4023C72.3965 29.6769 73.7696 30.1575 73.7696 30.7582V66.5445H67.522V34.9805C67.522 33.2641 65.8056 31.5478 64.0893 31.5478H15.9622C14.2459 31.5478 12.5295 33.2641 12.5295 34.9805L12.4952 34.9633ZM2.48874 29.3336V26.0554C4.05063 25.2315 5.56104 24.545 7.12294 23.6696C9.18258 22.5197 14.8294 19.8765 16.4257 18.8981C18.1077 17.8683 23.7031 15.2594 25.8142 14.0751L32.7998 10.4364C33.6065 10.0245 34.3446 9.66405 35.2027 9.23496C35.9236 8.87452 39.4593 6.83205 39.9914 6.83205C40.472 6.83205 44.1279 8.84018 44.6943 9.16629C46.6853 10.3334 52.1605 12.8393 53.997 13.9206C55.7649 14.9848 61.1028 17.525 63.3855 18.7436L69.2212 21.8159C69.5988 22.0219 69.9421 22.1764 70.3712 22.3824L77.5113 26.0211V29.2993C76.9277 29.162 75.7091 28.4926 75.1598 28.2008L65.8914 23.4121C59.8841 20.4428 53.3791 16.8385 47.2517 13.7833L44.9174 12.5304C38.5153 9.26926 41.21 9.56106 32.9886 13.6804L23.6172 18.5205C22.8106 18.9153 22.0725 19.2929 21.2143 19.722L6.16177 27.48C5.2006 27.9949 3.48423 29.0762 2.52306 29.2993L2.48874 29.3336ZM32.4222 67.2654C33.8296 67.2654 35.2542 67.54 35.2542 66.5102C35.2542 65.5147 33.7438 65.755 32.611 65.755C30.929 65.755 31.1178 67.2654 32.4222 67.2654ZM39.425 67.2654C40.5921 67.2654 47.6121 67.4371 48.1613 67.111C48.8307 66.7162 48.5218 65.755 47.4748 65.755H39.6138C37.9318 65.755 38.1206 67.2654 39.425 67.2654ZM52.8642 67.2654C52.4694 67.4542 50.8389 67.7975 50.3068 67.9348C50.4098 66.596 50.8389 66.7848 52.1433 66.4587C52.5038 66.3729 52.7097 66.2528 53.053 66.2356C52.9843 66.5617 52.9328 66.9564 52.8642 67.2825V67.2654ZM48.6934 68.3124C48.6934 69.9258 50.6157 69.3422 51.4911 69.1191C52.8814 68.7758 54.0142 68.7415 54.2545 67.7116C55.0955 64.1244 53.6366 64.5879 51.6971 65.0685C49.8949 65.5147 49.5173 65.4461 49.1225 66.6647C49.0195 66.9908 48.6934 68.0206 48.6934 68.3124ZM26.9298 66.2356C27.256 66.2699 27.4276 66.3557 27.7537 66.4415C28.0283 66.5102 28.3373 66.5789 28.6634 66.6647C29.0067 66.7505 29.2813 66.7505 29.4357 67.0251C29.5216 67.1624 29.6417 67.746 29.6589 67.9348C29.1268 67.8146 27.4962 67.4542 27.1015 67.2654C27.0328 67.008 26.9985 66.4072 26.9127 66.2184L26.9298 66.2356ZM25.5053 65.6692C25.5053 68.8617 26.0888 68.5355 28.4059 69.1191C28.9895 69.2736 29.5731 69.4624 30.2424 69.4624C30.7573 69.4624 31.2894 68.9131 31.2894 68.4154C31.2894 68.0034 30.9976 67.1452 30.8775 66.7505C30.6715 66.1154 30.62 65.7893 30.0021 65.5491C29.7447 65.4461 29.4529 65.4117 29.1783 65.3259C28.2858 65.0685 25.5224 64.0043 25.5224 65.6692H25.5053ZM31.9416 68.4154C31.9416 68.8273 31.873 69.3594 32.8856 69.3594H47.08C48.4188 69.3594 48.3673 67.849 46.977 67.849H33.0573C32.5767 67.849 31.9245 67.9519 31.9245 68.4154H31.9416ZM24.7501 69.5482V63.7812C24.7501 62.8887 25.0762 62.7857 25.2306 62.1678C25.8485 62.3394 26.8784 64.2961 29.5902 64.811C31.667 65.2058 45.1405 65.017 48.23 65.017C53.053 65.017 53.9112 62.4081 54.7694 62.185C54.9067 62.8029 55.25 62.9058 55.25 63.7983V69.5653C55.25 70.0803 54.5291 70.4235 53.8254 70.4235H26.1918C25.4881 70.4235 24.7672 70.0803 24.7672 69.5653L24.7501 69.5482ZM26.4493 61.1208C26.844 61.035 26.8955 60.9148 27.3933 60.8462C28.7149 60.6574 51.2336 60.6574 52.5724 60.8462C53.0702 60.9148 53.1216 61.035 53.5164 61.1208C52.6582 62.3909 50.959 63.4894 49.2598 63.4894H30.7059C29.0066 63.4894 27.3074 62.4081 26.4493 61.1208V61.1208ZM23.1367 59.988V59.044H25.2135C25.2135 60.5716 25.5396 60.2798 23.4113 60.2798C23.1882 60.2798 23.1195 60.2111 23.1195 59.988H23.1367ZM56.5544 60.2798C54.4261 60.2798 54.7522 60.5716 54.7522 59.044C57.2409 59.044 56.932 58.8209 56.932 59.9022C56.932 60.1253 56.7775 60.2798 56.5544 60.2798V60.2798ZM27.0157 59.4216L29.1611 52.7621C29.5216 52.024 30.0536 51.7494 31.0835 51.7494H48.8822C50.9762 51.7494 50.9075 53.071 51.5426 54.959L52.5896 58.2716C52.6926 58.6492 52.847 59.0268 52.95 59.4216C52.4694 59.4216 52.4351 59.3186 51.903 59.3186H28.0455C27.5134 59.3186 27.4791 59.4216 26.9985 59.4216H27.0157Z" fill="black"/>
</svg>
