<svg width="80" height="80" viewBox="0 0 80 80" fill="none" xmlns="http://www.w3.org/2000/svg">
<path d="M8.7946 47.3469C8.7946 45.6122 10.1587 44.0816 11.9124 44.0816H21.266C22.9223 44.0816 24.3838 45.6122 24.3838 47.3469V52.8326H27.5017V47.3469C27.5017 45.6122 28.8657 44.0816 30.6195 44.0816H39.973C41.6294 44.0816 43.0909 45.6122 43.0909 47.3469V52.8326H47.7676V37.551C47.7676 35.8163 46.3061 34.2857 44.6498 34.2857H7.23568C5.4819 34.2857 4.11784 35.8163 4.11784 37.551V52.8326H8.7946V47.3469ZM44.6498 53.8775H7.23568C3.72811 53.8775 1 56.8367 1 60.4082V78.3673C1 79.2858 1.68203 80 2.55892 80H4.11784C4.8973 80 5.67676 79.2858 5.67676 78.3673V73.4694H46.2087V78.3673C46.2087 79.2858 46.8907 80 47.7676 80H49.3266C50.106 80 50.8855 79.2858 50.8855 78.3673V60.4082C50.8855 56.8367 48.0599 53.8775 44.6498 53.8775ZM46.2087 68.5714H5.67676V60.4082C5.67676 59.5921 6.3588 58.7755 7.23568 58.7755H44.6498C45.4292 58.7755 46.2087 59.5921 46.2087 60.4082V68.5714Z" fill="black"/>
<path d="M56.3729 58.4882V77.3356H75.8282V58.4882H56.3729ZM55.874 56.0719H76.3271C76.8563 56.0719 77.3637 56.2756 77.7378 56.6382C78.1125 57.0008 78.3225 57.4924 78.3225 58.0049V77.8188C78.3225 78.3314 78.1125 78.823 77.7378 79.1856C77.3637 79.5481 76.8563 79.7519 76.3271 79.7519H55.874C55.3447 79.7519 54.8374 79.5481 54.4633 79.1856C54.0886 78.823 53.8786 78.3314 53.8786 77.8188V58.0049C53.8786 57.4924 54.0886 57.0008 54.4633 56.6382C54.8374 56.2756 55.3447 56.0719 55.874 56.0719Z" fill="black"/>
<path d="M76.8259 65.2539H55.3752C54.5486 65.2539 53.8786 65.9028 53.8786 66.7037C53.8786 67.5041 54.5486 68.1535 55.3752 68.1535H76.8259C77.6525 68.1535 78.3225 67.5041 78.3225 66.7037C78.3225 65.9028 77.6525 65.2539 76.8259 65.2539Z" fill="black"/>
<path d="M36.9176 20.898C38.2816 20.898 39.4118 19.7551 39.4118 18.2857H34.4233C34.4233 19.7551 35.5145 20.898 36.9176 20.898ZM37.8529 6.61225V0H35.9822V6.61225C31.3055 7.02041 27.603 10.7755 26.9405 15.5102C26.8235 16.2857 27.4471 16.9796 28.1876 16.9796H45.6086C46.388 16.9796 46.9726 16.2857 46.8557 15.5102C46.2321 10.7755 42.4907 7.02041 37.8529 6.61225ZM28.9281 15.0204C29.7855 11.2653 33.0982 8.4898 36.9176 8.4898C40.6979 8.4898 44.0107 11.2653 44.8681 15.0204H28.9281Z" fill="black"/>
<path d="M33.3665 22.2574C33.6618 22.0044 33.6994 21.5538 33.4505 21.251C33.2016 20.9481 32.7604 20.9077 32.4651 21.1608L29.9696 23.2986C29.6742 23.5516 29.6366 24.0022 29.8854 24.3051C30.1344 24.6079 30.5756 24.6483 30.8709 24.3953L33.3665 22.2574Z" fill="black"/>
<path d="M33.2165 22.0745C33.4134 21.9058 33.4385 21.6053 33.2725 21.4034C33.1066 21.2014 32.8124 21.1745 32.6154 21.3432L30.1194 23.4816C29.9225 23.6503 29.8974 23.9508 30.0633 24.1527C30.2293 24.3547 30.5235 24.3816 30.7204 24.2129L33.2165 22.0745Z" fill="black"/>
<path d="M41.5844 21.161C41.289 20.908 40.8478 20.9484 40.5989 21.2513C40.35 21.5541 40.3876 22.0047 40.683 22.2577L43.1785 24.3956C43.4739 24.6485 43.9151 24.6082 44.1639 24.3053C44.4129 24.0025 44.3752 23.5519 44.0799 23.2988L41.5844 21.161Z" fill="black"/>
<path d="M41.434 21.3435C41.2371 21.1748 40.9429 21.2017 40.7769 21.4037C40.6109 21.6056 40.636 21.9061 40.833 22.0748L43.329 24.2132C43.5259 24.3819 43.8201 24.3549 43.9861 24.153C44.1521 23.9511 44.127 23.6506 43.9301 23.4819L41.434 21.3435Z" fill="black"/>
<path d="M36.2137 23.5934C36.3657 23.2298 36.2038 22.812 35.8522 22.6602C35.5006 22.5084 35.0923 22.6801 34.9403 23.0437L33.6558 26.1162C33.5038 26.4799 33.6657 26.8977 34.0173 27.0495C34.3689 27.2013 34.7772 27.0295 34.9292 26.6659L36.2137 23.5934Z" fill="black"/>
<path d="M36 23.5024C36.1012 23.2601 35.9934 22.9817 35.7593 22.8805C35.5251 22.7794 35.2533 22.8938 35.1521 23.1362L33.8693 26.2073C33.7681 26.4496 33.8759 26.728 34.11 26.8292C34.3442 26.9303 34.616 26.8159 34.7172 26.5736L36 23.5024Z" fill="black"/>
<path d="M39.1162 23.0436C38.9642 22.68 38.556 22.5083 38.2043 22.66C37.8527 22.8119 37.6909 23.2297 37.8429 23.5933L39.1273 26.6658C39.2794 27.0294 39.6876 27.2012 40.0393 27.0494C40.3908 26.8976 40.5527 26.4798 40.4007 26.1161L39.1162 23.0436Z" fill="black"/>
<path d="M38.9044 23.1359C38.8032 22.8936 38.5313 22.7791 38.2972 22.8803C38.0631 22.9814 37.9553 23.2598 38.0565 23.5021L39.3393 26.5733C39.4405 26.8156 39.7124 26.93 39.9465 26.8289C40.1806 26.7278 40.2884 26.4493 40.1872 26.207L38.9044 23.1359Z" fill="black"/>
<path d="M74.2149 44.5225L71.2138 35.7062C71.0187 35.1755 70.5902 34.8082 70.1228 34.8082H61.5485C61.12 34.8082 60.6909 35.1347 60.4964 35.6245L56.9884 44.4409C56.5988 45.4204 57.1446 46.5633 58.041 46.5633H61.5096C60.5353 48.0327 59.9896 49.7878 59.9896 51.2163C59.9896 52.5633 60.4575 53.8286 61.3928 54.8488C61.8992 55.4204 62.6006 55.7062 63.3803 55.7062H67.7842C68.5639 55.7062 69.3042 55.4204 69.811 54.8488C70.7069 53.8286 71.2138 52.5633 71.2138 51.2163C71.2138 49.7878 70.6291 48.0327 69.6549 46.5633H73.1234C73.9809 46.5633 74.5656 45.5021 74.2149 44.5225ZM69.3431 51.2163C69.3431 52.0735 68.9924 52.8898 68.4466 53.5021C68.2521 53.6654 68.0181 53.747 67.7842 53.747H63.3803C63.1463 53.747 62.9123 53.6654 62.7178 53.5021C62.172 52.8898 61.8603 52.0735 61.8603 51.2163C61.8603 49.7878 62.7178 47.6654 64.0038 46.5633H67.1606C68.4466 47.6654 69.3431 49.7878 69.3431 51.2163ZM58.9375 44.6041L62.0553 36.7674H69.577L72.2659 44.6041H58.9375Z" fill="black"/>
<path d="M69.1177 32.044C68.8223 32.2971 68.7849 32.7477 69.0339 33.0505C69.2828 33.3533 69.7238 33.3937 70.0191 33.1407L72.5149 31.0029C72.8102 30.7499 72.8476 30.2993 72.5987 29.9964C72.3497 29.6936 71.9088 29.6531 71.6134 29.9062L69.1177 32.044Z" fill="black"/>
<path d="M69.2678 32.227C69.0707 32.3957 69.0458 32.6962 69.2114 32.8982C69.3775 33.1001 69.6718 33.127 69.8689 32.9583L72.3647 30.82C72.5617 30.6513 72.5866 30.3508 72.4205 30.1488C72.2549 29.9469 71.9606 29.9199 71.7635 30.0886L69.2678 32.227Z" fill="black"/>
<path d="M60.8995 33.1405C61.1954 33.3935 61.6363 33.353 61.8853 33.0502C62.1342 32.7474 62.0963 32.2968 61.801 32.0437L59.3057 29.9059C59.0104 29.6529 58.5689 29.6933 58.32 29.9961C58.071 30.299 58.1089 30.7496 58.4043 31.0026L60.8995 33.1405Z" fill="black"/>
<path d="M61.0502 32.9581C61.2472 33.1268 61.5416 33.0998 61.7072 32.8979C61.8733 32.6959 61.8484 32.3955 61.6513 32.2268L59.155 30.0884C58.9585 29.9197 58.6642 29.9466 58.498 30.1486C58.3319 30.3505 58.3574 30.651 58.5544 30.8197L61.0502 32.9581Z" fill="black"/>
<path d="M66.2707 30.7081C66.1186 31.0717 66.2802 31.4895 66.6319 31.6414C66.9836 31.7931 67.3921 31.6214 67.5438 31.2578L68.8283 28.1853C68.9805 27.8216 68.8184 27.4038 68.4667 27.252C68.1155 27.1002 67.7069 27.272 67.5548 27.6356L66.2707 30.7081Z" fill="black"/>
<path d="M66.4841 30.7992C66.3829 31.0415 66.4906 31.3199 66.7246 31.421C66.9591 31.5222 67.2309 31.4077 67.3317 31.1654L68.6147 28.0942C68.716 27.8519 68.6083 27.5735 68.3738 27.4724C68.1398 27.3713 67.868 27.4857 67.7667 27.728L66.4841 30.7992Z" fill="black"/>
<path d="M63.3678 31.258C63.5199 31.6216 63.928 31.7934 64.2797 31.6416C64.6314 31.4898 64.793 31.072 64.6414 30.7084L63.3568 27.6358C63.2047 27.2722 62.7966 27.1005 62.4449 27.2523C62.0932 27.4041 61.9316 27.8219 62.0832 28.1855L63.3678 31.258Z" fill="black"/>
<path d="M63.5799 31.1657C63.6811 31.408 63.953 31.5224 64.187 31.4213C64.4209 31.3202 64.5287 31.0418 64.4274 30.7994L63.1449 27.7283C63.0436 27.486 62.7717 27.3715 62.5377 27.4726C62.3038 27.5738 62.196 27.8522 62.2968 28.0945L63.5799 31.1657Z" fill="black"/>
</svg>
