<svg width="80" height="80" viewBox="0 0 80 80" fill="none" xmlns="http://www.w3.org/2000/svg">
<path d="M31.2406 44.7172C31.5601 44.3809 31.9806 44.1791 32.4178 44.1791C32.8551 44.1791 33.2923 44.3641 33.595 44.7172C34.4695 45.659 35.6467 46.1972 36.8744 46.1972C38.1021 46.1972 39.2793 45.659 40.1538 44.7172C40.3051 44.5491 40.4901 44.4145 40.6919 44.3136C40.8938 44.2295 41.1124 44.1791 41.331 44.1791C41.5496 44.1791 41.7683 44.2295 41.9701 44.3136C42.1719 44.3977 42.3569 44.5322 42.5082 44.7172C43.3827 45.659 44.5599 46.1972 45.7876 46.1972C47.0153 46.1972 48.1925 45.659 49.067 44.7172C49.2183 44.5491 49.4033 44.4145 49.6051 44.3136C49.8069 44.2295 50.0256 44.1791 50.2442 44.1791C50.4628 44.1791 50.6814 44.2295 50.8832 44.3136C51.085 44.3977 51.27 44.5322 51.4214 44.7172C51.8586 45.1881 52.3632 45.5581 52.9181 45.8104C53.4731 46.0627 54.0785 46.1972 54.684 46.1972C55.2894 46.1972 55.8948 46.0627 56.4498 45.8104C57.0047 45.5581 57.5261 45.1881 57.9465 44.7172C58.2156 44.4145 58.3669 43.9941 58.3669 43.5737C58.3669 43.1532 58.2156 42.7328 57.9297 42.4301C57.6606 42.1274 57.2738 41.9592 56.887 41.9592C56.5002 41.9592 56.1302 42.1274 55.8443 42.4133C55.5248 42.7496 55.1044 42.9514 54.6671 42.9514C54.2299 42.9514 53.7926 42.7665 53.4899 42.4133C53.0527 41.9424 52.5482 41.5724 51.9932 41.3033C51.4382 41.0511 50.8328 40.9166 50.2105 40.9166C49.6051 40.9166 48.9997 41.0511 48.4279 41.3033C47.8729 41.5556 47.3516 41.9256 46.9312 42.4133C46.6116 42.7496 46.1912 42.9514 45.754 42.9514C45.3167 42.9514 44.8795 42.7665 44.5767 42.4133C44.1395 41.9424 43.635 41.5724 43.08 41.3033C42.525 41.0511 41.9196 40.9166 41.2974 40.9166C40.6919 40.9166 40.0865 41.0511 39.5147 41.3033C38.9598 41.5556 38.4384 41.9256 38.018 42.4133C37.6985 42.7496 37.278 42.9514 36.8408 42.9514C36.4035 42.9514 35.9663 42.7665 35.6636 42.4133C34.7891 41.4715 33.6118 40.9334 32.3842 40.9334C31.1565 40.9334 29.9793 41.4715 29.1048 42.4133C28.7853 42.7496 28.3648 42.9514 27.9276 42.9514C27.4903 42.9514 27.0531 42.7665 26.7504 42.4133C26.6158 42.2619 26.4477 42.1442 26.2627 42.0601C26.0777 41.976 25.8927 41.9256 25.6909 41.9256C25.4891 41.9256 25.3041 41.9592 25.1191 42.0433C24.9341 42.1274 24.7828 42.2451 24.6314 42.3965C24.4969 42.5478 24.3791 42.7328 24.3119 42.9178C24.2446 43.1196 24.1941 43.3214 24.1941 43.5401C24.1941 43.7587 24.2278 43.9605 24.3119 44.1623C24.396 44.3641 24.4969 44.5323 24.6314 44.6836C25.5059 45.6254 26.6831 46.1635 27.9108 46.1635C29.1384 46.1635 30.3157 45.6254 31.1902 44.6836L31.2406 44.7172ZM30.3997 21.7952V32.4406C30.3997 32.9788 30.6184 33.5001 30.9715 33.8701C31.3247 34.2401 31.8124 34.4419 32.3169 34.4587H32.3337H36.0672H36.084C36.5885 34.4587 37.0762 34.2401 37.4294 33.8701C37.7994 33.5001 38.0012 32.9788 38.0012 32.4406V32.222H48.9997V32.4406C48.9997 32.9788 49.2183 33.5001 49.5715 33.8701C49.9247 34.2401 50.4124 34.4419 50.9169 34.4587H50.9337H54.6671H54.684C55.1885 34.4587 55.6762 34.2401 56.0293 33.8701C56.3993 33.5001 56.6011 32.9788 56.6011 32.4406V21.7952L62.4031 21.8121L68.1042 72.4658L11.3457 72.3818L17.1309 21.8289L30.3493 21.8121L30.3997 21.7952ZM56.6516 19.4745V16.565V16.5482H63.5803C65.6152 16.5314 67.1288 18.0618 67.3979 20.1303L71.4845 55.968C71.2322 57.7002 73.9566 72.7013 73.2166 74.9884C72.2076 78.0996 69.4327 77.696 67.2633 77.696C50.1265 77.696 50.1096 77.696 10.0171 77.696C7.81407 77.696 5.98099 75.7452 6.19961 73.3404L12.2202 20.1303C12.3211 18.2804 13.9692 16.5314 16.0377 16.5482H17.1645V16.565H30.3829V19.4745H17.2654C16.0209 19.4745 15.0455 20.433 14.911 21.6775L9.17628 72.0622C8.87356 74.7698 11.4971 74.7866 12.8088 74.7866C45.8717 74.7866 40.1033 74.7866 68.0705 74.7866C69.5337 74.8034 70.5931 73.4244 70.425 72.0622L64.6903 21.6775C64.5557 20.4499 63.5803 19.4745 62.3358 19.4745H56.6348H56.6516ZM56.6516 14.2611V10.7631C56.6516 4.72566 51.8755 0 46.2248 0H46.1408C44.2572 0.0168173 42.4073 0.554967 40.7928 1.59764C39.1447 2.64031 37.8162 4.15388 36.9249 5.93651C36.0167 4.10342 34.6545 2.58986 32.9728 1.54719C31.392 0.571786 29.6093 0.0336254 27.7762 0.0168081H27.5072H27.4231C21.8397 0.117712 17.1981 4.86019 17.1981 10.7799V14.2779H16.0714C12.8929 14.2611 10.3871 16.7332 10.0508 19.8949L4.03018 73.1217C3.67701 76.7879 6.46869 80 10.0508 80C28.7685 80 57.5093 80 69.6177 80C73.3344 80 76.0924 76.5188 75.6383 73.1049L73.7716 56.1867L69.6177 19.9117C69.2646 16.75 66.7756 14.2779 63.5971 14.2947H56.6684L56.6516 14.2611ZM43.4332 10.864C43.4332 10.0904 43.7191 9.35043 44.2236 8.79545C44.7281 8.24048 45.4344 7.92094 46.1744 7.8873C46.5444 7.87049 46.9143 7.93777 47.2507 8.08913C47.587 8.22367 47.9066 8.44228 48.1757 8.71136C48.4447 8.98044 48.6465 9.29996 48.7979 9.65313C48.9492 10.0063 49.0165 10.3931 49.0333 10.7799V14.2779H43.45V10.8808L43.4332 10.864ZM38.0348 21.7784H49.0333V24.7046H38.0348V21.7784ZM49.6219 16.565C49.8069 16.565 49.9919 16.5987 50.1601 16.6659C50.3283 16.7332 50.4796 16.8509 50.6142 16.9855C50.7487 17.12 50.8496 17.2882 50.9169 17.4564C50.9841 17.6414 51.0178 17.8264 51.0178 18.0282C51.0178 18.23 50.9841 18.415 50.9169 18.6C50.8496 18.7849 50.7487 18.9363 50.6142 19.0708C50.4796 19.2054 50.3283 19.3063 50.1601 19.3904C50.0592 19.4408 49.9583 19.4576 49.8406 19.4745H38.0348V16.565H49.6219V16.565ZM38.0348 26.9918H49.6219C49.8069 26.9918 49.9919 27.0254 50.1601 27.0927C50.3283 27.16 50.4796 27.2777 50.6142 27.4122C50.7487 27.5468 50.8496 27.715 50.9169 27.8831C50.9841 28.0681 51.0178 28.2531 51.0178 28.4549C51.0178 28.6567 50.9841 28.8417 50.9169 29.0267C50.8496 29.2117 50.7487 29.363 50.6142 29.4976C50.4796 29.6321 50.3283 29.733 50.1601 29.8171C49.9919 29.8844 49.8069 29.918 49.6219 29.918H38.0348V27.0086V26.9918ZM54.4317 32.1547H51.2532V31.8184C51.8586 31.5157 52.3632 31.0448 52.7163 30.4393C53.0695 29.8507 53.2545 29.1612 53.2545 28.4549C53.2545 27.7486 53.0695 27.0591 52.7163 26.4705C52.3632 25.8818 51.8586 25.3942 51.2532 25.0914V21.7784V21.3748C51.8586 21.0721 52.3632 20.6012 52.7163 19.9958C53.0695 19.4072 53.2545 18.7177 53.2545 18.0113C53.2545 17.305 53.0695 16.6155 52.7163 16.0269C52.3632 15.4383 51.8586 14.9506 51.2532 14.6479V14.2274V10.7294C51.2532 7.5846 48.5625 5.1461 45.5017 5.60017C44.3245 5.76835 43.2482 6.39058 42.4578 7.33235C41.6673 8.27412 41.2301 9.48495 41.2301 10.7294V14.2274H38.0516V10.8976C38.0684 8.62728 38.9093 6.44103 40.4397 4.82656C41.9532 3.2121 44.0218 2.28715 46.1744 2.25352C50.7992 2.21988 54.4485 6.08785 54.4485 10.7294V14.2274V16.5314V19.4576V21.7784V32.1379L54.4317 32.1547ZM19.418 14.2611V10.9313C19.418 9.77087 19.6535 8.62727 20.0907 7.55096C20.528 6.47465 21.167 5.51606 21.9574 4.70883C22.7479 3.9016 23.6896 3.27937 24.7323 2.85894C25.7582 2.43851 26.8681 2.25351 27.9612 2.30397C32.3337 2.48896 35.8317 6.20558 35.8317 10.7631V14.2611V16.565V19.4913V21.7952V32.1715H32.6533V21.7952V19.4913V16.565V14.2611V10.7631C32.6364 9.43451 32.1487 8.15638 31.2742 7.18098C30.3997 6.22239 29.2057 5.65061 27.9276 5.58334C25.0686 5.41517 22.6301 7.76959 22.6301 10.7631V14.2611H19.4517H19.418ZM24.8164 14.2611V10.864C24.8164 10.1576 25.0518 9.48496 25.4891 8.9468C25.9263 8.40865 26.5149 8.03867 27.1708 7.92095C27.5576 7.85368 27.978 7.87051 28.348 7.98823C28.7348 8.10595 29.088 8.29093 29.4075 8.56001C29.7102 8.82909 29.9625 9.16543 30.1307 9.55223C30.2988 9.93903 30.3997 10.3426 30.3997 10.7631V14.2443H24.8164V14.2611ZM44.8963 19.4745H42.4073H44.8963ZM55.9116 58.9279C55.5921 59.2642 55.1717 59.4661 54.7344 59.4661C54.2972 59.4661 53.8599 59.2811 53.5572 58.9279C53.1199 58.457 52.6154 58.087 52.0605 57.8348C51.5055 57.5825 50.9001 57.448 50.2778 57.448C49.6724 57.448 49.067 57.5825 48.4952 57.8348C47.9402 58.087 47.4189 58.457 46.9984 58.9279C46.6789 59.2642 46.2585 59.4661 45.8212 59.4661C45.384 59.4661 44.9467 59.2811 44.644 58.9279C44.2068 58.457 43.7022 58.087 43.1473 57.8348C42.5923 57.5825 41.9869 57.448 41.3646 57.448C40.7592 57.448 40.1538 57.5825 39.582 57.8348C39.027 58.087 38.5057 58.457 38.0853 58.9279C37.7657 59.2642 37.3453 59.4661 36.908 59.4661C36.4708 59.4661 36.0335 59.2811 35.7308 58.9279C34.8563 57.9861 33.6791 57.448 32.4515 57.448C31.2238 57.448 30.0466 57.9861 29.1721 58.9279C28.8525 59.2642 28.4321 59.4661 27.9949 59.4661C27.5576 59.4661 27.1204 59.2811 26.8177 58.9279C26.6831 58.7765 26.5149 58.6588 26.3299 58.5747C26.145 58.4907 25.96 58.457 25.7582 58.457C25.5563 58.457 25.3714 58.4907 25.1864 58.5747C25.0014 58.6588 24.85 58.7765 24.6987 58.9279C24.5641 59.0792 24.4464 59.2642 24.3791 59.4492C24.3119 59.651 24.2614 59.8528 24.2614 60.0715C24.2614 60.2901 24.2951 60.4919 24.3791 60.6937C24.4464 60.8955 24.5641 61.0637 24.6987 61.2151C25.5732 62.1568 26.7504 62.695 27.978 62.695C29.2057 62.695 30.3829 62.1568 31.2574 61.2151C31.577 60.8787 31.9974 60.6769 32.4346 60.6769C32.8719 60.6769 33.3091 60.8619 33.6118 61.2151C34.4863 62.1568 35.6636 62.695 36.8912 62.695C38.1189 62.695 39.2961 62.1568 40.1706 61.2151C40.4901 60.8787 40.9106 60.6769 41.3478 60.6769C41.7851 60.6769 42.2223 60.8619 42.525 61.2151C43.3995 62.1568 44.5767 62.695 45.8044 62.695C47.0321 62.695 48.2093 62.1568 49.0838 61.2151C49.4033 60.8787 49.8237 60.6769 50.261 60.6769C50.6982 60.6769 51.1355 60.8619 51.4382 61.2151C51.8755 61.686 52.38 62.0559 52.935 62.3082C53.4899 62.5605 54.0953 62.695 54.7008 62.695C55.3062 62.695 55.9116 62.5605 56.4666 62.3082C57.0216 62.0559 57.5429 61.686 57.9633 61.2151C58.2324 60.9124 58.3838 60.4919 58.3838 60.0715C58.3838 59.651 58.2324 59.2306 57.9465 58.9279C57.6774 58.6252 57.2906 58.457 56.9038 58.457C56.517 58.457 56.1302 58.6252 55.8612 58.9279H55.9116ZM31.2406 52.9578C31.5601 52.6214 31.9806 52.4196 32.4178 52.4196C32.8551 52.4196 33.2923 52.6046 33.595 52.9578C34.4695 53.8995 35.6467 54.4376 36.8744 54.4376C38.1021 54.4376 39.2793 53.8995 40.1538 52.9578C40.3051 52.7896 40.4901 52.655 40.6919 52.5541C40.8938 52.47 41.1124 52.4196 41.331 52.4196C41.5496 52.4196 41.7683 52.47 41.9701 52.5541C42.1719 52.6382 42.3569 52.7728 42.5082 52.9578C43.3827 53.8995 44.5599 54.4376 45.7876 54.4376C47.0153 54.4376 48.1925 53.8995 49.067 52.9578C49.2183 52.7896 49.4033 52.655 49.6051 52.5541C49.8069 52.47 50.0256 52.4196 50.2442 52.4196C50.4628 52.4196 50.6814 52.47 50.8832 52.5541C51.085 52.6382 51.27 52.7728 51.4214 52.9578C51.8586 53.4286 52.3632 53.7986 52.9181 54.0509C53.4731 54.3031 54.0785 54.4376 54.684 54.4376C55.2894 54.4376 55.8948 54.3031 56.4498 54.0509C57.0047 53.7986 57.5261 53.4286 57.9465 52.9578C58.2156 52.6551 58.3669 52.2346 58.3669 51.8141C58.3669 51.3937 58.2156 50.9733 57.9297 50.6706C57.6606 50.3679 57.2738 50.1997 56.887 50.1997C56.5002 50.1997 56.1134 50.3679 55.8443 50.6706C55.5248 51.0069 55.1044 51.2087 54.6671 51.2087C54.2299 51.2087 53.7926 51.0237 53.4899 50.6706C53.0527 50.1997 52.5482 49.8297 51.9932 49.5606C51.4382 49.3084 50.8328 49.1739 50.2105 49.1739C49.6051 49.1739 48.9997 49.3084 48.4279 49.5606C47.8729 49.8129 47.3516 50.1829 46.9312 50.6706C46.6116 51.0069 46.1912 51.2087 45.754 51.2087C45.3167 51.2087 44.8795 51.0237 44.5767 50.6706C44.1395 50.1997 43.635 49.8297 43.08 49.5606C42.525 49.3084 41.9196 49.1739 41.2974 49.1739C40.6919 49.1739 40.0865 49.3084 39.5147 49.5606C38.9598 49.8129 38.4384 50.1829 38.018 50.6706C37.6985 51.0069 37.278 51.2087 36.8408 51.2087C36.4035 51.2087 35.9663 51.0237 35.6636 50.6706C34.7891 49.7288 33.6118 49.1906 32.3842 49.1906C31.1565 49.1906 29.9793 49.7288 29.1048 50.6706C28.7853 51.0069 28.3648 51.2087 27.9276 51.2087C27.4903 51.2087 27.0531 51.0237 26.7504 50.6706C26.6158 50.5192 26.4477 50.4015 26.2627 50.3174C26.0777 50.2333 25.8927 50.1829 25.6909 50.1829C25.4891 50.1829 25.3041 50.2165 25.1191 50.3006C24.9341 50.3847 24.7659 50.5024 24.6314 50.6537C24.4969 50.8051 24.3791 50.9901 24.3119 51.1751C24.2446 51.3769 24.1941 51.5787 24.1941 51.7974C24.1941 52.016 24.2278 52.2178 24.3119 52.4196C24.396 52.6214 24.4969 52.7896 24.6482 52.9409C25.5227 53.8827 26.6999 54.4209 27.9276 54.4209C29.1553 54.4209 30.3325 53.8827 31.207 52.9409L31.2406 52.9578Z" fill="black"/>
</svg>
