<svg width="80" height="80" viewBox="0 0 80 80" fill="none" xmlns="http://www.w3.org/2000/svg">
<path d="M38.1124 0.0876978C37.6491 0.173498 36.8082 0.465213 36.242 0.705453C34.8005 1.30605 2.59116 22.4129 1.73316 23.3395C0.652081 24.1632 0.13728 25.2443 0 26.5141V53.3867C0.13728 54.6566 0.61776 55.7205 1.64736 56.4755C2.24796 57.1447 33.5307 77.8054 35.5556 78.8865C38.2497 80.2936 41.6302 80.3108 44.3243 78.938C46.109 78.0457 77.5633 57.2992 78.2668 56.5785C79.1763 55.6862 79.8112 54.6566 80 53.3867V26.5141C79.8799 25.21 79.3136 24.1975 78.3355 23.4082C77.4432 22.43 45.1823 1.22026 43.329 0.568176C41.8533 0.0533756 39.5024 -0.152548 38.1296 0.122012L38.1124 0.0876978ZM41.8876 3.14218C43.9811 3.70846 49.3865 7.51798 51.1025 8.75351C51.48 9.02807 51.6345 9.13103 51.3771 9.57719L50.8623 10.4867C50.6392 10.8642 50.4504 10.847 50.1244 10.6411C45.474 7.48366 41.6302 4.30906 36.139 6.6943C35.178 7.10614 5.45689 26.6514 5.18232 27.578C4.8048 28.7964 4.23852 28.3502 20.3518 39.1611C31.8661 46.8487 35.6928 49.3198 36.671 49.6973C38.5586 50.418 41.4243 50.4009 43.2947 49.6973C44.29 49.3198 48.0652 46.8831 59.6139 39.1611C75.7443 28.3502 75.1609 28.7964 74.7834 27.5609C74.5431 26.7715 63.8009 19.7874 61.6731 18.3803C61.4672 18.243 61.4843 18.1572 61.6216 17.9169L62.2051 16.8187C62.3938 16.4584 62.4625 16.4069 62.8571 16.6128C65.2081 17.8655 75.8988 24.8324 76.5852 25.6218C77.7177 26.9431 77.7177 29.1911 76.568 30.5296C76.0704 31.0959 44.7705 51.7222 43.1746 52.5287C41.1497 53.524 38.4213 53.4382 36.3278 52.2713C34.1656 51.0701 3.861 31.0787 3.36336 30.4952C2.21364 29.2082 2.21364 26.926 3.38052 25.6218C3.79236 25.1413 24.2471 11.6021 34.2857 5.13274C37.7349 2.93626 39.3994 2.4901 41.8704 3.14218H41.8876ZM38.6958 15.7548C38.6958 16.2181 38.5071 16.3382 38.0781 16.3897C35.6928 16.6643 18.2411 28.7278 14.8606 30.9242C14.3115 31.2846 14.1399 31.4562 13.5736 31.113C12.6298 30.5467 10.7079 29.2597 9.71257 28.5562C9.07765 28.11 9.24925 27.9384 9.76405 27.578C13.9339 24.6437 36.465 9.68015 37.2201 9.37127C38.2325 8.82215 38.5757 8.68487 38.6444 9.92039C38.7473 11.7908 38.6615 13.8672 38.6615 15.7548H38.6958ZM42.6598 9.33695C43.4492 9.64583 47.8764 12.4772 49.1634 13.4553C49.4037 13.6441 49.5066 13.8843 49.4723 14.2275C49.2664 16.098 49.0776 17.8655 48.9747 19.7531C48.9747 20.0619 48.8717 20.1821 48.5972 20.0105C45.9717 18.2087 44.3415 16.9903 41.819 16.4583C41.3728 16.3725 41.2698 16.201 41.2698 15.772C41.2698 8.17006 40.9266 8.6677 42.6426 9.3541L42.6598 9.33695ZM56.3192 12.0654L59.7683 14.3305C60.2488 14.6394 60.3518 14.7424 60.0429 15.2572C58.6015 17.7282 58.2411 19.6844 58.1381 23.1679C58.0352 27.149 58.7559 26.7372 54.7576 24.0946L51.9948 22.2584C51.7546 22.1212 51.6173 21.8638 51.6345 21.4348L51.7889 15.7033C52.115 13.6441 53.6422 10.4695 54.1742 10.6926C54.3114 10.7612 55.2724 11.3618 56.2849 12.0311L56.3192 12.0654ZM42.6598 19.7188C43.4663 20.0276 57.6062 29.3627 61.879 32.3485C62.84 33.0178 62.8743 33.4639 61.7246 34.2533C57.2801 37.3421 43.4663 46.4541 42.6598 46.7973C41.2012 47.415 38.6787 47.3979 37.2544 46.7629C36.3621 46.3511 21.2098 36.3468 17.6577 33.8415C16.9884 33.361 17.0742 33.1379 17.692 32.6917C21.2956 30.1349 36.2934 20.1306 37.0828 19.8046C38.8846 19.0667 40.9438 19.0324 42.6598 19.7188ZM70.4076 28.436C69.4294 29.1911 67.0613 30.7183 66.1004 31.1988C65.7057 31.3876 65.7743 31.3704 65.4311 31.1473L60.9181 28.1958C60.7808 28.11 60.7121 27.8698 60.695 27.5266L60.7808 22.1212C60.7979 21.5377 60.7808 21.3146 61.3985 21.675C63.2518 22.8076 68.8288 26.5313 70.4247 27.6982C70.8537 28.007 70.8022 28.1615 70.4247 28.4532L70.4076 28.436ZM5.38824 35.4202L6.38353 36.0894V56.4412C1.92192 53.3867 2.53968 54.8281 2.52252 43.0049L2.50536 33.5669L5.38824 35.4202ZM77.323 52.7861C76.9112 54.4849 75.71 55.1027 73.6165 56.424V36.1066L77.4088 33.6184L77.3059 52.7861H77.323ZM20.6435 45.4245L32.1579 52.992L32.1064 73.2237L8.97469 58.1572L9.02617 37.8741C9.06049 37.8741 14.2771 41.2889 20.6263 45.4416L20.6435 45.4245ZM71.0253 47.9985L71.0081 58.1572L47.8936 73.2237L47.825 53.0092L70.9738 37.8741C71.0081 37.8741 71.0253 42.4386 71.0253 48.0156V47.9985ZM37.8722 55.9264C40.6521 56.6128 42.677 55.9264 45.1823 54.7595V75.1285C40.6692 77.5995 39.245 77.5823 34.8348 75.0941V54.7595L37.8722 55.9264V55.9264ZM37.0313 23.8886C35.813 24.2147 34.4402 25.0555 33.4449 26.1023L32.6555 26.926C32.2608 27.3206 32.2437 28.4532 32.6727 28.9508C33.1017 29.4313 34.0283 29.397 34.5088 29.0366L35.1266 28.4017C35.9674 27.5266 37.0656 26.9603 38.3183 26.7029C39.6396 26.4455 41.1326 26.8402 42.6255 27.8526C44.2214 28.9508 45.5255 29.397 47.4474 29.5L49.0948 29.5858C49.6611 29.5686 50.3818 28.8479 50.3818 28.1443C50.3818 27.4408 49.764 26.5656 49.0948 26.5656H47.9108C46.4007 26.5656 45.2681 26.1881 43.7409 25.1585C41.6302 23.7514 39.2278 23.288 37.0656 23.9058L37.0313 23.8886ZM26.6838 29.826C25.4655 30.152 24.0927 30.9929 23.0974 32.0396L22.308 32.8633C21.7932 33.4639 21.879 34.4249 22.2737 34.8882C22.6684 35.3344 23.5264 35.4373 24.1441 34.974L24.7619 34.3391C25.6027 33.4639 26.701 32.8976 27.9537 32.6402C29.275 32.3828 30.7679 32.7775 32.2437 33.79C33.8396 34.8882 35.1437 35.3344 37.0656 35.4373L38.713 35.5231C39.2964 35.5231 39.897 34.7338 39.897 34.0988C39.897 33.4639 39.5195 32.5373 38.713 32.503H37.529C36.0189 32.503 34.9035 32.1254 33.3591 31.0958C31.2484 29.6887 28.846 29.2254 26.6838 29.8432V29.826ZM47.0356 34.1847C45.9888 34.4592 44.9936 34.9054 43.8782 35.6604C42.5054 36.5699 41.3556 36.9474 39.8799 36.9474C39.4852 36.9474 39.0905 36.9474 38.6958 36.9474C38.0609 36.9989 37.5461 37.8054 37.5461 38.4232C37.5461 39.0581 38.0952 39.796 38.6958 39.8989C39.1077 39.8989 39.5367 39.8989 39.9485 39.8989C41.6817 39.8989 43.4663 39.3498 44.9764 38.3374C45.6628 37.8741 46.6409 37.3764 47.1557 37.2048C49.009 36.5871 50.2788 36.2267 51.7374 37.7539C51.8747 37.8741 52.012 37.9942 52.1321 38.1315C52.6126 38.509 53.4706 38.4747 53.8825 37.9942C54.2943 37.5309 54.3286 36.4669 53.9854 36.0036C53.8138 35.832 53.6422 35.6776 53.4706 35.506C51.4972 33.4811 49.4552 33.5326 47.0013 34.1503L47.0356 34.1847Z" fill="black"/>
</svg>
