<svg width="80" height="80" viewBox="0 0 80 80" fill="none" xmlns="http://www.w3.org/2000/svg">
<path d="M80 21.8295C80 6.51952 49.7747 2.93231 39.9914 3.00096C30.2081 3.06962 0.343274 6.63968 0.0171633 21.7094L0 57.4785C0 57.5129 0.0171633 57.5472 0.0171633 57.5815C0.0171633 57.6159 0 57.6502 0 57.6845C0 67.1589 11.4139 73.3893 25.2306 75.9467C25.265 75.9467 25.2993 75.981 25.3336 75.981H25.3508C30.2081 76.8564 35.0998 77.3026 39.9914 77.3026C44.8831 77.3026 49.7747 76.8735 54.632 75.981H54.6492C54.6835 75.981 54.7179 75.9467 54.7522 75.9467C68.5861 73.3721 79.9828 67.1589 79.9828 57.6845C79.9828 57.6502 79.9657 57.6159 79.9657 57.5815C79.9657 57.5472 79.9828 57.5129 79.9828 57.4785V21.8295H80ZM9.57734 66.4552C5.14911 63.7948 2.66037 60.671 2.66037 57.6845C2.66037 57.6502 2.64321 57.6159 2.64321 57.5815C2.64321 57.5472 2.66037 57.5129 2.66037 57.4785V31.0808C2.66037 30.6002 3.02081 30.2226 3.58721 30.6345C5.54387 32.7457 7.7065 34.4105 10.0064 35.5777C10.5557 35.8523 10.6758 36.0582 10.6758 36.762V65.9059C10.6758 66.8156 10.4012 66.9357 9.59451 66.4552H9.57734ZM22.7591 71.467C19.8412 70.8147 16.9749 69.8879 14.1257 68.7208C13.3534 68.3947 13.319 68.2059 13.319 67.382V37.8776C13.3362 37.294 13.4735 37.2425 13.9712 37.4313C17.0092 38.65 20.0815 39.594 23.2053 40.2634C23.7031 40.3663 23.9949 40.5551 23.9949 41.1044V70.5744C23.9949 71.6214 23.7374 71.6901 22.7591 71.467ZM37.5198 73.2863C34.2759 73.2005 31.0148 72.9087 27.788 72.4281C26.8955 72.2908 26.6724 72.0677 26.6724 71.0207V41.3961C26.6724 41.0872 26.7582 40.9499 27.1873 41.0186C30.7917 41.6021 34.4304 41.9454 38.0519 42.014C38.4467 42.014 38.6698 42.2715 38.6698 42.5976V72.4281C38.6698 73.2691 38.4982 73.3206 37.537 73.3035L37.5198 73.2863ZM52.3321 72.3938C48.9852 72.9087 45.6211 73.2005 42.257 73.2863C41.5705 73.3035 41.3302 73.1833 41.3302 72.4796V42.8894C41.3302 42.117 41.4503 42.014 42.463 41.9969C45.7584 41.8939 49.0539 41.585 52.3493 41.0872C53.0873 40.9671 53.3276 41.3103 53.3276 41.9454V71.4155C53.3276 72.0334 53.0702 72.2908 52.3321 72.3938ZM39.9914 38.0664C17.9876 38.0664 3 29.639 3 22.0527C3 14.4663 17.9876 5.97027 39.9914 5.97027C61.9953 5.97027 76.6531 14.432 76.6531 22.0183C76.6531 29.6047 61.9953 38.0664 39.9914 38.0664ZM65.7026 68.7894C62.8191 69.9737 59.9013 70.8834 56.932 71.5356C56.1081 71.7244 55.988 71.5528 55.988 70.6431V41.7394C55.988 40.7783 56.2283 40.4007 57.0178 40.2119C59.9356 39.5768 62.8191 38.6843 65.6511 37.5686C66.2519 37.3284 66.6466 37.4142 66.6466 38.3239V67.6395C66.6466 68.2402 66.1832 68.5835 65.6855 68.7894H65.7026ZM77.3396 57.6845C77.3396 60.6882 74.7994 63.8463 70.3197 66.5238C69.5301 66.9872 69.3413 66.8328 69.3413 65.7514V36.9336C69.3413 36.0926 69.4958 35.8523 69.9936 35.5948C72.3793 34.3762 74.6278 32.6255 76.6531 30.3942C77.0135 29.9823 77.3396 29.9136 77.3396 30.686V57.4785C77.3396 57.5129 77.3568 57.5472 77.3568 57.5815C77.3568 57.6159 77.3396 57.6502 77.3396 57.6845ZM40.0086 9.93511C28.938 9.93511 7.99828 12.4238 7.99828 21.8295C7.99828 31.2352 28.938 33.7068 40.0086 33.7068C51.0792 33.7068 72.0189 31.2181 72.0189 21.8295C72.0189 12.4238 51.0792 9.93511 40.0086 9.93511ZM40.0086 29.742C21.0255 29.742 12.1004 24.5071 12.1004 21.8124C12.1004 19.1177 21.0255 13.8827 40.0086 13.8827C58.9916 13.8827 68.5175 19.1177 68.5175 21.8124C68.5175 24.5071 58.9916 29.742 40.0086 29.742ZM29.6074 22.5504C29.9335 22.2415 30.3626 22.0527 30.826 22.0527C31.2894 22.0527 31.7185 22.2243 32.0446 22.5504C32.9371 23.4258 34.1558 23.9235 35.4259 23.9235C36.696 23.9235 37.9146 23.4258 38.8071 22.5504C39.1332 22.2415 39.5623 22.0527 40.0257 22.0527C40.4892 22.0527 40.9183 22.2243 41.2444 22.5504C42.1369 23.4258 43.3555 23.9235 44.6256 23.9235C45.8957 23.9235 47.1144 23.4258 48.0069 22.5504C48.333 22.2415 48.7621 22.0527 49.2255 22.0527C49.6889 22.0527 50.118 22.2243 50.4441 22.5504C50.8904 22.9795 51.4224 23.3228 51.9888 23.5631C52.5724 23.8034 53.1903 23.9235 53.8254 23.9235C54.4604 23.9235 55.0783 23.8034 55.6619 23.5631C56.2454 23.3228 56.7775 22.9795 57.2066 22.5504C57.4984 22.2758 57.6529 21.8982 57.6529 21.5034C57.6529 21.1087 57.4984 20.7311 57.2066 20.4564C56.9148 20.1818 56.5372 20.0273 56.1253 20.0273C55.7134 20.0273 55.3358 20.1818 55.044 20.4564C54.7179 20.7654 54.2888 20.9542 53.8254 20.9542C53.3619 20.9542 52.9328 20.7826 52.6067 20.4564C52.1605 20.0273 51.6284 19.6669 51.062 19.4438C50.4784 19.2035 49.8605 19.0833 49.2255 19.0833C48.5904 19.0833 47.9725 19.2035 47.389 19.4438C46.8054 19.6841 46.2733 20.0273 45.8442 20.4564C45.5181 20.7654 45.089 20.9542 44.6256 20.9542C44.1622 20.9542 43.7331 20.7826 43.407 20.4564C42.9607 20.0273 42.4287 19.6669 41.8623 19.4438C41.2787 19.2035 40.6608 19.0833 40.0257 19.0833C39.3907 19.0833 38.7728 19.2035 38.1892 19.4438C37.6057 19.6841 37.0736 20.0273 36.6445 20.4564C36.3184 20.7654 35.8893 20.9542 35.4259 20.9542C34.9625 20.9542 34.5334 20.7826 34.2073 20.4564C33.3147 19.5811 32.0961 19.0833 30.826 19.0833C29.5559 19.0833 28.3373 19.5811 27.4448 20.4564C27.1186 20.7654 26.6895 20.9542 26.2261 20.9542C25.7627 20.9542 25.3336 20.7826 25.0075 20.4564C24.8702 20.3191 24.6986 20.2161 24.5098 20.1303C24.321 20.0617 24.1322 20.0102 23.9262 20.0102C23.7202 20.0102 23.5314 20.0445 23.3426 20.1303C23.1538 20.199 22.9822 20.3191 22.8449 20.4564C22.7076 20.5937 22.5874 20.7654 22.5188 20.937C22.4501 21.1258 22.3986 21.3146 22.3986 21.5034C22.3986 21.6922 22.433 21.8982 22.5188 22.0698C22.5874 22.2586 22.7076 22.4131 22.8449 22.5504C23.7374 23.4258 24.956 23.9235 26.2261 23.9235C27.4962 23.9235 28.7149 23.4258 29.6074 22.5504Z" fill="black"/>
</svg>
