<svg width="80" height="80" viewBox="0 0 80 80" fill="none" xmlns="http://www.w3.org/2000/svg">
<path d="M33.1982 16.1096H25.1242C24.9251 14.9654 24.4759 13.9067 23.8353 12.9923L29.7707 7.03702L29.781 7.02708C30.3248 6.48111 30.343 5.61462 29.8212 5.0911C29.2998 4.56802 28.4359 4.58616 27.8921 5.13171L21.9477 11.0951C21.0065 10.4295 19.9124 9.9682 18.7288 9.77685V1.59278C18.8174 1.16256 18.7016 0.705562 18.3777 0.380739C17.8563 -0.142347 16.9924 -0.124206 16.449 0.421341C16.0966 0.774673 15.9648 1.26234 16.0573 1.70465V9.814C14.9532 10.0226 13.9312 10.4671 13.0449 11.0934L7.37689 5.40686C7.31771 5.29498 7.24211 5.19045 7.14881 5.09715C6.62702 4.57363 5.76356 4.59178 5.21931 5.13776C4.67593 5.6833 4.65778 6.54978 5.17913 7.0733C5.27243 7.1666 5.37655 7.24263 5.48799 7.3018L11.1568 12.9892C10.515 13.905 10.0653 14.9645 9.86574 16.1096H1.69982C1.25924 16.0172 0.772872 16.1493 0.420836 16.5027C-0.122983 17.0482 -0.141122 17.9147 0.380236 18.4382C0.704195 18.763 1.15945 18.8792 1.58838 18.7903H9.86532C10.0653 19.9384 10.5167 21.0001 11.1612 21.9171L5.22537 27.8732C4.68155 28.4188 4.66297 29.2852 5.18477 29.8088C5.70656 30.3323 6.57044 30.3141 7.11426 29.7686L13.0518 23.8108C13.9364 24.4349 14.9558 24.8777 16.0573 25.0863V33.3079C15.9691 33.7382 16.0849 34.1947 16.4084 34.5191C16.9302 35.0422 17.7937 35.0245 18.3375 34.4789C18.69 34.1252 18.8213 33.6371 18.7288 33.1948V25.123C19.9098 24.9325 21.0013 24.4725 21.9412 23.8095L27.7945 29.6826C27.8213 29.7159 27.8502 29.7483 27.8813 29.7794C28.3841 30.2839 29.2165 30.2662 29.7409 29.7405C30.2648 29.2144 30.2821 28.3794 29.7797 27.8749C29.7486 27.8438 29.7167 27.8149 29.6834 27.7877L23.8306 21.9145C24.4742 20.9984 24.9242 19.9371 25.1242 18.7903H33.0859C33.5264 18.8831 34.0132 18.7509 34.3657 18.3976C34.9091 17.8521 34.9272 16.9852 34.4054 16.4621C34.0823 16.1377 33.6271 16.0211 33.1982 16.1096ZM17.4948 12.3577C20.2933 12.3577 22.5706 14.6423 22.5706 17.4499C22.5706 20.258 20.2938 22.5421 17.4948 22.5421C14.6958 22.5421 12.4194 20.258 12.4194 17.4499C12.4194 14.6423 14.6966 12.3577 17.4948 12.3577Z" fill="black"/>
<path d="M77.0536 51.0778V29.6766H70.3882V44.39L58.3901 34.5118H21.0622L0.772854 54.8685C0.772854 54.8685 -0.365748 55.9367 0.121055 57.3475C0.607426 58.7582 2.27386 58.5876 2.27386 58.5876H2.74209V78.6381C2.74209 79.3901 3.34984 80 4.0997 80H38.3966C38.4942 80 38.5888 79.9896 38.6804 79.9702L75.7867 74.9402C76.4981 74.8974 77.0622 74.3052 77.0622 73.5809V56.4352C78.0872 57.3462 79.1641 57.1082 79.3943 56.8438C79.6249 56.5786 81.008 55.5955 78.6107 52.863L77.0536 51.0778ZM5.45729 58.5876H37.039V77.2757H5.45729V58.5876ZM39.7542 58.5591L58.3901 39.8619L74.3466 53.7122V72.3939L39.7542 77.0831V58.5591ZM24.9903 42.286H30.6497L27.3168 45.6297H21.6574L24.9903 42.286ZM32.5347 42.286H38.1949L34.862 45.6297H29.2018L32.5347 42.286ZM40.0799 42.286H45.7397L42.4068 45.6297H36.747L40.0799 42.286ZM47.0727 40.9482H41.4129L45.0792 37.2702H50.7386L47.0727 40.9482ZM39.5274 40.9482H33.8681L37.534 37.2702H43.1934L39.5274 40.9482ZM31.9826 40.9482H26.3233L29.9892 37.2702H35.649L31.9826 40.9482ZM20.324 46.9674H25.9838L22.3179 50.6458H16.6581L20.324 46.9674ZM27.8688 46.9674H33.5286L29.8622 50.6458H24.2024L27.8688 46.9674ZM35.4136 46.9674H41.0734L37.407 50.6458H31.7472L35.4136 46.9674Z" fill="black"/>
</svg>
