<svg width="80" height="80" viewBox="0 0 80 80" fill="none" xmlns="http://www.w3.org/2000/svg">
<path d="M78.0124 45.7183H66.5838C65.4861 45.7183 64.596 46.5785 64.596 47.6399V76.4654C64.596 77.5266 65.4861 78.3871 66.5838 78.3871H78.0124C79.1103 78.3871 80 77.5266 80 76.4654V47.6399C80 46.5785 79.1103 45.7183 78.0124 45.7183ZM66.5838 53.8115H78.0124C78.3059 53.8115 78.5728 53.9271 78.7659 54.1138C78.96 54.301 79.0802 54.5603 79.0802 54.8462C79.0802 55.1323 78.9602 55.3917 78.7665 55.5789C78.5733 55.7658 78.3063 55.8818 78.0124 55.8818H66.5838C66.2897 55.8818 66.023 55.7658 65.8299 55.5793C65.6358 55.3917 65.5158 55.1323 65.5158 54.8462C65.5158 54.5603 65.636 54.301 65.8299 54.1136C66.0232 53.9271 66.2903 53.8115 66.5838 53.8115ZM66.5838 61.4976H78.0124C78.3063 61.4976 78.5733 61.6136 78.7661 61.8001C78.9602 61.9877 79.0802 62.2471 79.0802 62.5332C79.0802 62.8191 78.9602 63.0784 78.7665 63.2656C78.5733 63.4525 78.3063 63.5683 78.0124 63.5683H66.5838C66.2897 63.5683 66.023 63.4526 65.8299 63.266C65.6358 63.0784 65.5158 62.8191 65.5158 62.5332C65.5158 62.2471 65.6358 61.9877 65.8295 61.8003C66.023 61.6136 66.2897 61.4976 66.5838 61.4976ZM66.5838 68.7039H78.0126C78.3065 68.7039 78.5735 68.8197 78.7663 69.0062C78.9604 69.1938 79.0804 69.4534 79.0804 69.7393C79.0804 70.0252 78.9604 70.2845 78.7667 70.4717C78.5735 70.6586 78.3065 70.7744 78.0126 70.7744H66.5838C66.2899 70.7744 66.0232 70.6586 65.8301 70.4721C65.636 70.2845 65.516 70.0252 65.516 69.7393C65.516 69.4534 65.636 69.1938 65.8297 69.0067C66.0232 68.8197 66.2899 68.7039 66.5838 68.7039Z" fill="black"/>
<path d="M75.7764 45.7183H36.5217C35.5613 45.7183 34.7826 46.4711 34.7826 47.3997C34.7826 48.3284 35.5613 49.0814 36.5217 49.0814H75.7764C76.7371 49.0814 77.5154 48.3284 77.5154 47.3997C77.5154 46.4711 76.7371 45.7183 75.7764 45.7183Z" fill="black"/>
<path d="M38.2609 76.7056V48.1204C38.2609 47.1917 37.4822 46.4389 36.5217 46.4389C35.5611 46.4389 34.7826 47.1917 34.7826 48.1204V76.7056C34.7826 77.6338 35.5611 78.3871 36.5217 78.3871C37.4822 78.3871 38.2609 77.6338 38.2609 76.7056Z" fill="black"/>
<path d="M77.6526 24.0993H58.2979C57.2095 24.0993 56.3626 25.0109 56.3626 26.0886V38.024C56.3626 39.1429 57.2095 40.0134 58.2979 40.0134H77.6526C78.7011 40.0134 79.5882 39.1429 79.5882 38.024V26.0886C79.5882 25.0109 78.7011 24.0993 77.6526 24.0993ZM77.4105 38.024H58.5398C58.3783 38.024 58.2979 37.9412 58.2979 37.7753V26.3372C58.2979 26.213 58.3783 26.0886 58.5398 26.0886H77.4105C77.532 26.0886 77.6526 26.213 77.6526 26.3372V37.7753C77.6526 37.9412 77.532 38.024 77.4105 38.024ZM75.7173 44.3233C75.7173 43.7846 75.2739 43.3286 74.7497 43.3286H70.7579L69.9914 41.0494C69.951 40.8423 69.7497 40.6764 69.548 40.6764H66.3625C66.1613 40.6764 65.9594 40.8423 65.9192 41.0494L65.1527 43.3286H61.2011C60.6364 43.3286 60.2333 43.7846 60.2333 44.3233C60.2333 44.9035 60.6364 45.318 61.2011 45.318H74.7497C75.2739 45.318 75.7173 44.9035 75.7173 44.3233Z" fill="black"/>
<path d="M37.8582 35.6619C37.5354 35.869 36.971 36.0762 36.5679 36.0762C35.3582 36.0762 34.3097 34.9987 34.3097 33.7555C34.3097 33.341 34.5112 32.7608 34.7131 32.4292L37.8582 35.6619ZM33.1405 27.6633C33.342 27.1661 33.947 26.7515 34.4712 26.7515H37.8986L39.3502 25.3012C39.955 24.6381 41.2051 24.0993 42.0921 24.0993C44.2293 24.0993 45.9226 25.8814 45.9226 28.0779C45.9226 28.6164 45.7613 29.404 45.5194 29.9012L49.5114 34.0042C49.6727 34.1699 49.8339 34.5014 49.8339 34.7086C49.8339 34.7915 49.7937 34.916 49.7937 34.9987L47.455 43.3286H51.7291C52.6162 43.3286 53.4226 43.909 53.6645 44.7378C53.7451 45.0279 53.5036 45.318 53.1809 45.318H38.7049C38.3824 45.318 38.1405 45.0279 38.2209 44.7378C38.463 43.909 39.2695 43.3286 40.1163 43.3286H45.4388L47.7373 34.9987L44.2693 31.4347L43.3419 32.3877V35.9105C43.3419 36.7393 42.7371 37.361 41.9308 37.361C41.6083 37.361 41.1647 37.1951 40.9228 36.9465L33.463 29.2798C33.2211 29.0309 33.0194 28.5751 33.0194 28.2435C33.0194 28.0779 33.1001 27.8292 33.1405 27.6633ZM41.4066 34.6256V31.5589L43.4228 29.4869C43.7453 29.1968 43.9872 28.5751 43.9872 28.1191C43.9872 27.0417 43.1001 26.1301 42.0516 26.1301C41.6083 26.1301 41.0032 26.3785 40.7211 26.7103L38.7049 28.741H35.7211L41.4066 34.6256Z" fill="black"/>
<path d="M30.6298 34.0717C31.0245 34.0888 31.3487 33.7751 31.3544 33.3711C31.3603 32.9671 31.0449 32.6258 30.6502 32.6086L27.3159 32.4637C26.9213 32.4465 26.5969 32.76 26.591 33.1642C26.5853 33.5682 26.9005 33.9096 27.2952 33.9267L30.6298 34.0717Z" fill="black"/>
<path d="M30.6333 33.8273C30.8965 33.8385 31.1127 33.6298 31.1165 33.3606C31.1203 33.0915 30.9102 32.8642 30.6472 32.8528L27.3123 32.7082C27.0491 32.6968 26.8329 32.9054 26.8289 33.1747C26.8253 33.4437 27.0354 33.6711 27.2986 33.6825L30.6333 33.8273Z" fill="black"/>
<path d="M37.6994 39.0467C37.6369 38.6458 37.2695 38.3644 36.8792 38.4178C36.4889 38.4715 36.2232 38.8397 36.286 39.2406L36.8146 42.6271C36.8771 43.0277 37.2443 43.3094 37.6346 43.2559C38.0251 43.2023 38.2908 42.8338 38.2283 42.4332L37.6994 39.0467Z" fill="black"/>
<path d="M37.4638 39.0787C37.4222 38.8115 37.1773 38.6239 36.9171 38.6595C36.6571 38.6953 36.4801 38.9408 36.5215 39.2082L37.0502 42.5949C37.0918 42.8623 37.3365 43.0498 37.5967 43.0143C37.8569 42.9785 38.0342 42.7328 37.9923 42.4656L37.4638 39.0787Z" fill="black"/>
<path d="M31.9527 37.0999C32.3089 36.9315 32.4575 36.4999 32.2849 36.1355C32.1121 35.7713 31.6836 35.6126 31.3274 35.7808L28.3186 37.2033C27.9626 37.3717 27.814 37.8033 27.9866 38.1677C28.1594 38.5319 28.5879 38.6907 28.9439 38.5225L31.9527 37.0999Z" fill="black"/>
<path d="M31.8474 36.8795C32.0847 36.7671 32.1836 36.4795 32.0687 36.237C31.9537 35.9941 31.6683 35.8886 31.431 36.0008L28.4241 37.4237C28.1868 37.5359 28.0879 37.8237 28.2026 38.0663C28.3178 38.309 28.6032 38.4147 28.8403 38.3025L31.8474 36.8795Z" fill="black"/>
<path d="M34.5586 38.7326C34.6794 38.3494 34.4756 37.9305 34.1034 37.7968C33.731 37.6631 33.3312 37.8652 33.2104 38.2486L32.1887 41.4865C32.0681 41.8696 32.2719 42.2888 32.6441 42.4223C33.0163 42.556 33.4163 42.3536 33.5371 41.9705L34.5586 38.7326Z" fill="black"/>
<path d="M34.3337 38.6526C34.4146 38.3974 34.2788 38.1183 34.0308 38.0292C33.783 37.9404 33.5165 38.0751 33.4356 38.3305L32.4135 41.5665C32.3329 41.8218 32.4685 42.1008 32.7167 42.1898C32.9645 42.2787 33.231 42.1439 33.3116 41.8886L34.3337 38.6526Z" fill="black"/>
<path d="M11.4319 56.1553C17.5776 56.1553 22.2108 54.7643 22.2108 52.9206C22.2108 48.9001 22.2108 44.345 20.8426 40.8193C19.2936 36.8286 16.2157 34.8888 11.4327 34.8888C0.65295 34.8888 0.652948 44.8867 0.652948 52.9206C0.652317 54.7643 5.28642 56.1553 11.4319 56.1553Z" fill="black"/>
<path d="M12.8592 56.7218H9.95757C9.67252 56.7218 9.44136 56.9532 9.44136 57.238V61.2587C9.44136 61.4521 9.54957 61.6294 9.72178 61.7176L10.1174 61.921C10.1902 61.9587 10.271 61.9782 10.3531 61.9782H12.4639C12.5458 61.9782 12.6268 61.9587 12.6997 61.921L13.095 61.7176C13.2672 61.6294 13.3755 61.4521 13.3755 61.2587V57.238C13.3755 56.9532 13.1443 56.7218 12.8592 56.7218Z" fill="black"/>
<path d="M20.3533 61.9142C19.4013 61.9142 18.2832 62.0298 16.9881 62.1624C15.3761 62.3281 13.5491 62.5159 11.6129 62.5159C9.55715 62.5159 7.63736 62.2507 5.94347 62.017C4.63105 61.8357 3.49737 61.6799 2.55863 61.6799C0.693158 61.6799 0.000106912 62.3085 0.000106912 64.002C0.000106912 65.1178 4.418 66.6755 11.6129 66.6755C18.8081 66.6755 23.2258 65.1178 23.2258 64.002C23.2258 62.4805 22.4479 61.9142 20.3533 61.9142Z" fill="black"/>
<path d="M2.01737 78.3483C2.72389 78.3483 3.29673 77.7479 3.29673 77.0085C3.29673 76.2683 2.72389 75.6685 2.01737 75.6685C1.31084 75.6685 0.738001 76.2683 0.738001 77.0085C0.738001 77.7479 1.31084 78.3483 2.01737 78.3483Z" fill="black"/>
<path d="M20.8003 74.8597C21.0418 74.8597 21.27 74.9109 21.4855 74.9909C21.1409 70.5393 16.3283 69.9927 13.6799 70.0344C13.3896 70.0384 13.1228 70.05 12.8929 70.0633V67.4647C12.4675 67.4761 12.0401 67.4822 11.6129 67.4822C11.2527 67.4822 10.8923 67.4776 10.5327 67.4687V70.1127C10.3416 70.0934 10.074 70.0702 9.74599 70.0542C7.31631 69.9287 1.70579 70.1717 1.33211 74.9898C1.54768 74.9098 1.77589 74.8589 2.01737 74.8589C2.38326 74.8589 2.72158 74.9666 3.01989 75.141C3.07168 73.8967 3.98452 71.654 9.74599 71.3641C9.99862 71.35 10.2614 71.3424 10.5327 71.3372V75.2279C10.875 74.9965 11.2809 74.8589 11.7192 74.8589C12.1519 74.8589 12.554 74.994 12.8929 75.2205V71.3532C13.1662 71.3656 13.4281 71.381 13.6799 71.4012C18.8992 71.814 19.7474 73.9399 19.7978 75.1395C20.0961 74.9671 20.4344 74.8597 20.8003 74.8597Z" fill="black"/>
<path d="M20.8003 78.3483C21.5068 78.3483 22.0794 77.7479 22.0794 77.0085C22.0794 76.2683 21.5068 75.6685 20.8003 75.6685C20.0938 75.6685 19.5209 76.2683 19.5209 77.0085C19.5209 77.7479 20.0938 78.3483 20.8003 78.3483Z" fill="black"/>
<path d="M11.719 78.5972C12.4917 78.5972 13.1182 77.9416 13.1182 77.1327C13.1182 76.3239 12.4917 75.6685 11.719 75.6685C10.9466 75.6685 10.3203 76.3239 10.3203 77.1327C10.3203 77.9416 10.9466 78.5972 11.719 78.5972Z" fill="black"/>
<path fill-rule="evenodd" clip-rule="evenodd" d="M9.36957 2H11.3051V6.26021C16.1035 6.67473 19.9744 10.4874 20.6197 15.2947C20.7405 16.0821 20.1357 16.7867 19.3291 16.7867H1.30516C0.538843 16.7867 -0.106209 16.0821 0.0146331 15.2947C0.700316 10.4874 4.53084 6.67473 9.36957 6.26021V2ZM10.3374 20.7652C11.7485 20.7652 12.918 19.6046 12.918 18.1128H7.75673C7.75673 19.6046 8.88557 20.7652 10.3374 20.7652ZM2.07126 14.7972C2.95842 10.9846 6.38578 8.16673 10.3374 8.16673C14.2485 8.16673 17.6761 10.9846 18.5632 14.7972H2.07126Z" fill="black"/>
<path d="M6.66262 22.1423C6.96852 21.8848 7.00852 21.428 6.75189 21.1217C6.49547 20.8151 6.03947 20.7753 5.73357 21.0324L3.14916 23.2059C2.84326 23.4631 2.80326 23.9202 3.0601 24.2263C3.31652 24.5328 3.77231 24.5728 4.07821 24.3156L6.66262 22.1423Z" fill="black"/>
<path d="M6.50768 21.9572C6.71168 21.7859 6.7382 21.481 6.56726 21.2768C6.39631 21.0726 6.09231 21.0461 5.88831 21.2177L3.3041 23.3909C3.1001 23.5623 3.07337 23.8669 3.24452 24.0711C3.41568 24.2756 3.71947 24.3021 3.92347 24.1305L6.50768 21.9572Z" fill="black"/>
<path d="M15.1626 21.0328C14.8567 20.7758 14.4009 20.8156 14.1443 21.1219C13.8879 21.4284 13.9279 21.8852 14.2338 22.1425L16.818 24.316C17.1239 24.5732 17.5799 24.5332 17.8365 24.2267C18.0931 23.9204 18.0531 23.4633 17.7472 23.2063L15.1626 21.0328Z" fill="black"/>
<path d="M15.0081 21.2177C14.8039 21.0463 14.5001 21.0728 14.3291 21.2772C14.158 21.4814 14.1845 21.7861 14.3887 21.9574L16.9729 24.1307C17.1767 24.3023 17.4807 24.2758 17.6519 24.0716C17.8228 23.8671 17.7961 23.5625 17.5923 23.3911L15.0081 21.2177Z" fill="black"/>
<path d="M9.61104 23.5101C9.76725 23.1417 9.59546 22.716 9.22767 22.5591C8.85967 22.4025 8.43504 22.5739 8.27904 22.9423L6.96052 26.0553C6.80452 26.4238 6.9761 26.8494 7.34389 27.0063C7.71189 27.1629 8.13652 26.9913 8.29273 26.6229L9.61104 23.5101Z" fill="black"/>
<path d="M9.38915 23.4153C9.49336 23.1697 9.37883 22.8859 9.13336 22.7812C8.88809 22.6768 8.60494 22.7911 8.50094 23.0368L7.1822 26.1501C7.0782 26.3958 7.19273 26.6795 7.43799 26.784C7.68347 26.8886 7.96641 26.7741 8.07062 26.5284L9.38915 23.4153Z" fill="black"/>
<path d="M12.6247 22.9421C12.4687 22.5734 12.0439 22.4021 11.6759 22.5589C11.3083 22.7156 11.1365 23.1414 11.2925 23.5097L12.611 26.6227C12.7672 26.9911 13.1919 27.1625 13.5597 27.0059C13.9277 26.849 14.0992 26.4235 13.9432 26.0549L12.6247 22.9421Z" fill="black"/>
<path d="M12.4028 23.0366C12.2986 22.7909 12.0157 22.6766 11.7702 22.781C11.5249 22.8857 11.4104 23.1694 11.5144 23.4151L12.8331 26.5282C12.9371 26.7739 13.2203 26.8884 13.4656 26.7838C13.711 26.6791 13.8256 26.3953 13.7214 26.1499L12.4028 23.0366Z" fill="black"/>
</svg>
