<svg xmlns="http://www.w3.org/2000/svg" xml:space="preserve" width="100" height="100" version="1.1" viewBox="0 0 10000 10000">
 <g id="Camada_x0020_1">
  <g id="_1903711698272">
   <path class="fil0" d="M7688.65 8955c-126.12,0 -231.73,-42.63 -317.07,-127.89 -85.26,-85.26 -127.89,-190.94 -127.89,-317.07l0 -1312.5c0,-126.04 42.63,-231.73 127.89,-316.98 85.26,-85.26 190.95,-127.98 317.07,-127.98l11.1 0 0 -433.77c0,-259.56 87.11,-476.49 261.41,-650.7 174.21,-174.3 391.14,-261.41 650.7,-261.41 259.56,0 476.4,87.11 650.7,261.41 174.22,174.21 261.41,391.14 261.41,650.7l0 433.77 11.1 0c126.03,0 231.72,42.63 316.98,127.98 85.26,85.25 127.97,190.94 127.97,316.98l0 1312.5c0,126.13 -42.63,231.73 -127.97,317.07 -85.26,85.26 -190.95,127.89 -316.98,127.89l-1846.42 0zm456.05 -2202.42l934.31 0 0 -433.77c0,-140.92 -42.63,-254.01 -127.89,-339.27 -85.25,-85.25 -198.43,-127.88 -339.26,-127.88 -140.92,0 -254.01,42.63 -339.27,127.88 -85.26,85.26 -127.89,198.35 -127.89,339.27l0 433.77z"/>
   <g>
    <g>
     <g>
      <path class="fil0" d="M7992.03 5438.08c-137.53,0 -273.03,-52.58 -378.2,-157.75 -1444.02,-1442 -3790.06,-1442 -5234.09,0 -208.3,208.31 -548.07,208.31 -756.39,0 -208.32,-208.31 -208.31,-548.08 0,-756.4 1860.64,-1860.64 4886.23,-1860.64 6746.87,0 208.31,208.31 208.31,548.08 0,756.4 -105.15,105.16 -242.68,157.75 -378.19,157.75z"/>
     </g>
     <g>
      <path class="fil0" d="M6543.97 6884.12c-137.53,0 -273.03,-52.58 -378.2,-157.74 -311.46,-311.46 -728.08,-483.37 -1168.98,-483.37 -440.9,0 -857.52,171.91 -1168.98,483.37 -208.31,208.3 -548.08,208.3 -756.4,0 -208.31,-208.31 -208.31,-548.08 0,-756.4 513.7,-513.7 1197.29,-796.84 1925.37,-796.84 728.08,0 1411.67,283.14 1925.36,798.87 208.31,208.31 208.31,548.08 0,756.4 -103.12,103.12 -240.64,155.71 -378.17,155.71z"/>
     </g>
     <g>
      <circle class="fil0" cx="4996.8" cy="7897.36" r="713.92"/>
     </g>
     <g>
      <path class="fil0" d="M9462.36 3967.77c-137.53,0 -273.03,-52.58 -378.2,-157.75 -2255.02,-2253 -5919.7,-2253 -8172.7,0 -208.31,208.31 -548.08,208.31 -756.4,0 -208.32,-208.31 -208.31,-548.08 0,-756.4 1294.37,-1294.36 3013.44,-2006.26 4843.76,-2006.26 1830.32,0 3549.39,711.9 4843.76,2006.26 208.31,208.31 208.31,548.08 0,756.4 -107.19,105.16 -244.72,157.75 -380.22,157.75z"/>
     </g>
    </g>
   </g>
  </g>
 </g>
</svg>
