<svg width="25" height="24" viewBox="0 0 25 24" fill="none" xmlns="http://www.w3.org/2000/svg">
<g id="icon" clip-path="url(#clip0_3296_33062)">
<path id="Icon" d="M7.16464 16.5656C6.90571 17.2603 7.41944 18 8.16081 18C8.61009 18 9.01087 17.7176 9.16198 17.2945L10.104 14.6567C10.1076 14.6467 10.1171 14.64 10.1278 14.64H15.3722C15.3829 14.64 15.3924 14.6467 15.396 14.6567L16.338 17.2945C16.4891 17.7176 16.8899 18 17.3392 18C18.0806 18 18.5943 17.2603 18.3354 16.5656L14.3691 5.92443C14.1171 5.24834 13.4715 4.8 12.75 4.8C12.0285 4.8 11.3829 5.24834 11.1309 5.92443L7.16464 16.5656ZM11.4805 12.72C11.1345 12.72 10.8931 12.3769 11.0099 12.0512L12.2794 8.51208C12.4378 8.07051 13.0622 8.07051 13.2206 8.51208L14.4901 12.0512C14.6069 12.3769 14.3655 12.72 14.0195 12.72H11.4805ZM12.75 24C11.09 24 9.53 23.6848 8.07 23.0544C6.61 22.424 5.34 21.5692 4.26 20.49C3.18 19.41 2.3252 18.14 1.6956 16.68C1.066 15.22 0.7508 13.66 0.75 12C0.75 10.34 1.0652 8.78 1.6956 7.32C2.326 5.86 3.1808 4.59 4.26 3.51C5.34 2.43 6.61 1.5752 8.07 0.9456C9.53 0.316 11.09 0.0008 12.75 0C14.41 0 15.97 0.3152 17.43 0.9456C18.89 1.576 20.16 2.4308 21.24 3.51C22.32 4.59 23.1752 5.86 23.8056 7.32C24.436 8.78 24.7508 10.34 24.75 12C24.75 13.66 24.4348 15.22 23.8044 16.68C23.174 18.14 22.3192 19.41 21.24 20.49C20.16 21.57 18.89 22.4252 17.43 23.0556C15.97 23.686 14.41 24.0008 12.75 24Z" fill="#6F797A"/>
</g>
<defs>
<clipPath id="clip0_3296_33062">
<rect width="24" height="24" fill="white" transform="translate(0.75)"/>
</clipPath>
</defs>
</svg>
