<svg width="25" height="24" viewBox="0 0 25 24" fill="none" xmlns="http://www.w3.org/2000/svg">
<g id="icon" clip-path="url(#clip0_3296_33350)">
<path id="Icon" d="M22.8695 14.879C22.7988 14.6052 22.52 14.4421 22.249 14.5159L19.9586 15.1392L17.5702 13.759V10.241L19.9586 8.86075L22.2513 9.48478C22.5215 9.55831 22.7994 9.39652 22.8712 9.124L23.233 7.75063C23.3043 7.47968 23.1448 7.2016 22.8762 7.12864L21.2483 6.68649L21.6744 5.00951C21.7428 4.74034 21.5843 4.46565 21.3183 4.39235L19.9852 4.02496C19.7141 3.95025 19.4347 4.11289 19.3634 4.38683L18.7524 6.73535L16.364 8.11564L13.4382 6.35668V3.5961L15.1299 1.86579C15.3241 1.66716 15.3235 1.34808 15.1286 1.15014L14.1444 0.150497C13.9463 -0.0506645 13.6234 -0.05009 13.426 0.151775L12.244 1.36076L11.0621 0.151775C10.8647 -0.0500901 10.5417 -0.050665 10.3437 0.150496L9.35943 1.15014C9.16455 1.34808 9.16399 1.66716 9.35818 1.86579L11.0498 3.5961V6.35668L8.06432 8.11564L5.67592 6.73535L5.10697 4.39751C5.03922 4.11913 4.7568 3.952 4.48252 4.02798L3.17141 4.39119C2.9048 4.46505 2.74668 4.74119 2.81666 5.01074L3.25168 6.68649L1.62376 7.12864C1.35515 7.2016 1.19566 7.47968 1.26703 7.75063L1.62879 9.124C1.70057 9.39652 1.97855 9.55831 2.24869 9.48478L4.54142 8.86075L6.92983 10.241V13.7712L4.54142 15.1515L2.24869 14.5274C1.97855 14.4539 1.70057 14.6157 1.62879 14.8882L1.26703 16.2616C1.19566 16.5325 1.35515 16.8106 1.62376 16.8836L3.25168 17.3257L2.81767 18.9881C2.74719 19.2581 2.90567 19.5349 3.1729 19.6085L4.50283 19.975C4.77392 20.0498 5.0534 19.8871 5.12466 19.6132L5.73563 17.2647L8.12403 15.8844L11.0498 17.6433V20.4039L9.35818 22.1342C9.16399 22.3328 9.16455 22.6519 9.35943 22.8499L10.3437 23.8495C10.5417 24.0507 10.8647 24.0501 11.0621 23.8482L12.244 22.6392L13.4247 23.8469C13.6226 24.0493 13.9465 24.0493 14.1444 23.8469L15.1202 22.8488C15.3135 22.6511 15.314 22.3338 15.1212 22.1355L13.4382 20.4039V17.6433L16.4237 15.8721L18.8121 17.2524L19.4229 19.6001C19.4942 19.8744 19.7743 20.037 20.0456 19.9617L21.3169 19.609C21.5834 19.535 21.7414 19.2589 21.6715 18.9895L21.2364 17.3135L22.8666 16.8707C23.1343 16.798 23.2938 16.5215 23.224 16.2511L22.8695 14.879ZM9.25852 10.532C9.25852 10.3517 9.35318 10.1849 9.50736 10.0934L11.9878 8.6219C12.1459 8.52808 12.3421 8.52808 12.5003 8.6219L14.9807 10.0934C15.1349 10.1849 15.2295 10.3517 15.2295 10.532V13.468C15.2295 13.6483 15.1349 13.8151 14.9807 13.9066L12.5003 15.3781C12.3421 15.4719 12.1459 15.4719 11.9878 15.3781L9.50736 13.9066C9.35318 13.8151 9.25852 13.6483 9.25852 13.468V10.532Z" fill="#6F797A"/>
</g>
<defs>
<clipPath id="clip0_3296_33350">
<rect width="24" height="24" fill="white" transform="translate(0.25)"/>
</clipPath>
</defs>
</svg>
