<svg width="24" height="24" viewBox="0 0 24 24" fill="none" xmlns="http://www.w3.org/2000/svg">
<g id="Lead Icon 1">
<path id="Icon" d="M12 0C5.3375 5.46 2 10.176 2 14.16C2 20.136 6.75 24 12 24C17.25 24 22 20.136 22 14.16C22 10.176 18.6625 5.46 12 0ZM6.7875 14.4C7.25 14.4 7.625 14.712 7.7125 15.144C8.225 17.808 10.5625 18.72 12.2625 18.588C12.8 18.564 13.25 18.972 13.25 19.488C13.25 19.968 12.85 20.364 12.35 20.388C9.6875 20.544 6.575 19.08 5.8625 15.444C5.84078 15.3153 5.84842 15.1837 5.88491 15.0581C5.92139 14.9326 5.98584 14.8162 6.07381 14.7169C6.16177 14.6176 6.27115 14.5379 6.39437 14.4831C6.5176 14.4284 6.65173 14.4001 6.7875 14.4Z" fill="#111111"/>
</g>
</svg>
