<svg width="13" height="10" viewBox="0 0 13 10" fill="none" xmlns="http://www.w3.org/2000/svg">
<path d="M1.25 10.001C0.906251 10.001 0.611876 9.87848 0.366876 9.63348C0.121876 9.38848 -0.000415605 9.09431 1.06112e-06 8.75098V1.25098C1.06112e-06 0.907227 0.122501 0.612852 0.367501 0.367852C0.612501 0.122853 0.906667 0.000560957 1.25 0.000977624H4.375V1.25098H1.25V8.75098H11.25V1.25098H8.125V0.000977624H11.25C11.5937 0.000977624 11.8881 0.123477 12.1331 0.368477C12.3781 0.613477 12.5004 0.907644 12.5 1.25098V8.75098C12.5 9.09473 12.3775 9.3891 12.1325 9.6341C11.8875 9.8791 11.5933 10.0014 11.25 10.001H1.25ZM6.25 7.12598L3.125 4.00098L4 3.12598L5.625 4.75098V0.000977624H6.875V4.75098L8.5 3.12598L9.375 4.00098L6.25 7.12598Z" fill="#005BBD"/>
</svg>
