<svg width="80" height="80" viewBox="0 0 80 80" fill="none" xmlns="http://www.w3.org/2000/svg">
<g clip-path="url(#clip0_545_1972)">
<path d="M75.7879 25.9986C75.729 26.0556 75.6707 26.1133 75.6062 26.1673L34.6576 59.7798L37.7367 62.8909L30.4666 70.2366L33.2742 73.0734L28.338 78.0609L22.9191 72.5856L22.5534 72.2161L17.5286 77.2933L16.8922 76.6502L13.5769 80L10.1784 76.5661L13.4937 73.2164L12.4285 72.1401L17.4533 67.0629L12.6726 62.2325L7.54818 67.4103L6.71435 66.5678L3.39908 69.9175L0 66.4831L3.31526 63.1333L2.48083 62.2902L7.60526 57.1124L2.84825 52.3059L7.78442 47.3184L8.53383 48.0755L10.4626 50.0244L17.7326 42.6787L18.4821 43.4359L20.8347 45.8131L54.1016 4.4389C54.1557 4.37447 54.2122 4.31495 54.2692 4.25604L54.2674 4.2542C57.1552 1.33641 60.9878 -0.074306 64.8443 0.00301279C68.6593 0.0827851 72.4981 1.62114 75.4465 4.60029C78.3949 7.57944 79.9175 11.4581 79.9971 15.3136C80.0729 19.2095 78.6768 23.082 75.7891 25.9999L75.7879 25.9986ZM21.0546 70.7017L18.9521 68.5773L15.4261 72.1401L17.5286 74.2644L21.0546 70.7017ZM11.1738 60.7181L9.10408 58.6268L5.47848 62.2902L7.54818 64.3814L11.1738 60.7181ZM26.3564 69.1124L24.4179 71.0711L28.338 75.032L30.2765 73.0734L28.9678 71.751L26.3564 69.1124ZM9.76604 56.2669L11.7046 54.3082L8.96379 51.5389L7.78442 50.3472L5.8459 52.3059L9.10408 55.598L9.76604 56.2669ZM13.2034 55.8226L11.2649 57.7812L14.1714 60.7181L18.9521 65.5486L19.7016 66.3057L22.9191 69.5567L24.8576 67.598L13.2034 55.8226ZM13.5106 49.9735L31.4085 66.2572L32.7592 64.8925L14.8607 48.6094L13.5106 49.9735ZM29.9116 67.7699L12.0125 51.4873L11.9614 51.5389L13.2034 52.7937L13.9528 53.551L27.8552 67.598L28.9684 68.7228L29.9116 67.7699ZM16.3584 47.0963L34.2562 63.38L34.7396 62.8915L17.7326 45.7076L16.3584 47.0963ZM30.3901 55.4679L71.6041 21.6425C73.2511 19.9415 74.0504 17.6944 74.0048 15.4308C73.9574 13.0965 73.0185 10.7316 71.1984 8.89259C69.3783 7.05356 67.0378 6.1049 64.7282 6.05764C62.4878 6.01162 60.2633 6.81853 58.5805 8.4833L25.1023 50.125L30.3901 55.4679Z" fill="black"/>
</g>
<defs>
<clipPath id="clip0_545_1972">
<rect width="80" height="80" fill="white"/>
</clipPath>
</defs>
</svg>
