<svg width="80" height="80" viewBox="0 0 80 80" fill="none" xmlns="http://www.w3.org/2000/svg">
<path d="M39.8841 61.6807C44.1006 61.6807 47.5942 58.3074 47.5942 53.9706H32.174C32.174 58.3074 35.5472 61.6807 39.8841 61.6807ZM42.7754 19.5162V0H36.9928V19.5162C22.5364 20.7209 11.0918 31.8041 9.0438 45.7786C8.68239 48.0675 10.6099 50.1155 12.8988 50.1155H66.7488C69.1584 50.1155 70.9652 48.0675 70.6038 45.7786C68.6766 31.8041 57.1113 20.7209 42.7754 19.5162Z" fill="black"/>
<path d="M28.9071 65.6938C29.82 64.9465 29.9364 63.6166 29.167 62.7228C28.3976 61.8289 27.0338 61.7101 26.1208 62.4568L18.4068 68.7667C17.4939 69.5134 17.3776 70.8433 18.1469 71.7371C18.9164 72.631 20.2802 72.7504 21.1931 72.0037L28.9071 65.6938Z" fill="black"/>
<path d="M28.4437 65.1536C29.0524 64.6555 29.13 63.7687 28.6169 63.1724C28.104 62.5767 27.1946 62.4971 26.5858 62.9953L18.8703 69.3063C18.2616 69.8044 18.184 70.6912 18.697 71.2875C19.2101 71.8832 20.1194 71.9628 20.7281 71.4652L28.4437 65.1536Z" fill="black"/>
<path d="M54.3098 62.4573C53.3968 61.7106 52.033 61.8295 51.2636 62.7233C50.4942 63.6172 50.6105 64.9471 51.5235 65.6943L59.2375 72.0042C60.1504 72.7509 61.5142 72.6315 62.2836 71.7377C63.053 70.8438 62.9367 69.5139 62.0238 68.7672L54.3098 62.4573Z" fill="black"/>
<path d="M53.8448 62.9953C53.236 62.4977 52.3267 62.5773 51.8137 63.173C51.3006 63.7693 51.3782 64.656 51.9869 65.1536L59.7024 71.4652C60.3112 71.9633 61.2206 71.8838 61.7336 71.2875C62.2466 70.6918 62.169 69.805 61.5603 69.3068L53.8448 62.9953Z" fill="black"/>
<path d="M37.7082 69.6366C38.178 68.5629 37.6778 67.33 36.5909 66.882C35.504 66.4339 34.242 66.9408 33.7721 68.014L29.8017 77.0829C29.3318 78.156 29.832 79.3889 30.9189 79.8369C32.0058 80.2849 33.2679 79.7781 33.7378 78.7049L37.7082 69.6366Z" fill="black"/>
<path d="M37.0479 69.3679C37.3607 68.6528 37.0277 67.8309 36.3039 67.5322C35.5802 67.234 34.7399 67.572 34.427 68.287L30.4618 77.3515C30.149 78.0666 30.4821 78.8886 31.2058 79.1867C31.9296 79.4854 32.7698 79.1474 33.0827 78.4324L37.0479 69.3679Z" fill="black"/>
<path d="M46.6806 68.0135C46.2107 66.9403 44.9487 66.4334 43.8617 66.8814C42.7748 67.3294 42.2746 68.5628 42.7445 69.636L46.7148 78.7043C47.1847 79.7775 48.4467 80.2844 49.5337 79.8364C50.6206 79.3884 51.1208 78.1555 50.6509 77.0823L46.6806 68.0135Z" fill="black"/>
<path d="M46.0256 68.286C45.7127 67.5709 44.8724 67.233 44.1487 67.5316C43.4249 67.8303 43.0919 68.6517 43.4047 69.3668L47.3699 78.4318C47.6828 79.1469 48.523 79.4843 49.2468 79.1861C49.9705 78.8875 50.3036 78.0656 49.9908 77.3505L46.0256 68.286Z" fill="black"/>
</svg>
