<svg width="80" height="80" viewBox="0 0 80 80" fill="none" xmlns="http://www.w3.org/2000/svg">
<path d="M17.2931 8.08949C30.4468 8.33325 50.1671 8.69869 51.3694 7.97993C52.2343 7.46296 52.8045 6.21397 53.4765 4.74223C54.1754 3.21147 54.9844 1.43972 56.3492 0L15.5221 0.0880956C13.3389 0.416572 11.2815 1.317 9.55889 2.69793C7.83627 4.07886 6.50981 5.8911 5.71423 7.95057C6.43208 7.88822 11.1454 7.97556 17.2931 8.08949Z" fill="black"/>
<path d="M35.1893 11.3471L54.2594 10.5543C55.3043 0 63.7076 -1.19173 63.1766 8.79237L62.3715 23.7563C62.1573 27.7501 60.0818 31.6286 58.0307 35.4613C56.0276 39.2045 54.0478 42.9039 53.8483 46.6243C53.1552 55.4961 54.0532 64.4102 56.4899 72.9481L74.9397 73.9312L55.8745 79.9975L28.3253 78.5293L44.5292 73.3721C40.3106 63.6089 37.178 53.3237 37.4504 41.4438C37.9105 30.3218 37.9301 19.5962 35.1893 11.3471Z" fill="black"/>
</svg>
