<svg width="18" height="18" viewBox="0 0 18 18" fill="none" xmlns="http://www.w3.org/2000/svg">
<g id="icon" clip-path="url(#clip0_3417_20637)">
<g id="Icon">
<path fill-rule="evenodd" clip-rule="evenodd" d="M9.93776 12.3293C8.28378 12.8963 6.44255 12.0458 5.84961 10.3133C5.25667 8.61231 6.13048 6.78531 7.81567 6.18681C9.46965 5.61981 11.3109 6.47031 11.9038 8.20281C12.4968 9.9038 11.623 11.7308 9.93776 12.3293Z" fill="#6F797A"/>
<path fill-rule="evenodd" clip-rule="evenodd" d="M17.646 6.78531C18.3013 8.70681 18.0204 10.5653 17.0218 10.9118C16.2728 11.1638 15.5863 9.9353 12.7776 9.08481C12.7464 8.70681 12.684 7.06881 11.186 6.09231C12.5904 5.14731 14.1507 4.17081 14.6188 4.01331C15.6487 3.63532 16.9906 4.89531 17.646 6.81681V6.78531Z" fill="#6F797A"/>
<path fill-rule="evenodd" clip-rule="evenodd" d="M8.87671 0.0128132C10.874 -0.113187 12.5592 0.705812 12.6216 1.77681C12.684 2.56431 11.3109 2.91081 9.75052 5.3993C9.40724 5.3363 7.81567 4.9268 6.47375 6.1238C5.94323 4.51731 5.44392 2.69031 5.41271 2.18631C5.31909 1.08381 6.87945 0.138813 8.87671 0.0128132Z" fill="#6F797A"/>
<path fill-rule="evenodd" clip-rule="evenodd" d="M0.232306 6.31281C0.76283 4.35981 2.01112 3.00532 3.04096 3.28882C3.78993 3.50932 3.69631 4.89531 5.53754 7.22631C5.35029 7.54131 4.47649 8.92731 5.19426 10.5968C3.50907 10.5968 1.66784 10.4708 1.16852 10.3448C0.107477 10.0613 -0.298217 8.26581 0.232306 6.31281Z" fill="#6F797A"/>
<path fill-rule="evenodd" clip-rule="evenodd" d="M3.29062 16.5503C1.63663 15.3848 0.794037 13.7153 1.38697 12.8333C1.82388 12.1718 3.10337 12.7703 5.88082 11.7623C6.09927 12.0458 7.12911 13.3373 8.90792 13.2113C8.34619 14.8178 7.65963 16.5503 7.34756 16.9598C6.75462 17.8733 4.9446 17.6528 3.29062 16.5188V16.5503Z" fill="#6F797A"/>
<path fill-rule="evenodd" clip-rule="evenodd" d="M14.2756 16.7393C12.7464 18.0308 10.9364 18.3773 10.2498 17.5583C9.75052 16.9598 10.6555 15.8573 10.4683 12.8963C10.8116 12.7388 12.3095 12.1403 12.684 10.3448C14.0571 11.3528 15.4927 12.5183 15.8359 12.9278C16.5537 13.7783 15.8359 15.4793 14.3068 16.7708L14.2756 16.7393Z" fill="#6F797A"/>
</g>
</g>
<defs>
<clipPath id="clip0_3417_20637">
<rect width="18" height="18" fill="white"/>
</clipPath>
</defs>
</svg>
