<svg width="80" height="80" viewBox="0 0 80 80" fill="none" xmlns="http://www.w3.org/2000/svg">
<path fill-rule="evenodd" clip-rule="evenodd" d="M39.9986 11.5221C38.6188 11.5221 37.4992 10.4025 37.4992 9.02276V2.49933C37.4992 1.11958 38.6188 0 39.9986 0C41.379 0 42.5 1.11958 42.5 2.49933V9.02276C42.5 10.4025 41.379 11.5221 39.9986 11.5221ZM61.904 20.5953C61.2621 20.5953 60.6223 20.3522 60.1361 19.8632C59.1594 18.8865 59.1594 17.3027 60.1361 16.3253L64.7495 11.7119C65.7269 10.7366 67.3107 10.7366 68.286 11.7119C69.2627 12.6893 69.2627 14.2731 68.286 15.2498L63.6726 19.8632C63.1835 20.3494 62.5438 20.5953 61.904 20.5953ZM77.5 42.5H70.9765C69.5968 42.5 68.4772 41.379 68.4772 39.9993C68.4772 38.6188 69.5968 37.4992 70.9765 37.4992H77.5C78.8797 37.4992 79.9993 38.6188 79.9993 39.9993C79.9993 41.379 78.8797 42.5 77.5 42.5ZM66.5174 69.0167C65.8776 69.0167 65.2357 68.7736 64.7495 68.2831L60.1361 63.6697C59.1594 62.6923 59.1594 61.1107 60.1361 60.1333C61.1135 59.1566 62.6973 59.1566 63.6726 60.1333L68.286 64.7467C69.2627 65.7241 69.2627 67.3057 68.286 68.2831C67.7969 68.7736 67.1571 69.0167 66.5174 69.0167ZM13.4826 69.0167C12.8428 69.0167 12.2031 68.7736 11.7169 68.2831C10.7395 67.3057 10.7395 65.7241 11.7169 64.7467L16.3303 60.1333C17.3055 59.1566 18.8893 59.1566 19.866 60.1333C20.8427 61.1107 20.8427 62.6923 19.866 63.6697L15.2526 68.2831C14.7621 68.7736 14.1224 69.0167 13.4826 69.0167ZM9.02276 42.5H2.49933C1.11958 42.5 0 41.379 0 39.9993C0 38.6188 1.11958 37.4992 2.49933 37.4992H9.02276C10.4025 37.4992 11.5221 38.6188 11.5221 39.9993C11.5221 41.379 10.4025 42.5 9.02276 42.5ZM18.096 20.5953C17.4562 20.5953 16.8158 20.3522 16.3303 19.8632L11.7169 15.2498C10.7395 14.2731 10.7395 12.6893 11.7169 11.7119C12.6922 10.7352 14.2759 10.7366 15.2526 11.7119L19.866 16.3253C20.8427 17.3027 20.8427 18.8865 19.866 19.8632C19.372 20.3494 18.7358 20.5953 18.096 20.5953ZM52.4995 41.6662C51.1198 41.6662 50.0002 40.5466 50.0002 39.1662C50.0002 34.1092 45.8901 29.9991 40.8331 29.9991C39.4534 29.9991 38.3338 28.8795 38.3338 27.4998C38.3338 26.12 39.4534 25.0004 40.8331 25.0004C48.6425 25.0004 54.9996 31.3554 54.9996 39.1662C54.9996 40.5466 53.88 41.6662 52.4995 41.6662ZM44.167 80H35.8323C33.0223 80 29.9991 77.8675 29.9991 73.1865V67.5005V67.3057C29.9991 63.77 28.4921 60.5221 25.9693 58.6234C18.6853 53.14 15.3152 44.1201 17.1719 35.0831C18.9895 26.2295 26.1527 19.04 34.9964 17.1897C42.0266 15.7125 49.2225 17.4228 54.7095 21.8827C60.1901 26.3361 63.3335 32.9392 63.3335 39.9993C63.3335 47.1938 60.0828 53.8686 54.4159 58.327C51.6088 60.5335 50.0002 63.6072 50.0002 66.7569V67.5005V74.1661C50.0002 77.3827 47.3828 80 44.167 80ZM34.8414 64.999H45.1046C45.6036 60.9486 47.8079 57.1605 51.3238 54.3925C55.7801 50.893 58.3334 45.6455 58.3334 39.9993C58.3334 34.4526 55.8604 29.262 51.5527 25.7625C48.26 23.0904 44.1762 21.673 39.9538 21.673C38.6458 21.673 37.3301 21.8087 36.0129 22.0838C29.0928 23.529 23.4899 29.1553 22.0661 36.0868C20.6032 43.2088 23.2503 50.3158 28.9719 54.6264C32.1679 57.0319 34.272 60.8029 34.8414 64.999Z" fill="black"/>
</svg>
