<svg width="80" height="80" viewBox="0 0 80 80" fill="none" xmlns="http://www.w3.org/2000/svg">
<path fill-rule="evenodd" clip-rule="evenodd" d="M26.6315 1.98877H30.5866V11.566H31.5753V1.98877H39.9856V20.4305H40.9744V1.98877H49.3847V9.58276H50.3735V1.98877H54.3285C54.7367 1.98877 54.7769 1 54.3285 1H26.6257C26.0969 1 26.0681 1.98877 26.6257 1.98877H26.6315ZM28.0284 17.8206H34.0415C34.2542 17.8033 34.3634 17.6826 34.3059 17.4182L32.8113 12.2961C32.7423 12.0432 32.5698 11.865 32.1962 11.888H29.9025C29.5806 11.8937 29.4138 12.0604 29.3449 12.3306L27.833 17.5159C27.7812 17.7114 27.8387 17.8148 28.0227 17.8263L28.0284 17.8206ZM46.8438 15.843H52.8569C53.0696 15.8258 53.1788 15.7051 53.1213 15.4406L51.6267 10.3186C51.5577 10.0656 51.3852 9.88743 51.0116 9.91043H48.7178C48.3959 9.91618 48.2292 10.0829 48.166 10.3531L46.6541 15.5384C46.6023 15.7338 46.6598 15.8373 46.8438 15.8488V15.843ZM37.4447 26.7253H43.4578C43.6705 26.708 43.7797 26.5873 43.7223 26.3229L42.2276 21.2008C42.1586 20.9479 41.9862 20.7697 41.6125 20.7926H39.3188C38.9969 20.7984 38.8301 20.9651 38.7669 21.2353L37.255 26.4206C37.2033 26.616 37.2608 26.7195 37.4447 26.731V26.7253ZM31.0867 21.1318C31.3051 21.1318 31.4834 21.31 31.4834 21.5285V24.0579C31.4834 24.2763 31.3051 24.4545 31.0867 24.4545C30.8682 24.4545 30.69 24.2763 30.69 24.0579V21.5285C30.69 21.31 30.8682 21.1318 31.0867 21.1318ZM33.4436 20.7754C33.2424 20.8674 33.1562 21.1031 33.2539 21.3043L34.3232 23.598C34.4152 23.7992 34.6509 23.8854 34.8521 23.7877C35.0533 23.6957 35.1395 23.46 35.0418 23.2588L33.9725 20.9651C33.8806 20.7639 33.6448 20.6777 33.4436 20.7754ZM28.7297 20.7754C28.9309 20.8674 29.0172 21.1031 28.9195 21.3043L27.8502 23.598C27.7582 23.7992 27.5225 23.8854 27.3213 23.7877C27.1201 23.6957 27.0339 23.46 27.1316 23.2588L28.2009 20.9651C28.2928 20.7639 28.5285 20.6777 28.7297 20.7754ZM35.4212 19.6832C35.2775 19.8499 35.3005 20.1028 35.4729 20.2408L37.4102 21.8676C37.5769 22.0114 37.8299 21.9884 37.9678 21.8159C38.1116 21.6492 38.0886 21.3963 37.9161 21.2525L35.9788 19.6257C35.8121 19.482 35.5592 19.5049 35.4212 19.6774V19.6832ZM26.7522 19.6832C26.8959 19.8499 26.8729 20.1028 26.7005 20.2408L24.7632 21.8676C24.5965 22.0114 24.3435 21.9884 24.2055 21.8159C24.0618 21.6492 24.0848 21.3963 24.2573 21.2583L26.1946 19.6314C26.3613 19.4877 26.6142 19.5107 26.7522 19.6832ZM49.8848 19.1485C50.1033 19.1485 50.2815 19.3267 50.2815 19.5452V22.0746C50.2815 22.293 50.1033 22.4713 49.8848 22.4713C49.6664 22.4713 49.4882 22.293 49.4882 22.0746V19.5452C49.4882 19.3267 49.6664 19.1485 49.8848 19.1485ZM52.2418 18.7921C52.0406 18.8841 51.9543 19.1198 52.0521 19.321L53.1213 21.6147C53.2133 21.8159 53.449 21.9021 53.6502 21.8044C53.8514 21.7124 53.9376 21.4767 53.8399 21.2755L52.7707 18.9818C52.6787 18.7806 52.443 18.6944 52.2418 18.7921ZM47.5279 18.7921C47.7291 18.8841 47.8153 19.1198 47.7176 19.321L46.6483 21.6147C46.5563 21.8159 46.3207 21.9021 46.1194 21.8044C45.9182 21.7124 45.832 21.4767 45.9297 21.2755L46.999 18.9818C47.091 18.7806 47.3267 18.6944 47.5279 18.7921ZM54.2193 17.6999C54.0756 17.8666 54.0986 18.1195 54.2711 18.2575L56.2084 19.8844C56.3751 20.0281 56.628 20.0051 56.766 19.8326C56.9097 19.6659 56.8867 19.413 56.7142 19.2693L54.7769 17.6424C54.6102 17.4987 54.3573 17.5217 54.2193 17.6884V17.6999ZM45.5503 17.6999C45.6941 17.8666 45.6711 18.1195 45.4986 18.2575L43.5613 19.8844C43.3946 20.0281 43.1416 20.0051 43.0037 19.8326C42.86 19.6659 42.883 19.413 43.0554 19.275L44.9927 17.6481C45.1594 17.5044 45.4124 17.5274 45.5503 17.6999ZM40.4858 30.0308C40.7042 30.0308 40.8824 30.209 40.8824 30.4274V32.9568C40.8824 33.1753 40.7042 33.3535 40.4858 33.3535C40.2673 33.3535 40.0891 33.1753 40.0891 32.9568V30.4274C40.0891 30.209 40.2673 30.0308 40.4858 30.0308ZM42.8427 29.6743C42.6415 29.7663 42.5553 30.002 42.653 30.2032L43.7223 32.4969C43.8142 32.6981 44.0499 32.7844 44.2511 32.6866C44.4523 32.5947 44.5386 32.359 44.4408 32.1578L43.3716 29.864C43.2796 29.6628 43.0439 29.5766 42.8427 29.6743ZM38.1288 29.6743C38.33 29.7663 38.4162 30.002 38.3185 30.2032L37.2493 32.4969C37.1573 32.6981 36.9216 32.7844 36.7204 32.6866C36.5192 32.5947 36.433 32.359 36.5307 32.1578L37.5999 29.864C37.6919 29.6628 37.9276 29.5766 38.1288 29.6743ZM44.8203 28.5821C44.6765 28.7488 44.6995 29.0017 44.872 29.1397L46.8093 30.7666C46.976 30.9103 47.2289 30.8873 47.3669 30.7148C47.5106 30.5481 47.4876 30.2952 47.3152 30.1572L45.3779 28.5303C45.2112 28.3866 44.9582 28.4096 44.8203 28.5821ZM36.1513 28.5821C36.295 28.7488 36.272 29.0017 36.0995 29.1397L34.1622 30.7666C33.9955 30.9103 33.7426 30.8873 33.6046 30.7148C33.4609 30.5481 33.4839 30.2952 33.6564 30.1572L35.5937 28.5303C35.7604 28.3866 36.0133 28.4096 36.1513 28.5821ZM29.6668 18.7979C29.6668 19.344 30.3049 19.7866 31.0867 19.7866C31.8743 19.7866 32.5066 19.344 32.5066 18.7979H29.661H29.6668ZM39.0658 27.7025C39.0658 28.2487 39.7039 28.6913 40.4858 28.6913C41.2733 28.6913 41.9057 28.2487 41.9057 27.7025H39.0601H39.0658ZM48.4649 16.8203C48.4649 17.3664 49.103 17.8091 49.8848 17.8091C50.6724 17.8091 51.3047 17.3664 51.3047 16.8203H48.4592H48.4649ZM23.5387 64.5687C23.7629 64.5687 23.9986 64.5572 24.1308 64.5687C24.4297 64.5975 24.493 64.7239 24.5907 65.0861C24.7057 65.5173 24.7862 66.2933 25.0966 67.6328L27.6547 77.4975C27.7295 77.7619 27.58 77.9171 27.3616 77.9631C26.9534 78.0493 26.8902 77.9114 26.7522 77.6124C26.1026 76.181 24.6827 72.1742 24.4068 71.5648C24.0791 70.8348 23.3662 69.3861 23.2628 68.6618C23.1535 67.9374 23.142 66.1496 23.142 65.0804C23.142 64.7814 23.1995 64.5745 23.5387 64.5745V64.5687ZM9.23028 64.5687C9.00608 64.5687 8.77039 64.5572 8.63817 64.5687C8.33924 64.5975 8.276 64.7239 8.17827 65.0861C8.0633 65.5173 7.98282 66.2933 7.6724 67.6328L5.11423 77.4975C5.0395 77.7619 5.18897 77.9171 5.40742 77.9631C5.81558 78.0493 5.87881 77.9114 6.01678 77.6124C6.66638 76.181 8.0863 72.1742 8.36223 71.5648C8.68991 70.8348 9.40274 69.3861 9.50621 68.6618C9.61544 67.9374 9.62694 66.1496 9.62694 65.0804C9.62694 64.7814 9.56945 64.5745 9.23028 64.5745V64.5687ZM9.13255 63.0971L23.6134 63.0626C24.0043 63.0626 24.3205 62.7406 24.3205 62.3497V61.1195C24.3205 60.7286 23.9986 60.4124 23.6077 60.4124L9.12681 60.4469C8.7359 60.4469 8.41971 60.7689 8.41971 61.1598V62.39C8.41971 62.7809 8.74164 63.0971 9.13255 63.0971ZM7.74138 58.0497C6.05702 54.3361 4.30368 50.4098 2.67681 46.6616C2.15368 45.4199 1.36036 44.0115 1.36036 42.3271C1.36036 41.8845 1.40635 41.7868 1.79726 41.7868L2.86651 41.7983C3.21143 41.7983 3.47012 41.7408 3.49886 42.3041C3.57359 43.9138 4.05073 44.4944 4.87279 46.4029C5.56263 47.9953 9.1728 56.5033 9.90862 58.5384C10.0121 58.8201 9.92012 58.958 9.65568 58.958C8.40247 58.958 8.32199 59.05 7.74138 58.044V58.0497ZM26.5912 78.7507L28.0457 78.7104C28.747 78.6932 28.7355 78.2218 28.6608 77.6297C28.5688 76.9283 28.2871 75.7671 27.8789 73.8356C27.3156 71.1624 26.3556 67.0406 25.9244 64.5342C25.7232 63.35 25.8209 61.7576 25.8209 60.4699C25.8209 59.5444 25.2633 58.9983 24.3665 59.004L11.9034 59.0615C11.6562 59.0615 11.4838 58.9408 11.639 58.6648C11.9436 58.136 12.5358 57.4461 12.7715 56.8368C13.766 54.2786 13.0416 51.4503 12.0011 48.9841C11.478 47.7424 10.541 45.8741 9.60395 45.029C8.03456 43.6033 7.14926 43.2124 5.58563 43.1262C5.25221 43.109 5.12574 43.0917 5.0855 42.8215C5.02226 42.4249 5.07974 42.0167 5.07974 41.6028C5.07974 40.6025 4.60835 40.3094 3.91276 40.3209L0.946452 40.3496C0.22212 40.3554 0.00367153 40.7865 0.00367153 41.4361C0.00367153 42.2007 -0.0135696 43.1894 0.0266711 43.6608C0.0956551 44.3909 2.26865 49.1048 2.64806 49.9499C3.88402 52.692 5.01651 55.4973 6.21798 58.2394C7.11477 60.2917 7.32172 61.3897 7.12627 63.6489C6.94231 66.1151 4.55087 74.4622 4.11397 77.3882C3.94726 78.4977 3.976 78.7449 5.25795 78.7449C6.68362 78.7449 6.67787 78.9174 7.08603 77.9804C7.94258 76.0143 10.288 70.0012 10.6904 68.7882C11.0986 67.5695 10.5755 65.4885 10.9836 64.6147C11.6677 64.4423 20.7334 64.4825 21.7394 64.609C21.7164 65.9197 21.5899 67.9777 21.8256 69.2194C21.9176 69.708 25.0621 76.6352 25.8899 78.285C26.0854 78.6759 26.0911 78.7737 26.5797 78.7622L26.5912 78.7507ZM56.4613 64.5745C56.2371 64.5745 56.0014 64.563 55.8692 64.5745C55.5703 64.6032 55.507 64.7297 55.4093 65.0919C55.2943 65.523 55.2138 66.2991 54.9034 67.6385L52.3453 77.5032C52.2705 77.7677 52.42 77.9229 52.6384 77.9689C53.0466 78.0551 53.1098 77.9171 53.2478 77.6182C53.8974 76.1868 55.3173 72.18 55.5933 71.5706C55.9209 70.8405 56.6338 69.3919 56.7372 68.6675C56.8465 67.9432 56.858 66.1554 56.858 65.0861C56.858 64.7872 56.8005 64.5802 56.4613 64.5802V64.5745ZM70.7697 64.5745C70.9939 64.5745 71.2296 64.563 71.3618 64.5745C71.6608 64.6032 71.724 64.7297 71.8217 65.0919C71.9367 65.523 72.0172 66.2991 72.3276 67.6385L74.8858 77.5032C74.9605 77.7677 74.811 77.9229 74.5926 77.9689C74.1844 78.0551 74.1212 77.9171 73.9832 77.6182C73.3336 76.1868 71.9137 72.18 71.6378 71.5706C71.3101 70.8405 70.5973 69.3919 70.4938 68.6675C70.3846 67.9432 70.3731 66.1554 70.3731 65.0861C70.3731 64.7872 70.4306 64.5802 70.7697 64.5802V64.5745ZM70.8675 63.1028L56.3866 63.0683C55.9957 63.0683 55.6795 62.7464 55.6795 62.3555V61.1253C55.6795 60.7344 56.0014 60.4182 56.3923 60.4182L70.8732 60.4527C71.2641 60.4527 71.5803 60.7746 71.5803 61.1655V62.3957C71.5803 62.7866 71.2584 63.1028 70.8675 63.1028ZM72.2586 58.0555C73.943 54.3418 75.6963 50.4155 77.3232 46.6674C77.8463 45.4257 78.6396 44.0173 78.6396 42.3329C78.6396 41.8902 78.5937 41.7925 78.2027 41.7925L77.1335 41.804C76.7886 41.804 76.5299 41.7465 76.5011 42.3099C76.4264 43.9195 75.9493 44.5001 75.1272 46.4087C74.4374 48.0011 70.8272 56.5091 70.0914 58.5441C69.9879 58.8258 70.0799 58.9638 70.3443 58.9638C71.5975 58.9638 71.678 59.0558 72.2586 58.0497V58.0555ZM53.4088 78.7564L51.9543 78.7162C51.253 78.6989 51.2645 78.2275 51.3392 77.6354C51.4312 76.9341 51.7129 75.7729 52.1211 73.8413C52.6844 71.1682 53.6444 67.0464 54.0756 64.54C54.2768 63.3558 54.1791 61.7634 54.1791 60.4757C54.1791 59.5501 54.7367 59.004 55.6335 59.0098L68.0966 59.0673C68.3438 59.0673 68.5162 58.9465 68.361 58.6706C68.0564 58.1417 67.4642 57.4519 67.2285 56.8425C66.234 54.2844 66.9584 51.456 67.9989 48.9898C68.522 47.7481 69.459 45.8798 70.3961 45.0348C71.9654 43.6091 72.8507 43.2182 74.4144 43.132C74.7478 43.1147 74.8743 43.0975 74.9145 42.8273C74.9777 42.4306 74.9203 42.0225 74.9203 41.6086C74.9203 40.6083 75.3917 40.3151 76.0872 40.3266L79.0536 40.3554C79.7779 40.3611 79.9963 40.7922 79.9963 41.4418C79.9963 42.2064 80.0136 43.1952 79.9733 43.6666C79.9044 44.3967 77.7314 49.1106 77.352 49.9556C76.116 52.6977 74.9835 55.5031 73.782 58.2452C72.8852 60.2975 72.6783 61.3955 72.8737 63.6547C73.0577 66.1209 75.4491 74.4679 75.886 77.394C76.0527 78.5035 76.024 78.7507 74.7421 78.7507C73.3164 78.7507 73.3221 78.9231 72.914 77.9861C72.0574 76.0201 69.712 70.007 69.3096 68.794C68.9014 67.5753 69.4245 65.4943 69.0164 64.6205C68.3323 64.448 59.2667 64.4882 58.2606 64.6147C58.2836 65.9254 58.4101 67.9834 58.1744 69.2251C58.0824 69.7138 54.9379 76.6409 54.1101 78.2908C53.9146 78.6817 53.9089 78.7794 53.4202 78.7679L53.4088 78.7564ZM16.7668 51.755H30.8165H34.0128C34.9153 51.8757 35.8868 52.2378 35.8868 53.1691V72.18C35.9041 72.9733 35.2545 73.3124 34.7256 73.3469H31.5926C30.8855 73.3469 30.3049 73.9275 30.3049 74.6346V75.2842C30.2876 75.9913 30.2359 76.7271 30.3049 77.3423V77.4112C30.3049 77.6469 30.3681 77.8711 30.4831 78.0666C30.6613 78.4575 30.9717 78.6989 31.5178 78.6989H31.5926H44.9525C46.4989 78.6989 47.5451 78.7449 48.2465 78.6989H48.3787C48.5396 78.6989 48.6949 78.6702 48.8386 78.6127C49.2525 78.5035 49.4594 78.2965 49.5686 77.8999C49.6319 77.7504 49.6664 77.5837 49.6664 77.4112V77.0318C49.6779 76.6984 49.6721 76.3017 49.6664 75.8246V74.6404C49.6664 73.9333 49.0858 73.3527 48.3787 73.3527H45.3261C44.7455 73.3527 44.1247 72.979 44.1189 72.2547V53.1749C44.1189 52.2206 45.1019 51.8757 45.9987 51.7607H48.965H63.2447C64.0438 51.7607 64.6991 51.1054 64.6991 50.3063V47.7654C64.6991 46.9663 64.0438 46.311 63.2447 46.311H16.7725C15.9735 46.311 15.3181 46.9663 15.3181 47.7654V50.3063C15.3181 51.1054 15.9735 51.7607 16.7725 51.7607L16.7668 51.755ZM37.5482 51.755H42.4518V72.1914C42.4518 74.3644 43.889 74.9796 45.3779 74.9796C46.3264 74.9796 47.2175 74.9796 47.5509 74.9796C47.8728 74.9796 48.1315 75.2382 48.1315 75.5602V76.8134C48.1315 77.1353 47.8728 77.394 47.5509 77.394H41.2446H38.7209H32.4146C32.0927 77.394 31.834 77.1353 31.834 76.8134V75.5602C31.834 75.2382 32.0927 74.9796 32.4146 74.9796H35.1568C36.8354 74.9796 37.5482 73.3067 37.5482 72.1742V51.755ZM17.3014 50.0361H62.7043C62.9975 50.0361 63.239 49.7947 63.239 49.5015V48.5644C63.239 48.2713 62.9975 48.0298 62.7043 48.0298H17.3014C17.0082 48.0298 16.7668 48.2713 16.7668 48.5644V49.5015C16.7668 49.7947 17.0082 50.0361 17.3014 50.0361ZM32.8458 43.6838C32.8228 41.7005 32.0295 39.8437 30.6153 38.4468C29.3736 37.2166 27.7697 36.475 26.0509 36.314C26.0911 36.2163 26.1141 36.1128 26.1141 36.0036C26.1141 35.5782 25.7692 35.2333 25.3438 35.2333C24.9184 35.2333 24.5735 35.5782 24.5735 36.0036C24.5735 36.1128 24.5965 36.2221 24.6367 36.314C22.9178 36.475 21.314 37.2166 20.0723 38.4468C18.6581 39.8437 17.8705 41.7005 17.8418 43.6838C17.8705 44.069 18.0602 44.2414 18.3994 44.2185H32.3399C32.6733 44.2012 32.8285 44.0172 32.8343 43.6838H32.8458ZM18.9283 43.1664C19.2387 39.907 22.0153 37.3316 25.3495 37.3316C28.678 37.3316 31.4546 39.9012 31.7708 43.1664H18.934H18.9283ZM16.7668 45.8051H17.3761H33.9323C34.4957 45.8051 34.4727 44.7531 33.9323 44.7531H17.3187H16.7668C16.2896 44.7531 16.2609 45.8051 16.7668 45.8051ZM20.1067 41.9017C20.0205 42.3559 20.9346 42.6318 21.1243 42.1662C21.13 42.1489 21.5727 40.4818 23.2455 39.7575C23.7169 39.4528 23.3088 38.602 22.8259 38.7917C20.6874 39.723 20.1355 41.804 20.1067 41.9075V41.9017ZM61.6179 43.6896C61.5949 41.7063 60.8015 39.8495 59.3874 38.4525C58.1457 37.2223 56.5418 36.4808 54.8229 36.3198C54.8632 36.2221 54.8862 36.1186 54.8862 36.0094C54.8862 35.584 54.5412 35.239 54.1158 35.239C53.6904 35.239 53.3455 35.584 53.3455 36.0094C53.3455 36.1186 53.3685 36.2278 53.4088 36.3198C51.6899 36.4808 50.086 37.2223 48.8443 38.4525C47.4302 39.8495 46.6426 41.7063 46.6138 43.6896C46.6426 44.0747 46.8323 44.2472 47.1715 44.2242H61.112C61.4454 44.207 61.6006 44.023 61.6063 43.6896H61.6179ZM47.7003 43.1722C48.0108 39.9127 50.7874 37.3373 54.1216 37.3373C57.4501 37.3373 60.2267 39.907 60.5428 43.1722H47.7061H47.7003ZM45.5388 45.8108H46.1482H62.7043C63.2677 45.8108 63.2447 44.7588 62.7043 44.7588H46.0907H45.5388C45.0617 44.7588 45.033 45.8108 45.5388 45.8108ZM48.8788 41.9075C48.7926 42.3616 49.7066 42.6376 49.8963 42.1719C49.9021 42.1547 50.3447 40.4876 52.0176 39.7632C52.489 39.4586 52.0808 38.6078 51.5979 38.7975C49.4594 39.7287 48.9076 41.8098 48.8788 41.9132V41.9075Z" fill="black"/>
</svg>
