<svg width="14" height="10" viewBox="0 0 14 10" fill="none" xmlns="http://www.w3.org/2000/svg">
<path fill-rule="evenodd" clip-rule="evenodd" d="M5.65625 9.00024C5.65625 8.44796 6.10397 8.00024 6.65625 8.00024H6.66625C7.21853 8.00024 7.66625 8.44796 7.66625 9.00024C7.66625 9.55253 7.21853 10.0002 6.66625 10.0002H6.65625C6.10397 10.0002 5.65625 9.55253 5.65625 9.00024Z" fill="#0EBD0A"/>
<path fill-rule="evenodd" clip-rule="evenodd" d="M6.657 2C5.73772 2 4.82744 2.18107 3.97813 2.53288C3.12883 2.88468 2.35714 3.40033 1.70712 4.05038C1.31661 4.44092 0.683446 4.44093 0.292911 4.05042C-0.0976229 3.6599 -0.0976392 3.02674 0.292875 2.6362C1.12861 1.80043 2.12078 1.13745 3.21274 0.685128C4.3047 0.232807 5.47506 0 6.657 0C7.83894 0 9.0093 0.232807 10.1013 0.685128C11.1932 1.13745 12.1854 1.80043 13.0211 2.6362C13.4116 3.02674 13.4116 3.6599 13.0211 4.05042C12.6306 4.44093 11.9974 4.44092 11.6069 4.05038C10.9569 3.40033 10.1852 2.88468 9.33587 2.53288C8.48656 2.18107 7.57628 2 6.657 2Z" fill="#0EBD0A"/>
<path fill-rule="evenodd" clip-rule="evenodd" d="M6.828 6C6.03251 6 5.26958 6.31595 4.707 6.87836C4.31642 7.26882 3.68325 7.26873 3.29279 6.87815C2.90232 6.48756 2.90242 5.8544 3.293 5.46393C4.23064 4.52658 5.50218 4 6.828 4C8.15382 4 9.42536 4.52658 10.363 5.46393C10.7536 5.8544 10.7537 6.48756 10.3632 6.87815C9.97275 7.26873 9.33958 7.26882 8.949 6.87836C8.38642 6.31595 7.62349 6 6.828 6Z" fill="#0EBD0A"/>
</svg>
