<?xml version="1.0" encoding="UTF-8"?>
<!DOCTYPE svg PUBLIC "-//W3C//DTD SVG 1.1//EN" "http://www.w3.org/Graphics/SVG/1.1/DTD/svg11.dtd">
<!-- Creator: CorelDRAW 2020 (64 Bit) -->
<svg xmlns="http://www.w3.org/2000/svg" xml:space="preserve" width="2.5mm" height="2.5mm" version="1.1" style="shape-rendering:geometricPrecision; text-rendering:geometricPrecision; image-rendering:optimizeQuality; fill-rule:evenodd; clip-rule:evenodd"
viewBox="0 0 1.02 1.02"
 xmlns:xlink="http://www.w3.org/1999/xlink"
 xmlns:xodm="http://www.corel.com/coreldraw/odm/2003">
 <defs>
  <style type="text/css">
   <![CDATA[
    .fil0 {fill:#0884FF;fill-rule:nonzero}
   ]]>
  </style>
 </defs>
 <g id="Camada_x0020_2">
  <metadata id="CorelCorpID_0Corel-Layer"/>
  <path class="fil0" d="M0.38 0.7l0.26 0 0.1 -0.18 0.11 0 0.09 0.09 0.07 -0.07 -0.07 -0.07 0.07 -0.07 -0.07 -0.07 -0.09 0.09 -0.11 0 -0.07 -0.12 0.06 -0.1 0.12 -0.03 -0.03 -0.1 -0.09 0.02 -0.02 -0.09 -0.1 0.03 0.03 0.12 -0.06 0.1 -0.15 0 -0.06 -0.1 0.03 -0.12 -0.1 -0.03 -0.02 0.09 -0.09 -0.02 -0.03 0.1 0.12 0.03 0.06 0.1 -0.07 0.13 -0.11 0 -0.09 -0.09 -0.07 0.07 0.07 0.07 -0.07 0.07 0.07 0.07 0.09 -0.09 0.11 0 0.1 0.18zm0.06 -0.35l0.15 0 0.07 0.13 -0.07 0.13 -0.15 0 -0.07 -0.13 0.07 -0.13z"/>
  <path class="fil0" d="M0.62 0.9c0,0.03 -0.01,0.06 -0.03,0.08 -0.02,0.02 -0.05,0.03 -0.08,0.03 -0.03,0 -0.06,-0.01 -0.08,-0.03 -0.02,-0.02 -0.03,-0.05 -0.03,-0.08 0,-0.01 0,-0.01 0,-0.02 0,-0.01 0,-0.01 0.01,-0.02l0 -0 -0 0c0.02,-0.04 0.09,-0.12 0.1,-0.12 0,-0 0.01,-0 0.02,0l0 0c0,0 0.08,0.08 0.1,0.12 0,0 0,0 0,0 0,0.01 0,0.01 0.01,0.02 0,0.01 0,0.01 0,0.02z"/>
  <path class="fil0" d="M0.93 0.9c0,0.03 -0.01,0.06 -0.03,0.08 -0.02,0.02 -0.05,0.03 -0.08,0.03 -0.03,0 -0.06,-0.01 -0.08,-0.03 -0.02,-0.02 -0.03,-0.05 -0.03,-0.08 0,-0.01 0,-0.01 0,-0.02 0,-0.01 0,-0.01 0.01,-0.02l0 -0 -0 0c0.02,-0.04 0.09,-0.12 0.1,-0.12 0,-0 0.01,-0 0.02,0l0 0c0,0 0.08,0.08 0.1,0.12 0,0 0,0 0,0 0,0.01 0,0.01 0.01,0.02 0,0.01 0,0.01 0,0.02z"/>
  <path class="fil0" d="M0.09 0.9c0,0.03 0.01,0.06 0.03,0.08 0.02,0.02 0.05,0.03 0.08,0.03 0.03,0 0.06,-0.01 0.08,-0.03 0.02,-0.02 0.03,-0.05 0.03,-0.08 0,-0.01 -0,-0.01 -0,-0.02 -0,-0.01 -0,-0.01 -0.01,-0.02l-0 -0 0 0c-0.02,-0.04 -0.09,-0.12 -0.1,-0.12 -0,-0 -0.01,-0 -0.02,0l0 0c-0,0 -0.08,0.08 -0.1,0.12 -0,0 -0,0 -0,0 -0,0.01 -0,0.01 -0.01,0.02 -0,0.01 -0,0.01 -0,0.02z"/>
 </g>
</svg>
