<svg width="36" height="36" viewBox="0 0 36 36" fill="none" xmlns="http://www.w3.org/2000/svg">
<path d="M16.8622 8.81948C18.4774 9.39148 20.2418 8.53034 20.8072 6.89606C21.3725 5.26178 20.5214 3.47665 18.9061 2.90465C17.2908 2.33265 15.5265 3.19379 14.9611 4.82807C14.6878 5.61378 14.7375 6.47492 15.0916 7.22292C15.4519 7.97091 16.0856 8.54291 16.8622 8.81948ZM15.7253 5.09835C16.1415 3.8915 17.4461 3.25665 18.639 3.67779C19.2105 3.87893 19.6827 4.30636 19.9436 4.8595C20.4903 6.00978 20.0119 7.39263 18.875 7.95205C17.7381 8.5052 16.3714 8.0212 15.8184 6.87092C15.5575 6.31149 15.5265 5.67664 15.7253 5.09835Z" fill="#FF9400"/>
<path d="M15.7564 2.33893C15.8558 2.54007 16.0918 2.62807 16.2968 2.5275C16.5019 2.42693 16.5826 2.18807 16.4832 1.98064L16.0359 1.04408C15.9365 0.842936 15.7004 0.754937 15.4954 0.855508C15.2904 0.956079 15.2096 1.19493 15.3091 1.40236L15.7564 2.33893Z" fill="#FF9400"/>
<path d="M19.4715 9.19041C19.2727 9.29098 19.1857 9.52984 19.2851 9.73727L19.7324 10.6738C19.8318 10.875 20.0679 10.963 20.2729 10.8624C20.4717 10.7618 20.5587 10.523 20.4593 10.3156L20.012 9.37898C19.9126 9.17784 19.6765 9.09613 19.4715 9.19041Z" fill="#FF9400"/>
<path d="M21.5465 4.48228C21.6086 4.48228 21.6646 4.4697 21.7205 4.43828L22.6461 3.98571C22.845 3.88514 22.9319 3.64628 22.8325 3.43885C22.7331 3.23771 22.497 3.14971 22.292 3.25028L21.3664 3.70914C21.1675 3.80971 21.0806 4.04856 21.18 4.25599C21.2483 4.39428 21.3912 4.48856 21.5465 4.48228Z" fill="#FF9400"/>
<path d="M14.0541 7.27318L13.1284 7.72575C12.9296 7.82632 12.8427 8.06517 12.9421 8.2726C13.0415 8.47374 13.2775 8.56174 13.4826 8.46117L14.4082 8.0086C14.607 7.90803 14.694 7.66918 14.5946 7.46175C14.4952 7.26061 14.2529 7.17889 14.0541 7.27318Z" fill="#FF9400"/>
<path d="M19.0925 2.37667C19.3038 2.4521 19.5336 2.33896 19.6082 2.12525L20.1549 0.54754C20.2294 0.333827 20.1176 0.101256 19.9064 0.0258283C19.6952 -0.0495999 19.4653 0.0635424 19.3907 0.277256L18.844 1.85496C18.7695 2.06867 18.8813 2.30124 19.0925 2.37667Z" fill="#FF9400"/>
<path d="M16.682 9.34761C16.4708 9.27218 16.2409 9.38532 16.1664 9.59903L15.6197 11.1767C15.5451 11.3905 15.6569 11.623 15.8682 11.6985C16.0794 11.7739 16.3093 11.6607 16.3838 11.447L16.9305 9.86932C17.0051 9.6556 16.8933 9.42303 16.682 9.34761Z" fill="#FF9400"/>
<path d="M21.329 7.07828C21.2545 7.29199 21.3663 7.52456 21.5775 7.59999L23.1369 8.15313C23.3481 8.22856 23.578 8.11542 23.6525 7.9017C23.7271 7.68799 23.6153 7.45542 23.404 7.37999L21.8447 6.82685C21.6334 6.75143 21.4036 6.86457 21.329 7.07828Z" fill="#FF9400"/>
<path d="M12.3643 4.33785L13.9236 4.89099C14.1349 4.96641 14.3647 4.85956 14.4393 4.64584C14.5138 4.43213 14.4082 4.19956 14.197 4.12413H14.1908L12.6314 3.57099C12.4202 3.49557 12.1903 3.60871 12.1158 3.82242C12.0412 4.02985 12.153 4.26242 12.3643 4.33785Z" fill="#FF9400"/>
<mask id="path-10-outside-1_586_2184" maskUnits="userSpaceOnUse" x="-0.0270386" y="12.2336" width="36" height="23" fill="black">
<rect fill="white" x="-0.0270386" y="12.2336" width="36" height="23"/>
<path d="M1.44379 25.7426H14.8057V29.2486H10.9642C10.7038 29.2486 10.494 29.4609 10.494 29.7244V33.8526C10.494 34.1161 10.7038 34.3283 10.9642 34.3283H24.9193C25.1797 34.3283 25.3895 34.1161 25.3895 33.8526V29.7244C25.3895 29.4609 25.1797 29.2486 24.9193 29.2486H21.0778V25.7426H34.4397C34.7001 25.7426 34.9099 25.5303 34.9099 25.2668C34.9099 25.2303 34.9027 25.1863 34.8955 25.1497L32.0379 13.5923C31.9873 13.38 31.7992 13.2336 31.5821 13.2336H4.30136C4.08433 13.2336 3.89624 13.38 3.8456 13.5923L0.988027 25.1497C0.922918 25.4059 1.07484 25.6621 1.32804 25.728C1.37145 25.7353 1.40762 25.7426 1.44379 25.7426ZM8.62751 18.0133H12.6209L12.2953 20.6702H8.13557L8.62751 18.0133ZM7.1734 20.6702H3.06429L3.72262 18.0133H7.66534L7.1734 20.6702ZM32.8264 20.6702H28.7173L28.2254 18.0133H32.1681L32.8264 20.6702ZM27.7624 20.6702H23.6026L23.2771 18.0133H27.2705L27.7624 20.6702ZM20.6148 24.7911H18.4228V21.6218H22.7779L23.1686 24.7911H20.6148ZM12.7294 24.7911L13.12 21.6218H17.4751V24.7911H12.7294ZM17.4751 20.6702H13.2358L13.5613 18.0133H17.4679V20.6702H17.4751ZM18.4156 18.0133H22.3222L22.6477 20.6702H18.4084L18.4156 18.0133ZM23.7184 21.6218H27.936L28.522 24.7911H24.109L23.7184 21.6218ZM23.1541 17.0617L22.7996 14.1852H26.5543L27.0896 17.0617H23.1541ZM22.2064 17.0617H18.4156V14.1852H21.8519L22.2064 17.0617ZM17.4751 17.0617H13.6843L14.0388 14.1852H17.4751V17.0617ZM12.7366 17.0617H8.80114L9.33648 14.1852H13.0911L12.7366 17.0617ZM12.1723 21.6218L11.7817 24.7911H7.36873L7.95471 21.6218H12.1723ZM11.4344 33.3695V32.2569H24.4563V33.3695H11.4344ZM24.4563 31.3054H11.4344V30.1929H24.4563V31.3054ZM20.1374 29.2413H15.7461V25.7353H20.1374V29.2413ZM29.4769 24.7911L28.8909 21.6218H33.0579L33.8393 24.7911H29.4769ZM31.9294 17.0617H28.0445L27.5092 14.1852H31.2132L31.9294 17.0617ZM4.67032 14.1779H8.37431L7.83897 17.0544H3.96135L4.67032 14.1779ZM2.83279 21.6218H6.99978L6.4138 24.7911H2.05148L2.83279 21.6218Z"/>
</mask>
<path d="M1.44379 25.7426H14.8057V29.2486H10.9642C10.7038 29.2486 10.494 29.4609 10.494 29.7244V33.8526C10.494 34.1161 10.7038 34.3283 10.9642 34.3283H24.9193C25.1797 34.3283 25.3895 34.1161 25.3895 33.8526V29.7244C25.3895 29.4609 25.1797 29.2486 24.9193 29.2486H21.0778V25.7426H34.4397C34.7001 25.7426 34.9099 25.5303 34.9099 25.2668C34.9099 25.2303 34.9027 25.1863 34.8955 25.1497L32.0379 13.5923C31.9873 13.38 31.7992 13.2336 31.5821 13.2336H4.30136C4.08433 13.2336 3.89624 13.38 3.8456 13.5923L0.988027 25.1497C0.922918 25.4059 1.07484 25.6621 1.32804 25.728C1.37145 25.7353 1.40762 25.7426 1.44379 25.7426ZM8.62751 18.0133H12.6209L12.2953 20.6702H8.13557L8.62751 18.0133ZM7.1734 20.6702H3.06429L3.72262 18.0133H7.66534L7.1734 20.6702ZM32.8264 20.6702H28.7173L28.2254 18.0133H32.1681L32.8264 20.6702ZM27.7624 20.6702H23.6026L23.2771 18.0133H27.2705L27.7624 20.6702ZM20.6148 24.7911H18.4228V21.6218H22.7779L23.1686 24.7911H20.6148ZM12.7294 24.7911L13.12 21.6218H17.4751V24.7911H12.7294ZM17.4751 20.6702H13.2358L13.5613 18.0133H17.4679V20.6702H17.4751ZM18.4156 18.0133H22.3222L22.6477 20.6702H18.4084L18.4156 18.0133ZM23.7184 21.6218H27.936L28.522 24.7911H24.109L23.7184 21.6218ZM23.1541 17.0617L22.7996 14.1852H26.5543L27.0896 17.0617H23.1541ZM22.2064 17.0617H18.4156V14.1852H21.8519L22.2064 17.0617ZM17.4751 17.0617H13.6843L14.0388 14.1852H17.4751V17.0617ZM12.7366 17.0617H8.80114L9.33648 14.1852H13.0911L12.7366 17.0617ZM12.1723 21.6218L11.7817 24.7911H7.36873L7.95471 21.6218H12.1723ZM11.4344 33.3695V32.2569H24.4563V33.3695H11.4344ZM24.4563 31.3054H11.4344V30.1929H24.4563V31.3054ZM20.1374 29.2413H15.7461V25.7353H20.1374V29.2413ZM29.4769 24.7911L28.8909 21.6218H33.0579L33.8393 24.7911H29.4769ZM31.9294 17.0617H28.0445L27.5092 14.1852H31.2132L31.9294 17.0617ZM4.67032 14.1779H8.37431L7.83897 17.0544H3.96135L4.67032 14.1779ZM2.83279 21.6218H6.99978L6.4138 24.7911H2.05148L2.83279 21.6218Z" fill="#FF9400"/>
<path d="M1.44379 25.7426H14.8057V29.2486H10.9642C10.7038 29.2486 10.494 29.4609 10.494 29.7244V33.8526C10.494 34.1161 10.7038 34.3283 10.9642 34.3283H24.9193C25.1797 34.3283 25.3895 34.1161 25.3895 33.8526V29.7244C25.3895 29.4609 25.1797 29.2486 24.9193 29.2486H21.0778V25.7426H34.4397C34.7001 25.7426 34.9099 25.5303 34.9099 25.2668C34.9099 25.2303 34.9027 25.1863 34.8955 25.1497L32.0379 13.5923C31.9873 13.38 31.7992 13.2336 31.5821 13.2336H4.30136C4.08433 13.2336 3.89624 13.38 3.8456 13.5923L0.988027 25.1497C0.922918 25.4059 1.07484 25.6621 1.32804 25.728C1.37145 25.7353 1.40762 25.7426 1.44379 25.7426ZM8.62751 18.0133H12.6209L12.2953 20.6702H8.13557L8.62751 18.0133ZM7.1734 20.6702H3.06429L3.72262 18.0133H7.66534L7.1734 20.6702ZM32.8264 20.6702H28.7173L28.2254 18.0133H32.1681L32.8264 20.6702ZM27.7624 20.6702H23.6026L23.2771 18.0133H27.2705L27.7624 20.6702ZM20.6148 24.7911H18.4228V21.6218H22.7779L23.1686 24.7911H20.6148ZM12.7294 24.7911L13.12 21.6218H17.4751V24.7911H12.7294ZM17.4751 20.6702H13.2358L13.5613 18.0133H17.4679V20.6702H17.4751ZM18.4156 18.0133H22.3222L22.6477 20.6702H18.4084L18.4156 18.0133ZM23.7184 21.6218H27.936L28.522 24.7911H24.109L23.7184 21.6218ZM23.1541 17.0617L22.7996 14.1852H26.5543L27.0896 17.0617H23.1541ZM22.2064 17.0617H18.4156V14.1852H21.8519L22.2064 17.0617ZM17.4751 17.0617H13.6843L14.0388 14.1852H17.4751V17.0617ZM12.7366 17.0617H8.80114L9.33648 14.1852H13.0911L12.7366 17.0617ZM12.1723 21.6218L11.7817 24.7911H7.36873L7.95471 21.6218H12.1723ZM11.4344 33.3695V32.2569H24.4563V33.3695H11.4344ZM24.4563 31.3054H11.4344V30.1929H24.4563V31.3054ZM20.1374 29.2413H15.7461V25.7353H20.1374V29.2413ZM29.4769 24.7911L28.8909 21.6218H33.0579L33.8393 24.7911H29.4769ZM31.9294 17.0617H28.0445L27.5092 14.1852H31.2132L31.9294 17.0617ZM4.67032 14.1779H8.37431L7.83897 17.0544H3.96135L4.67032 14.1779ZM2.83279 21.6218H6.99978L6.4138 24.7911H2.05148L2.83279 21.6218Z" stroke="#FF9400" stroke-width="0.6" mask="url(#path-10-outside-1_586_2184)"/>
</svg>
