<svg width="26" height="36" viewBox="0 0 26 36" fill="none" xmlns="http://www.w3.org/2000/svg">
<path d="M12.5265 35.79C9.03697 35.79 6.07714 34.5743 3.647 32.143C1.21567 29.7129 0 26.753 0 23.2635C0 21.295 0.342987 19.5127 1.02896 17.9165C1.71494 16.3214 3.04215 14.5099 5.0106 12.4818C7.00888 10.4238 8.17921 8.59676 8.5216 7.00052C8.86518 5.40548 9.00715 3.07197 8.9475 0C13.63 2.71407 17.4846 6.14395 20.5112 10.2896C23.5391 14.4353 25.053 18.7599 25.053 23.2635C25.053 26.753 23.8373 29.7129 21.406 32.143C18.9759 34.5743 16.016 35.79 12.5265 35.79ZM12.5265 32.211C13.1528 32.211 13.7642 31.9646 14.3607 31.4719C14.9572 30.9804 15.2555 30.1978 15.2555 29.1241C15.2555 28.4083 15.0545 27.5732 14.6524 26.6188C14.2492 25.6644 13.5406 24.5161 12.5265 23.174C11.5721 24.4267 10.8939 25.5451 10.4918 26.5293C10.0886 27.5136 9.88699 28.3785 9.88699 29.1241C9.88699 30.168 10.1703 30.9434 10.737 31.4505C11.3037 31.9575 11.9002 32.211 12.5265 32.211ZM6.30799 29.7057C6.15886 27.8566 6.62115 25.9776 7.69485 24.0688C8.76855 22.16 9.94664 20.5196 11.2291 19.1476C11.4081 18.9389 11.6097 18.7897 11.834 18.7003C12.0571 18.6108 12.2879 18.5661 12.5265 18.5661C12.7651 18.5661 12.9965 18.6108 13.2208 18.7003C13.4439 18.7897 13.6449 18.9389 13.8239 19.1476C14.0028 19.3266 14.3685 19.7364 14.9209 20.377C15.472 21.0189 16.0387 21.8092 16.6209 22.7481C17.2019 23.6882 17.716 24.7476 18.1634 25.9263C18.6108 27.1038 18.8196 28.3487 18.7897 29.661C19.6248 28.8557 20.281 27.9013 20.7582 26.7978C21.2354 25.6942 21.474 24.5161 21.474 23.2635C21.474 21.4442 21.1907 19.7292 20.624 18.1187C20.0573 16.5081 19.3266 15.002 18.4319 13.6002C17.5371 12.1984 16.5529 10.9231 15.4792 9.77425C14.4055 8.62658 13.3467 7.62029 12.3028 6.75536C11.9151 8.72381 11.2369 10.3713 10.2682 11.698C9.29824 13.0258 8.33609 14.1967 7.38169 15.2107C5.86061 16.7617 4.84656 18.1187 4.33954 19.2819C3.83251 20.445 3.579 21.7722 3.579 23.2635C3.579 24.5161 3.8176 25.6942 4.2948 26.7978C4.772 27.9013 5.44306 28.8706 6.30799 29.7057Z" fill="#FF9400"/>
</svg>
