<svg width="25" height="24" viewBox="0 0 25 24" fill="none" xmlns="http://www.w3.org/2000/svg">
<g id="icon">
<g id="Icon">
<path d="M16.2811 21C16.0589 21.8444 15.5923 22.5556 14.8813 23.1333C14.1703 23.7111 13.3482 24 12.415 24C11.3041 24 10.3598 23.6164 9.58211 22.8493C8.80446 22.0822 8.41563 21.1547 8.41563 20.0667C8.41563 19.5556 8.51561 19.0609 8.71558 18.5827C8.91555 18.1044 9.20439 17.6769 9.58211 17.3L11.1152 15.8333L9.2155 13.9333L7.71574 15.4333C7.07139 16.0778 6.58258 16.7889 6.2493 17.5667C5.91602 18.3444 5.74938 19.1778 5.74938 20.0667C5.74938 20.7778 5.85514 21.4498 6.06666 22.0827C6.27818 22.7156 6.57236 23.2991 6.94919 23.8333C5.39388 22.9 4.13852 21.6276 3.18311 20.016C2.2277 18.4044 1.75 16.6213 1.75 14.6667C1.75 13.4444 1.91131 12.3 2.23392 11.2333C2.55654 10.1667 2.98403 9.16667 3.51639 8.23333L16.2811 21ZM22.0802 19.2L6.88253 4C8.26009 2.68889 9.52656 1.69422 10.6819 1.016L12.415 0V4.4C12.415 5.22222 12.6927 5.87244 13.2482 6.35067C13.8037 6.82889 14.4258 7.06756 15.1146 7.06667C15.4923 7.06667 15.8536 6.98889 16.1984 6.83333C16.5433 6.67778 16.8596 6.42222 17.1476 6.06667L17.7475 5.33333C19.3473 6.26667 20.6359 7.56133 21.6136 9.21733C22.5912 10.8733 23.08 12.6898 23.08 14.6667C23.08 15.4889 22.9911 16.2778 22.8134 17.0333C22.6356 17.7889 22.3912 18.5111 22.0802 19.2Z" fill="#C00011"/>
<path d="M22.2625 23.202C21.5605 23.9039 20.4988 23.5976 19.75 22.8493C12.8606 15.9649 13.8018 16.9375 2.98117 6.12211C2.20805 5.34936 2.14098 4.28972 2.78584 3.64486C3.4307 3 4.49981 3.11629 5.25 3.86386L22.0277 20.6089C22.8016 21.38 22.9645 22.5 22.2625 23.202Z" fill="#C00011"/>
</g>
</g>
</svg>
