<svg width="25" height="24" viewBox="0 0 25 24" fill="none" xmlns="http://www.w3.org/2000/svg">
<g id="icon">
<path id="Icon" d="M7.84531 12.4982H1.25C0.8375 12.4982 0.5 12.8357 0.5 13.2482V14.7482C0.5 15.1607 0.8375 15.4982 1.25 15.4982H7.91562C8.66094 15.4982 9.35938 16.0092 9.48125 16.7451C9.63594 17.6826 8.91406 18.4982 8 18.4982C7.33906 18.4982 6.77656 18.067 6.575 17.4717C6.47656 17.1763 6.17188 16.9982 5.8625 16.9982H4.325C3.86562 16.9982 3.49531 17.4107 3.57969 17.8607C3.98281 19.9279 5.81094 21.4982 7.99531 21.4982C10.6719 21.4982 12.8094 19.1498 12.4578 16.4076C12.1719 14.1388 10.1281 12.4982 7.84531 12.4982ZM1.25 10.9982H17C19.7984 10.9982 22.0062 8.42947 21.3969 5.5279C21.0406 3.83103 19.6672 2.45759 17.9703 2.10134C15.3734 1.55759 13.0437 3.26853 12.5844 5.6404C12.4953 6.0904 12.8703 6.49821 13.325 6.49821H14.8625C15.1766 6.49821 15.4766 6.32009 15.575 6.02478C15.7766 5.42946 16.3391 4.99821 17 4.99821C17.9094 4.99821 18.6359 5.81384 18.4813 6.75134C18.3594 7.48728 17.6656 7.99821 16.9156 7.99821H1.25C0.8375 7.99821 0.5 8.33571 0.5 8.74821V10.2482C0.5 10.6607 0.8375 10.9982 1.25 10.9982ZM19.25 12.4982H11.9234C12.8281 13.2763 13.4797 14.317 13.7891 15.4982H19.25C20.4922 15.4982 21.5 16.506 21.5 17.7482C21.5 18.9904 20.4922 19.9982 19.25 19.9982C18.4109 19.9982 17.6891 19.5342 17.3 18.8545C17.1641 18.6201 16.8922 18.4982 16.6203 18.4982H15.0359C14.525 18.4982 14.1453 19.0045 14.3187 19.4873C15.1531 21.8592 17.6234 23.4623 20.3844 22.8763C22.3156 22.4685 23.9047 20.9263 24.3547 18.9998C25.1562 15.5685 22.5547 12.4982 19.25 12.4982Z" fill="#FF9400"/>
</g>
</svg>
