<svg width="18" height="20" viewBox="0 0 18 20" fill="none" xmlns="http://www.w3.org/2000/svg">
<path d="M6.56455 16.1379C6.56455 16.9037 6.69584 17.6258 6.93654 18.326H6.56455C2.94311 18.326 0 15.3829 0 11.7615C0 7.38512 6.56455 0 6.56455 0C6.56455 0 11.2801 5.30635 12.7133 9.5733C9.29978 9.814 6.56455 12.6586 6.56455 16.1379ZM17.0022 13.8184L15.4595 12.2757L13.1291 14.5952L10.8096 12.2757L9.26696 13.8184L11.5864 16.1379L9.26696 18.4573L10.8096 20L13.1291 17.6805L15.4486 20L16.9912 18.4573L14.6718 16.1379L17.0022 13.8184Z" fill="#FF9400"/>
</svg>
