<svg width="20" height="20" viewBox="0 0 20 20" fill="none" xmlns="http://www.w3.org/2000/svg">
<path fill-rule="evenodd" clip-rule="evenodd" d="M6.00439 8.05859C6.00439 11.4279 10.5864 11.2438 10.5864 8.3742C10.5864 6.1499 8.15881 5.3269 6.76207 6.60425C6.5204 6.82554 6.00439 7.68002 6.00439 8.05859Z" fill="#FF9400"/>
<path fill-rule="evenodd" clip-rule="evenodd" d="M7.58456 1.10595C7.04112 0.741997 6.94732 0.325541 6.32002 0.158333L5.49414 0.912084C6.93687 3.01633 7.61538 1.79504 7.57528 4.43751C7.55372 5.843 7.48671 5.37232 8.37437 5.37232C9.01095 5.37232 9.0133 5.89304 9.0197 4.60289C9.03368 1.56618 9.60795 3.11719 11.0605 0.948142L10.3063 0.122274C9.64348 0.325541 9.54969 0.741997 9.00625 1.10595V0H7.58456V1.10595Z" fill="#FF9400"/>
<path fill-rule="evenodd" clip-rule="evenodd" d="M0.122274 6.28438C0.325541 6.94721 0.741997 7.04101 1.10607 7.58432H0V9.00666H1.10607L0.125796 10.0813L0.979098 11.0312C1.53652 10.6661 2.59296 9.27629 3.07996 9.08412C4.15508 8.65891 5.42602 9.63044 5.48716 8.4644C5.48767 8.45278 5.46965 8.16041 5.47135 8.1092C5.47135 8.10162 5.52321 7.67053 5.53026 7.58432C5.00015 7.58432 4.46664 7.59542 3.93901 7.59542C2.12006 7.59542 2.82888 6.78993 0.948143 5.53009L0.122274 6.28438Z" fill="#FF9400"/>
<path fill-rule="evenodd" clip-rule="evenodd" d="M1.10596 11.8508V12.7984H2.68611C2.35874 13.2871 2.21309 13.1497 2.0541 13.7467L2.80786 14.5725L3.76241 13.7157L3.79206 15.4846H5.05594V12.6406C5.05594 12.0988 6.32401 11.2107 6.6361 10.7447L5.88194 9.91882C5.2971 10.322 4.62211 11.2393 3.93654 11.3632C3.14908 11.506 1.10596 10.9638 1.10596 11.8508Z" fill="#FF9400"/>
<path fill-rule="evenodd" clip-rule="evenodd" d="M3.79213 2.84404L2.87363 2.0234L2.01812 2.80851C2.21315 3.44157 2.3588 3.30348 2.68618 3.79219H1.10602C1.10602 5.79873 0.875973 5.05607 3.63432 5.05607C4.59187 5.05607 5.17776 6.18893 5.84583 6.63622L6.67234 5.88194C5.05144 3.54463 5.05601 6.12662 5.05601 1.10596H3.79213V2.84404Z" fill="#FF9400"/>
<path fill-rule="evenodd" clip-rule="evenodd" d="M5.53027 15.6424L6.44877 16.4637L7.55301 15.4526L7.5845 16.5907H9.00619V15.4846C9.4949 15.8119 9.35747 15.9575 9.95447 16.1165C9.95447 14.1496 10.1869 14.8684 9.2736 13.7955C8.7977 13.2369 9.00619 12.3691 9.00619 11.0604C7.40513 11.1938 7.82447 10.8076 7.61768 11.3994C7.47907 11.7972 7.68 12.9038 7.54609 13.3925C7.36726 14.0425 5.97992 14.9708 5.53027 15.6424Z" fill="#FF9400"/>
<path fill-rule="evenodd" clip-rule="evenodd" d="M11.5345 3.94999C11.5345 4.49224 10.2659 5.38043 9.95435 5.8464L10.775 6.76489C13.1606 5.18945 10.6538 2.15259 12.7984 1.58016V1.10596H11.5345V3.94999Z" fill="#FF9400"/>
<path fill-rule="evenodd" clip-rule="evenodd" d="M9.91772 10.7081L11.4245 12.2172C11.8834 12.2684 11.8502 11.6982 11.8502 11.3767C11.8502 10.5333 11.2765 10.3551 10.9026 9.79651L9.91772 10.7081Z" fill="#FF9400"/>
<path fill-rule="evenodd" clip-rule="evenodd" d="M11.2185 9.00669C11.6646 8.96946 11.8504 9.01021 11.8504 8.53262V8.05855C11.8504 7.58095 11.6646 7.62171 11.2185 7.58435V9.00669Z" fill="#FF9400"/>
<path fill-rule="evenodd" clip-rule="evenodd" d="M6.00439 8.05859C6.00439 11.4279 10.5864 11.2438 10.5864 8.3742C10.5864 6.1499 8.15881 5.3269 6.76207 6.60425C6.5204 6.82554 6.00439 7.68002 6.00439 8.05859Z" fill="#FF9400"/>
<path fill-rule="evenodd" clip-rule="evenodd" d="M17.9196 11.9456V3.97383C17.9196 2.5094 16.7481 1.41107 15.2836 1.41107C13.8192 1.41107 12.6477 2.58262 12.6477 3.97383V11.9456C11.4761 12.7511 10.7439 14.1423 10.7439 15.5335C10.7439 17.9498 12.7209 20 15.1372 20C17.6267 20 19.6037 18.023 19.6037 15.5335C19.6769 14.0691 19.0179 12.7511 17.9196 11.9456ZM15.2104 18.7553C13.4531 18.7553 12.0619 17.2908 12.0619 15.5335C12.0619 14.8745 12.2816 14.2155 12.6477 13.703H14.9907C15.1372 13.703 15.2836 13.5565 15.2836 13.4101C15.2836 13.2636 15.1372 13.1172 14.9907 13.1172H13.3066C13.4531 13.0439 13.5263 12.9707 13.6727 12.8975L13.9656 12.7511V11.8724L15.064 11.8724C15.2104 11.8724 15.3569 11.726 15.3569 11.5795C15.3569 11.4331 15.2104 11.2866 15.064 11.2866L13.9656 11.2866V10.7009H15.064C15.2104 10.7009 15.3569 10.5544 15.3569 10.408C15.3569 10.2615 15.2104 10.1151 15.064 10.1151L13.9656 10.1151V9.38289H15.064C15.2104 9.38289 15.3569 9.23644 15.3569 9.09C15.3569 8.94355 15.2104 8.7971 15.064 8.7971L13.9656 8.79711V8.21134H15.064C15.2104 8.21134 15.3569 8.06489 15.3569 7.91846C15.3569 7.77201 15.2104 7.62556 15.064 7.62556L13.9656 7.62557V6.89335H15.064C15.2104 6.89335 15.3569 6.74691 15.3569 6.60046C15.3569 6.45401 15.2104 6.30757 15.064 6.30757L13.9656 6.30759V3.97383C13.9656 3.24162 14.6246 2.58262 15.3569 2.58262C16.0891 2.58262 16.7481 3.16839 16.7481 3.97383V12.6779L17.041 12.8243C17.9928 13.4101 18.5054 14.362 18.5054 15.5335C18.4322 17.2908 16.9677 18.7553 15.2104 18.7553Z" fill="#FF9400"/>
<path fill-rule="evenodd" clip-rule="evenodd" d="M13.2336 15.0942C13.1604 15.3138 13.0872 15.5335 13.0872 15.7532C13.0872 16.9247 14.039 17.8766 15.2106 17.8766C16.3821 17.8766 17.334 16.9247 17.334 15.7532C17.334 15.5335 17.2608 15.3138 17.1876 15.0942C17.2608 15.0942 13.2336 15.0942 13.2336 15.0942Z" fill="#FF9400"/>
</svg>
