<svg width="20" height="20" viewBox="0 0 20 20" fill="none" xmlns="http://www.w3.org/2000/svg">
<path fill-rule="evenodd" clip-rule="evenodd" d="M3.5564 8.11402C3.5564 9.72418 4.02938 10.8012 5.19439 11.8358C7.97625 14.3053 11.9064 12.1447 11.9064 11.163V5.52214C11.9064 4.83514 10.4552 4.05751 9.88193 3.85872C6.78777 2.78505 3.5564 5.14209 3.5564 8.11402Z" fill="#FF9400"/>
<path fill-rule="evenodd" clip-rule="evenodd" d="M0 8.11391C0.265337 9.23719 1.61518 9.82562 3.09316 9.48625C3.05224 9.00896 2.89055 8.92991 2.89055 8.28392C2.89055 7.63793 3.06632 7.73585 3.09316 7.0462C2.36188 6.98633 1.2965 6.64333 0 8.11391Z" fill="#FF9400"/>
<path fill-rule="evenodd" clip-rule="evenodd" d="M10.979 3.84406C11.3802 3.94991 11.5392 4.11033 11.9065 4.30184C11.9065 3.37503 11.9122 3.09753 12.2161 2.47205C11.9048 2.55407 11.6268 2.70788 11.4215 2.90832C10.9921 3.32674 11.0102 3.47459 10.979 3.84406Z" fill="#FF9400"/>
<path fill-rule="evenodd" clip-rule="evenodd" d="M17.9892 12.0394V4.16032C17.9892 2.71293 16.8149 1.62738 15.3471 1.62738C13.8792 1.62738 12.7049 2.7853 12.7049 4.16032V12.0394C11.5306 12.8354 10.7966 14.2105 10.7966 15.5855C10.7966 17.9737 12.7783 20 15.2003 20C17.6957 20 19.6773 18.046 19.6773 15.5855C19.7507 14.1381 19.0901 12.8354 17.9892 12.0394ZM15.2737 18.7697C13.5122 18.7697 12.1177 17.3224 12.1177 15.5855C12.1177 14.9342 12.3379 14.2828 12.7049 13.7762H15.0535C15.2003 13.7762 15.3471 13.6315 15.3471 13.4868C15.3471 13.342 15.2003 13.1973 15.0535 13.1973H13.3654C13.5122 13.1249 13.5856 13.0525 13.7324 12.9802L14.026 12.8354V11.967L15.1269 11.967C15.2737 11.967 15.4204 11.8223 15.4204 11.6775C15.4204 11.5328 15.2737 11.388 15.1269 11.388L14.026 11.388V10.8091H15.1269C15.2737 10.8091 15.4204 10.6644 15.4204 10.5196C15.4204 10.3749 15.2737 10.2301 15.1269 10.2301L14.026 10.2301V9.50644H15.1269C15.2737 9.50644 15.4204 9.3617 15.4204 9.21695C15.4204 9.07221 15.2737 8.92747 15.1269 8.92747L14.026 8.92748V8.34852H15.1269C15.2737 8.34852 15.4204 8.20378 15.4204 8.05905C15.4204 7.9143 15.2737 7.76956 15.1269 7.76956L14.026 7.76957V7.04587H15.1269C15.2737 7.04587 15.4204 6.90113 15.4204 6.75638C15.4204 6.61164 15.2737 6.46691 15.1269 6.46691L14.026 6.46692V4.16032C14.026 3.43663 14.6865 2.7853 15.4204 2.7853C16.1544 2.7853 16.8149 3.36425 16.8149 4.16032V12.7631L17.1085 12.9078C18.0626 13.4868 18.5764 14.4276 18.5764 15.5855C18.503 17.3224 17.0351 18.7697 15.2737 18.7697Z" fill="#FF9400"/>
<path fill-rule="evenodd" clip-rule="evenodd" d="M13.2921 15.1512C13.2187 15.3684 13.1453 15.5855 13.1453 15.8026C13.1453 16.9605 14.0994 17.9013 15.2737 17.9013C16.448 17.9013 17.4021 16.9605 17.4021 15.8026C17.4021 15.5855 17.3287 15.3684 17.2553 15.1512C17.3287 15.1512 13.2921 15.1512 13.2921 15.1512Z" fill="#FF9400"/>
<path fill-rule="evenodd" clip-rule="evenodd" d="M2.81928 2.02718C2.13859 2.9651 2.58118 4.3534 3.81522 5.22426C4.15185 4.87892 4.10537 4.70697 4.59754 4.28061C5.0897 3.85426 5.13113 4.04908 5.67428 3.61379C5.23724 3.03257 4.7954 2.01698 2.81928 2.02718Z" fill="#FF9400"/>
<path fill-rule="evenodd" clip-rule="evenodd" d="M8.76637 0C7.62719 0.261633 7.03043 1.59263 7.37459 3.04999C7.85865 3.00963 7.93882 2.8502 8.59395 2.8502C9.24907 2.8502 9.14979 3.02352 9.8492 3.04999C9.9099 2.32891 10.2578 1.27841 8.76637 0Z" fill="#FF9400"/>
<path fill-rule="evenodd" clip-rule="evenodd" d="M8.14433 16.5C9.28351 16.2384 9.88027 14.9074 9.53611 13.45C9.05205 13.4904 8.97188 13.6498 8.31675 13.6498C7.66163 13.6498 7.76091 13.4765 7.06151 13.45C7.0008 14.1711 6.65293 15.2216 8.14433 16.5Z" fill="#FF9400"/>
<path fill-rule="evenodd" clip-rule="evenodd" d="M2.75336 14.4879C2.07267 13.55 2.51526 12.1617 3.7493 11.2908C4.08593 11.6362 4.03945 11.8081 4.53162 12.2345C5.02379 12.6608 5.06521 12.466 5.60836 12.9013C5.17132 13.4825 4.72948 14.4981 2.75336 14.4879Z" fill="#FF9400"/>
</svg>
