<?xml version="1.0" encoding="UTF-8"?>
<svg xmlns="http://www.w3.org/2000/svg" xml:space="preserve" width="100" height="100" version="1.1" viewBox="0 0 10000 10000">
 <g id="Camada_x0020_1">
  <g id="_1328529647712">
   <path class="fil0" d="M9968.45 7679.92l-527.1 83.23c-10.57,36.99 -29.06,77.95 -55.48,122.85 -26.42,44.94 -51.53,81.91 -75.31,110.97l225.91 491.45 -792.62 447.84 -324.98 -447.84c-13.21,2.64 -32.39,3.96 -57.46,3.96l-118.9 0c-22.47,0 -42.93,-1.32 -61.44,-3.96l-332.89 447.84 -784.71 -447.84 225.91 -499.36c-18.52,-26.42 -40.95,-62.1 -67.38,-107.01 -26.42,-44.91 -44.93,-84.54 -55.48,-118.9l-539 -83.23 0 -883.78 535.02 -79.26c10.57,-39.64 29.06,-81.25 55.48,-124.84 26.42,-43.59 50.21,-79.92 71.36,-108.98l-225.91 -499.37 784.71 -443.85 320.99 455.75c21.15,-2.64 43.62,-5.94 67.38,-9.92 23.78,-3.95 44.93,-5.93 63.42,-5.93 18.51,0 38.97,1.98 61.44,5.93 22.44,3.98 42.93,7.28 61.41,9.92l321.03 -455.75 792.62 451.79 -225.91 491.43c23.78,29.06 49.55,66.71 77.29,112.94 27.74,46.25 45.56,85.23 53.5,116.92l527.1 83.22 0 883.78zm-1165.17 -435.94c0,-140.02 -48.86,-258.92 -146.64,-356.67 -97.75,-97.76 -216.65,-146.65 -356.67,-146.65 -137.39,0 -255.63,48.89 -354.7,146.65 -99.07,97.75 -148.62,216.65 -148.62,356.67 0,142.69 49.55,262.22 148.62,358.65 99.07,96.47 217.31,144.67 354.7,144.67 140.02,0 258.92,-48.2 356.67,-144.67 97.78,-96.43 146.64,-215.96 146.64,-358.65l0 0z"/>
   <path class="fil0" d="M7647.27 5301.86c-131.64,0 -261.34,-50.33 -362.01,-151 -1382.21,-1380.27 -3627.83,-1380.27 -5010.05,0 -199.39,199.4 -524.61,199.4 -724.02,0 -199.4,-199.39 -199.39,-524.62 0,-724.02 1781,-1781 4677.08,-1781 6458.08,0 199.4,199.39 199.4,524.62 0,724.02 -100.65,100.66 -232.29,151 -362,151zm-1386.08 1384.15c-131.64,0 -261.34,-50.33 -362.01,-150.99 -298.13,-298.13 -696.91,-462.68 -1118.94,-462.68 -422.03,0 -820.82,164.55 -1118.95,462.68 -199.39,199.38 -524.62,199.38 -724.02,0 -199.39,-199.4 -199.39,-524.62 0,-724.03 491.71,-491.71 1146.04,-762.73 1842.96,-762.73 696.91,0 1351.24,271.02 1842.94,764.68 199.4,199.39 199.4,524.62 0,724.02 -98.7,98.71 -230.33,149.05 -361.98,149.05zm-797.58 969.87c0,-377.42 -305.95,-683.37 -683.36,-683.37 -377.42,0 -683.36,305.95 -683.36,683.37 0,377.41 305.94,683.36 683.36,683.36 377.41,0 683.36,-305.95 683.36,-683.36zm3591.05 -3761.39c-131.64,0 -261.34,-50.33 -362.01,-151 -2158.49,-2156.57 -5666.31,-2156.57 -7822.87,0 -199.4,199.39 -524.62,199.39 -724.03,0 -199.4,-199.4 -199.39,-524.62 0,-724.03 1238.97,-1238.95 2884.46,-1920.38 4636.43,-1920.38 1751.98,0 3397.46,681.43 4636.43,1920.38 199.39,199.4 199.39,524.63 0,724.03 -102.6,100.66 -234.25,151 -363.95,151z"/>
  </g>
 </g>
</svg>
