<svg width="12" height="12" viewBox="0 0 12 12" fill="none" xmlns="http://www.w3.org/2000/svg">
<path d="M10.7055 12.0005L8.77091 10.0659L7.86909 9.16412C7.77212 9.53261 7.56848 9.84291 7.25818 10.095C6.94788 10.3472 6.58909 10.4732 6.18182 10.4732C5.69697 10.4732 5.28485 10.3058 4.94545 9.97111C4.60606 9.63637 4.43636 9.23162 4.43636 8.75685C4.43636 8.53382 4.48 8.31797 4.56727 8.10929C4.65455 7.90061 4.78061 7.71404 4.94545 7.54958L5.61454 6.90958L4.78545 6.08049L4.13091 6.73503C3.8497 7.01625 3.63636 7.32655 3.49091 7.66594C3.34545 8.00534 3.27273 8.36897 3.27273 8.75685C3.27273 9.06715 3.31888 9.36039 3.4112 9.63656C3.50352 9.91273 3.6319 10.1674 3.79636 10.4005C3.11758 9.99322 2.5697 9.43797 2.15273 8.73474C1.73576 8.03152 1.52727 7.25343 1.52727 6.40049C1.52727 5.86715 1.59767 5.36776 1.73847 4.90231C1.87927 4.43685 2.06584 4.00049 2.29818 3.59322L0 1.29503L0.829091 0.465943L11.5345 11.1714L10.7055 12.0005ZM10.4 8.37867L3.76727 1.74594C4.36848 1.17382 4.92121 0.739785 5.42545 0.443834L6.18182 0.000488281V1.92049C6.18182 2.27928 6.30303 2.56301 6.54545 2.77169C6.78788 2.98037 7.05939 3.08451 7.36 3.08412C7.52485 3.08412 7.68252 3.05019 7.83302 2.98231C7.98352 2.91443 8.1216 2.80291 8.24727 2.64776L8.50909 2.32776C9.20727 2.73503 9.7697 3.29998 10.1964 4.0226C10.623 4.74522 10.8364 5.53785 10.8364 6.40049C10.8364 6.75928 10.7976 7.10352 10.72 7.43322C10.6424 7.76291 10.5358 8.07806 10.4 8.37867Z" fill="#C00011"/>
</svg>
