<svg width="12" height="12" viewBox="0 0 12 12" fill="none" xmlns="http://www.w3.org/2000/svg">
<path d="M2.94 9.00049H4.08L4.68 7.32049H7.32L7.92 9.00049H9.06L6.6 2.40049H5.4L2.94 9.00049ZM5.01 6.36049L5.97 3.63049H6.03L6.99 6.36049H5.01ZM6 12.0005C5.17 12.0005 4.39 11.8429 3.66 11.5277C2.93 11.2125 2.295 10.7851 1.755 10.2455C1.215 9.70549 0.7876 9.07049 0.4728 8.34049C0.158 7.61049 0.0004 6.83049 0 6.00049C0 5.17049 0.1576 4.39049 0.4728 3.66049C0.788 2.93049 1.2154 2.29549 1.755 1.75549C2.295 1.21549 2.93 0.788088 3.66 0.473288C4.39 0.158488 5.17 0.000888281 6 0.000488281C6.83 0.000488281 7.61 0.158088 8.34 0.473288C9.07 0.788488 9.705 1.21589 10.245 1.75549C10.785 2.29549 11.2126 2.93049 11.5278 3.66049C11.843 4.39049 12.0004 5.17049 12 6.00049C12 6.83049 11.8424 7.61049 11.5272 8.34049C11.212 9.07049 10.7846 9.70549 10.245 10.2455C9.705 10.7855 9.07 11.2131 8.34 11.5283C7.61 11.8435 6.83 12.0009 6 12.0005Z" fill="#005BBD"/>
</svg>
