<svg id="calendar" xmlns="http://www.w3.org/2000/svg" width="30" height="30" viewBox="0 0 30 30">
  <g id="Grupo_135" data-name="Grupo 135">
    <g id="Grupo_134" data-name="Grupo 134">
      <circle id="Elipse_8" data-name="Elipse 8" cx="1.5" cy="1.5" r="1.5" transform="translate(20.681 10.328)" fill="#9ea1a3"/>
      <path id="Caminho_122" data-name="Caminho 122" d="M25.312,2.344H23.789V1.172a1.172,1.172,0,0,0-2.344,0V2.344H16.113V1.172a1.172,1.172,0,0,0-2.344,0V2.344H8.5V1.172a1.172,1.172,0,1,0-2.344,0V2.344H4.687A4.693,4.693,0,0,0,0,7.031V25.312A4.693,4.693,0,0,0,4.687,30h8.965a1.172,1.172,0,0,0,0-2.344H4.687a2.346,2.346,0,0,1-2.344-2.344V7.031A2.346,2.346,0,0,1,4.687,4.687H6.152V5.859a1.172,1.172,0,1,0,2.344,0V4.687H13.77V5.859a1.172,1.172,0,0,0,2.344,0V4.687h5.332V5.859a1.172,1.172,0,0,0,2.344,0V4.687h1.523a2.346,2.346,0,0,1,2.344,2.344v6.68a1.172,1.172,0,1,0,2.344,0V7.031A4.693,4.693,0,0,0,25.312,2.344Z" fill="#9ea1a3"/>
      <path id="Caminho_123" data-name="Caminho 123" d="M278.787,270a8.787,8.787,0,1,0,8.787,8.787A8.8,8.8,0,0,0,278.787,270Zm0,14.669a5.882,5.882,0,1,1,5.882-5.882A5.889,5.889,0,0,1,278.787,284.669Z" transform="translate(-257.573 -257.573)" fill="#9ea1a3"/>
      <path id="Caminho_124" data-name="Caminho 124" d="M374.558,332.977H373.9v-1.525a1.452,1.452,0,0,0-2.9,0v2.977a1.452,1.452,0,0,0,1.452,1.452h2.106a1.452,1.452,0,1,0,0-2.9Z" transform="translate(-351.239 -311.534)" fill="#9ea1a3"/>
      <circle id="Elipse_9" data-name="Elipse 9" cx="1.5" cy="1.5" r="1.5" transform="translate(15.941 10.328)" fill="#9ea1a3"/>
      <circle id="Elipse_10" data-name="Elipse 10" cx="1.5" cy="1.5" r="1.5" transform="translate(11.201 15.941)" fill="#9ea1a3"/>
      <circle id="Elipse_11" data-name="Elipse 11" cx="1.5" cy="1.5" r="1.5" transform="translate(6.462 10.328)" fill="#9ea1a3"/>
      <circle id="Elipse_12" data-name="Elipse 12" cx="1.5" cy="1.5" r="1.5" transform="translate(6.462 15.941)" fill="#9ea1a3"/>
      <circle id="Elipse_13" data-name="Elipse 13" cx="1.5" cy="1.5" r="1.5" transform="translate(6.462 20.68)" fill="#9ea1a3"/>
      <circle id="Elipse_14" data-name="Elipse 14" cx="1.5" cy="1.5" r="1.5" transform="translate(11.201 20.68)" fill="#9ea1a3"/>
      <circle id="Elipse_15" data-name="Elipse 15" cx="1.5" cy="1.5" r="1.5" transform="translate(11.201 10.328)" fill="#9ea1a3"/>
    </g>
  </g>
</svg>
