<svg width="40" height="35" viewBox="0 0 40 35" fill="none" xmlns="http://www.w3.org/2000/svg">
<path d="M24.1758 17.0574L23.2818 23.3161C23.2405 23.6038 22.8881 23.7218 22.6821 23.5158L22.0513 22.8846L22.614 18.9456C22.6404 18.7614 22.5855 18.5749 22.4637 18.4347C22.3414 18.2934 22.165 18.2128 21.9793 18.2128C21.9489 18.2128 21.9177 18.2151 21.8878 18.2194L17.9487 18.782L17.3179 18.1512C17.1119 17.9452 17.2291 17.5925 17.5177 17.5516L23.7763 16.6575C24.0095 16.6241 24.2093 16.8242 24.1758 17.0574ZM18.9627 24.9803L18.9471 25.0189C18.8716 25.2073 18.6527 25.2957 18.4697 25.2093C16.7027 24.3744 15.8818 22.9462 15.5832 22.2904C15.4987 22.1047 15.5882 21.8866 15.779 21.8134L15.8176 21.7982C15.9959 21.7301 16.1933 21.8161 16.2704 21.9906C16.9281 23.4839 18.2092 24.2483 18.7906 24.5306C18.9572 24.6116 19.0316 24.8082 18.9627 24.9803ZM21.9282 18.5052C21.9458 18.5025 21.9625 18.5013 21.9793 18.5013C22.1899 18.5013 22.3593 18.689 22.3281 18.9047L21.4345 25.1633C21.4298 25.1956 21.4197 25.2248 21.408 25.2525C21.4053 25.2591 21.4026 25.2657 21.3995 25.272C21.3862 25.2981 21.3714 25.3226 21.3527 25.344C21.3516 25.3456 21.3496 25.3471 21.3477 25.3487C21.3301 25.3685 21.3103 25.3853 21.2889 25.4005C21.2834 25.404 21.2784 25.4079 21.2729 25.4114C21.2492 25.4262 21.2246 25.4386 21.1989 25.4472C21.195 25.4484 21.1915 25.4491 21.1876 25.4503C21.1643 25.4577 21.1401 25.462 21.1152 25.4643C21.109 25.4647 21.1027 25.4659 21.0965 25.4659C21.0685 25.4671 21.0404 25.4655 21.0124 25.4596C21.0081 25.4589 21.0042 25.4573 21.0003 25.4561C20.9762 25.4503 20.9528 25.4413 20.9302 25.4301C20.9232 25.4266 20.9158 25.423 20.9092 25.4192C20.8831 25.404 20.8578 25.3864 20.8345 25.3635L15.4703 19.9989C15.3671 19.8957 15.3449 19.7563 15.3846 19.6371C15.4146 19.548 15.4788 19.4701 15.5699 19.428C15.6003 19.4144 15.6338 19.4043 15.67 19.3988L21.9282 18.5052ZM20 13.3333C15.8577 13.3333 12.5 16.6914 12.5 20.8333C12.5 24.9756 15.8577 28.3333 20 28.3333C24.1419 28.3333 27.5 24.9756 27.5 20.8333C27.5 16.6914 24.1419 13.3333 20 13.3333Z" fill="#FF9400"/>
<path d="M19.9948 0L0 17.9702H5.3692V34.1667H17.8672L17.8524 33.2629L15.1676 30.566H9.038V14.7395L20 5.03345L30.962 14.7395V30.566H24.8324L22.1476 33.2629L22.1328 34.1667H34.6308V17.9702H40L20.0052 0H19.9948Z" fill="#FF9400"/>
</svg>
