<svg width="104" height="104" viewBox="0 0 104 104" fill="none" xmlns="http://www.w3.org/2000/svg">
<path fill-rule="evenodd" clip-rule="evenodd" d="M52 0C23.2818 0 0 23.2818 0 52C0 80.7182 23.2818 104 52 104C80.7182 104 104 80.7182 104 52C104 23.2818 80.7182 0 52 0ZM74.5396 43.2073C74.9547 42.7329 75.2706 42.1802 75.4689 41.5819C75.6673 40.9835 75.7439 40.3516 75.6944 39.7232C75.6448 39.0948 75.4701 38.4827 75.1805 37.9228C74.8909 37.3629 74.4923 36.8666 74.008 36.4631C73.5238 36.0595 72.9637 35.7569 72.3608 35.573C71.7579 35.3891 71.1243 35.3277 70.4973 35.3923C69.8702 35.4569 69.2625 35.6462 68.7097 35.9492C68.1569 36.2521 67.6703 36.6626 67.2785 37.1564L46.9513 61.5444L36.4331 51.0215C35.5415 50.1603 34.3474 49.6839 33.1079 49.6946C31.8684 49.7054 30.6828 50.2026 29.8063 51.079C28.9298 51.9555 28.4327 53.1412 28.4219 54.3806C28.4111 55.6201 28.8876 56.8142 29.7487 57.7058L43.9305 71.8876C44.395 72.3518 44.9511 72.7142 45.5634 72.9516C46.1757 73.1889 46.8307 73.2961 47.4867 73.2663C48.1427 73.2365 48.7853 73.0704 49.3736 72.7785C49.9618 72.4866 50.4828 72.0753 50.9033 71.5709L74.5396 43.2073Z" fill="white"/>
</svg>
