<svg xmlns="http://www.w3.org/2000/svg" width="34.97" height="35.718" viewBox="0 0 34.97 35.718">
  <g id="shines" transform="translate(-4.679 1)">
    <g id="Grupo_312" data-name="Grupo 312" transform="translate(5.679)">
      <g id="Grupo_311" data-name="Grupo 311">
        <path id="Caminho_277" data-name="Caminho 277" d="M24.939,9A10.523,10.523,0,0,1,16.8.861a1.084,1.084,0,0,0-2.121,0A10.522,10.522,0,0,1,6.54,9a1.084,1.084,0,0,0,0,2.121,10.523,10.523,0,0,1,8.139,8.139,1.084,1.084,0,0,0,2.121,0,10.522,10.522,0,0,1,8.139-8.139,1.084,1.084,0,0,0,0-2.121Z" transform="translate(-5.679)" fill="none" stroke="#fff" stroke-width="2"/>
      </g>
    </g>
    <g id="Grupo_314" data-name="Grupo 314" transform="translate(12.496 22.205)">
      <g id="Grupo_313" data-name="Grupo 313">
        <path id="Caminho_278" data-name="Caminho 278" d="M119.844,341.872a4.958,4.958,0,0,1-3.835-3.835,1.084,1.084,0,0,0-2.121,0,4.958,4.958,0,0,1-3.835,3.835,1.084,1.084,0,0,0,0,2.121,4.958,4.958,0,0,1,3.835,3.835,1.084,1.084,0,0,0,2.121,0,4.958,4.958,0,0,1,3.835-3.835,1.084,1.084,0,0,0,0-2.121Z" transform="translate(-109.192 -337.176)" fill="none" stroke="#fff" stroke-width="2"/>
      </g>
    </g>
    <g id="Grupo_316" data-name="Grupo 316" transform="translate(24.439 10.824)">
      <g id="Grupo_315" data-name="Grupo 315">
        <path id="Caminho_279" data-name="Caminho 279" d="M303.9,170.4a6.7,6.7,0,0,1-5.183-5.183,1.084,1.084,0,0,0-2.121,0,6.7,6.7,0,0,1-5.183,5.183,1.084,1.084,0,0,0,0,2.121,6.7,6.7,0,0,1,5.183,5.183,1.084,1.084,0,0,0,2.121,0,6.7,6.7,0,0,1,5.183-5.183,1.084,1.084,0,0,0,0-2.121Z" transform="translate(-290.547 -164.351)" fill="none" stroke="#fff" stroke-width="2"/>
      </g>
    </g>
  </g>
</svg>
