<svg width="25" height="24" viewBox="0 0 25 24" fill="none" xmlns="http://www.w3.org/2000/svg">
<g id="icon-left">
<path id="Icon" d="M5.95455 13.0909H1.59091C0.936364 13.0909 0.5 13.5273 0.5 14.1818V22.9091C0.5 23.5636 0.936364 24 1.59091 24H5.95455C6.60909 24 7.04545 23.5636 7.04545 22.9091V14.1818C7.04545 13.5273 6.60909 13.0909 5.95455 13.0909ZM23.4091 8.72727H19.0455C18.3909 8.72727 17.9545 9.16364 17.9545 9.81818V22.9091C17.9545 23.5636 18.3909 24 19.0455 24H23.4091C24.0636 24 24.5 23.5636 24.5 22.9091V9.81818C24.5 9.16364 24.0636 8.72727 23.4091 8.72727ZM14.6818 0H10.3182C9.66364 0 9.22727 0.436364 9.22727 1.09091V22.9091C9.22727 23.5636 9.66364 24 10.3182 24H14.6818C15.3364 24 15.7727 23.5636 15.7727 22.9091V1.09091C15.7727 0.436364 15.3364 0 14.6818 0Z" fill="white"/>
</g>
</svg>
