<svg width="18" height="18" viewBox="0 0 18 18" fill="none" xmlns="http://www.w3.org/2000/svg">
<g id="icon" clip-path="url(#clip0_3296_33038)">
<g id="Icon">
<path fill-rule="evenodd" clip-rule="evenodd" d="M9.60059 9.75491V2.79843C9.60059 2.08063 9.35632 1.30028 8.84875 0.792714C8.34119 0.285148 7.69339 0 6.97559 0C6.25778 0 5.52876 0.285148 5.02119 0.792714C4.51362 1.30028 4.35059 2.08063 4.35059 2.79843V9.75C3.74928 10.1712 3.13433 10.637 2.79041 11.2856C2.44649 11.9342 2.2613 12.6551 2.25003 13.3891C2.24559 14.6062 2.72429 15.7753 3.58103 16.6398C4.43777 17.5043 5.60253 17.9934 6.8196 17.9999C8.04892 18.0063 9.23064 17.5251 10.1058 16.6618C10.9809 15.7984 11.4781 14.6233 11.4883 13.394C11.4997 12.67 11.338 11.9538 11.0168 11.3048C10.6955 10.6559 10.1832 10.1849 9.60059 9.75491ZM5.47559 4.5V2.79843C5.47559 1.875 6.22559 1.125 6.97559 1.125C7.72559 1.125 8.47559 1.875 8.47559 2.79843V4.5H5.47559Z" fill="#6F797A"/>
<path d="M11.1006 1.5C11.1006 1.08579 11.4364 0.75 11.8506 0.75H14.8506C15.2648 0.75 15.6006 1.08579 15.6006 1.5C15.6006 1.91421 15.2648 2.25 14.8506 2.25H11.8506C11.4364 2.25 11.1006 1.91421 11.1006 1.5Z" fill="#6F797A"/>
<path d="M11.1006 7.5C11.1006 7.08579 11.4364 6.75 11.8506 6.75H14.8506C15.2648 6.75 15.6006 7.08579 15.6006 7.5C15.6006 7.91421 15.2648 8.25 14.8506 8.25H11.8506C11.4364 8.25 11.1006 7.91421 11.1006 7.5Z" fill="#6F797A"/>
<path d="M11.1006 4.5C11.1006 4.08579 11.4364 3.75 11.8506 3.75H14.8506C15.2648 3.75 15.6006 4.08579 15.6006 4.5C15.6006 4.91421 15.2648 5.25 14.8506 5.25H11.8506C11.4364 5.25 11.1006 4.91421 11.1006 4.5Z" fill="#6F797A"/>
</g>
</g>
<defs>
<clipPath id="clip0_3296_33038">
<rect width="18" height="18" fill="white"/>
</clipPath>
</defs>
</svg>
