<svg width="80" height="80" viewBox="0 0 80 80" fill="none" xmlns="http://www.w3.org/2000/svg">
<path d="M8.30455 31.0162C8.30455 31.4583 8.13807 31.9118 7.74195 32.3079C7.34582 32.7041 6.89229 32.8705 6.45025 32.8705C5.95079 32.8705 5.48004 32.6524 5.13559 32.3079L0.560097 27.7324C0.244348 27.411 0.0319346 26.9804 0.00323011 26.5211C-0.0254743 26.0504 0.135271 25.5566 0.560097 25.1318V25.1261C0.984923 24.7013 1.47864 24.5405 1.95513 24.5692C2.4144 24.5979 2.84497 24.8103 3.16646 25.1261L7.74768 29.7073C8.09214 30.0518 8.3103 30.5225 8.3103 31.022L8.30455 31.0162ZM13.6149 28.1228C13.4771 28.5764 13.1613 28.9897 12.616 29.2423L12.4839 29.3055H12.461C11.973 29.4892 11.508 29.4605 11.1176 29.2882C10.6928 29.0988 10.354 28.7543 10.1703 28.3467L7.43194 22.4795C7.23101 22.0432 7.18508 21.5266 7.35731 21.0558C7.50657 20.6425 7.82232 20.2693 8.32752 20.0339C8.83272 19.7985 9.32069 19.7985 9.73403 19.9478C10.2048 20.12 10.5722 20.4874 10.7731 20.9238L13.5115 26.7909C13.701 27.1985 13.7527 27.675 13.6206 28.1171L13.6149 28.1228ZM28.5527 32.3079C28.1565 31.9118 27.9901 31.4583 27.9901 31.0162C27.9901 30.5168 28.2082 30.046 28.5527 29.7073L33.1339 25.1261C33.4554 24.8103 33.886 24.5979 34.3452 24.5692C34.816 24.5405 35.3154 24.7013 35.7403 25.1261V25.1318C36.1651 25.5566 36.3258 26.0504 36.2971 26.5211C36.2684 26.9804 36.056 27.411 35.7403 27.7324L31.159 32.3137C30.8433 32.6294 30.407 32.8418 29.9477 32.8705C29.4712 32.8993 28.9832 32.7385 28.5527 32.3137V32.3079ZM23.6786 29.2423C23.1333 28.9897 22.8118 28.5764 22.6797 28.1228C22.5477 27.6808 22.5994 27.2043 22.7888 26.7967L25.5272 20.9295C25.7282 20.4932 26.0956 20.1258 26.5721 19.9535C26.9854 19.8043 27.4734 19.7985 27.9786 20.0397L27.9901 20.0511C28.5297 20.3095 28.8454 20.7113 28.9775 21.1591C29.1095 21.6012 29.0579 22.0777 28.8684 22.4853L26.13 28.3525C25.9406 28.7601 25.6076 29.1045 25.1828 29.2882C24.7924 29.4605 24.3274 29.4892 23.8394 29.3055H23.8164L23.6844 29.2423H23.6786ZM18.1846 28.628C17.5818 28.628 17.1168 28.3926 16.8068 28.0367C16.4968 27.6923 16.3418 27.233 16.3418 26.7852V20.3095C16.3418 19.3909 16.9561 18.4667 18.1846 18.4667C18.7415 18.4667 19.1835 18.6733 19.4935 18.9833C19.8495 19.3393 20.0274 19.8272 20.0274 20.3095V26.7852C20.0274 27.2674 19.8495 27.7554 19.4935 28.1056C19.1778 28.4214 18.7415 28.628 18.1846 28.628ZM52.0042 31.0162C52.0042 31.4583 51.8377 31.9118 51.4416 32.3079C51.0455 32.7041 50.5919 32.8705 50.1499 32.8705C49.6504 32.8705 49.1797 32.6524 48.8352 32.3079L44.2597 27.7324C43.944 27.411 43.7316 26.9804 43.7029 26.5211C43.6742 26.0504 43.8349 25.5566 44.2597 25.1318V25.1261C44.6846 24.7013 45.1783 24.5405 45.649 24.5692C46.1083 24.5979 46.5389 24.8103 46.8546 25.1261L51.4358 29.7073C51.7746 30.0518 51.9985 30.5225 51.9985 31.022L52.0042 31.0162ZM57.2858 28.2204C57.1365 28.6338 56.8208 29.0069 56.3156 29.2423C55.8104 29.4777 55.3224 29.4777 54.9091 29.3284C54.4383 29.1562 54.0709 28.7888 53.87 28.3525L51.1316 22.4853C50.9306 22.049 50.8847 21.5323 51.057 21.0615C51.2062 20.6482 51.522 20.275 52.0272 20.0397C52.5324 19.8043 53.0146 19.8043 53.4337 19.9535C53.9044 20.1258 54.2718 20.4932 54.4785 20.9295L57.2169 26.7967C57.4179 27.233 57.4638 27.7497 57.2916 28.2204H57.2858ZM72.2523 32.3079C71.8562 31.9118 71.6897 31.4583 71.6897 31.0162C71.6897 30.5168 71.9079 30.046 72.2523 29.7073L76.8335 25.1261C77.155 24.8103 77.5856 24.5979 78.0449 24.5692C78.5156 24.5405 79.0151 24.7013 79.4399 25.1261V25.1318C79.8647 25.5566 80.0255 26.0504 79.9968 26.5211C79.9681 26.9804 79.7557 27.411 79.4399 27.7324L74.8587 32.3137C74.5429 32.6294 74.1066 32.8418 73.6473 32.8705C73.1766 32.8993 72.6829 32.7385 72.2581 32.3137L72.2523 32.3079ZM67.3783 29.248C66.8329 28.9954 66.5114 28.5821 66.3794 28.1286C66.2473 27.6865 66.299 27.2043 66.4884 26.8024L69.2269 20.9352C69.4278 20.4989 69.7952 20.1315 70.2717 19.9593C70.6851 19.81 71.173 19.8043 71.6782 20.0454C72.1834 20.2808 72.4934 20.6539 72.6484 21.0673C72.8207 21.538 72.7747 22.0547 72.5681 22.491L69.8354 28.3582C69.6345 28.7945 69.267 29.1619 68.7906 29.3342C68.3772 29.4834 67.8892 29.4834 67.384 29.248H67.3783ZM61.8843 28.628C61.3274 28.628 60.8853 28.4214 60.5753 28.1113C60.2194 27.7554 60.0414 27.2674 60.0414 26.7852V20.3095C60.0414 19.8272 60.2194 19.3393 60.5753 18.9833C60.8911 18.6676 61.3274 18.4667 61.8843 18.4667C62.4411 18.4667 62.8774 18.6733 63.1932 18.9833C63.5491 19.3393 63.7271 19.8272 63.7271 20.3095V26.7852C63.7271 27.2674 63.5491 27.7554 63.1932 28.1056C62.8774 28.4214 62.4411 28.628 61.8843 28.628ZM49.0362 14.7408H42.2849L42.2045 57.5564C42.2045 59.3877 42.2275 60.6507 42.503 61.6209C42.7614 62.5395 43.2838 63.2628 44.2884 64.0895H44.2942C46.2002 65.6912 47.7502 66.5638 49.3576 66.7935C50.9651 67.0231 52.6931 66.6212 54.9435 65.6682C55.9252 65.2549 57.016 64.5832 57.8771 63.7508C58.4225 63.2226 58.8703 62.637 59.1286 62.0285C58.7842 61.8563 58.4799 61.753 58.2044 61.6554C57.326 61.3511 56.6773 61.1215 55.8334 59.7379L55.8219 59.7207C55.4085 58.9973 55.288 57.3382 55.1904 56.0121C55.1559 55.5241 55.265 55.1911 55.2995 54.9844L55.11 54.795C54.6909 54.7204 54.2144 54.7433 53.7609 54.7605C53.3074 54.7778 52.8711 54.795 52.452 54.7318C51.2464 54.5424 50.4943 53.8592 50.856 51.5227V51.5169C50.9708 50.8223 51.1258 49.9669 51.2808 49.1C51.4818 47.9806 51.6884 46.8324 51.8894 45.5235L51.8951 45.5005C51.9468 45.2192 52.0903 44.3695 52.274 43.2616C52.8481 39.8113 53.8413 33.8752 54.1915 33.4332L54.2489 33.37C54.7483 32.8648 58.3479 32.727 61.8269 32.727C64.9729 32.727 68.159 32.8935 68.7848 32.9796L68.802 32.9452L68.8709 32.9968L68.8939 33.0026L68.957 33.06L68.9513 33.0715C69.8813 34.0991 70.7884 39.9146 71.3051 43.2271C71.4428 44.1169 71.5519 44.8116 71.6208 45.1847L71.9308 46.9529C72.6082 50.8625 72.9355 52.7168 72.5681 53.7272C72.1318 54.9385 71.1903 54.9156 69.3934 54.8754C69.0833 54.8696 68.7389 54.8581 68.36 54.8581C68.3255 55.3691 68.337 55.8398 68.3542 56.2876C68.3944 57.5047 68.4289 58.5725 67.6137 59.9101C66.5516 61.6783 65.7823 61.8391 63.5836 62.3098L63.5663 62.3156C63.4687 62.5337 63.4228 62.7117 63.3769 62.8954C63.2391 63.435 63.0841 64.0493 62.068 65.5477L62.0106 65.6223C60.8107 66.9542 59.6109 68.022 58.4168 68.8544C54.7369 71.4263 51.2062 71.7708 48.1922 71.1106C45.2012 70.4561 42.7384 68.8142 41.1539 67.3848C40.6889 66.9714 40.2985 66.5696 39.9885 66.2136C39.6728 66.5523 39.3341 66.891 38.9781 67.2183C36.7966 69.2046 33.863 70.7834 30.6022 71.1508C27.3299 71.5182 23.7303 70.6628 20.2456 67.7751C19.5222 67.1781 18.8104 66.4949 18.0985 65.7142L18.0698 65.6797C17.312 64.7153 16.9676 63.7623 16.715 63.0561C16.5772 62.6772 16.4796 62.3959 16.4566 62.3787L16.4279 62.3557C16.3533 62.2983 16.1122 62.2467 15.8251 62.1893C14.8664 61.9883 13.5402 61.707 12.4954 60.0135C11.6802 58.7103 11.7319 57.499 11.7721 56.3852C11.795 55.8169 11.818 55.283 11.6917 54.8467C11.508 54.8237 10.7215 54.9156 10.0498 54.9156C9.59626 54.9156 9.20587 54.9156 8.98198 54.8811C8.01177 54.7606 7.54676 54.2554 7.35731 53.555C7.20804 53.0038 7.27119 52.3666 7.35731 51.7408C7.5525 50.1793 8.52844 43.9906 9.38958 39.2889C9.95793 36.183 10.5205 33.68 10.8707 33.3757L10.9454 33.3183C11.8352 32.75 17.3005 32.8304 20.2169 32.8763C20.7278 32.882 21.1584 32.8878 21.6349 32.8878C22.0081 32.8878 22.2664 32.882 22.5247 32.8705C23.1735 32.8533 23.8337 32.8361 24.402 32.8878C26.3711 32.9854 26.5778 34.7019 26.8878 37.2623C26.9682 37.911 27.0543 38.6287 27.1749 39.3577C27.3873 40.3681 28.3288 45.2651 28.9086 48.9737C29.2473 51.1208 29.454 52.9005 29.3219 53.4172C28.9201 54.95 27.4389 54.9156 25.9693 54.8754C25.6191 54.8639 25.2689 54.8581 24.9646 54.8754C24.9302 55.3059 24.9302 55.7365 24.9244 56.1556C24.9129 57.3727 24.9015 58.5266 24.3102 59.7092L24.2929 59.7436C24.115 60.0594 23.8853 60.3522 23.6327 60.6277C23.3686 60.909 23.0644 61.1616 22.7429 61.3913C22.0597 61.885 21.5947 62.0113 21.0952 62.1433L21.0149 62.1663C21.2445 62.6887 21.6579 63.2169 22.1688 63.7049C23.0931 64.6004 24.2987 65.3525 25.2631 65.7716C27.3069 66.6844 29.1268 67.0461 30.8375 66.7935C32.5426 66.5409 34.1845 65.674 35.8838 64.1297C36.7851 63.2973 37.2903 62.4935 37.5601 61.5176C37.8472 60.4957 37.9046 59.2384 37.9046 57.5736L37.7496 14.758L31.3198 14.804C29.6434 14.6834 28.7019 13.9026 28.3288 12.9497C28.1738 12.5478 28.1221 12.123 28.1623 11.6981C28.2025 11.2848 28.3288 10.8829 28.5297 10.5155C29.0406 9.59124 30.0338 8.91955 31.2911 9.02289H48.8754C50.0006 8.87363 50.8962 9.47068 51.3957 10.3376C51.5909 10.6763 51.7229 11.0552 51.7803 11.4513C51.8377 11.8474 51.8205 12.255 51.7172 12.6454C51.4531 13.6558 50.6493 14.5341 49.128 14.7523L49.0362 14.758V14.7408ZM20.7049 54.7031H16.072C15.8309 57.1775 16.1696 57.7286 16.979 57.8204C17.3177 57.8606 17.7196 57.8606 18.1674 57.8549H18.9482C19.7691 57.8664 20.4523 57.8779 20.5958 57.3727L20.6073 57.3439C20.6819 57.1201 20.7164 56.6723 20.7278 56.1728C20.7393 55.6734 20.7221 55.1337 20.6991 54.6974L20.7049 54.7031ZM20.4006 37.0499C20.0275 37.0671 19.6658 37.0844 19.4017 37.0844C19.2524 37.0844 18.8735 37.0671 18.4028 37.0499C17.0824 36.9925 14.8951 36.9006 14.4071 36.9753L12.7767 46.465L12.6389 47.1998C12.4437 48.2217 12.1395 49.8291 12.1165 50.5812L24.7465 50.6558C24.5972 48.5374 23.4433 42.3086 23.0816 40.3567L23.0759 40.3165C23.007 39.995 22.9151 39.4037 22.8175 38.7837C22.7199 38.1464 22.6166 37.4805 22.5362 37.1073C21.9908 36.981 21.1584 37.0212 20.4006 37.0614V37.0499ZM64.1404 54.7893L59.4444 54.8524L59.4386 55.0017C59.4272 55.3633 59.4157 55.6963 59.4157 56.0867C59.4157 57.4702 59.7085 58.0156 61.758 58.0156L62.1426 58.0214C62.9406 58.0329 63.8075 58.0443 64.0084 57.5047C64.1003 57.1775 64.1519 56.6091 64.1634 56.0178C64.1749 55.5815 64.1634 55.1452 64.1347 54.7835L64.1404 54.7893ZM63.1817 37.0097C61.2355 36.9925 58.9105 37.0212 57.7623 37.0557L56.6543 43.3247C56.3214 45.4948 56.0113 47.1367 55.7874 48.3308C55.5291 49.6971 55.3913 50.4434 55.4372 50.7534C55.4545 50.8567 55.6095 50.6386 56.0113 50.6099C56.3443 50.5869 56.7519 50.564 57.1997 50.564H68.182L65.834 37.0671C65.3403 37.0327 64.3356 37.0155 63.1817 37.004V37.0097Z" fill="black"/>
</svg>
