<svg width="80" height="80" viewBox="0 0 80 80" fill="none" xmlns="http://www.w3.org/2000/svg">
<path d="M75.3233 7H4.67664C3.79727 7 3.0844 7.71287 3.0844 8.59225V15.3842C3.0844 16.2636 3.79727 16.9765 4.67664 16.9765H75.3233C76.2027 16.9765 76.9156 16.2636 76.9156 15.3842V8.59225C76.9156 7.71287 76.2027 7 75.3233 7Z" fill="black"/>
<path d="M73.5125 25.0563H6.37292C6.07796 25.0563 5.83885 25.2954 5.83885 25.5904V28.889C5.83885 29.1839 6.07796 29.423 6.37292 29.423H73.5125C73.8075 29.423 74.0466 29.1839 74.0466 28.889V25.5904C74.0466 25.2954 73.8075 25.0563 73.5125 25.0563Z" fill="black"/>
<path d="M73.5077 18.6007H6.36818C6.07322 18.6007 5.83411 18.8398 5.83411 19.1348V22.4334C5.83411 22.7283 6.07322 22.9674 6.36818 22.9674H73.5077C73.8027 22.9674 74.0418 22.7283 74.0418 22.4334V19.1348C74.0418 18.8398 73.8027 18.6007 73.5077 18.6007Z" fill="black"/>
<path d="M73.4898 31.5105H6.35018C6.05522 31.5105 5.81611 31.7497 5.81611 32.0446V35.3432C5.81611 35.6382 6.05522 35.8773 6.35018 35.8773H73.4898C73.7847 35.8773 74.0239 35.6382 74.0239 35.3432V32.0446C74.0239 31.7497 73.7847 31.5105 73.4898 31.5105Z" fill="black"/>
<path d="M73.5117 37.9684H6.37208C6.07713 37.9684 5.83802 38.2075 5.83802 38.5025V41.801C5.83802 42.096 6.07713 42.3351 6.37208 42.3351H73.5117C73.8066 42.3351 74.0457 42.096 74.0457 41.801V38.5025C74.0457 38.2075 73.8066 37.9684 73.5117 37.9684Z" fill="black"/>
<path d="M73.4072 44.5035H6.26759C5.97263 44.5035 5.73352 44.7426 5.73352 45.0376V48.3362C5.73352 48.6312 5.97263 48.8703 6.26759 48.8703H73.4072C73.7021 48.8703 73.9412 48.6312 73.9412 48.3362V45.0376C73.9412 44.7426 73.7021 44.5035 73.4072 44.5035Z" fill="black"/>
<path d="M73.5125 50.8847H6.37292C6.07796 50.8847 5.83885 51.1238 5.83885 51.4187V54.7173C5.83885 55.0123 6.07796 55.2514 6.37292 55.2514H73.5125C73.8075 55.2514 74.0466 55.0123 74.0466 54.7173V51.4187C74.0466 51.1238 73.8075 50.8847 73.5125 50.8847Z" fill="black"/>
<path d="M73.5641 57.3572H6.42454C6.12958 57.3572 5.89047 57.5963 5.89047 57.8912V61.1898C5.89047 61.4848 6.12958 61.7239 6.42454 61.7239H73.5641C73.8591 61.7239 74.0982 61.4848 74.0982 61.1898V57.8912C74.0982 57.5963 73.8591 57.3572 73.5641 57.3572Z" fill="black"/>
<path d="M73.5496 63.8138H6.41003C6.11507 63.8138 5.87596 64.0529 5.87596 64.3478V67.6464C5.87596 67.9414 6.11507 68.1805 6.41003 68.1805H73.5496C73.8446 68.1805 74.0837 67.9414 74.0837 67.6464V64.3478C74.0837 64.0529 73.8446 63.8138 73.5496 63.8138Z" fill="black"/>
<path d="M76.2553 69.3997H3.73446C3.37182 69.3997 3.07784 69.6388 3.07784 69.9337V72.71C3.07784 73.0049 3.37182 73.244 3.73446 73.244H76.2553C76.6179 73.244 76.9119 73.0049 76.9119 72.71V69.9337C76.9119 69.6388 76.6179 69.3997 76.2553 69.3997Z" fill="black"/>
<path fill-rule="evenodd" clip-rule="evenodd" d="M77.77 9.12653H79.4662C79.7605 9.12653 80 9.36609 80 9.66038V14.3158C80 14.6101 79.7605 14.8497 79.4662 14.8497H77.77V9.12653Z" fill="black"/>
<path fill-rule="evenodd" clip-rule="evenodd" d="M2.22996 9.12653H0.533854C0.239559 9.12653 0 9.36609 0 9.66038V14.3158C0 14.6101 0.239559 14.8497 0.533854 14.8497H2.22996V9.12653Z" fill="black"/>
<path d="M76.9735 17.9533C76.9735 17.6583 76.8171 17.4192 76.6242 17.4192C76.4313 17.4192 76.2749 17.6583 76.2749 17.9533V40.8493C76.2749 41.1443 76.4313 41.3834 76.6242 41.3834C76.8171 41.3834 76.9735 41.1443 76.9735 40.8493V17.9533Z" fill="black"/>
<path d="M77.3236 42.4987C77.3236 42.1188 77.0156 41.8107 76.6356 41.8107C76.2557 41.8107 75.9476 42.1188 75.9476 42.4987V44.6014C75.9476 44.9813 76.2557 45.2893 76.6356 45.2893C77.0156 45.2893 77.3236 44.9813 77.3236 44.6014V42.4987Z" fill="black"/>
</svg>
