<svg width="80" height="80" viewBox="0 0 80 80" fill="none" xmlns="http://www.w3.org/2000/svg">
<path d="M31.715 28.2923C31.715 18.1977 39.9272 9.98543 50.0211 9.98543C50.9412 9.98543 51.6858 10.73 51.6851 11.6501C51.6851 12.5696 50.9406 13.3141 50.0211 13.3141C41.7614 13.3141 35.043 20.0326 35.043 28.2923C35.043 29.2117 34.2984 29.9563 33.379 29.9563C32.4588 29.9563 31.715 29.2117 31.715 28.2923Z" fill="black"/>
<path d="M55.0903 68.8956C54.6205 65.1433 57.2907 61.7094 61.0427 61.2396C61.6697 61.1611 62.1131 60.5903 62.0346 59.9637C61.9561 59.3367 61.3857 58.8929 60.7587 58.9714C55.7564 59.5978 52.1961 64.177 52.8225 69.1795C52.901 69.8061 53.4718 70.2499 54.0984 70.1714C54.7254 70.0929 55.1688 69.5221 55.0903 68.8956Z" fill="black"/>
<path fill-rule="evenodd" clip-rule="evenodd" d="M21.7293 28.2923C21.7293 12.6916 34.4203 0 50.0209 0C65.6215 0 78.3125 12.6916 78.3125 28.2923C78.3125 39.4005 71.8781 49.0336 62.5406 53.6604C68.5624 54.9337 73.0967 60.2896 73.0967 66.6852C73.0967 74.0261 67.1228 80 59.7826 80C52.4417 80 46.4705 74.0261 46.4705 66.6852C46.4705 62.6369 48.2865 59.0052 51.1467 56.5617C50.7732 56.5764 50.3979 56.5838 50.0209 56.5838C34.4203 56.5838 21.7293 43.8922 21.7293 28.2923ZM25.058 28.2923C25.058 42.0573 36.2552 53.2551 50.0209 53.2551C63.7866 53.2551 74.9845 42.058 74.9838 28.2923C74.9838 14.5265 63.786 3.3287 50.0209 3.3287C36.2552 3.3287 25.058 14.5265 25.058 28.2923ZM59.7826 76.6713C54.2766 76.6713 49.7985 72.1932 49.7985 66.6852C49.7985 61.1799 54.2766 56.7018 59.7826 56.7018C65.29 56.7018 69.768 61.1799 69.768 66.6852C69.768 72.1932 65.29 76.6713 59.7826 76.6713Z" fill="black"/>
<path fill-rule="evenodd" clip-rule="evenodd" d="M2 21.3955C2 16.8076 5.73351 13.0741 10.3214 13.0741C14.9093 13.0741 18.6428 16.8076 18.6428 21.3955C18.6428 25.9834 14.9093 29.7169 10.3214 29.7169C5.73351 29.7169 2 25.9834 2 21.3955ZM5.32869 21.3955C5.32869 24.1485 7.56839 26.3882 10.3214 26.3882C13.0737 26.3882 15.3141 24.1485 15.3141 21.3955C15.3141 18.6432 13.0737 16.4028 10.3214 16.4028C7.56839 16.4028 5.32869 18.6432 5.32869 21.3955Z" fill="black"/>
<path d="M39.6618 59.5789C40.1019 58.7727 41.1129 58.4757 41.9212 58.9192C42.7267 59.3613 43.0231 60.3723 42.581 61.1778C39.0705 67.583 32.3548 71.562 25.058 71.562C14.0453 71.562 5.08716 62.6032 5.08716 51.5911C5.08716 43.6142 9.81948 36.415 17.1461 33.249C17.9863 32.8863 18.9695 33.2714 19.3336 34.117C19.6978 34.9605 19.3092 35.9403 18.4657 36.3045C12.3596 38.9422 8.41586 44.9439 8.41586 51.5911C8.41586 60.7669 15.8815 68.2333 25.058 68.2333C31.139 68.2333 36.7366 64.9161 39.6618 59.5789Z" fill="black"/>
<path d="M15.0727 51.5912C15.0727 57.0972 19.5514 61.5766 25.0581 61.5766C25.9775 61.5766 26.7221 62.3204 26.7221 63.2406C26.7221 64.1601 25.9775 64.9046 25.0581 64.9046C17.7165 64.9046 11.744 58.9321 11.744 51.5912C11.744 50.671 12.4885 49.9271 13.4086 49.9271C14.3281 49.9271 15.0727 50.671 15.0727 51.5912Z" fill="black"/>
</svg>
