<svg width="80" height="80" viewBox="0 0 80 80" fill="none" xmlns="http://www.w3.org/2000/svg">
<path fill-rule="evenodd" clip-rule="evenodd" d="M39.8445 45.0469C38.3094 50.64 43.5013 59.0159 44.78 66.3206C45.368 69.6803 45.0571 71.2023 44.5215 74.3187L47.5972 70.6075C48.6491 69.1199 49.671 66.8934 49.1861 63.5152C52.5801 64.9697 54.7707 71.3058 52 75C49 79 41.5 79.5 40 79.5V80C46.5 80 53.5 78 58.4878 72.6975C63.4755 67.3949 64 65.5 64.7998 60.773C66.0206 54.4561 64.2911 48.5024 61.4387 43.1864C60.85 42.089 59.2357 39.5199 58.4147 38.8299L57.1932 42.2986C56.1779 44.8704 53.6653 49.6901 51.0514 50.3691C51.2175 49.6536 52.0426 48.0109 52.3852 47.1514C56.6052 36.5697 57.9025 24.0413 52.4438 13.6692C50.0664 9.15275 43.7557 1.72674 38.7657 0C38.8788 0.266076 39.708 1.45032 40.1306 2.38366C41.5299 5.47938 41.6595 8.60061 40.5283 11.8183C39.2379 15.489 35.5962 20.5754 32.8603 23.2259L20.9572 36.0182C15.6626 42.6991 12.2484 52.1227 14.9429 60.5834C15.5633 62.5321 16.9213 65.4445 18.0524 66.8934C18.6273 67.6275 19.1767 68.3596 19.7557 69.0992C21.2619 71.0272 22.9252 72.2722 24.5803 73.808C28.5 77 34 80 40 80V79.5C36 79.5 28.3938 75.9591 27.1969 67.7296C26 59.5 30.4705 54.3354 30.4705 54.3354C30.4705 54.3354 33.3966 50.0789 35.4418 48.0564C36.4296 47.079 38.3811 45.3171 39.8445 45.0469Z" fill="black"/>
</svg>
