<svg width="80" height="80" viewBox="0 0 80 80" fill="none" xmlns="http://www.w3.org/2000/svg">
<path fill-rule="evenodd" clip-rule="evenodd" d="M2.59739 35.052L0 36.091V44.4027L2.59739 45.4416L5.71427 48.5585H14.5454C15.2766 50.0193 17.8162 50.0193 18.1818 48.5585H22.8571C23.222 50.0193 26.1287 50.0193 26.4935 48.5585H38.4415V72.4546C38.4415 72.9741 38.961 73.4936 39.4805 73.4936H50.9091C52.4675 73.4936 54.026 71.9351 54.026 70.3767V57.2836C54.327 57.0015 54.6212 56.71 54.9083 56.4093C59 52.1227 61.2987 46.3089 61.2987 40.2468C61.2987 34.1848 59 28.3709 54.9083 24.0844C54.6212 23.7837 54.327 23.4922 54.026 23.2101V10.1169C54.026 8.5585 52.4675 7.00006 50.9091 7.00006H39.4805C38.961 7.00006 38.4415 7.51954 38.4415 8.03902L38.4415 31.9351H26.4504C25.7208 30.4728 23.5437 30.4728 22.8141 31.9351H18.1387C17.4083 30.4728 15.2335 30.4728 14.5024 31.9351H5.71427L2.59739 35.052ZM22.8141 33.4936L22.8571 47.0001H18.1818L18.1387 33.4936H22.8141ZM4.67531 35.052L6.23375 33.4936H14.5024L14.5454 47.0001L6.23375 47.0431L4.67531 45.4416V35.052ZM54.026 54.0794C57.2997 50.3016 59.1251 45.3728 59.1251 40.2468C59.1251 35.1209 57.2997 30.1921 54.026 26.4143V54.0794ZM38.3985 33.4936L38.4415 47.0001H26.4935L26.4504 33.4936H38.3985Z" fill="black"/>
<path d="M64.4156 40.2468C64.4156 38.8615 65.4545 38.1689 66.4935 38.1689H77.9221C78.961 38.1689 80 38.8615 80 40.2468C80 41.6321 78.961 42.3247 77.9221 42.3247H66.4935C65.4545 42.3247 64.4156 41.6321 64.4156 40.2468Z" fill="black"/>
<path d="M63.2158 50.4417C63.8013 49.1862 65.0356 48.9976 65.9773 49.4366L76.3351 54.2666C77.2767 54.7056 77.9256 55.7725 77.3401 57.028C76.7547 58.2835 75.5203 58.4721 74.5787 58.033L64.2209 53.2031C63.2793 52.764 62.6304 51.6972 63.2158 50.4417Z" fill="black"/>
<path d="M57.5732 59.3784C58.5528 58.3989 59.7772 58.6438 60.5118 59.3784L68.5931 67.4597C69.3277 68.1943 69.5726 69.4187 68.5931 70.3983C67.6135 71.3778 66.3891 71.1329 65.6544 70.3983L57.5732 62.3171C56.8385 61.5824 56.5937 60.358 57.5732 59.3784Z" fill="black"/>
<path d="M63.2158 29.922C63.8013 31.1775 65.0356 31.3661 65.9773 30.9271L76.3351 26.0971C77.2767 25.6581 77.9256 24.5912 77.3401 23.3357C76.7547 22.0802 75.5203 21.8916 74.5787 22.3307L64.2209 27.1606C63.2793 27.5997 62.6304 28.6665 63.2158 29.922Z" fill="black"/>
<path d="M57.5732 20.9853C58.5528 21.9648 59.7772 21.7199 60.5118 20.9853L68.5931 12.904C69.3277 12.1694 69.5726 10.945 68.5931 9.96542C67.6135 8.98588 66.3891 9.23076 65.6544 9.96542L57.5732 18.0466C56.8385 18.7813 56.5937 20.0057 57.5732 20.9853Z" fill="black"/>
</svg>
