<svg width="300" height="301" viewBox="0 0 300 301" fill="none" xmlns="http://www.w3.org/2000/svg">
<path d="M145.595 144.971C145.595 139.866 141.458 135.728 136.352 135.728C131.247 135.728 127.109 139.866 127.109 144.971C127.109 150.077 131.247 154.215 136.352 154.215C141.458 154.215 145.595 150.077 145.595 144.971ZM207.259 232.138V230.701C207.259 222.134 200.29 215.164 191.722 215.164C189.788 215.164 187.937 215.523 186.226 216.17C184.771 209.101 178.5 203.769 171.006 203.769C168.971 203.769 167.028 204.166 165.247 204.88C165.075 204.284 164.865 203.703 164.624 203.135C176.399 199.629 187.556 194.047 197.389 186.62C199.818 184.787 198.473 186.037 200.768 183.951L200.748 173.704C189.212 184.662 175.301 192.455 159.457 196.606C156.784 194.611 153.477 193.411 149.944 193.411C148.011 193.411 146.149 193.784 144.42 194.459V175.802C144.42 167.234 137.45 160.265 128.884 160.265C120.316 160.265 113.347 167.234 113.347 175.802V198.133C102.739 195.932 92.5795 191.472 83.3949 184.924C81.7941 183.781 79.6752 184.318 78.6598 186.123C78.5959 186.236 78.5397 186.35 78.4856 186.468C77.7073 188.227 78.2453 190.401 79.7215 191.455C90.0097 198.791 101.429 203.7 113.347 205.981V221.556C110.628 218.083 107.358 215.056 103.562 213.497C99.3277 211.756 94.8704 211.963 90.6723 214.098C82.9506 218.025 79.7678 227.488 83.5746 235.192L102.875 274.253C103.421 275.324 116.501 300.499 140.18 300.499L167.801 300.5C189.582 300.5 207.3 282.689 207.3 260.789L207.279 232.138H207.259ZM167.802 290.142H140.18C123.123 290.142 112.496 270.298 112.113 269.567L92.8595 230.607C91.5322 227.918 92.6324 224.724 95.3654 223.334C96.8725 222.567 98.1844 222.49 99.6176 223.077C105.337 225.422 110.95 236.719 113.144 243.287L114.809 248.298L123.704 245.151V175.802C123.704 172.945 126.027 170.622 128.884 170.622C131.74 170.622 134.063 172.945 134.063 175.802V235.535H144.515V209.293C144.515 206.403 147.104 203.77 149.946 203.77C152.889 203.77 155.469 206.19 155.469 208.949V237.261H165.828V219.307C165.828 216.45 168.151 214.128 171.007 214.128C173.864 214.128 176.187 216.45 176.187 219.307V242.095H186.544V230.701C186.544 227.844 188.866 225.521 191.722 225.521C194.579 225.521 196.902 227.844 196.902 230.701V238.108H196.927L196.944 260.794C196.943 276.977 183.871 290.142 167.802 290.142ZM31.728 103.975C31.728 70.4965 48.0488 38.9297 75.3855 19.5296C77.1274 18.2949 79.5385 18.7061 80.7732 20.4458C82.008 22.1877 81.5968 24.5987 79.8571 25.8335C54.5578 43.786 39.4519 72.9969 39.4519 103.975C39.4519 131.529 51.3419 157.766 72.0726 175.96C73.6767 177.369 73.8366 179.809 72.4276 181.413C69.9416 184.243 66.8635 181.717 64.8195 179.819C62.4514 177.619 60.1704 175.296 58.025 172.88C40.8531 153.551 31.9959 129.866 31.728 103.975ZM220.291 147.844L230.177 145.067C230.958 143.485 229.539 146.569 230.223 144.961C226.849 145.253 223.618 146.039 220.599 147.246L220.291 147.844ZM230.223 144.961C230.427 144.479 230.627 143.998 230.822 143.514C234.828 133.259 238.431 116.818 238.674 103.971C238.672 46.917 192.255 0.5 135.199 0.5C119.217 0.5 103.884 4.05434 89.626 11.0583C87.7099 12.0009 86.9206 14.3161 87.8621 16.2321C88.8047 18.1482 91.1199 18.9376 93.0359 17.995C106.226 11.5125 120.411 8.22716 135.203 8.22716C187.995 8.22716 230.948 51.1791 230.948 103.973C230.948 119.535 227.217 134.242 220.599 147.246C223.618 146.039 226.849 145.253 230.223 144.961ZM194.171 94.0892C192.392 94.0892 190.637 93.4079 189.275 92.0463C160.077 62.874 112.627 62.874 83.4544 92.0463C80.7578 94.7429 76.3579 94.7429 73.6613 92.0463C70.9635 89.3486 70.9635 84.9498 73.6613 82.252C90.4209 65.4924 112.679 56.2747 136.378 56.2747C160.079 56.2747 182.336 65.4924 199.096 82.252C201.792 84.9498 201.792 89.3486 199.096 92.0463C197.708 93.4101 195.926 94.0892 194.171 94.0892ZM175.134 113.128C173.353 113.128 171.599 112.447 170.238 111.085C151.54 92.4134 121.163 92.4134 102.466 111.085C99.7698 113.782 95.3699 113.782 92.6721 111.085C89.9755 108.388 89.9755 103.988 92.6721 101.292C116.765 77.1983 155.939 77.1983 180.031 101.292C182.729 103.988 182.729 108.388 180.031 111.085C178.67 112.447 176.889 113.128 175.134 113.128ZM156.385 131.851C154.605 131.851 152.851 131.169 151.488 129.808C147.455 125.774 142.061 123.549 136.352 123.549C130.644 123.549 125.25 125.774 121.216 129.808C118.519 132.505 114.119 132.505 111.423 129.808C108.725 127.111 108.725 122.711 111.423 120.014C118.074 113.362 126.926 109.697 136.352 109.697C145.78 109.697 154.631 113.362 161.282 120.041C163.979 122.738 163.979 127.138 161.282 129.835C159.946 131.169 158.166 131.851 156.385 131.851Z" fill="black"/>
<path d="M234.322 205.926C249.32 205.925 261.483 193.763 261.483 178.767C261.483 163.769 249.32 151.606 234.322 151.606C219.326 151.606 207.162 163.769 207.162 178.767C207.162 193.763 219.326 205.926 234.322 205.926ZM234.322 144.817C253.069 144.817 268.272 160.02 268.272 178.767C268.272 197.512 253.069 212.715 234.322 212.715C215.549 212.716 200.372 197.44 200.372 178.767C200.373 160.02 215.576 144.817 234.322 144.817ZM236.02 161.792V179.615L251.297 188.681C253.259 190.25 251.68 194.276 248.751 192.856L230.927 182.162V161.792C231.029 159.135 236.028 159.6 236.02 161.792Z" fill="black"/>
</svg>
