<svg width="12" height="12" viewBox="0 0 12 12" fill="none" xmlns="http://www.w3.org/2000/svg">
<path d="M5.80889 11.9873C5.42163 11.9873 5.03132 11.9431 4.63795 11.8549C4.24459 11.7666 3.84278 11.6406 3.43252 11.4768C3.57334 10.0568 3.98407 8.73077 4.66471 7.49858C5.34535 6.26639 6.21961 5.1809 7.28751 4.24209C5.99665 4.89925 4.87876 5.76765 3.93385 6.84728C2.98894 7.92691 2.32895 9.1591 1.9539 10.5438C1.90696 10.5086 1.86283 10.4706 1.82153 10.4298L1.68986 10.2974C1.13831 9.74586 0.71866 9.12976 0.430915 8.44913C0.14317 7.76849 -0.000468258 7.05851 1.14675e-06 6.3192C1.14675e-06 5.52121 0.158425 4.75843 0.475273 4.03085C0.792122 3.30328 1.23219 2.65784 1.79547 2.09456C2.74602 1.14401 3.97821 0.525105 5.49204 0.237829C7.00587 -0.0494468 9.12992 -0.0759685 11.8642 0.158264C12.0754 2.96296 12.0402 5.1018 11.7586 6.57479C11.4769 8.04778 10.8667 9.25345 9.92791 10.1918C9.35289 10.7668 8.71028 11.2099 8.00007 11.5211C7.28986 11.8324 6.55946 11.9877 5.80889 11.9873Z" fill="#0EBD0A"/>
</svg>
