<svg width="96" height="96" viewBox="0 0 96 96" fill="none" xmlns="http://www.w3.org/2000/svg">
<path d="M80.5556 7.17107L73.6539 14.1458L71.2999 12.5362C64.7192 7.97584 56.7475 5.61517 47.8662 5.61517C36.631 5.61517 27.0542 9.31713 19.243 16.7211C10.4153 25.0371 6.24216 33.7286 5.54664 45.3174C4.95812 54.2772 6.83067 62.164 11.3248 69.6753L13.9464 73.9674L7.09818 80.8348L0.25 87.7022L4.26261 91.7261L8.27521 95.75L15.0699 88.9362L21.9181 82.1225L23.8976 83.3565C32.2438 88.3461 39.1455 90.3848 47.8662 90.3848C67.2338 90.3848 83.4982 77.9376 88.9018 58.9449C90.6139 52.936 90.6139 43.064 88.9018 37.1087C87.7248 32.9239 84.7822 26.5393 82.7492 23.6958L81.6791 22.1399L88.7413 15.0579L95.75 8.0295L91.8444 4.11292C89.7043 2.0205 87.8318 0.25 87.7248 0.25C87.5643 0.25 84.3542 3.36179 80.5556 7.17107ZM50.3808 13.6629C51.1298 14.1994 52.6279 16.3992 53.6979 18.4916L55.6775 22.2472H47.9198H40.162L41.2856 19.5646C41.8741 18.116 43.2116 15.9699 44.2282 14.736C46.3682 12.268 48.2408 11.9461 50.3808 13.6629ZM35.3469 17.6868L33.4209 22.2472H27.8567C21.4366 22.2472 21.4366 22.1935 27.1612 18.2233C29.8363 16.3992 35.7214 13.4483 37.2195 13.1264C37.273 13.1264 36.4169 15.1652 35.3469 17.6868ZM64.2377 15.5407C65.2542 16.0772 66.7522 16.9893 67.5548 17.5795L69.1063 18.5989L67.3408 20.423C66.0567 21.7107 65.0937 22.2472 63.9167 22.2472C62.3651 22.2472 62.0976 21.9789 60.3856 18.116C59.369 15.8626 58.513 13.8239 58.406 13.5556C58.192 13.0728 61.7231 14.2531 64.2377 15.5407ZM31.4948 30.6705C31.2808 31.7972 30.7993 35.5528 30.4248 38.9865L29.7828 45.3174H20.6875H11.5923L11.9668 42.6885C12.3948 39.4157 14.5884 32.9239 16.0329 30.5096L17.2099 28.6854H24.5931H31.9763L31.4948 30.6705ZM57.55 29.2756C57.764 29.6511 54.6609 33.1385 50.2203 37.5916L42.5161 45.3174H39.3595H36.2029L36.5774 40.4888C36.952 35.7674 37.808 29.8657 38.343 29.061C38.7175 28.4171 57.122 28.5781 57.55 29.2756ZM80.1811 31.7972C81.8396 35.0699 83.1237 39.2011 83.7122 43.0104L84.0867 45.3174H74.9915H65.9497L65.5752 43.2787C64.8797 39.0938 65.0402 38.8792 70.1763 33.675C74.4029 29.4365 75.366 28.6854 76.864 28.6854C78.469 28.6854 78.7366 28.9537 80.1811 31.7972ZM30.1038 54.5455L30.4783 57.389L25.0211 62.8615C21.9716 65.9197 19.136 68.3876 18.601 68.3876C16.8889 68.3876 13.0368 60.018 12.0203 54.009L11.6458 51.7556H20.741H29.7828L30.1038 54.5455ZM59.155 55.8868C58.7805 60.0716 57.978 65.6514 57.443 67.4756C57.1755 68.334 56.373 68.3876 47.7057 68.2803C38.9315 68.1194 38.236 68.0657 38.0755 67.1C37.915 66.4025 39.948 63.9882 44.9772 58.9449L52.1464 51.7556H55.838H59.5296L59.155 55.8868ZM83.9797 52.1848C83.9797 54.0626 81.5186 61.6275 79.9136 64.6857L77.9875 68.3876H70.7648C64.1842 68.3876 63.5957 68.334 63.8632 67.4219C64.1307 66.4562 64.9867 60.1789 65.5217 54.8138L65.8427 51.7556H74.938C79.9136 51.7556 83.9797 51.9702 83.9797 52.1848ZM34.0629 75.7379C34.2234 76.2744 34.9189 77.9913 35.6144 79.4935C36.4169 81.3713 36.631 82.3371 36.2029 82.3371C35.2934 82.3371 30.1038 79.8691 28.2312 78.5278L26.6797 77.4011L27.8567 76.1135C29.4083 74.5039 33.5279 74.2357 34.0629 75.7379ZM54.8214 76.0062C53.7514 79.5472 49.6853 84.4831 47.8662 84.4831C45.9402 84.4831 40.6436 77.7767 40.6436 75.3624C40.6436 75.0404 43.2651 74.8258 47.9198 74.8258H55.1424L54.8214 76.0062ZM70.0158 76.7037C67.5548 78.6888 60.8136 82.3371 59.5831 82.3371C59.1015 82.3371 59.2085 81.586 60.1181 79.4935C60.7601 77.9913 61.5091 76.2744 61.6696 75.7379C61.9371 74.9331 62.7396 74.8258 67.1803 74.8258H72.3699L70.0158 76.7037Z" fill="#6F797A"/>
</svg>
