<svg width="10" height="10" viewBox="0 0 10 10" fill="none" xmlns="http://www.w3.org/2000/svg">
<path d="M5 0.000976562C5.45898 0.000976562 5.90169 0.0595703 6.32812 0.176758C6.75456 0.293945 7.15169 0.463216 7.51953 0.68457C7.88737 0.905924 8.22428 1.16634 8.53027 1.46582C8.83626 1.7653 9.09831 2.10221 9.31641 2.47656C9.5345 2.85091 9.70215 3.24967 9.81934 3.67285C9.93652 4.09603 9.99675 4.53874 10 5.00098C10 5.45996 9.94141 5.90267 9.82422 6.3291C9.70703 6.75553 9.53776 7.15267 9.31641 7.52051C9.09505 7.88835 8.83464 8.22526 8.53516 8.53125C8.23568 8.83724 7.89876 9.09928 7.52441 9.31738C7.15006 9.53548 6.7513 9.70312 6.32812 9.82031C5.90495 9.9375 5.46224 9.99772 5 10.001C4.54102 10.001 4.09831 9.94238 3.67188 9.8252C3.24544 9.70801 2.84831 9.53874 2.48047 9.31738C2.11263 9.09603 1.77572 8.83561 1.46973 8.53613C1.16374 8.23665 0.901693 7.89974 0.683594 7.52539C0.465495 7.15104 0.297852 6.75228 0.180664 6.3291C0.0634766 5.90592 0.00325521 5.46322 0 5.00098C0 4.54199 0.0585938 4.09928 0.175781 3.67285C0.292969 3.24642 0.46224 2.84928 0.683594 2.48145C0.904948 2.11361 1.16536 1.77669 1.46484 1.4707C1.76432 1.16471 2.10124 0.902669 2.47559 0.68457C2.84993 0.466471 3.2487 0.298828 3.67188 0.181641C4.09505 0.0644531 4.53776 0.00423177 5 0.000976562ZM5.55176 5.00098L7.22168 3.33105L6.66992 2.7793L5 4.44922L3.33008 2.7793L2.77832 3.33105L4.44824 5.00098L2.77832 6.6709L3.33008 7.22266L5 5.55273L6.66992 7.22266L7.22168 6.6709L5.55176 5.00098Z" fill="#111111"/>
</svg>
