<svg width="32" height="33" viewBox="0 0 32 33" fill="none" xmlns="http://www.w3.org/2000/svg">
<g id="Icon">
<path id="Icon_2" d="M25.2903 3.93492C29.3548 6.79206 32 11.4651 32 16.7539C32 25.4397 24.8516 32.4809 16.0323 32.5C7.22582 32.519 0.012915 25.4524 1.17752e-05 16.7793C-0.00643984 11.4905 2.63872 6.80475 6.69678 3.94127C7.45162 3.41428 8.50323 3.6365 8.95485 4.43015L9.9742 6.21428C10.3548 6.88094 10.1742 7.72539 9.5484 8.18253C6.87098 10.1381 5.1613 13.2365 5.1613 16.7476C5.15485 22.6079 9.96775 27.4206 16 27.4206C21.9097 27.4206 26.8774 22.7095 26.8387 16.6841C26.8194 13.3952 25.2452 10.2206 22.4452 8.17618C21.8194 7.71904 21.6452 6.8746 22.0258 6.21428L23.0452 4.43015C23.4968 3.64285 24.5419 3.40793 25.2903 3.93492ZM18.5807 17.2619V2.02381C18.5807 1.17936 17.8903 0.5 17.0323 0.5H14.9677C14.1097 0.5 13.4194 1.17936 13.4194 2.02381V17.2619C13.4194 18.1063 14.1097 18.7857 14.9677 18.7857H17.0323C17.8903 18.7857 18.5807 18.1063 18.5807 17.2619Z" fill="#FF9400"/>
</g>
</svg>
