<svg width="11" height="10" viewBox="0 0 11 10" fill="none" xmlns="http://www.w3.org/2000/svg">
<path d="M10.4896 8.13998L6.42549 0.654343C6.31789 0.456651 6.15898 0.291626 5.96549 0.176644C5.772 0.0616621 5.55109 0.000976562 5.32601 0.000976562C5.10093 0.000976562 4.88002 0.0616621 4.68653 0.176644C4.49304 0.291626 4.33413 0.456651 4.22653 0.654343L0.158254 8.13998C0.051772 8.33111 -0.00275557 8.54681 0.000107185 8.76558C0.00296994 8.98435 0.0631229 9.19855 0.17457 9.38683C0.286018 9.57511 0.444866 9.73089 0.635283 9.83864C0.8257 9.94639 1.04103 10.0024 1.25982 10.001H9.38803C9.60502 10.0012 9.81834 9.94494 10.0071 9.83783C10.1958 9.73072 10.3534 9.5764 10.4645 9.38999C10.5756 9.20359 10.6363 8.99151 10.6407 8.77456C10.6451 8.55761 10.593 8.34325 10.4896 8.15249V8.13998ZM4.70221 2.79906C4.70221 2.63306 4.76815 2.47386 4.88553 2.35649C5.0029 2.23911 5.1621 2.17317 5.3281 2.17317C5.49409 2.17317 5.65329 2.23911 5.77067 2.35649C5.88804 2.47386 5.95399 2.63306 5.95399 2.79906V5.67397C5.95399 5.83997 5.88804 5.99917 5.77067 6.11654C5.65329 6.23392 5.49409 6.29986 5.3281 6.29986C5.1621 6.29986 5.0029 6.23392 4.88553 6.11654C4.76815 5.99917 4.70221 5.83997 4.70221 5.67397V2.79906ZM5.34479 8.43623C5.20284 8.43623 5.06408 8.39414 4.94606 8.31528C4.82804 8.23642 4.73605 8.12433 4.68173 7.99319C4.62741 7.86205 4.6132 7.71775 4.64089 7.57853C4.66858 7.43931 4.73694 7.31143 4.83731 7.21106C4.93768 7.11069 5.06556 7.04234 5.20477 7.01465C5.34399 6.98695 5.48829 7.00117 5.61943 7.05549C5.75057 7.10981 5.86266 7.20179 5.94152 7.31982C6.02038 7.43784 6.06247 7.5766 6.06247 7.71854C6.06247 7.90888 5.98686 8.09143 5.85227 8.22602C5.71768 8.36062 5.53513 8.43623 5.34479 8.43623Z" fill="#FF9400"/>
</svg>
