<svg width="24" height="24" viewBox="0 0 24 24" fill="none" xmlns="http://www.w3.org/2000/svg">
<g id="Icon">
<path id="Icon_2" d="M19.0242 14.2421C17.0959 16.3767 8.82069 23.0142 8.46938 23.2905C8.06343 23.6822 6.94316 24.335 5.88143 23.7946C5.57307 23.6397 5.21005 23.333 5.21005 22.7197C5.21005 22.1337 5.55355 21.5325 5.59258 21.4687L9.62479 14.5245C8.87143 14.2876 7.30227 13.7957 6.29519 13.4526C5.2725 13.1156 4 12.6935 4 11.6095C4 11.0873 4.31617 10.477 4.97194 9.76039C6.90412 7.61974 15.1754 0.988272 15.5306 0.705888C15.9327 0.320267 17.0529 -0.332555 18.1186 0.201849C18.423 0.356704 18.786 0.669452 18.786 1.27673C18.786 1.86275 18.4425 2.46395 18.4035 2.53379L14.3674 9.47193C15.1286 9.70877 16.6938 10.2067 17.7048 10.5438C18.7275 10.8808 20 11.3029 20 12.3929C20 12.9152 19.6799 13.5194 19.0242 14.2421Z" fill="#6F797A"/>
</g>
</svg>
