<svg width="32" height="33" viewBox="0 0 32 33" fill="none" xmlns="http://www.w3.org/2000/svg">
<g id="Icon" clip-path="url(#clip0_3202_18830)">
<path id="Icon_2" fill-rule="evenodd" clip-rule="evenodd" d="M20.8 0.5C21.6837 0.5 22.4 1.29594 22.4 2.27778V30.7222C22.4 31.7041 21.6837 32.5 20.8 32.5C19.9163 32.5 19.2 31.7041 19.2 30.7222V2.27778C19.2 1.29594 19.9163 0.5 20.8 0.5ZM16 5.83333C16.8837 5.83333 17.6 6.62927 17.6 7.61111V25.3889C17.6 26.3707 16.8837 27.1667 16 27.1667C15.1163 27.1667 14.4 26.3707 14.4 25.3889V7.61111C14.4 6.62927 15.1163 5.83333 16 5.83333ZM6.4 7.61111C7.28366 7.61111 8 8.40705 8 9.38889V23.6111C8 24.593 7.28366 25.3889 6.4 25.3889C5.51634 25.3889 4.8 24.593 4.8 23.6111V9.38889C4.8 8.40705 5.51634 7.61111 6.4 7.61111ZM25.6 9.38889C26.4837 9.38889 27.2 10.1848 27.2 11.1667V21.8333C27.2 22.8152 26.4837 23.6111 25.6 23.6111C24.7163 23.6111 24 22.8152 24 21.8333V11.1667C24 10.1848 24.7163 9.38889 25.6 9.38889ZM11.2 11.1667C12.0837 11.1667 12.8 11.9626 12.8 12.9444V20.0556C12.8 21.0374 12.0837 21.8333 11.2 21.8333C10.3163 21.8333 9.6 21.0374 9.6 20.0556V12.9444C9.6 11.9626 10.3163 11.1667 11.2 11.1667ZM1.6 12.9444C2.48366 12.9444 3.2 13.7404 3.2 14.7222V18.2778C3.2 19.2596 2.48366 20.0556 1.6 20.0556C0.716344 20.0556 0 19.2596 0 18.2778V14.7222C0 13.7404 0.716344 12.9444 1.6 12.9444ZM30.4 12.9444C31.2837 12.9444 32 13.7404 32 14.7222V18.2778C32 19.2596 31.2837 20.0556 30.4 20.0556C29.5163 20.0556 28.8 19.2596 28.8 18.2778V14.7222C28.8 13.7404 29.5163 12.9444 30.4 12.9444Z" fill="#FF9400"/>
</g>
<defs>
<clipPath id="clip0_3202_18830">
<rect width="32" height="32" fill="white" transform="translate(0 0.5)"/>
</clipPath>
</defs>
</svg>
