<svg width="32" height="32" viewBox="0 0 32 32" fill="none" xmlns="http://www.w3.org/2000/svg">
<path d="M16 4C9.376 4 4 9.376 4 16C4 22.624 9.376 28 16 28C22.624 28 28 22.624 28 16C28 9.376 22.624 4 16 4ZM17.2 24.4H14.8V22H17.2V24.4ZM19.684 15.1L18.604 16.204C17.74 17.08 17.2 17.8 17.2 19.6H14.8V19C14.8 17.68 15.34 16.48 16.204 15.604L17.692 14.092C18.136 13.66 18.4 13.06 18.4 12.4C18.4 11.08 17.32 10 16 10C14.68 10 13.6 11.08 13.6 12.4H11.2C11.2 9.748 13.348 7.6 16 7.6C18.652 7.6 20.8 9.748 20.8 12.4C20.8 13.456 20.368 14.416 19.684 15.1Z" fill="#6F797A"/>
</svg>
