<svg width="22" height="20" viewBox="0 0 22 20" fill="none" xmlns="http://www.w3.org/2000/svg">
<path d="M21.1268 17.0094L12.4547 1.05134C12.2821 0.733304 12.0268 0.467756 11.7158 0.282714C11.4049 0.0976731 11.0497 0 10.6878 0C10.326 0 9.97082 0.0976731 9.65984 0.282714C9.34886 0.467756 9.0936 0.733304 8.92097 1.05134L0.255175 17.0094C0.0838092 17.3162 -0.0041225 17.6626 0.000148489 18.0141C0.00441948 18.3655 0.100744 18.7097 0.279516 19.0122C0.458289 19.3148 0.713263 19.5653 1.01901 19.7386C1.32476 19.9119 1.6706 20.002 2.02205 20H19.3599C19.7078 19.9996 20.0496 19.909 20.3519 19.737C20.6543 19.565 20.9069 19.3174 21.0849 19.0186C21.263 18.7197 21.3604 18.3798 21.3677 18.032C21.3751 17.6842 21.292 17.3405 21.1268 17.0344V17.0094ZM9.88869 5.01588C9.88869 4.78406 9.98078 4.56174 10.1447 4.39782C10.3086 4.2339 10.5309 4.14181 10.7628 4.14181C10.9946 4.14181 11.2169 4.2339 11.3808 4.39782C11.5447 4.56174 11.6368 4.78406 11.6368 5.01588V12.5079C11.6368 12.7397 11.5447 12.9621 11.3808 13.126C11.2169 13.2899 10.9946 13.382 10.7628 13.382C10.5309 13.382 10.3086 13.2899 10.1447 13.126C9.98078 12.9621 9.88869 12.7397 9.88869 12.5079V5.01588ZM10.7628 17.409C10.5405 17.409 10.3232 17.3431 10.1384 17.2196C9.9536 17.0961 9.80956 16.9206 9.7245 16.7152C9.63944 16.5099 9.61719 16.2839 9.66055 16.0659C9.70391 15.8479 9.81095 15.6477 9.96811 15.4905C10.1253 15.3333 10.3255 15.2263 10.5435 15.1829C10.7615 15.1396 10.9875 15.1618 11.1928 15.2469C11.3982 15.332 11.5737 15.476 11.6972 15.6608C11.8207 15.8456 11.8866 16.0629 11.8866 16.2852C11.8866 16.4327 11.8575 16.5789 11.801 16.7152C11.7445 16.8516 11.6618 16.9755 11.5574 17.0798C11.4531 17.1842 11.3292 17.2669 11.1928 17.3234C11.0565 17.3799 10.9103 17.409 10.7628 17.409Z" fill="#FF9400"/>
</svg>
