<svg width="11" height="12" viewBox="0 0 11 12" fill="none" xmlns="http://www.w3.org/2000/svg">
<path d="M0.199219 7.33382C0.199219 6.16716 0.476997 5.12827 1.03255 4.21715C1.58811 3.30604 2.19922 2.53938 2.86589 1.91716C3.53255 1.29493 4.14366 0.819822 4.69922 0.491822L5.53255 0.000488281V2.20049C5.53255 2.6116 5.67144 2.93649 5.94922 3.17516C6.227 3.41382 6.53811 3.53338 6.88255 3.53382C7.07144 3.53382 7.25211 3.49493 7.42455 3.41716C7.597 3.33938 7.75522 3.2116 7.89922 3.03382L8.19922 2.66716C8.99922 3.13382 9.64366 3.78093 10.1326 4.60849C10.6214 5.43604 10.8659 6.34449 10.8659 7.33382C10.8659 8.3116 10.627 9.20338 10.1492 10.0092C9.67144 10.8149 9.04366 11.4507 8.26589 11.9165C8.45477 11.6498 8.60211 11.358 8.70788 11.0412C8.81366 10.7243 8.86633 10.3885 8.86588 10.0338C8.86588 9.58938 8.78255 9.16982 8.61588 8.77516C8.44922 8.38049 8.21033 8.02782 7.89922 7.71715L5.53255 5.40049L3.18255 7.71715C2.86033 8.03938 2.61589 8.39493 2.44922 8.78382C2.28255 9.17271 2.19922 9.58938 2.19922 10.0338C2.19922 10.3894 2.25211 10.7256 2.35789 11.0425C2.46366 11.3594 2.61077 11.6509 2.79922 11.9172C2.02144 11.4505 1.39366 10.8143 0.915885 10.0085C0.438108 9.20271 0.199219 8.31116 0.199219 7.33382ZM5.53255 7.26715L6.94922 8.65049C7.13811 8.83938 7.28255 9.05049 7.38255 9.28382C7.48255 9.51715 7.53255 9.76715 7.53255 10.0338C7.53255 10.5783 7.33811 11.042 6.94922 11.4252C6.56033 11.8083 6.08811 12 5.53255 12.0005C4.977 12.0005 4.50477 11.8087 4.11589 11.4252C3.727 11.0416 3.53255 10.5778 3.53255 10.0338C3.53255 9.77827 3.58255 9.53093 3.68255 9.29182C3.78255 9.05271 3.927 8.83893 4.11589 8.65049L5.53255 7.26715Z" fill="#FF9400"/>
</svg>
