<svg width="21" height="20" viewBox="0 0 21 20" fill="none" xmlns="http://www.w3.org/2000/svg">
<path d="M12.0981 5.22749V9.3642L15.6813 11.4275C15.957 11.5894 16.158 11.8533 16.2408 12.1621C16.3237 12.471 16.2818 12.8 16.1241 13.0782C16.0165 13.2606 15.8636 13.412 15.6802 13.5178C15.4968 13.6236 15.2891 13.6802 15.0774 13.6821C14.8652 13.6838 14.6566 13.6281 14.4735 13.521L10.2864 11.1054L10.2562 11.0853L10.1958 11.0451L10.1556 11.0149L10.1053 10.9746L10.0549 10.9343L10.0247 10.8941L9.97441 10.8438L9.94421 10.8136L9.90395 10.7532L9.87376 10.7129L9.84356 10.6626L9.81337 10.6123L9.79324 10.5619L9.76304 10.5015C9.76304 10.4814 9.75298 10.4713 9.75298 10.4512C9.74175 10.4329 9.73487 10.4122 9.73285 10.3908L9.71272 10.3405C9.71272 10.3204 9.70265 10.3002 9.70265 10.2801C9.70265 10.26 9.69259 10.2399 9.69259 10.2197V10.1593C9.68367 10.137 9.68022 10.1128 9.68252 10.0889V5.22749C9.68252 4.90716 9.80977 4.59995 10.0363 4.37344C10.2628 4.14694 10.57 4.01969 10.8903 4.01969C11.2107 4.01969 11.5179 4.14694 11.7444 4.37344C11.9709 4.59995 12.0981 4.90716 12.0981 5.22749ZM18.0063 2.94273C16.1175 1.0583 13.5584 0 10.8903 0C8.22226 0 5.66314 1.0583 3.77437 2.94273L2.4156 4.29144V3.18429C2.4156 3.02568 2.38436 2.86863 2.32366 2.72209C2.26296 2.57555 2.174 2.44241 2.06184 2.33025C1.94969 2.2181 1.81654 2.12913 1.67 2.06843C1.52347 2.00774 1.36641 1.97649 1.2078 1.97649C1.04919 1.97649 0.892131 2.00774 0.745595 2.06843C0.599058 2.12913 0.465911 2.2181 0.353756 2.33025C0.241602 2.44241 0.152636 2.57555 0.0919383 2.72209C0.0312407 2.86863 -2.36348e-09 3.02568 0 3.18429V7.21029C0 7.25055 0.010065 7.29081 0.010065 7.33107C0.00849852 7.34847 0.0119939 7.36594 0.0201301 7.3814C0.0192739 7.40529 0.0226822 7.42915 0.0301951 7.45185C0.0301951 7.47198 0.0402601 7.49211 0.0402601 7.51224C0.0402601 7.53237 0.050325 7.54244 0.06039 7.56257C0.070455 7.5827 0.070455 7.60283 0.070455 7.62296C0.0827791 7.6369 0.0898924 7.65468 0.0905851 7.67328L0.12078 7.72361L0.150975 7.784L0.171105 7.83432L0.211365 7.88465L0.24156 7.93497C0.251625 7.94504 0.26169 7.96517 0.28182 7.97523L0.352275 8.06582H0.36234L0.44286 8.14634L0.493185 8.17653L0.54351 8.21679L0.593835 8.24699L0.64416 8.27718L0.694485 8.30738L0.74481 8.32751L0.8052 8.34764L0.855524 8.36777H0.915914L0.976304 8.3879H5.2338C5.55413 8.3879 5.86133 8.26065 6.08784 8.03414C6.31435 7.80763 6.4416 7.50042 6.4416 7.1801C6.4416 6.85977 6.31435 6.55256 6.08784 6.32605C5.86133 6.09955 5.55413 5.9723 5.2338 5.9723H4.12665L5.48542 4.65378C6.55475 3.58285 7.91772 2.85319 9.40187 2.55711C10.886 2.26103 12.4246 2.41184 13.8231 2.99047C15.2215 3.5691 16.4168 4.54954 17.2578 5.80772C18.0989 7.06591 18.5478 8.54529 18.5478 10.0587C18.5478 11.5721 18.0989 13.0515 17.2578 14.3096C16.4168 15.5678 15.2215 16.5483 13.8231 17.1269C12.4246 17.7055 10.886 17.8563 9.40187 17.5603C7.91772 17.2642 6.55475 16.5345 5.48542 15.4636C5.25626 15.241 4.94936 15.1165 4.6299 15.1165C4.31043 15.1165 4.00354 15.241 3.77437 15.4636C3.66177 15.5758 3.57243 15.7091 3.51147 15.8559C3.45051 16.0027 3.41913 16.1601 3.41913 16.3191C3.41913 16.4781 3.45051 16.6355 3.51147 16.7823C3.57243 16.9291 3.66177 17.0624 3.77437 17.1746C5.67265 19.0081 8.21509 20.0226 10.8541 19.9996C13.4931 19.9767 16.0175 18.9182 17.8837 17.052C19.7498 15.1859 20.8083 12.6615 20.8313 10.0225C20.8542 7.38345 19.8397 4.84101 18.0063 2.94273Z" fill="#FF9400"/>
</svg>
