<svg width="31" height="40" viewBox="0 0 31 40" fill="none" xmlns="http://www.w3.org/2000/svg">
<path d="M30.1271 21.3455L28.6908 20.2V19.8L30.092 18.6545C30.3723 18.4364 30.4423 18.0364 30.2672 17.7273L28.7784 15.0364C28.7171 14.9242 28.6278 14.8312 28.5199 14.7673C28.412 14.7033 28.2896 14.6706 28.1653 14.6727C28.0778 14.6727 27.9902 14.6909 27.9026 14.7273L26.2386 15.4182C26.0985 15.3273 26.046 15.2909 25.9058 15.2182L25.6431 13.3818C25.6227 13.203 25.5404 13.0381 25.4115 12.9176C25.2826 12.7972 25.1159 12.7296 24.9425 12.7273H21.9473C21.597 12.7273 21.2993 13 21.2467 13.3455L21.0015 15.1818C20.949 15.2182 20.8789 15.2364 20.8264 15.2727L20.6687 15.3818L19.0048 14.6909C18.8475 14.6236 18.672 14.6178 18.5109 14.6747C18.3499 14.7315 18.2141 14.8471 18.129 15L16.6402 17.6909C16.465 18 16.5351 18.4 16.8153 18.6182L18.2166 19.7636V20.1818L16.8153 21.3273C16.6814 21.4325 16.5896 21.5852 16.5573 21.7562C16.525 21.9273 16.5545 22.1047 16.6402 22.2545L18.129 24.9455C18.2516 25.1818 18.4968 25.3091 18.742 25.3091C18.8296 25.3091 18.9172 25.2909 19.0048 25.2545L20.6687 24.5818C20.8088 24.6727 20.8789 24.7091 21.019 24.7818L21.2818 26.6182C21.3343 26.9818 21.6321 27.2364 21.9824 27.2364H24.9775C25.3278 27.2364 25.6256 26.9636 25.6781 26.6182L25.9409 24.7818C25.9934 24.7455 26.0635 24.7273 26.116 24.6909L26.2737 24.5818L27.9376 25.2727C28.0949 25.34 28.2704 25.3458 28.4315 25.289C28.5925 25.2321 28.7282 25.1165 28.8134 24.9636L30.3022 22.2727C30.3879 22.1228 30.4174 21.9454 30.3851 21.7744C30.3528 21.6034 30.2609 21.4507 30.1271 21.3455V21.3455ZM23.4537 22.7273C21.9999 22.7273 20.8264 21.5091 20.8264 20C20.8264 18.4909 21.9999 17.2727 23.4537 17.2727C24.9075 17.2727 26.081 18.4909 26.081 20C26.081 21.5091 24.9075 22.7273 23.4537 22.7273ZM21.7021 30.9091H4.18668V9.09091H21.7021V10.9091H25.2052V3.63636C25.2052 1.63636 23.6288 0 21.7021 0H4.18668C2.25998 0 0.683594 1.63636 0.683594 3.63636V36.3636C0.683594 38.3636 2.25998 40 4.18668 40H21.7021C23.6288 40 25.2052 38.3636 25.2052 36.3636V29.0909H21.7021V30.9091ZM4.18668 3.63636H21.7021V5.45455H4.18668V3.63636ZM21.7021 36.3636H4.18668V34.5455H21.7021V36.3636Z" fill="#FF9400"/>
</svg>

