<?xml version="1.0" encoding="UTF-8"?>
<!DOCTYPE svg PUBLIC "-//W3C//DTD SVG 1.1//EN" "http://www.w3.org/Graphics/SVG/1.1/DTD/svg11.dtd">
<!-- Creator: CorelDRAW 2020 (64 Bit) -->
<svg xmlns="http://www.w3.org/2000/svg" xml:space="preserve" width="27.4108mm" height="27.4108mm" version="1.1" style="shape-rendering:geometricPrecision; text-rendering:geometricPrecision; image-rendering:optimizeQuality; fill-rule:evenodd; clip-rule:evenodd"
viewBox="0 0 574.88 574.88"
 xmlns:xlink="http://www.w3.org/1999/xlink"
 xmlns:xodm="http://www.corel.com/coreldraw/odm/2003">
 <defs>
  <style type="text/css">
   <![CDATA[
    .fil0 {fill:#FEFEFE}
   ]]>
  </style>
 </defs>
 <g id="Camada_x0020_1">
  <metadata id="CorelCorpID_0Corel-Layer"/>
  <g>
   <path class="fil0" d="M287.44 0c158.75,0 287.44,128.69 287.44,287.44 0,158.75 -128.69,287.44 -287.44,287.44 -158.75,0 -287.44,-128.69 -287.44,-287.44 0,-158.75 128.69,-287.44 287.44,-287.44zm137.68 163.08l2.48 -2.48 -2.48 2.48c0.2,0.49 0.38,0.98 0.55,1.48 2.84,8.51 0.88,18.3 -5.86,25.04l-97.31 97.31 97.31 97.31c9.5,9.49 9.5,25.03 0,34.53l0 0c-9.49,9.5 -25.03,9.5 -34.53,0l-97.31 -97.31 -97.31 97.31c-9.49,9.5 -25.03,9.5 -34.53,0l0 0c-9.5,-9.49 -9.5,-25.03 0,-34.53l97.31 -97.31 -97.31 -97.31c-9.5,-9.49 -9.5,-25.03 0,-34.53l0 0c9.49,-9.5 25.03,-9.5 34.53,0l97.31 97.31 97.31 -97.31c9.49,-9.5 25.03,-9.5 34.53,0l0 0c2.36,2.36 4.13,5.09 5.31,8zm0 0l2.48 -2.48 -2.48 2.48 2.48 -2.48 -2.48 2.48 2.48 -2.48 -2.48 2.48zm2.48 -2.48l-2.48 2.48 2.48 -2.48zm-2.48 2.48l2.48 -2.48 -2.48 2.48 0 0zm0 0l2.48 -2.48 -2.48 2.48 0 0z"/>
  </g>
 </g>
</svg>
