<?xml version="1.0" encoding="UTF-8"?>
<!DOCTYPE svg PUBLIC "-//W3C//DTD SVG 1.1//EN" "http://www.w3.org/Graphics/SVG/1.1/DTD/svg11.dtd">
<!-- Creator: CorelDRAW 2020 (64 Bit) -->
<svg xmlns="http://www.w3.org/2000/svg" xml:space="preserve" width="5.2916mm" height="5.2916mm" version="1.1" style="shape-rendering:geometricPrecision; text-rendering:geometricPrecision; image-rendering:optimizeQuality; fill-rule:evenodd; clip-rule:evenodd"
viewBox="0 0 56.21 56.21"
 xmlns:xlink="http://www.w3.org/1999/xlink"
 xmlns:xodm="http://www.corel.com/coreldraw/odm/2003">
 <defs>
  <style type="text/css">
   <![CDATA[
    .fil0 {fill:#0963BD;fill-rule:nonzero}
   ]]>
  </style>
 </defs>
 <g id="Camada_x0020_1">
  <metadata id="CorelCorpID_0Corel-Layer"/>
  <path class="fil0" d="M28.11 0l0 0c15.52,0 28.11,12.59 28.11,28.11l0 0c0,15.52 -12.59,28.11 -28.11,28.11l0 0c-15.52,-0 -28.11,-12.59 -28.11,-28.11l-0 0c0,-15.52 12.59,-28.11 28.11,-28.11zm-8.66 22.45c0.37,0 0.72,0.05 1.06,0.16 1.27,-1.42 2.67,-2.71 4.18,-3.85 -0.16,-0.65 -0.13,-1.34 0.09,-1.97 -1.71,-1.23 -3.57,-2.25 -5.52,-3.03 -1.84,1.14 -3.45,2.62 -4.73,4.36 0.95,1.69 2.08,3.26 3.37,4.69 0.47,-0.23 1,-0.35 1.55,-0.35zm-3.59 3.59c0,-0.5 0.11,-0.98 0.29,-1.42 -1.15,-1.27 -2.19,-2.64 -3.11,-4.09 -1.18,2.35 -1.8,4.94 -1.8,7.57 -0,3.04 0.82,6.02 2.37,8.62 0.53,-2.98 1.53,-5.86 2.97,-8.53 -0.47,-0.62 -0.73,-1.38 -0.73,-2.17l0 0zm12.32 -11.7c0.95,0 1.81,0.37 2.45,0.97 1.89,-0.82 3.87,-1.43 5.89,-1.82 -2.56,-1.48 -5.46,-2.25 -8.41,-2.25 -2.03,-0 -4.04,0.36 -5.93,1.08 1.46,0.72 2.86,1.56 4.17,2.52 0.54,-0.32 1.16,-0.5 1.82,-0.5zm5.36 16.9c0.22,-0.46 0.54,-0.87 0.93,-1.2 -1.05,-3.22 -2.71,-6.21 -4.9,-8.8 -0.57,0.24 -1.18,0.33 -1.79,0.26 -0.61,-0.07 -1.19,-0.29 -1.69,-0.65 -1.3,0.99 -2.5,2.09 -3.6,3.31 0.28,0.44 0.45,0.93 0.52,1.44 0.07,0.51 0.02,1.03 -0.14,1.52 3.21,2.15 6.85,3.55 10.67,4.12l0 0zm4.65 4.85c0.13,1.88 0.08,3.78 -0.15,5.65 2.9,-2.11 5.04,-5.09 6.14,-8.5 -1.32,0.32 -2.65,0.54 -4,0.67 -0.16,0.48 -0.42,0.93 -0.76,1.31 -0.34,0.38 -0.76,0.68 -1.23,0.88l0 0zm-5.49 -2.43c-4.08,-0.68 -7.96,-2.23 -11.38,-4.55 -0.78,0.48 -1.71,0.64 -2.61,0.45 -1.65,3.12 -2.64,6.54 -2.93,10.05 1.62,1.74 3.58,3.11 5.76,4.04 2.77,-4.26 6.62,-7.71 11.16,-10l0 0zm6.73 -18.04c-2.65,0.26 -5.24,0.92 -7.69,1.96 0.07,0.67 -0.05,1.34 -0.35,1.94 2.43,2.85 4.28,6.14 5.44,9.7 0.69,0.01 1.37,0.23 1.95,0.62 0.58,0.39 1.03,0.94 1.3,1.58 1.62,-0.16 3.21,-0.48 4.73,-0.92 0.39,-2.73 0.1,-5.51 -0.83,-8.1 -0.94,-2.59 -2.5,-4.91 -4.54,-6.76l0 0zm-4.93 19.96c-4.23,1.98 -7.85,5.05 -10.49,8.9 1.34,0.34 2.71,0.51 4.1,0.5 2.46,0 4.89,-0.54 7.12,-1.57 0.35,-1.7 0.53,-3.46 0.53,-5.26 0,-0.65 -0.03,-1.3 -0.08,-1.93 -0.43,-0.14 -0.83,-0.35 -1.17,-0.64z"/>
 </g>
</svg>
