<svg width="80" height="80" viewBox="0 0 80 80" fill="none" xmlns="http://www.w3.org/2000/svg">
<path d="M41.2618 13.7226C40.5694 12.8753 39.2728 12.8767 38.5818 13.7226C33.0755 20.4673 19.968 38.1534 19.968 47.1841C19.968 58.1861 28.9191 67.1372 39.9218 67.1372C50.9238 67.1372 59.8749 58.1861 59.8749 47.1841C59.8749 38.147 46.7048 20.3905 41.2618 13.7226ZM39.9211 62.2657C30.8271 62.2657 24.9099 56.2782 24.9099 47.1841C24.9099 40.0613 34.3131 26.1406 39.9211 18.9993C45.5291 26.1406 55.0034 40.0621 55.0034 47.1841C55.0034 56.2782 49.0158 62.2657 39.9211 62.2657Z" fill="black"/>
<path d="M37.2724 55.637C34.9664 54.8124 33.0307 53.1796 31.8208 51.0384C31.3211 50.1541 30.1986 49.8421 29.315 50.3418C28.4307 50.8422 28.1187 51.964 28.6184 52.8483C30.2626 55.7585 32.8963 57.9793 36.0341 59.101C36.993 59.4429 38.0437 58.9425 38.3849 57.9878C38.7268 57.0317 38.2285 55.9789 37.2724 55.637Z" fill="black"/>
<path fill-rule="evenodd" clip-rule="evenodd" d="M16.6696 11.2965C26.7396 3.54177 40.5644 0.87605 52.5701 6.22881C56.4115 7.94198 59.7739 10.0006 62.8739 12.7403C65.0136 14.6312 67.105 17.3587 68.7058 19.6761C70.274 21.9459 71.8585 25.4483 72.7627 28.1865C73.5396 30.5395 73.7238 32.4673 74.2626 34.9397C75.3872 33.8862 75.7412 33.0609 77.2311 33.0467C79.0495 33.0289 79.3054 33.9878 79.9999 35.0499V36.4602L75.2109 42.3646C74.3365 43.2894 73.8304 44.5419 72.1186 44.6436C70.1993 44.7588 68.6447 42.5864 67.2351 41.3936C66.0038 40.3521 63.4611 38.575 63.1689 37.3353C62.7581 35.5958 63.7981 34.2899 65.0861 33.931C66.8647 33.4348 67.8983 34.8679 68.7435 35.4387C68.3625 30.9112 66.537 26.8437 64.6418 23.5396L62.2989 20.1254C61.0925 18.5707 58.6721 16.4183 57.1096 15.0939C54.5775 12.9478 49.5247 10.6262 46.3152 9.90253C37.1651 7.84104 28.467 9.34806 21.1032 14.8686C17.0378 17.9615 14.8143 12.8618 16.6696 11.2965Z" fill="black"/>
<path fill-rule="evenodd" clip-rule="evenodd" d="M63.3303 69.4916C53.2603 77.2463 39.4356 79.9121 27.4299 74.5593C23.5884 72.8461 20.226 70.7875 17.126 68.0478C14.9863 66.157 12.895 63.4294 11.2941 61.112C9.72596 58.8422 8.14146 55.3398 7.23725 52.6016C6.46028 50.2487 6.27617 48.3208 5.73734 45.8485C4.61276 46.902 4.25875 47.7273 2.76879 47.7415C0.950417 47.7593 0.694508 46.8003 0 45.7383V44.3279L4.78905 38.4236C5.66341 37.4987 6.16954 36.2462 7.88128 36.1446C9.8006 36.0294 11.3552 38.2018 12.7649 39.3946C13.9961 40.436 16.5388 42.2131 16.831 43.4529C17.2419 45.1924 16.2019 46.4982 14.9138 46.8572C13.1352 47.3534 12.1016 45.9203 11.2564 45.3494C11.6375 49.8769 13.4629 53.9444 15.3581 57.2485L17.7011 60.6627C18.9074 62.2174 21.3279 64.3699 22.8903 65.6942C25.4224 67.8403 30.4752 70.1619 33.6847 70.8856C42.8349 72.9471 51.5329 71.4401 58.8967 65.9195C62.9621 62.8266 65.1857 67.9263 63.3303 69.4916Z" fill="black"/>
</svg>
