<svg width="80" height="80" viewBox="0 0 80 80" fill="none" xmlns="http://www.w3.org/2000/svg">
<path fill-rule="evenodd" clip-rule="evenodd" d="M43.0231 75.9039L42.19 75.788C41.8811 75.479 41.8149 75.4625 41.699 74.8556H50.6421C50.5262 75.6887 50.2338 75.8873 49.3125 75.8873L43.0231 75.9039V75.9039ZM61.814 71.1537C62.0457 72.1357 65.8304 75.8542 66.6138 76.8528C66.8289 77.1286 66.8896 77.2445 67.1544 77.4927C67.5793 77.8845 68.1696 78.1824 68.9585 78.0831C70.1888 77.9341 71.2039 76.7093 70.8288 75.2804C70.6467 74.6074 69.4054 73.3495 68.782 72.6267L66.5696 70.1551C66.2441 69.7469 65.7973 69.3055 65.4387 68.9414C63.9822 67.5015 61.2954 68.8917 61.8195 71.1372V71.1537H61.814ZM30.505 71.5951C30.9629 70.2544 29.8816 68.991 28.8168 68.7924C27.0955 68.4835 26.439 69.791 25.8321 70.5303C25.0156 71.5123 21.7992 74.6736 21.5233 75.5894C21.082 77.0624 22.1302 78.2762 23.2777 78.4527C24.7177 78.6679 25.4238 77.6858 26.1797 76.7149C26.5217 76.2735 26.9355 75.959 27.2941 75.4846C27.9175 74.6846 30.1298 72.6543 30.4884 71.5896H30.505V71.5951ZM75.27 50.0291L68.3075 51.618C68.0151 51.767 67.4413 52.3242 67.2758 52.6331C66.6358 53.88 67.342 56.3516 70.2109 55.7116C71.6839 55.3861 76.0423 54.5972 77.1071 54.1227C79.4187 53.0745 78.6133 49.2898 75.2865 50.0291H75.27V50.0291ZM16.056 50.0126C15.1236 50.3712 14.2519 51.3697 14.6933 52.7821C15.0519 53.9296 16.0063 54.2055 17.2476 54.4703C18.6214 54.7627 23.377 56.1089 24.4915 55.7171C25.8818 55.2096 27.5037 52.1642 23.2446 51.2484C21.8985 50.956 17.0656 49.6098 16.0339 50.0181H16.0505L16.056 50.0126ZM26.77 63.8327C27.3769 62.5086 26.4776 61.2948 25.5893 60.9197C24.5577 60.4783 23.0515 61.1348 22.0199 61.4272C20.0889 61.9845 16.4808 62.7072 15.8905 64.0809C15.267 65.5209 16.216 66.6684 17.1373 67.027C18.2848 67.4849 22.6433 65.8795 24.017 65.4878C25.3742 65.096 26.2624 64.9471 26.7534 63.8327H26.77ZM65.9462 63.2423C66.1117 64.583 67.1269 64.9636 68.3406 65.3222C69.4881 65.6643 74.3872 67.2532 75.2369 67.1373C76.3844 67.0049 77.2837 65.9401 77.1513 64.6988C76.9526 62.6851 74.0562 62.3265 71.3529 61.5707C70.4867 61.3279 68.633 60.6218 67.7834 60.7542C66.7021 60.9197 65.8028 61.9845 65.9462 63.2423V63.2423ZM35.5531 42.366L40.4522 70.7786C39.6025 70.7786 38.7474 70.7951 37.8978 70.7786C36.7502 70.762 36.7006 70.6627 36.4413 69.6807C36.0827 68.3566 35.7682 67.0436 35.4096 65.736C34.7034 63.1651 34.0469 60.5445 33.3628 57.9736C33.087 56.9585 29.363 43.1384 29.3133 42.3825L35.542 42.366H35.5586H35.5531ZM44.6285 70.6958L39.746 42.3494H52.5565L47.6905 70.762L44.5954 70.6958H44.6285V70.6958ZM56.8045 42.3494L63.0167 42.366C62.8346 43.7232 56.9866 65.1457 56.0211 69.0738C55.6791 70.4641 55.7894 70.3207 55.2984 70.5965C54.6419 70.9717 52.7606 70.7786 51.8558 70.7786L56.8045 42.3494V42.3494ZM27.0514 38.2889H27.0348C24.8004 38.2889 23.366 38.1179 23.1343 35.8504H69.124C68.9254 38.6641 66.4703 38.2889 64.9642 38.2889H27.0514V38.2889ZM28.4913 31.7402C28.8002 31.0672 29.2802 30.7582 29.705 30.1844C30.0967 29.6438 30.5381 29.219 30.9684 28.6618C32.8056 26.1736 33.8704 24.9599 35.5089 22.08C36.4413 20.4249 36.5903 19.3104 38.1792 19.3104H54.1398C55.6791 19.3104 55.9108 20.4911 56.8432 22.1903C57.4831 23.3213 58.2831 24.5626 59.0058 25.5943L63.8056 31.7513H28.4637L28.4968 31.7347L28.4913 31.7402ZM14.3512 14.2679C15.3829 14.3341 15.9732 15.3161 15.9732 16.563V19.2001C15.9732 20.4966 15.416 21.4455 14.3512 21.6055V14.2679ZM40.2866 15.1837C40.6784 13.97 41.3845 14.1189 42.7141 14.1189H49.7428C51.0062 14.1189 51.6737 14.0031 52.0213 15.2499L40.2922 15.1837H40.2866ZM44.3361 4.19385C48.2863 4.1773 47.8891 3.94559 48.0546 4.78417C48.1042 5.01589 48.1208 5.32484 48.1704 5.58414L48.7939 10.0695L43.5031 10.0364L44.3361 4.20489V4.18834V4.19385ZM20.0558 17.7381C22.8253 17.3795 23.8074 17.5726 26.1521 16.2485C30.6264 13.7107 29.9533 9.1095 32.607 7.76335C33.8869 7.10683 37.9805 7.33855 39.7018 7.3551L39.6356 8.11093C37.5061 8.16058 34.3945 7.73577 32.8056 8.8502C30.4609 10.4888 31.2167 14.3176 26.1521 17.1367C24.6625 17.9698 22.0585 18.5932 20.0392 18.4277V17.7381H20.0558V17.7381ZM14.4009 10.0253C14.2188 6.84753 15.2836 3.32768 11.9899 1.46294C10.3679 0.547113 6.46742 0.547113 4.94473 1.20364C2.78206 2.13601 2.05934 4.03386 2.05934 6.47789C2.05934 8.19919 2.38484 9.75499 4.35441 9.55638C6.55018 9.34121 6.12537 6.78685 6.14192 5.88757C6.17502 4.69038 6.78189 4.889 7.86322 4.889C8.81215 4.889 9.53487 4.72349 10.1748 5.1814C10.4397 5.57311 10.2907 20.6731 10.2907 22.4386C10.2907 28.4962 11.1569 31.3485 7.43841 34.8849C7.12946 35.1773 6.68258 35.5415 6.15847 35.6518C6.15847 29.0535 6.20812 22.4386 6.15847 15.8513C6.14192 13.8707 4.76818 13.1645 3.52134 13.5452C2.06485 13.9865 2.06485 15.283 2.06485 17.0154C2.06485 19.7352 1.86624 35.3042 2.16416 36.6173C2.68827 38.9565 5.49091 40.7936 8.17769 39.2875C10.3569 38.0738 11.8134 36.5676 13.0106 34.2946C14.5002 31.4478 14.3843 29.3514 14.3843 25.8591C18.1855 24.6454 17.1704 25.1695 19.3496 22.6151C28.2485 23.2551 32.6401 18.8139 35.0455 12.2487L37.1751 12.199C36.7999 13.3466 36.3585 13.2638 36.193 15.5423C33.258 16.4416 32.8166 19.0125 30.5547 22.3889C30.2291 22.8799 24.0005 31.3154 22.6709 31.7899C22.3619 31.9058 21.915 31.9554 21.5399 32.1154C17.2311 33.9139 18.7538 41.6598 24.999 42.366L29.683 60.0535C30.2071 62.1003 32.4028 71.6006 33.4842 72.9247C34.9903 74.7729 36.7613 74.6956 37.0537 74.9053C37.5612 75.5949 37.8261 76.5604 38.2509 77.3769C39.906 80.505 43.2824 79.9644 46.2285 79.9644C48.5566 79.9644 50.7193 80.2568 52.4572 79.1479C53.8971 78.2155 54.4047 76.5935 55.2101 74.8722C59.1107 74.0888 59.3093 72.4999 60.3244 68.8476L64.9587 51.2428C65.3504 49.7864 65.7311 48.3464 66.1228 46.8403C66.4648 45.5162 66.8455 43.6956 67.2869 42.4708C68.0261 42.0957 69.0082 42.046 69.7419 41.6709C74.0673 39.4089 74.3762 33.3347 70.5915 32.0437C70.1998 31.9113 69.6592 31.8947 69.3447 31.6685L61.7092 22.3172C58.7245 17.865 59.7451 17.374 56.1039 15.4706C56.0377 12.85 54.6474 11.4763 53.0089 10.5439C52.744 8.57987 52.4516 6.7096 52.1592 4.74555C51.911 3.09045 51.5855 1.61741 49.8642 0.651936C48.849 0.0781675 41.3294 -1.31212 40.408 3.28906C37.9971 3.28906 35.051 3.1401 32.7725 3.54836C27.2334 4.54694 27.2003 9.53983 25.3356 11.6363C24.0722 13.0597 22.1578 13.65 19.5869 13.6003C19.1951 13.1921 19.0462 12.7342 18.6876 12.337C18.4117 12.0114 17.838 11.4873 17.5566 11.2722C16.3925 10.4391 15.8518 10.4722 14.3954 10.0419V10.0253H14.4009Z" fill="black"/>
</svg>
