<svg width="251" height="182" viewBox="0 0 251 182" fill="none" xmlns="http://www.w3.org/2000/svg">
<path d="M47.8742 90.5642C47.8742 69.7052 55.9974 50.0939 70.7447 35.3465C73.3793 32.712 73.3793 28.4357 70.7447 25.8011C68.1101 23.1665 63.8371 23.1665 61.2009 25.8011C43.9023 43.1014 34.3745 66.1017 34.3745 90.5674C34.3745 115.031 43.9023 138.032 61.2009 155.332C62.5206 156.648 64.2471 157.308 65.9736 157.308C67.7017 157.308 69.4282 156.648 70.7479 155.332C73.3825 152.694 73.3825 148.421 70.7479 145.787C55.9974 131.033 47.8742 111.422 47.8742 90.5642Z" fill="black"/>
<path d="M14.1833 90.564C14.1833 60.7058 25.8108 32.6366 46.926 11.5214C49.5606 8.88676 49.5606 4.61054 46.926 1.97595C44.2914 -0.658649 40.0184 -0.658649 37.3806 1.97595C13.7156 25.6377 0.683594 57.0975 0.683594 90.564C0.683594 124.029 13.7156 155.489 37.379 179.149C38.6955 180.465 40.422 181.125 42.1485 181.125C43.8766 181.125 45.6031 180.465 46.9228 179.149C49.5574 176.514 49.5574 172.238 46.9228 169.604C25.8108 148.492 14.1833 120.422 14.1833 90.564Z" fill="black"/>
<path d="M190.165 25.7994C187.527 23.1648 183.254 23.1648 180.62 25.7994C177.985 28.4356 177.985 32.7086 180.62 35.3432C195.367 50.0922 203.492 69.7051 203.492 90.5609C203.492 111.421 195.367 131.031 180.62 145.778C177.985 148.413 177.985 152.689 180.62 155.324C181.939 156.64 183.664 157.3 185.394 157.3C187.12 157.3 188.847 156.64 190.167 155.324C207.465 138.025 216.993 115.023 216.993 90.5593C216.99 66.0968 207.464 43.0981 190.165 25.7994Z" fill="black"/>
<path d="M213.987 1.97595C211.349 -0.658649 207.076 -0.658649 204.441 1.97595C201.807 4.61375 201.807 8.88676 204.441 11.5214C225.553 32.6334 237.184 60.7042 237.184 90.564C237.184 120.422 225.556 148.492 204.444 169.604C201.807 172.238 201.807 176.514 204.444 179.149C205.764 180.469 207.489 181.125 209.219 181.125C210.945 181.125 212.672 180.465 213.988 179.149C237.652 155.489 250.684 124.027 250.684 90.564C250.684 57.1007 237.65 25.6377 213.987 1.97595Z" fill="black"/>
<path d="M73.0062 103.793C80.5349 132.944 110.222 150.652 139.315 143.346C168.407 136.039 185.888 106.485 178.36 77.3348C170.831 48.1843 141.144 30.4761 112.051 37.7824C82.9586 45.0887 65.4776 74.6428 73.0062 103.793Z" fill="black"/>
<path d="M79.6626 102.122C86.24 127.589 112.176 143.06 137.593 136.677C163.009 130.293 178.282 104.474 171.704 79.0064C165.127 53.5392 139.191 38.0685 113.774 44.4516C88.3575 50.8347 73.0853 76.6545 79.6626 102.122Z" fill="#FF9400"/>
</svg>
