<svg width="300" height="301" viewBox="0 0 300 301" fill="none" xmlns="http://www.w3.org/2000/svg">
<g clip-path="url(#clip0_1185_30261)">
<path d="M175.763 165.972H170.343L168.422 164.119C175.378 156.051 179.201 145.75 179.194 135.097C179.194 126.276 176.578 117.654 171.678 110.32C166.778 102.986 159.812 97.2702 151.663 93.8948C143.514 90.5193 134.547 89.6362 125.896 91.3569C117.246 93.0777 109.299 97.3252 103.062 103.562C96.8252 109.799 92.5777 117.746 90.8569 126.396C89.1362 135.047 90.0193 144.014 93.3948 152.163C96.7702 160.312 102.486 167.278 109.82 172.178C117.154 177.078 125.776 179.694 134.597 179.694C145.643 179.694 155.798 175.646 163.619 168.922L165.472 170.843V176.263L199.777 210.5L210 200.277L175.763 165.972ZM134.597 165.972C117.513 165.972 103.722 152.181 103.722 135.097C103.722 118.013 117.513 104.222 134.597 104.222C151.681 104.222 165.472 118.013 165.472 135.097C165.472 152.181 151.681 165.972 134.597 165.972Z" fill="#111111"/>
</g>
<defs>
<clipPath id="clip0_1185_30261">
<rect width="300" height="300" fill="white" transform="translate(0 0.5)"/>
</clipPath>
</defs>
</svg>
