<svg width="80" height="80" viewBox="0 0 80 80" fill="none" xmlns="http://www.w3.org/2000/svg">
<path d="M13.5569 60.4194V67.8453H43.4801V60.4194C43.4801 57.3785 44.8349 56.5923 47.8217 56.5923H50.4767C50.4767 51.987 46.2219 46.5169 41.8246 46.5169H15.2749C10.8776 46.5169 6.49784 51.987 6.49784 56.5923H9.15281C12.0567 56.5923 13.5569 57.3785 13.5569 60.4194ZM49.7895 57.6391H47.1346C45.6411 57.6391 44.4796 58.9424 44.4796 60.4194V68.7613H12.6199V60.4194C12.6199 58.9424 11.3754 57.6391 9.96492 57.6391H7.30995C4.3231 57.6391 2 60.1587 2 63.2002C2 65.2854 3.07858 67.0236 4.65497 68.0662V78.4933C4.65497 79.2753 5.23575 79.8835 5.98246 79.8835H11.2924C11.9562 79.8835 12.6199 79.2753 12.6199 78.4933V77.1032H44.4796V78.4933C44.4796 79.2753 45.0603 79.8835 45.807 79.8835H51.117C51.7808 79.8835 52.4448 79.2753 52.4448 78.4933V68.0662C54.021 67.0236 55.0995 65.2854 55.0995 63.2002C55.0995 60.1587 52.6936 57.6391 49.7895 57.6391Z" fill="black"/>
<path d="M20.741 17.4565H3.2494C2.54661 17.4565 2 18.0699 2 18.765V37.0839C2 37.8199 2.54661 38.3924 3.2494 38.3924H20.741C21.4047 38.3924 21.9904 37.8199 21.9904 37.0839V18.765C21.9904 18.0699 21.4047 17.4565 20.741 17.4565ZM20.1163 36.4296H3.8741V19.4192H20.1163V36.4296ZM18.2422 34.4669V27.9244H11.9952V34.4669H18.2422ZM11.9952 21.382H5.7482V27.9244H11.9952V21.382Z" fill="black"/>
<path d="M40.4957 20.9359C41.8622 20.9359 42.9945 19.791 42.9945 18.3189H37.9969C37.9969 19.791 39.0901 20.9359 40.4957 20.9359ZM41.4327 6.62424V0H39.5586V6.62424C34.8734 7.03315 31.1642 10.7951 30.5005 15.5384C30.3834 16.3153 31.0081 17.0104 31.7499 17.0104H49.2025C49.9833 17.0104 50.569 16.3153 50.4519 15.5384C49.8272 10.7951 46.079 7.03315 41.4327 6.62424ZM32.4917 15.0477C33.3507 11.2857 36.6694 8.5052 40.4957 8.5052C44.2829 8.5052 47.6017 11.2857 48.4606 15.0477H32.4917Z" fill="black"/>
<path d="M36.9381 22.2979C37.234 22.0444 37.2717 21.593 37.0223 21.2896C36.773 20.9862 36.3309 20.9457 36.0351 21.1992L33.535 23.3409C33.2391 23.5944 33.2015 24.0458 33.4508 24.3492C33.7002 24.6526 34.1422 24.6931 34.438 24.4396L36.9381 22.2979Z" fill="black"/>
<path d="M36.7879 22.1146C36.9852 21.9456 37.0103 21.6446 36.8441 21.4423C36.6778 21.2399 36.3831 21.213 36.1858 21.382L33.6852 23.5242C33.4879 23.6932 33.4628 23.9942 33.629 24.1965C33.7953 24.3989 34.0901 24.4258 34.2873 24.2568L36.7879 22.1146Z" fill="black"/>
<path d="M45.171 21.1994C44.8751 20.946 44.4331 20.9864 44.1837 21.2899C43.9344 21.5932 43.9721 22.0446 44.268 22.2981L46.768 24.4399C47.0639 24.6933 47.5059 24.6528 47.7553 24.3495C48.0046 24.0461 47.9669 23.5946 47.671 23.3412L45.171 21.1994Z" fill="black"/>
<path d="M45.0203 21.3822C44.823 21.2131 44.5283 21.2401 44.362 21.4424C44.1957 21.6448 44.2209 21.9458 44.4182 22.1148L46.9187 24.257C47.116 24.4261 47.4107 24.399 47.577 24.1968C47.7433 23.9945 47.7181 23.6934 47.5208 23.5244L45.0203 21.3822Z" fill="black"/>
<path d="M39.7905 23.6362C39.9428 23.2719 39.7806 22.8533 39.4284 22.7013C39.0761 22.5492 38.6671 22.7212 38.5148 23.0855L37.228 26.1636C37.0757 26.5279 37.2379 26.9465 37.5901 27.0986C37.9424 27.2506 38.3514 27.0786 38.5037 26.7143L39.7905 23.6362Z" fill="black"/>
<path d="M39.5765 23.5451C39.6779 23.3023 39.5699 23.0234 39.3354 22.9221C39.1008 22.8208 38.8284 22.9354 38.7271 23.1782L37.442 26.2549C37.3406 26.4977 37.4486 26.7766 37.6831 26.8779C37.9176 26.9792 38.19 26.8646 38.2914 26.6218L39.5765 23.5451Z" fill="black"/>
<path d="M42.6984 23.0854C42.5461 22.7211 42.1371 22.549 41.7848 22.7011C41.4325 22.8532 41.2704 23.2718 41.4227 23.636L42.7095 26.7141C42.8618 27.0784 43.2708 27.2505 43.623 27.0984C43.9753 26.9463 44.1374 26.5278 43.9852 26.1635L42.6984 23.0854Z" fill="black"/>
<path d="M42.4861 23.1779C42.3847 22.9351 42.1124 22.8205 41.8778 22.9218C41.6432 23.0231 41.5353 23.3021 41.6367 23.5448L42.9218 26.6215C43.0232 26.8642 43.2955 26.9789 43.5301 26.8776C43.7646 26.7763 43.8726 26.4973 43.7712 26.2546L42.4861 23.1779Z" fill="black"/>
<path d="M71.2407 25.8214C70.9449 26.0749 70.9074 26.5263 71.1568 26.8297C71.4061 27.1331 71.8479 27.1736 72.1438 26.9201L74.6441 24.7784C74.9399 24.5249 74.9774 24.0735 74.728 23.7701C74.4787 23.4667 74.0369 23.4262 73.741 23.6797L71.2407 25.8214Z" fill="black"/>
<path d="M71.3911 26.0047C71.1937 26.1737 71.1687 26.4747 71.3347 26.6771C71.5011 26.8794 71.7959 26.9064 71.9934 26.7373L74.4937 24.5951C74.6911 24.4261 74.716 24.125 74.5496 23.9228C74.3837 23.7205 74.0889 23.6935 73.8914 23.8625L71.3911 26.0047Z" fill="black"/>
<path d="M63.0077 26.9199C63.304 27.1734 63.7458 27.1328 63.9952 26.8295C64.2446 26.5261 64.2066 26.0746 63.9107 25.8212L61.4109 23.6795C61.1151 23.426 60.6728 23.4665 60.4234 23.7699C60.174 24.0732 60.212 24.5247 60.5079 24.7781L63.0077 26.9199Z" fill="black"/>
<path d="M63.1586 26.7372C63.356 26.9062 63.6509 26.8792 63.8168 26.6769C63.9832 26.4745 63.9582 26.1735 63.7608 26.0045L61.26 23.8622C61.0631 23.6932 60.7683 23.7202 60.6018 23.9225C60.4354 24.1248 60.4609 24.4259 60.6583 24.5949L63.1586 26.7372Z" fill="black"/>
<path d="M68.3886 24.4831C68.2362 24.8474 68.3981 25.2659 68.7504 25.418C69.1027 25.5701 69.512 25.3981 69.664 25.0338L70.9509 21.9557C71.1033 21.5914 70.9409 21.1728 70.5885 21.0207C70.2367 20.8687 69.8274 21.0407 69.675 21.405L68.3886 24.4831Z" fill="black"/>
<path d="M68.6025 24.5742C68.501 24.817 68.609 25.0959 68.8434 25.1972C69.0783 25.2986 69.3506 25.1839 69.4516 24.9411L70.737 21.8644C70.8384 21.6216 70.7305 21.3427 70.4956 21.2414C70.2612 21.1401 69.9888 21.2547 69.8874 21.4975L68.6025 24.5742Z" fill="black"/>
<path d="M65.4805 25.0339C65.6329 25.3982 66.0417 25.5703 66.394 25.4182C66.7464 25.2662 66.9083 24.8475 66.7564 24.4833L65.4695 21.4052C65.3171 21.0409 64.9083 20.8688 64.5559 21.0209C64.2036 21.173 64.0417 21.5915 64.1936 21.9558L65.4805 25.0339Z" fill="black"/>
<path d="M65.6929 24.9414C65.7943 25.1842 66.0667 25.2988 66.3011 25.1975C66.5355 25.0962 66.6434 24.8173 66.542 24.5745L65.2571 21.4978C65.1556 21.255 64.8833 21.1404 64.6489 21.2417C64.4145 21.343 64.3066 21.622 64.4075 21.8647L65.6929 24.9414Z" fill="black"/>
<path d="M57.2489 31.5413C57.1565 31.2066 57.3964 30.8724 57.7292 30.8724H77.5482C77.881 30.8724 78.1209 31.2066 78.0285 31.5413L74.9464 42.6928C74.8845 42.9166 74.6886 43.0706 74.4662 43.0706H60.8112C60.5888 43.0706 60.3934 42.9166 60.3315 42.6928L57.2489 31.5413Z" fill="black"/>
<path d="M68.468 27.8055C68.468 27.3719 68.1324 27.0204 67.7184 27.0204C67.3044 27.0204 66.9688 27.3719 66.9688 27.8055V79.0984C66.9688 79.532 67.3044 79.8835 67.7184 79.8835C68.1324 79.8835 68.468 79.532 68.468 79.0984V27.8055Z" fill="black"/>
<path d="M68.2062 48.8316C68.1286 48.4865 67.7986 48.2725 67.469 48.3537C67.1395 48.4349 66.9352 48.7805 67.0127 49.1257L73.8091 79.3801C73.8867 79.7252 74.2167 79.9392 74.5462 79.858C74.8758 79.7768 75.0801 79.4312 75.0026 79.086L68.2062 48.8316Z" fill="black"/>
<path d="M68.5015 49.9598C68.5904 49.6177 68.3977 49.2648 68.071 49.1717C67.7443 49.0785 67.4074 49.2804 67.3185 49.6225L59.6333 79.1892C59.5444 79.5313 59.7371 79.8842 60.0638 79.9773C60.3905 80.0704 60.7274 79.8686 60.8163 79.5265L68.5015 49.9598Z" fill="black"/>
<path d="M73.1159 42.4288H72.8894C72.6134 42.4288 72.3897 42.6631 72.3897 42.9522V47.0415C72.3897 47.3305 72.6134 47.5649 72.8894 47.5649H73.1159C73.392 47.5649 73.6157 47.3305 73.6157 47.0415V42.9522C73.6157 42.6631 73.392 42.4288 73.1159 42.4288Z" fill="black"/>
</svg>
