<svg width="80" height="80" viewBox="0 0 80 80" fill="none" xmlns="http://www.w3.org/2000/svg">
<path fill-rule="evenodd" clip-rule="evenodd" d="M32.4943 68.2996H6.30226C6.62966 67.0417 8.16328 65.801 9.3178 65.3357C11.7819 64.3363 9.83474 63.7676 11.5924 61.4758C13.1777 59.408 15.0215 60.4247 15.9692 59.7182C16.6929 59.184 16.848 57.2541 19.3294 56.8578C23.3788 56.203 23.5856 60.7004 24.0853 61.2001C24.6195 61.7343 25.6017 61.5965 26.4116 62.0273C28.4449 63.0611 27.7384 64.5948 29.496 65.0772C30.9952 65.4908 32.2531 66.7487 32.4943 68.3168V68.2996ZM28.4794 59.7871C29.6166 56.9267 33.6661 57.7883 34.4932 56.8405C34.9067 56.3753 35.0446 55.686 35.6649 55.0312C37.9567 52.5843 41.92 52.9979 43.6087 55.8928C44.7115 57.7883 43.5398 59.029 46.0728 59.408C49.7432 59.9595 49.3641 63.0784 50.9149 63.5264C53.2757 64.2157 54.9471 65.6631 55.2573 68.2823H35.4754C34.7344 63.1128 31.3915 63.4058 30.3921 61.786C29.7028 60.7004 29.2892 60.5626 28.4794 59.7699V59.7871ZM2.97656 32.5784C2.83871 26.0476 8.02542 24.1694 8.37006 23.17C8.45622 22.9115 8.52514 21.3089 8.66299 20.2578C8.71469 20.2233 8.74915 20.0683 8.74915 19.7753C8.95593 17.5869 12.2299 13.5719 13.4706 12.6931C19.1054 8.66093 27.6178 12.0556 29.1342 20.4301C29.5822 22.877 28.6517 22.8942 30.7367 24.1177C37.3364 27.9948 36.6299 39.8846 27.9452 41.8835C25.6189 42.4177 26.3771 46.3809 20.5528 47.7422C20.415 46.4154 20.5356 40.4705 20.5356 38.6439C20.5356 36.6278 20.415 37.0069 22.052 35.594C23.2582 34.5428 25.7568 32.3372 26.7562 31.2516C27.6867 30.2522 26.8596 28.6324 25.4294 28.8219L20.57 32.9575C20.0186 28.9253 21.6901 23.6697 19.1226 23.618C17.8302 23.5835 17.6062 24.6519 17.6062 25.6858V39.764C15.7797 38.799 12.902 33.9053 11.265 36.3004C10.5929 37.2999 11.3339 38.1098 12.0749 38.7301C13.7291 40.1259 15.2455 41.7801 16.9169 43.1759C18.037 44.1064 17.6234 44.4682 17.6234 47.7939C14.8491 47.5527 12.4367 45.3815 11.196 42.9863C10.524 41.6767 10.1277 42.0213 8.92147 41.5561C5.18221 40.1431 3.06272 36.49 2.99379 32.5956L2.97656 32.5784ZM7.37062 15.2434C5.73362 17.6903 5.68192 21.2745 5.49238 21.7397C5.42345 21.9293 3.82091 23.1527 3.51074 23.5146C-2.00338 29.5457 -0.814396 39.4194 6.2678 43.5377C9.21441 45.2437 7.74972 43.3309 9.50734 45.8812C11.4201 48.6211 14.315 50.2408 17.589 50.7922V54.273C15.2455 55.1863 14.2805 57.0129 14.1426 57.0818C12.4539 57.2369 11.196 57.7883 9.95537 58.8911C8.74915 59.9595 8.30113 61.2001 7.88757 62.7165C7.54294 63.0095 6.78475 63.3369 6.28503 63.7332C4.04492 65.4736 4.07938 66.3869 3.13164 68.2823C2.16667 68.334 0.977693 68.0583 0.322891 68.8682C-0.262984 69.5919 -0.0217412 70.6603 0.805376 71.0739C1.73588 71.5391 68.9392 71.16 77.7446 71.2289C81.0186 71.2634 80.2776 68.3513 78.3649 68.2823L61.633 68.2651V60.5626C70.0076 58.4775 68.922 54.6004 71.4033 53.9112C79.8296 51.5849 83.5171 38.5233 75.4872 31.355C72.8508 29.0115 74.3844 31.5445 73.54 27.8742C70.6107 15.1056 57.9454 14.468 53.2584 18.0005C51.0355 19.6892 47.2274 23.101 46.2624 28.6151C45.8488 30.9414 46.6415 29.8386 44.9183 31.286C38.2669 36.8863 39.0251 48.2247 46.4347 52.7739C47.6581 53.5148 48.5714 53.6699 49.1918 54.0318C49.95 54.4626 51.8971 59.7354 58.6864 60.5626L58.6691 68.2823L58.2211 68.2651C57.8593 67.7137 57.9282 63.0095 52.5347 60.9589C51.9833 60.7521 51.5008 58.7188 48.9677 57.3575C48.3819 57.0473 47.3135 56.7544 46.9517 56.5304C46.8655 56.427 45.935 51.5677 40.6276 50.5855C37.8189 50.0513 34.7172 51.2058 32.994 53.4976C31.7534 55.1346 32.6666 54.0146 30.2714 54.7727C28.4104 55.3586 27.2731 56.5304 26.0497 57.9434C25.4466 57.2024 24.6367 54.3936 20.4667 53.8595L20.4839 50.7061C23.7407 50.0168 26.8079 48.2937 28.4794 45.347C29.3237 43.8651 30.5299 44.7784 33.4938 42.3315C39.9556 36.9897 39.094 26.5301 33.2525 22.2739C32.5116 21.7397 32.2014 21.8604 32.0635 20.792C30.4265 7.9889 15.4178 2.50925 7.31893 15.2089L7.37062 15.2434ZM51.1217 24.0315C58.4451 14.1061 70.3522 20.4301 70.9036 30.0109C71.0587 32.7335 71.2482 31.7858 73.1265 33.216C79.0714 37.7651 78.1581 47.8112 71.2999 50.8612C69.0598 51.8606 69.077 50.7405 67.9053 52.8945C66.6302 55.238 64.3039 57.0473 61.6675 57.5126C61.7881 54.4453 61.7019 51.0679 61.6847 47.9835C61.6847 47.3631 61.4607 46.3465 61.9604 45.9157L68.1638 40.2293C69.1632 39.1609 68.2327 37.4894 66.8025 37.7651C65.803 37.9547 62.598 41.7456 61.7019 42.1247C61.6847 39.6434 61.7019 37.162 61.7019 34.6979C61.7019 33.6812 61.7191 32.4061 60.3578 32.3199C58.9449 32.2338 58.7725 33.3883 58.7725 34.4567C58.7725 39.3677 58.6692 44.3821 58.7725 49.2759C57.0149 48.242 54.637 44.6922 53.155 44.8818C52.2418 45.0024 51.7076 45.8985 51.9661 46.7773C52.2418 47.7078 58.5658 52.7566 58.7725 53.3253V57.5815C55.6364 57.1507 53.2929 55.1001 51.8799 52.3603C51.2251 51.1024 50.5186 51.4126 49.3124 50.9129C42.0923 47.8801 41.4031 37.386 47.5892 33.0092C48.985 32.027 49.0539 32.4233 49.1056 30.5106C49.1918 27.3228 50.4324 25.3584 51.1562 24.0143L51.1217 24.0315Z" fill="black"/>
</svg>
