<svg width="80" height="80" viewBox="0 0 80 80" fill="none" xmlns="http://www.w3.org/2000/svg">
<path d="M34.1688 18.6732H7.45268C4.94805 18.6732 3 21.3083 3 24.4226V74.2505C3 77.4846 4.94805 80 7.45268 80H34.1688C36.5807 80 38.6215 77.4846 38.6215 74.2505V24.4226C38.6215 21.3083 36.5807 18.6732 34.1688 18.6732ZM35.653 74.2505C35.653 75.3287 34.9109 76.1673 34.1688 76.1673H7.45268C6.6178 76.1673 5.96846 75.3287 5.96846 74.2505V41.6708H26.7476V63.7101C26.7476 64.3087 27.0259 64.6683 27.4897 64.6683H28.974C29.3451 64.6683 29.7161 64.3087 29.7161 63.7101V41.6708H35.653V74.2505ZM35.653 37.8378H29.7161V31.1302C29.7161 30.6511 29.3451 30.172 28.974 30.172H27.4897C27.0259 30.172 26.7476 30.6511 26.7476 31.1302V37.8378H5.96846V24.4226C5.96846 23.4644 6.6178 22.5061 7.45268 22.5061H34.1688C34.9109 22.5061 35.653 23.4644 35.653 24.4226V37.8378Z" fill="black"/>
<path d="M49.6549 73.8574H69.2989C69.9128 73.8574 70.5267 73.3201 70.5267 72.6293V60.344C70.5267 59.7297 69.9128 59.1153 69.2989 59.1153H49.6549C48.9643 59.1153 48.4272 59.7297 48.4272 60.344V72.6293C48.4272 73.3201 48.9643 73.8574 49.6549 73.8574ZM52.1105 62.8012H66.8436V65.258H52.1105V62.8012ZM50.2688 46.8305C49.1945 46.8305 48.4272 47.6751 48.4272 48.6732C48.4272 49.7482 49.1945 50.516 50.2688 50.516C51.2664 50.516 52.1105 49.7482 52.1105 48.6732C52.1105 47.6751 51.2664 46.8305 50.2688 46.8305ZM68.6854 46.8305C67.611 46.8305 66.8436 47.6751 66.8436 48.6732C66.8436 49.7482 67.611 50.516 68.6854 50.516C69.6828 50.516 70.5267 49.7482 70.5267 48.6732C70.5267 47.6751 69.6828 46.8305 68.6854 46.8305ZM56.4076 46.8305C55.3333 46.8305 54.566 47.6751 54.566 48.6732C54.566 49.7482 55.3333 50.516 56.4076 50.516C57.4052 50.516 58.2494 49.7482 58.2494 48.6732C58.2494 47.6751 57.4052 46.8305 56.4076 46.8305ZM71.7546 40.688H47.1994C44.437 40.688 42.2884 42.9146 42.2884 45.602V77.5427C42.2884 78.9249 43.3627 80 44.7439 80H74.2104C75.5148 80 76.6657 78.9249 76.6657 77.5427V45.602C76.6657 42.9146 74.4404 40.688 71.7546 40.688ZM72.9825 76.3146H45.9716V56.6586H72.9825V76.3146ZM72.9825 52.973H45.9716V45.602C45.9716 44.9877 46.5088 44.3734 47.1994 44.3734H71.7546C72.3686 44.3734 72.9825 44.9877 72.9825 45.602V52.973ZM62.5465 46.8305C61.4721 46.8305 60.7047 47.6751 60.7047 48.6732C60.7047 49.7482 61.4721 50.516 62.5465 50.516C63.5439 50.516 64.3883 49.7482 64.3883 48.6732C64.3883 47.6751 63.5439 46.8305 62.5465 46.8305Z" fill="black"/>
<path d="M60.0737 20.9664C61.5064 20.9664 62.6929 19.8198 62.6929 18.3456H57.4547C57.4547 19.8198 58.6007 20.9664 60.0737 20.9664ZM61.0559 6.63391V0H59.0915V6.63391C54.1807 7.04341 50.2927 10.8108 49.597 15.561C49.4742 16.3391 50.129 17.0352 50.9066 17.0352H69.2001C70.0189 17.0352 70.6328 16.3391 70.5097 15.561C69.8549 10.8108 65.9261 7.04341 61.0559 6.63391ZM51.6842 15.0696C52.5846 11.3022 56.0633 8.51761 60.0737 8.51761C64.0439 8.51761 67.5223 11.3022 68.4228 15.0696H51.6842Z" fill="black"/>
<path d="M56.3449 22.3304C56.655 22.0765 56.6946 21.6245 56.4332 21.3207C56.1718 21.0168 55.7085 20.9763 55.3984 21.2301L52.7778 23.375C52.4677 23.6288 52.4282 24.0809 52.6895 24.3847C52.9509 24.6885 53.4142 24.7291 53.7243 24.4753L56.3449 22.3304Z" fill="black"/>
<path d="M56.1874 22.1468C56.3942 21.9776 56.4206 21.6761 56.2463 21.4735C56.072 21.2709 55.7631 21.2439 55.5563 21.4132L52.9352 23.5585C52.7284 23.7278 52.7021 24.0292 52.8764 24.2318C53.0506 24.4345 53.3596 24.4615 53.5664 24.2922L56.1874 22.1468Z" fill="black"/>
<path d="M64.9743 21.2303C64.6642 20.9765 64.2011 21.0171 63.9397 21.3209C63.6783 21.6247 63.7181 22.0768 64.0282 22.3307L66.6485 24.4755C66.9586 24.7293 67.4222 24.6888 67.6836 24.385C67.9445 24.0811 67.9052 23.6291 67.5951 23.3752L64.9743 21.2303Z" fill="black"/>
<path d="M64.8166 21.4134C64.6097 21.2441 64.3006 21.2711 64.1267 21.4737C63.9523 21.6763 63.9785 21.9778 64.1854 22.147L66.8067 24.2924C67.0131 24.4617 67.3222 24.4346 67.4966 24.232C67.671 24.0295 67.6443 23.728 67.4374 23.5587L64.8166 21.4134Z" fill="black"/>
<path d="M59.3346 23.6707C59.4944 23.3059 59.3246 22.8867 58.9553 22.7344C58.586 22.5821 58.1572 22.7544 57.9976 23.1192L56.6488 26.2018C56.4892 26.5666 56.6591 26.9858 57.0284 27.1381C57.3976 27.2904 57.8263 27.1181 57.9859 26.7533L59.3346 23.6707Z" fill="black"/>
<path d="M59.1104 23.5794C59.2167 23.3363 59.1036 23.057 58.8579 22.9555C58.6117 22.8541 58.3263 22.9689 58.2201 23.212L56.873 26.2932C56.7668 26.5363 56.8799 26.8156 57.1258 26.9171C57.3716 27.0186 57.6571 26.9037 57.7634 26.6606L59.1104 23.5794Z" fill="black"/>
<path d="M62.3828 23.119C62.2231 22.7542 61.7946 22.5819 61.4253 22.7342C61.0559 22.8865 60.8862 23.3057 61.0455 23.6705L62.3944 26.7531C62.5541 27.1179 62.9826 27.2902 63.352 27.1379C63.7213 26.9856 63.891 26.5664 63.7317 26.2016L62.3828 23.119Z" fill="black"/>
<path d="M62.1602 23.2117C62.0539 22.9686 61.7684 22.8538 61.5227 22.9552C61.277 23.0567 61.1638 23.336 61.2697 23.5791L62.617 26.6603C62.7233 26.9034 63.0088 27.0183 63.2545 26.9168C63.5002 26.8153 63.6133 26.536 63.5075 26.2929L62.1602 23.2117Z" fill="black"/>
</svg>
