<svg width="80" height="80" viewBox="0 0 80 80" fill="none" xmlns="http://www.w3.org/2000/svg">
<path fill-rule="evenodd" clip-rule="evenodd" d="M40.853 69.1491L40.8024 26.6457H39.217L39.2676 69.1491H40.8699H40.853ZM26.8539 69.1491L25.319 60.834H15.5028L14.5245 69.1491H26.8539ZM11.9271 69.1491L13.1583 60.834H12.9222C12.6861 60.834 12.5343 60.6484 12.4668 60.3955C12.4162 60.2268 12.3825 59.9907 12.3656 59.8726C11.4211 55.7403 9.21157 48.1336 8.82364 44.3217C8.77304 43.9338 8.92484 43.4953 9.1947 43.1579C9.4477 42.8375 9.81876 42.5676 10.2573 42.4495C10.6958 42.3315 11.0837 42.3484 11.4379 42.4664C11.8259 42.6014 12.1295 42.8712 12.3487 43.1917L12.3825 43.2423L13.5294 48.454C13.5968 48.7238 13.58 48.9768 13.5125 49.1961C13.4282 49.3985 13.3101 49.5503 13.1246 49.6684C13.3438 49.6852 13.5462 49.7696 13.7149 49.8876C13.9679 50.0732 14.1534 50.3599 14.2378 50.6298C14.6426 52.0297 15.1486 53.9019 15.4184 55.3186C15.4522 55.5548 15.3847 55.8415 15.2329 56.0945H20.4952C20.7819 56.0945 21.0687 56.2632 21.2711 56.4993C21.4566 56.7186 21.5915 57.0053 21.6253 57.292C21.6421 57.6294 21.6253 58.0004 21.6253 58.3546H22.0975C22.0975 58.1354 22.0638 57.4775 22.0975 57.3089C22.0975 57.0727 22.1819 56.8029 22.3168 56.5836C22.4855 56.3138 22.7216 56.1282 23.0589 56.1114C23.936 55.9427 27.6803 56.1114 28.8441 56.1114L28.8947 56.1282C29.3501 56.2632 29.6537 56.7186 29.8224 57.3257C29.9236 57.6968 29.9742 58.1185 29.9742 58.5232C29.9742 58.9449 29.9236 59.3666 29.8055 59.7208C29.6368 60.2774 29.3332 60.7159 28.8947 60.834L28.8441 60.8508H27.6466L29.4682 69.166H35.6413C35.6413 62.2676 35.6244 54.256 35.6244 47.6613C35.6244 46.1264 35.6581 43.7145 35.675 41.0328C35.7425 35.7367 35.8268 29.3275 35.675 26.3758L1.30121 26.5614C1.09881 26.5614 0.947016 26.5445 0.795218 26.477C0.609688 26.4096 0.474756 26.3084 0.306092 26.1566L0.238626 26.0891L0.188027 26.0048C0.0868288 25.8192 0.0193637 25.6169 0.00249723 25.3976C-0.0143692 25.1277 0.0530955 24.8748 0.238626 24.6218L0.289227 24.5543L15.7895 10.9599C15.7895 10.0829 15.7895 7.65411 15.8063 7.16498C15.8569 5.91687 16.8183 6.0012 16.8183 6.0012H62.9986L63.083 6.01808C63.3528 6.06868 63.6564 6.27105 63.8419 6.52405C64.0106 6.74331 64.1118 7.03006 64.1287 7.33366L64.1624 10.9936L79.7133 24.5374L79.7639 24.6049C79.9157 24.8241 80 25.0771 80 25.3301C80 25.5831 79.9157 25.8361 79.7639 26.0554L79.7301 26.106C79.5615 26.2915 79.4097 26.3927 79.1904 26.4602C79.0217 26.5108 78.8868 26.5276 78.6844 26.5276H44.3275V69.1323H47.414L49.2356 60.8171H48.0381L47.9875 60.8002C47.549 60.6822 47.2454 60.2436 47.0767 59.687C46.9755 59.3328 46.9249 58.9112 46.9081 58.4895C46.9081 58.0679 46.9587 57.6462 47.0598 57.292C47.2285 56.7017 47.5321 56.2294 47.9875 56.0945L48.0381 56.0776C49.2019 56.0776 52.9294 55.909 53.8233 56.0776C54.1606 56.0776 54.3967 56.28 54.5654 56.5499C54.7003 56.7692 54.7678 57.0559 54.7847 57.2751C54.8184 57.4438 54.7847 58.1016 54.7847 58.3209H55.2569V57.3763V57.2583C55.2907 56.9884 55.4256 56.7017 55.6111 56.4824C55.8135 56.2463 56.1003 56.0776 56.387 56.0776H61.6493C61.5144 55.8246 61.43 55.5379 61.4638 55.3018C61.7505 53.885 62.2565 52.0128 62.6444 50.6129C62.7288 50.343 62.9143 50.0563 63.1673 49.8708C63.336 49.7527 63.5384 49.6684 63.7576 49.6515C63.5721 49.5335 63.454 49.3648 63.3697 49.1793C63.2854 48.96 63.2854 48.7239 63.336 48.4372L64.4829 43.2254L64.5166 43.1748C64.7359 42.8375 65.0395 42.5845 65.4274 42.4495C65.7647 42.3315 66.1695 42.3146 66.608 42.4327C67.0466 42.5508 67.4176 42.8206 67.6706 43.1411C67.9405 43.4953 68.0923 43.9169 68.0417 44.3049C67.4514 48.7407 65.5455 55.268 64.4997 59.8557C64.4997 59.9738 64.466 60.2099 64.3985 60.3786C64.3311 60.6147 64.1793 60.8002 63.9432 60.8171H63.707L64.9383 69.1323H70.5211C71.6848 69.1323 72.6125 70.0768 72.6125 71.2237C72.6125 72.3875 71.668 73.3151 70.5211 73.3151H9.38023C8.21645 73.3151 7.2888 72.3706 7.2888 71.2237C7.2888 70.0599 8.23332 69.1323 9.38023 69.1323H11.8765L11.9271 69.1491ZM50.0621 69.1491H62.3914L61.4132 60.834H51.5969L50.0621 69.1491V69.1491ZM41.9325 13.861H38.1038L35.4051 22.8507H44.6986L41.9156 13.861H41.9325ZM25.6563 22.8507H31.5259L34.292 13.861H31.6439L25.6732 22.8507H25.6563ZM48.4935 13.861H44.9178L47.802 22.8507H54.1437L48.4935 13.861ZM55.7967 13.861H51.8668L58.0905 22.8507H64.0949L55.7967 13.861ZM63.1504 13.861H60.1651L68.4634 22.8507H73.6414C72.3089 21.6701 69.9982 19.7136 67.8899 17.9258C65.7985 16.1548 63.8925 14.5525 63.1673 13.861H63.1504ZM15.975 22.8507H21.2542L27.4779 13.861H23.7673L15.9919 22.8507H15.975ZM7.1876 22.8507H11.6909L19.9892 13.861H17.2063C16.7846 14.367 16.3629 14.738 15.9075 15.1259C15.5871 15.3958 15.2666 15.6994 14.9124 16.0536L8.48631 21.687C8.16585 22.0074 7.82852 22.2941 7.50806 22.5809L7.1876 22.8507V22.8507ZM61.5818 9.05402H57.6351V10.2684L61.5818 10.2347V9.05402V9.05402ZM54.7341 9.05402H50.5681V10.3021L54.7341 10.2347V9.05402ZM47.92 9.05402H44.6648V10.2684L47.92 10.2347V9.05402V9.05402ZM41.7469 9.05402H38.3736L38.3568 10.319H41.7469V9.0709V9.05402ZM35.6919 10.319V9.05402H32.3355V10.3527L35.6919 10.319ZM29.5188 9.05402H25.3696V10.3021H29.5188V9.05402ZM22.7047 9.05402H18.5387V10.319L22.7047 10.2853V9.0709V9.05402ZM63.3022 57.0053L62.6107 56.8535C62.6613 57.039 62.695 57.2245 62.695 57.3763C62.7119 57.4438 62.695 58.2197 62.695 58.3546H62.948L63.2854 56.9884L63.3022 57.0053ZM63.589 55.4198L64.6178 51.3888L64.1793 51.3044L63.1336 55.3186L63.589 55.4367V55.4198ZM62.9312 55.2512C62.9143 55.2343 62.8974 55.2343 62.9143 55.2512H62.9312ZM65.2587 48.7913L66.3382 44.1193C66.3213 44.0519 66.3044 44.0013 66.2707 43.9676C66.237 43.9338 66.1864 43.9001 66.1189 43.8832C66.0514 43.8663 65.984 43.8663 65.9165 43.8832C65.8491 43.9001 65.7985 43.9338 65.7479 43.9844L64.6684 48.6564C64.8539 48.707 65.0732 48.7576 65.225 48.7745L65.2587 48.7913ZM56.8255 58.3546H61.059V57.7643H56.8255V58.3546ZM48.8814 58.3546H53.3848C53.3848 58.186 53.3848 58.0004 53.3848 57.8317C53.4016 57.798 53.7221 57.7812 53.739 57.7643C53.739 57.7643 53.7221 57.7643 53.6884 57.7643H48.8814C48.8477 57.7812 48.814 57.8149 48.7971 57.8655C48.7802 57.9161 48.7634 57.9835 48.7634 58.051C48.7634 58.1185 48.7802 58.1859 48.7971 58.2365C48.814 58.304 48.8477 58.3378 48.8646 58.3546H48.8814ZM14.3558 56.8366L13.6643 56.9884L14.0016 58.3546H14.2546C14.2546 58.2197 14.2378 57.4438 14.2546 57.3763C14.2546 57.2245 14.2884 57.0222 14.339 56.8535L14.3558 56.8366ZM12.3656 51.3719L13.3944 55.403L13.8498 55.2849L12.8041 51.2707L12.3656 51.355V51.3719ZM14.0522 55.2343C14.0691 55.2175 14.0691 55.2343 14.0354 55.2343H14.0522ZM10.6284 44.1025L11.7078 48.7745C11.8765 48.7407 12.0789 48.707 12.2644 48.6564L11.1849 44.0013C11.1343 43.9507 11.0837 43.9169 11.0163 43.9001C10.9488 43.8832 10.8813 43.8832 10.8139 43.9001C10.7633 43.9169 10.7127 43.9338 10.6621 43.9844C10.6284 44.0181 10.5946 44.0687 10.5946 44.1362L10.6284 44.1025ZM15.9244 58.3377H20.1579V57.7474H15.9244V58.3377ZM23.5986 58.3377H28.102C28.1188 58.3209 28.1526 58.2871 28.1694 58.2197C28.1863 58.1691 28.2032 58.1016 28.2032 58.0342C28.2032 57.9667 28.2032 57.9161 28.1694 57.8486C28.1526 57.798 28.1188 57.7474 28.0851 57.7474H23.2782C23.2444 57.7474 23.2276 57.7474 23.2276 57.7474C23.2276 57.7474 23.5649 57.7812 23.5818 57.8149V58.3377H23.5986Z" fill="black"/>
</svg>
