<svg width="80" height="80" viewBox="0 0 80 80" fill="none" xmlns="http://www.w3.org/2000/svg">
<path d="M72.8053 24.6521C72.8397 22.6259 72.8397 20.6512 72.8053 18.9169V24.6521ZM26.7697 44.7079V46.322C26.5636 46.1159 26.4434 45.824 26.4434 45.5149C26.4434 45.2058 26.5636 44.9139 26.7697 44.7079ZM28.2292 44.7079H27.903C27.7828 44.7079 27.6626 44.7422 27.5424 44.7937V46.2361C27.6454 46.2876 27.7656 46.322 27.903 46.322H28.2292V57.7236C28.2292 57.964 28.1262 58.1872 27.9717 58.3589C27.8171 58.5134 27.5767 58.6165 27.3363 58.6165H12.5692C12.3288 58.6165 12.1056 58.5134 11.9339 58.3589C11.7794 58.2043 11.6763 57.964 11.6763 57.7236V46.6654H4.87658V54.255C4.87658 58.4447 6.55935 62.0163 9.46126 64.5233C12.3803 67.0475 16.5186 68.507 21.3951 68.507H58.5877C63.4643 68.507 67.6025 67.0303 70.5216 64.5233C73.4235 62.0163 75.1062 58.4619 75.1062 54.255V46.6654H28.2292H27.8858V45.9957H27.5596C27.4394 45.9957 27.3192 45.9442 27.2333 45.8583C27.1646 45.7897 27.1131 45.6695 27.0959 45.5664C27.0959 45.4462 27.1475 45.3432 27.2333 45.2745C27.3192 45.1887 27.4394 45.1372 27.5596 45.1372H27.8858V44.4675H76.2739L76.3769 44.4332C76.4456 44.416 76.5314 44.416 76.6001 44.416C76.9092 44.416 77.1839 44.2958 77.39 44.0897C77.5961 43.8837 77.7162 43.609 77.7162 43.2999C77.7162 42.9908 77.5961 42.716 77.39 42.51C77.1839 42.3039 76.9092 42.1837 76.6001 42.1837H28.2121V44.8109L28.2292 44.7079ZM73.1487 39.8141H76.6173C77.5445 39.8141 78.4031 40.1919 79.0041 40.8101C79.6222 41.4282 80 42.2696 80 43.1969C80 44.0382 79.6909 44.8109 79.1758 45.4119C78.7122 45.9442 78.094 46.322 77.3728 46.4937V54.2378C77.3728 58.0842 76.1709 61.4497 74.0245 64.1455C71.9296 66.7727 68.9418 68.7302 65.3187 69.812L67.2762 72.5422C67.4651 72.7998 67.5166 73.0917 67.4651 73.3836C67.4136 73.6755 67.2591 73.9331 67.0015 74.1219C66.8985 74.1906 66.7955 74.2421 66.6924 74.2765C66.5722 74.3108 66.452 74.328 66.349 74.328C66.1773 74.328 65.9884 74.2765 65.8339 74.2078C65.6793 74.1219 65.542 74.0017 65.4389 73.8644L62.9491 70.3786C62.2966 70.4988 61.627 70.5847 60.9401 70.6534C60.1674 70.7221 59.3947 70.7736 58.6049 70.7736H21.4123C20.6053 70.7736 19.8154 70.7392 19.0255 70.6534C18.3215 70.5847 17.6347 70.4817 16.965 70.3615L13.0328 74.2765C12.9298 74.3795 12.7924 74.4653 12.6722 74.5169C12.5349 74.5684 12.3803 74.6027 12.243 74.6027C12.0884 74.6027 11.9511 74.5684 11.8137 74.5169C11.6763 74.4653 11.5561 74.3795 11.4531 74.2765C11.2299 74.0532 11.1269 73.7614 11.1269 73.4866C11.1269 73.1947 11.2299 72.92 11.4531 72.6967L14.4065 69.7433C10.8693 68.6444 7.96738 66.6869 5.92402 64.094C3.81198 61.4154 2.62717 58.067 2.62717 54.255V46.5109C1.92316 46.3391 1.28783 45.9614 0.824211 45.4291C0.309079 44.8453 0 44.0726 0 43.214C0 42.2868 0.377764 41.4282 0.995922 40.8272C1.61408 40.2091 2.45546 39.8313 3.3827 39.8313H11.6935V39.3162C11.6935 39.0758 11.7965 38.8526 11.9511 38.6809C12.1228 38.5091 12.346 38.4233 12.5864 38.4233H27.3535C27.5939 38.4233 27.8171 38.5263 27.9888 38.6809C28.1434 38.8354 28.2464 39.0586 28.2464 39.3162V39.8313H71.3801V13.903C70.9508 12.1172 69.9378 10.6061 68.5641 9.52437C67.1904 8.44259 65.4733 7.7901 63.636 7.7901H63.4299C61.7128 7.84161 60.0987 8.45977 58.7937 9.47286C57.5918 10.4173 56.6645 11.7051 56.1494 13.1818H59.6008C60.1502 13.1818 60.6654 13.405 61.026 13.7656C61.3866 14.1262 61.627 14.6414 61.627 15.1908C61.627 15.7403 61.4037 16.2554 61.026 16.616C60.6654 16.9766 60.1502 17.1998 59.6008 17.1998H50.586C50.0365 17.1998 49.5214 16.9766 49.1608 16.616C48.8002 16.2554 48.5598 15.7403 48.5598 15.1908C48.5598 14.6414 48.783 14.1262 49.1608 13.7656C49.5214 13.405 50.0365 13.1818 50.586 13.1818H54.2606C54.81 11.1728 55.9949 9.43851 57.5574 8.16785C59.1715 6.86285 61.2149 6.05582 63.3784 6.00431C65.6965 5.93562 67.8772 6.69114 69.6115 8.04766C71.3458 9.40417 72.6336 11.3273 73.1487 13.5939L73.1659 13.6969V13.8V39.8313L73.1487 39.8141ZM59.7381 15.0191C59.7038 14.9848 59.6351 14.9504 59.5664 14.9504H50.5516C50.4829 14.9504 50.4314 14.9848 50.3799 15.0191C50.3456 15.0535 50.3112 15.1221 50.3112 15.1908C50.3112 15.2595 50.3456 15.311 50.3799 15.3625C50.4143 15.3969 50.4829 15.4312 50.5516 15.4312H59.5664C59.6351 15.4312 59.6866 15.3969 59.7381 15.3625C59.7725 15.3282 59.8068 15.2595 59.8068 15.1908C59.8068 15.1221 59.7725 15.0706 59.7381 15.0191ZM18.2357 55.7661H13.4621V56.7963H26.4434V55.7661H20.8457C20.6053 55.7661 20.3821 55.663 20.2103 55.5085C20.0386 55.3368 19.9528 55.1136 19.9528 54.8732C19.9528 54.6328 20.0558 54.4095 20.2103 54.2378C20.3821 54.0833 20.6053 53.9803 20.8457 53.9803H26.4434V52.6409H24.0567C23.8163 52.6409 23.593 52.5379 23.4213 52.3834C23.2496 52.2116 23.1638 51.9884 23.1638 51.748C23.1638 51.5076 23.2668 51.2844 23.4213 51.1127C23.593 50.941 23.8163 50.8551 24.0567 50.8551H26.4434V40.1919H13.4621V50.8551H21.275C21.5153 50.8551 21.7386 50.9582 21.9103 51.1127C22.082 51.2844 22.1678 51.5076 22.1678 51.748C22.1678 51.9884 22.0648 52.2116 21.9103 52.3834C21.7386 52.5379 21.5153 52.6409 21.275 52.6409H13.4621V53.9803H18.2357C18.4761 53.9803 18.6993 54.0833 18.871 54.2378C19.0427 54.4095 19.1286 54.6328 19.1286 54.8732C19.1286 55.1136 19.0255 55.3368 18.871 55.5085C18.6993 55.6802 18.4761 55.7661 18.2357 55.7661V55.7661ZM2.57566 42.407C2.36961 42.613 2.24941 42.8878 2.24941 43.1969C2.24941 43.5059 2.36961 43.7807 2.57566 43.9867C2.78171 44.1928 3.05645 44.313 3.36553 44.313H11.6763V42.0807H3.36553C3.05645 42.0807 2.78171 42.2009 2.57566 42.407V42.407ZM59.5836 36.4658C59.4806 36.3627 59.4291 36.2254 59.4291 36.088V29.1337C59.4291 28.9792 59.4977 28.8418 59.5836 28.756C59.6866 28.6529 59.824 28.6014 59.9614 28.6014C60.1159 28.6014 60.2533 28.6701 60.3391 28.756C60.4422 28.859 60.4937 28.9964 60.4937 29.1337V36.088C60.4937 36.2426 60.425 36.3799 60.3391 36.4658C60.2361 36.5688 60.0987 36.6203 59.9614 36.6203C59.8068 36.6203 59.6695 36.5516 59.5836 36.4658ZM59.5836 26.6783C59.4806 26.5752 59.4291 26.4379 59.4291 26.3005V23.6905C59.4291 23.536 59.4977 23.3986 59.5836 23.3127C59.6866 23.2097 59.824 23.1582 59.9614 23.1582C60.1159 23.1582 60.2533 23.2269 60.3391 23.3127C60.4422 23.4158 60.4937 23.5531 60.4937 23.6905V26.3005C60.4937 26.4551 60.425 26.5924 60.3391 26.6783C60.2361 26.7813 60.0987 26.8328 59.9614 26.8328C59.8068 26.8328 59.6695 26.7641 59.5836 26.6783ZM60.5108 18.6937V21.8189C60.5108 21.9734 60.4422 22.1108 60.3563 22.1966C60.2533 22.2997 60.1159 22.3512 59.9785 22.3512C59.824 22.3512 59.6866 22.2825 59.6008 22.1966C59.4977 22.0936 59.4462 21.9562 59.4462 21.8189V18.6937C59.4462 18.5392 59.5149 18.4018 59.6008 18.316C59.7038 18.2129 59.8412 18.1614 59.9785 18.1614C60.1331 18.1614 60.2704 18.2301 60.3563 18.316C60.4593 18.419 60.5108 18.5564 60.5108 18.6937ZM57.5059 23.2269C57.4029 23.3299 57.2655 23.3814 57.1281 23.3814C56.9736 23.3814 56.8362 23.3127 56.7504 23.2269C56.6473 23.1239 56.5958 22.9865 56.5958 22.8491V18.8483C56.5958 18.6937 56.6645 18.5564 56.7504 18.4705C56.8534 18.3675 56.9908 18.316 57.1281 18.316C57.2827 18.316 57.42 18.3846 57.5059 18.4705C57.6089 18.5735 57.6604 18.7109 57.6604 18.8483V22.8491C57.6604 23.0037 57.5918 23.141 57.5059 23.2269ZM56.7332 31.5033C56.6302 31.4003 56.5787 31.2629 56.5787 31.1256V24.7551C56.5787 24.6006 56.6474 24.4632 56.7332 24.3773C56.8362 24.2743 56.9736 24.2228 57.111 24.2228C57.2655 24.2228 57.4029 24.2915 57.4887 24.3773C57.5918 24.4804 57.6433 24.6177 57.6433 24.7551V31.1256C57.6433 31.2801 57.5746 31.4175 57.4887 31.5033C57.3857 31.6064 57.2483 31.6579 57.111 31.6579C56.9564 31.6579 56.8191 31.5892 56.7332 31.5033ZM56.7332 38.0799C56.6302 37.9768 56.5787 37.8395 56.5787 37.7021V34.3022C56.5787 34.1477 56.6474 34.0103 56.7332 33.9245C56.8362 33.8214 56.9736 33.7699 57.111 33.7699C57.2655 33.7699 57.4029 33.8386 57.4887 33.9245C57.5918 34.0275 57.6433 34.1649 57.6433 34.3022V37.7021C57.6433 37.8566 57.5746 37.994 57.4887 38.0799C57.3857 38.1829 57.2483 38.2344 57.111 38.2344C56.9564 38.2344 56.8191 38.1657 56.7332 38.0799ZM53.6081 36.4486C53.505 36.3456 53.4535 36.2082 53.4535 36.0708V29.1166C53.4535 28.962 53.5222 28.8247 53.6081 28.7388C53.7111 28.6358 53.8485 28.5843 53.9858 28.5843C54.1404 28.5843 54.2777 28.6529 54.3636 28.7388C54.4666 28.8418 54.5181 28.9792 54.5181 29.1166V36.0708C54.5181 36.2254 54.4495 36.3628 54.3636 36.4486C54.2606 36.5516 54.1232 36.6031 53.9858 36.6031C53.8313 36.6031 53.6939 36.5345 53.6081 36.4486ZM53.6081 26.6611C53.505 26.5581 53.4535 26.4207 53.4535 26.2833V23.6733C53.4535 23.5188 53.5222 23.3814 53.6081 23.2956C53.7111 23.1925 53.8485 23.141 53.9858 23.141C54.1404 23.141 54.2777 23.2097 54.3636 23.2956C54.4666 23.3986 54.5181 23.536 54.5181 23.6733V26.2833C54.5181 26.4379 54.4495 26.5752 54.3636 26.6611C54.2606 26.7641 54.1232 26.8156 53.9858 26.8156C53.8313 26.8156 53.6939 26.747 53.6081 26.6611ZM54.3808 22.1966C54.2777 22.2997 54.1404 22.3512 54.003 22.3512C53.8485 22.3512 53.7111 22.2825 53.6252 22.1966C53.5222 22.0936 53.4707 21.9562 53.4707 21.8189V18.6937C53.4707 18.5392 53.5394 18.4018 53.6252 18.316C53.7283 18.2129 53.8656 18.1614 54.003 18.1614C54.1575 18.1614 54.2949 18.2301 54.3808 18.316C54.4838 18.419 54.5353 18.5564 54.5353 18.6937V21.8189C54.5353 21.9734 54.4666 22.1108 54.3808 22.1966ZM51.5304 23.2097C51.4273 23.3127 51.29 23.3643 51.1526 23.3643C50.9981 23.3643 50.8607 23.2956 50.7748 23.2097C50.6718 23.1067 50.6203 22.9693 50.6203 22.8319V18.8311C50.6203 18.6766 50.689 18.5392 50.7748 18.4533C50.8779 18.3503 51.0152 18.2988 51.1526 18.2988C51.3071 18.2988 51.4445 18.3675 51.5304 18.4533C51.6334 18.5564 51.6849 18.6937 51.6849 18.8311V22.8319C51.6849 22.9865 51.6162 23.1239 51.5304 23.2097ZM50.7577 31.4862C50.6546 31.3831 50.6031 31.2458 50.6031 31.1084V24.7379C50.6031 24.5834 50.6718 24.446 50.7577 24.3602C50.8607 24.2571 50.9981 24.2056 51.1354 24.2056C51.29 24.2056 51.4273 24.2743 51.5132 24.3602C51.6162 24.4632 51.6677 24.6006 51.6677 24.7379V31.1084C51.6677 31.2629 51.5991 31.4003 51.5132 31.4862C51.4102 31.5892 51.2728 31.6407 51.1354 31.6407C50.9809 31.6407 50.8435 31.572 50.7577 31.4862ZM50.7577 38.0627C50.6546 37.9597 50.6031 37.8223 50.6031 37.6849V34.2851C50.6031 34.1305 50.6718 33.9932 50.7577 33.9073C50.8607 33.8043 50.9981 33.7528 51.1354 33.7528C51.29 33.7528 51.4273 33.8214 51.5132 33.9073C51.6162 34.0103 51.6677 34.1477 51.6677 34.2851V37.6849C51.6677 37.8395 51.5991 37.9768 51.5132 38.0627C51.4102 38.1657 51.2728 38.2172 51.1354 38.2172C50.9809 38.2172 50.8435 38.1485 50.7577 38.0627ZM68.2206 61.8274C67.4308 63.2698 66.2288 64.489 64.7521 65.3819C64.4774 65.5536 64.2026 65.5021 63.9966 65.3475C63.9279 65.296 63.8592 65.2102 63.8077 65.1415C63.7562 65.0556 63.7218 64.9698 63.7047 64.8667C63.6531 64.6092 63.739 64.3344 64.0309 64.1627C65.3016 63.39 66.3318 62.3597 66.9843 61.1578C67.6025 60.0073 67.8944 58.6851 67.7742 57.2428C67.7399 56.9337 67.8944 56.7276 68.1176 56.6246C68.2035 56.5903 68.3065 56.5559 68.3924 56.5559C68.4782 56.5559 68.5812 56.5559 68.6843 56.5903C68.9418 56.6761 69.1651 56.8822 69.1994 57.2256C69.3368 58.9084 68.9762 60.4709 68.2378 61.8274H68.2206ZM60.9916 66.704C60.528 66.7727 60.0644 66.8242 59.6008 66.8414C59.2745 66.8586 59.0685 66.6869 58.9654 66.4636C58.9311 66.3778 58.9139 66.2748 58.8968 66.1889C58.8968 66.0859 58.9139 66 58.9483 65.897C59.0341 65.6566 59.2574 65.4505 59.5836 65.4334C59.9957 65.4162 60.3906 65.3819 60.7856 65.3132C61.1805 65.2445 61.5754 65.1586 61.9704 65.0556C62.2795 64.9698 62.537 65.09 62.6916 65.296C62.7431 65.3647 62.7946 65.4677 62.8118 65.5536C62.8289 65.6394 62.8461 65.7424 62.8289 65.8455C62.8118 66.103 62.6401 66.3434 62.331 66.4293C61.8845 66.5495 61.4209 66.6525 60.9573 66.7212L60.9916 66.704Z" fill="black"/>
</svg>
