<svg width="80" height="80" viewBox="0 0 80 80" fill="none" xmlns="http://www.w3.org/2000/svg">
<path d="M37.1962 41.9175C37.5052 41.6085 37.9343 41.4369 38.3634 41.4369C38.8097 41.4369 39.2217 41.6085 39.5306 41.9175C40.3889 42.7757 41.5561 43.2563 42.7748 43.2563C43.9935 43.2563 45.1607 42.7757 46.019 41.9175C46.1734 41.763 46.3623 41.6429 46.5511 41.557C46.757 41.4712 46.963 41.4369 47.1862 41.4369C47.4093 41.4369 47.6153 41.4712 47.8213 41.557C48.0272 41.6429 48.1989 41.763 48.3534 41.9175C49.2116 42.7757 50.3788 43.2563 51.5975 43.2563C52.8162 43.2563 53.9834 42.7757 54.8417 41.9175C54.9962 41.763 55.185 41.6429 55.3738 41.557C55.5798 41.4712 55.7858 41.4369 56.0089 41.4369C56.232 41.4369 56.438 41.4712 56.644 41.557C56.85 41.6429 57.0216 41.763 57.1761 41.9175C57.6052 42.3466 58.103 42.6899 58.6695 42.9131C59.2187 43.1362 59.8195 43.2563 60.4374 43.2563C61.0382 43.2563 61.639 43.1362 62.2054 42.9131C62.7718 42.6899 63.2696 42.3466 63.6988 41.9175C63.9734 41.6429 64.1279 41.2653 64.1279 40.8705C64.1279 40.4757 63.9734 40.1152 63.6988 39.8234C63.4241 39.5487 63.0465 39.3943 62.6517 39.3943C62.2569 39.3943 61.8964 39.5487 61.6046 39.8234C61.2957 40.1323 60.8665 40.304 60.4374 40.304C59.9911 40.304 59.5792 40.1323 59.2702 39.8234C58.8411 39.3943 58.3433 39.051 57.7769 38.8278C57.2104 38.6047 56.6268 38.4845 56.0089 38.4845C55.4081 38.4845 54.8074 38.6047 54.2409 38.8278C53.6745 39.051 53.1767 39.3943 52.7476 39.8234C52.4386 40.1323 52.0095 40.304 51.5804 40.304C51.1341 40.304 50.7221 40.1323 50.4132 39.8234C49.984 39.3943 49.4863 39.051 48.9198 38.8278C48.3534 38.6047 47.7698 38.4845 47.1518 38.4845C46.5511 38.4845 45.9503 38.6047 45.3839 38.8278C44.8174 39.051 44.3196 39.3943 43.8905 39.8234C43.5815 40.1323 43.1524 40.304 42.7233 40.304C42.277 40.304 41.8651 40.1323 41.5561 39.8234C40.6979 38.9651 39.5306 38.4845 38.3119 38.4845C37.0932 38.4845 35.926 38.9651 35.0678 39.8234C34.7588 40.1323 34.3297 40.304 33.9006 40.304C33.4543 40.304 33.0423 40.1323 32.7334 39.8234C32.596 39.6861 32.4416 39.5659 32.2527 39.4972C32.0811 39.4114 31.8751 39.3771 31.6863 39.3771C31.4975 39.3771 31.2915 39.4115 31.1199 39.4801C30.9311 39.5488 30.7766 39.6689 30.6393 39.8062C30.5019 39.9436 30.3989 40.1152 30.3131 40.2869C30.2445 40.4757 30.2101 40.6645 30.2101 40.8533C30.2101 41.0421 30.2616 41.248 30.3303 41.4197C30.4161 41.5913 30.5191 41.763 30.6564 41.9004C31.5147 42.7586 32.6819 43.2392 33.9006 43.2392C35.1193 43.2392 36.2865 42.7586 37.1447 41.9004L37.1962 41.9175ZM20.2202 49.4014C20.5292 49.0924 20.9583 48.9208 21.3874 48.9208C21.8337 48.9208 22.2456 49.0924 22.5546 49.4014C23.4129 50.2596 24.5801 50.7402 25.7988 50.7402C27.0175 50.7402 28.1847 50.2596 29.0429 49.4014C29.1974 49.2469 29.3862 49.1267 29.575 49.0409C29.781 48.9551 29.987 48.9208 30.2101 48.9208C30.4333 48.9208 30.6393 48.9551 30.8452 49.0409C31.0512 49.1267 31.2229 49.2469 31.3773 49.4014C32.2356 50.2596 33.4028 50.7402 34.6215 50.7402C35.8402 50.7402 37.0074 50.2596 37.8657 49.4014C38.0201 49.2469 38.2089 49.1267 38.3978 49.0409C38.6037 48.9551 38.8097 48.9208 39.0329 48.9208C39.256 48.9208 39.462 48.9551 39.668 49.0409C39.8739 49.1267 40.0456 49.2469 40.2001 49.4014C40.6292 49.8305 41.127 50.1738 41.6934 50.3969C42.2599 50.6201 42.8435 50.7402 43.4614 50.7402C44.0622 50.7402 44.6629 50.6201 45.2294 50.3969C45.7786 50.1738 46.2936 49.8305 46.7227 49.4014C46.86 49.2641 46.963 49.1096 47.0488 48.9208C47.1175 48.7491 47.169 48.5431 47.169 48.3543C47.169 48.1655 47.1347 47.9767 47.0488 47.7879C46.9802 47.6162 46.86 47.4446 46.7227 47.3073C46.5854 47.17 46.4309 47.067 46.2421 46.9811C46.0704 46.9125 45.8645 46.861 45.6757 46.861C45.4868 46.861 45.298 46.8953 45.1092 46.9811C44.9376 47.0498 44.7659 47.17 44.6286 47.3073C44.3196 47.6162 43.8905 47.7879 43.4614 47.7879C43.0151 47.7879 42.6032 47.6162 42.2942 47.3073C41.8651 46.8782 41.3673 46.5348 40.8008 46.3117C40.2344 46.0885 39.6508 45.9684 39.0329 45.9684C38.4321 45.9684 37.8313 46.0885 37.2649 46.3117C36.6984 46.5348 36.2007 46.8782 35.7715 47.3073C35.4626 47.6162 35.0335 47.7879 34.6043 47.7879C34.158 47.7879 33.7461 47.6162 33.4371 47.3073C33.008 46.8782 32.5102 46.5348 31.9438 46.3117C31.3773 46.0885 30.7937 45.9684 30.1758 45.9684C29.575 45.9684 28.9743 46.0885 28.4078 46.3117C27.8414 46.5348 27.3436 46.8782 26.9145 47.3073C26.6055 47.6162 26.1764 47.7879 25.7473 47.7879C25.301 47.7879 24.889 47.6162 24.5801 47.3073C23.7218 46.449 22.5546 45.9684 21.3359 45.9684C20.1172 45.9684 18.95 46.449 18.0917 47.3073C17.7828 47.6162 17.3537 47.7879 16.9245 47.7879C16.4783 47.7879 16.0663 47.6162 15.7573 47.3073C15.62 47.17 15.4655 47.0498 15.2767 46.9811C15.1051 46.8953 14.8991 46.861 14.7103 46.861C14.5215 46.861 14.3155 46.8953 14.1438 46.964C13.955 47.0326 13.8005 47.1528 13.6632 47.2901C13.5259 47.4274 13.4229 47.5991 13.3371 47.7707C13.2684 47.9595 13.2341 48.1484 13.2341 48.3372C13.2341 48.526 13.2856 48.7319 13.3543 48.9036C13.4401 49.0752 13.5431 49.2469 13.6804 49.3842C14.5386 50.2425 15.7058 50.7231 16.9245 50.7231C18.1432 50.7231 19.3105 50.2425 20.1687 49.3842L20.2202 49.4014ZM63.6301 54.8083C63.3211 55.1173 62.892 55.2889 62.4629 55.2889C62.0166 55.2889 61.6046 55.1173 61.2957 54.8083C60.8665 54.3792 60.3688 54.0359 59.8023 53.8127C59.2359 53.5896 58.6523 53.4695 58.0343 53.4695C57.4336 53.4695 56.8328 53.5896 56.2664 53.8127C55.6999 54.0359 55.2022 54.3792 54.773 54.8083C54.4641 55.1173 54.0349 55.2889 53.6058 55.2889C53.1595 55.2889 52.7476 55.1173 52.4386 54.8083C52.0095 54.3792 51.5117 54.0359 50.9453 53.8127C50.3788 53.5896 49.7952 53.4695 49.1773 53.4695C48.5765 53.4695 47.9757 53.5896 47.4093 53.8127C46.8429 54.0359 46.3451 54.3792 45.916 54.8083C45.607 55.1173 45.1779 55.2889 44.7488 55.2889C44.3025 55.2889 43.8905 55.1173 43.5815 54.8083C42.7233 53.9501 41.5561 53.4695 40.3374 53.4695C39.1187 53.4695 37.9515 53.9501 37.0932 54.8083C36.7843 55.1173 36.3551 55.2889 35.926 55.2889C35.4797 55.2889 35.0678 55.1173 34.7588 54.8083C34.6215 54.671 34.467 54.5508 34.2782 54.4822C34.1066 54.3963 33.9006 54.362 33.7118 54.362C33.5229 54.362 33.317 54.3963 33.1453 54.465C32.9565 54.5337 32.802 54.6538 32.6647 54.7911C32.5274 54.9284 32.4244 55.1001 32.3386 55.2717C32.2699 55.4606 32.2356 55.6494 32.2356 55.8382C32.2356 56.027 32.2871 56.233 32.3557 56.4046C32.4416 56.5763 32.5445 56.7479 32.6819 56.8852C33.5401 57.7435 34.7073 58.2241 35.926 58.2241C37.1447 58.2241 38.3119 57.7435 39.1702 56.8852C39.4791 56.5763 39.9083 56.4046 40.3374 56.4046C40.7837 56.4046 41.1956 56.5763 41.5046 56.8852C42.3628 57.7435 43.5301 58.2241 44.7488 58.2241C45.9675 58.2241 47.1347 57.7435 47.9929 56.8852C48.1474 56.7308 48.3362 56.6106 48.525 56.5248C48.731 56.439 48.937 56.4046 49.1601 56.4046C49.3833 56.4046 49.5892 56.439 49.7952 56.5248C50.0012 56.6106 50.1728 56.7308 50.3273 56.8852C51.1856 57.7435 52.3528 58.2241 53.5715 58.2241C54.7902 58.2241 55.9574 57.7435 56.8156 56.8852C57.1246 56.5763 57.5537 56.4046 57.9829 56.4046C58.4291 56.4046 58.8411 56.5763 59.1501 56.8852C60.0083 57.7435 61.1755 58.2241 62.3942 58.2241C63.6129 58.2241 64.7801 57.7435 65.6384 56.8852C65.913 56.6106 66.0675 56.233 66.0675 55.8382C66.0675 55.4434 65.913 55.0829 65.6384 54.7911C65.5011 54.6538 65.3466 54.5508 65.1578 54.465C64.9861 54.3963 64.7801 54.3449 64.5913 54.3449C64.1965 54.3449 63.8361 54.4994 63.5443 54.774L63.6301 54.8083ZM68.0243 25.4221V14.3336C68.0243 14.1619 68.0586 13.9903 68.1273 13.8186C68.1959 13.647 68.2989 13.5097 68.4191 13.3895C68.5392 13.2694 68.6937 13.1664 68.8482 13.0977C69.0027 13.029 69.1915 12.9947 69.3631 12.9947C69.5348 12.9947 69.7064 13.029 69.8781 13.0977C70.0326 13.1664 70.1871 13.2694 70.3072 13.3895C70.4274 13.5097 70.5304 13.6642 70.599 13.8186C70.6677 13.9903 70.702 14.1619 70.702 14.3336C70.702 14.8657 70.805 15.3807 70.9938 15.8784C71.1998 16.3591 71.4916 16.8053 71.8521 17.1829C72.2297 17.5606 72.6588 17.8524 73.1566 18.0584C73.6372 18.2643 74.1693 18.3673 74.7014 18.3673C75.2335 18.3673 75.7485 18.2643 76.2291 18.0584C76.7097 17.8524 77.156 17.5606 77.5336 17.1829C77.9112 16.8053 78.203 16.3591 78.3919 15.8784C78.5978 15.3978 78.7008 14.8657 78.6837 14.3336C78.6837 12.2909 78.0142 10.2999 76.7784 8.68637C75.5425 7.05571 73.8088 5.88848 71.8349 5.3392C69.8609 4.78993 67.7668 4.9101 65.8787 5.68252C63.9906 6.43777 62.3942 7.81093 61.3472 9.56174C60.3001 7.81093 58.7038 6.45494 56.8156 5.68252C54.9275 4.92727 52.8334 4.80709 50.8594 5.3392C48.8855 5.88848 47.1518 7.05571 45.916 8.68637C44.6801 10.317 44.0107 12.2909 44.0107 14.3336V22.6929C42.1569 23.3967 40.3889 24.2892 38.7239 25.3706C37.0074 26.4692 35.0849 27.1901 33.0595 27.499C31.0512 27.7908 28.9914 27.6535 27.0346 27.1042C23.8591 26.2288 20.5292 26.0915 17.3022 26.7095C14.0752 27.3274 11.0198 28.7005 8.41078 30.6917C5.78455 32.6828 3.67328 35.2575 2.21427 38.2099C0.755254 41.1622 0 44.4064 0 47.702C0 50.9977 0.772418 54.2419 2.2486 57.1771C3.72477 60.1294 5.85321 62.687 8.47944 64.6781C11.1057 66.6692 14.161 68.0081 17.388 68.626C20.615 69.2268 23.9621 69.0894 27.1205 68.1969C29.0773 67.6476 31.1199 67.5103 33.111 67.8192C35.1193 68.1282 37.0246 68.8491 38.7239 69.9648C43.0323 72.8142 48.0959 74.3419 53.2797 74.3247C54.3439 74.3247 55.4081 74.2561 56.4723 74.1359C61.8964 73.5008 66.9944 71.2179 71.0796 67.579C75.1649 63.94 78.0314 59.151 79.2844 53.8299C80.5375 48.5088 80.1427 42.9302 78.1172 37.8494C76.0918 32.7686 72.573 28.4431 68.0071 25.4392L68.0243 25.4221ZM48.0272 36.9912C48.8512 36.9912 49.6579 36.7337 50.3273 36.2531C50.9968 35.7725 51.5117 35.1031 51.7863 34.3307H60.2658C60.5061 35.0173 60.9352 35.6352 61.5016 36.0986C62.0681 36.5621 62.7547 36.8539 63.4928 36.9569C64.2137 37.0599 64.9689 36.9397 65.6384 36.6479C66.3078 36.3561 66.8914 35.8755 67.3034 35.2575C69.0542 37.2143 70.3587 39.5144 71.1655 42.0033C71.955 44.4923 72.2125 47.1356 71.9035 49.7447C71.4229 53.9157 69.552 57.8121 66.5996 60.7988C63.6301 63.7855 59.7508 65.6737 55.5798 66.1886C54.8417 66.2744 54.1036 66.3087 53.3655 66.3087C49.7266 66.3087 46.1734 65.2445 43.1353 63.2363C40.4747 61.5198 37.488 60.3697 34.3469 59.8891C31.2229 59.4085 28.013 59.6144 24.9749 60.4727C23.224 60.9533 21.4046 61.0906 19.6194 60.8675C17.8171 60.61 16.0835 59.9921 14.5386 59.048C12.9938 58.104 11.6378 56.8509 10.5907 55.3576C9.54366 53.8814 8.80557 52.1821 8.42794 50.4141C8.05032 48.629 8.05031 46.7923 8.41078 45.0243C8.77124 43.2392 9.49216 41.5571 10.5392 40.0637C11.5691 38.5704 12.908 37.3002 14.4528 36.3561C15.9976 35.3949 17.7141 34.7597 19.5164 34.5023C21.3187 34.2276 23.1554 34.3307 24.9062 34.8113C27.9615 35.6695 31.1714 35.8755 34.3125 35.3949C37.4537 34.9143 40.4575 33.7814 43.1353 32.0649C43.4271 31.8761 43.7189 31.7044 44.0278 31.5328V33.0089C44.0278 34.0732 44.457 35.0859 45.195 35.8411C45.9503 36.5964 46.963 37.0084 48.0272 37.0084V36.9912ZM52.0266 31.6529V28.9924H60.0255V31.6529H52.0266ZM60.0255 26.3147H52.0266V23.6541H60.0255V26.3147ZM60.0255 20.9764H52.0266V14.3164C52.0266 13.956 52.164 13.6298 52.4214 13.3723C52.6789 13.1149 53.0051 12.9776 53.3655 12.9776C53.726 12.9776 54.0521 13.1149 54.3096 13.3723C54.5671 13.6298 54.7044 13.956 54.7044 14.3164C54.7044 15.3807 55.1335 16.3934 55.8716 17.1486C56.6268 17.9039 57.6396 18.3158 58.7038 18.3158C59.1672 18.3158 59.6135 18.23 60.0426 18.0755V20.9935L60.0255 20.9764ZM69.3631 7.65647C71.1311 7.65647 72.8304 8.3602 74.0663 9.61323C75.3193 10.8663 76.0231 12.5485 76.0231 14.3164C76.0231 14.6769 75.8858 15.003 75.6283 15.2605C75.3708 15.518 75.0447 15.6553 74.6843 15.6553C74.3238 15.6553 73.9977 15.518 73.7402 15.2605C73.4827 15.003 73.3454 14.6769 73.3454 14.3164C73.3454 13.7843 73.2424 13.2694 73.0536 12.7716C72.8476 12.291 72.5558 11.8447 72.1953 11.4671C71.8177 11.0894 71.3886 10.7976 70.8908 10.5916C70.4102 10.3857 69.8781 10.2827 69.346 10.2827C68.8139 10.2827 68.2989 10.3857 67.8183 10.5916C67.3377 10.7976 66.8914 11.0894 66.5138 11.4671C66.1362 11.8447 65.8444 12.291 65.6555 12.7716C65.4496 13.2522 65.3637 13.7843 65.3637 14.3164V32.9746C65.3637 33.3351 65.2264 33.6612 64.9689 33.9187C64.7115 34.1761 64.3853 34.3135 64.0249 34.3135C63.6644 34.3135 63.3383 34.1761 63.0808 33.9187C62.8233 33.6612 62.686 33.3351 62.686 32.9746V14.3164C62.686 12.5485 63.3898 10.8491 64.6428 9.61323C65.8959 8.3602 67.578 7.65647 69.346 7.65647H69.3631ZM53.3655 7.65647C55.1335 7.65647 56.8328 8.3602 58.0687 9.61323C59.3217 10.8663 60.0255 12.5485 60.0255 14.3164C60.0255 14.6597 59.871 15.003 59.6307 15.2433C59.3732 15.4836 59.0471 15.6209 58.6866 15.6209C58.3433 15.6209 58 15.4836 57.7425 15.2433C57.4851 15.003 57.3478 14.6597 57.3478 14.3164C57.3478 13.7843 57.2448 13.2694 57.056 12.7716C56.85 12.291 56.5582 11.8447 56.1977 11.4671C55.8201 11.0894 55.391 10.7976 54.8932 10.5916C54.4126 10.3857 53.8805 10.2827 53.3655 10.2827C52.8334 10.2827 52.3185 10.3857 51.8378 10.5916C51.3572 10.7976 50.9109 11.0894 50.5333 11.4671C50.1557 11.8447 49.8639 12.291 49.6751 12.7716C49.4691 13.2522 49.3833 13.7843 49.3833 14.3164V32.9746C49.3833 33.3351 49.246 33.6612 48.9885 33.9187C48.731 34.1761 48.4049 34.3135 48.0444 34.3135C47.6839 34.3135 47.3578 34.1761 47.1003 33.9187C46.8429 33.6612 46.7055 33.3351 46.7055 32.9746V14.3164C46.7055 12.5485 47.4093 10.8491 48.6623 9.61323C49.9154 8.3602 51.5975 7.65647 53.3655 7.65647V7.65647ZM77.2246 50.2939C76.6067 55.6665 74.2036 60.6959 70.393 64.5236C66.5824 68.3685 61.5703 70.806 56.1977 71.441C50.602 72.1276 44.9376 70.7888 40.2172 67.6819C38.209 66.3603 35.926 65.502 33.5401 65.1415C31.1542 64.7811 28.734 64.9356 26.4167 65.5878C23.6532 66.3602 20.7351 66.4804 17.9029 65.9483C15.0707 65.4162 12.4102 64.2318 10.1273 62.4982C7.82717 60.7645 5.97337 58.5159 4.686 55.9412C3.39864 53.3665 2.72921 50.5342 2.72921 47.6505C2.72921 44.7669 3.38148 41.9347 4.65167 39.3599C5.92187 36.7852 7.77568 34.5366 10.0586 32.7858C12.3415 31.035 15.0021 29.8506 17.8343 29.3013C20.6665 28.752 23.5673 28.8722 26.348 29.6275C28.6653 30.2969 31.1027 30.4514 33.5058 30.0909C35.8917 29.7305 38.1746 28.8722 40.2172 27.5677C41.4359 26.7781 42.7061 26.0915 44.045 25.5251V28.4603C43.2383 28.8379 42.4487 29.2842 41.6934 29.7819C39.3418 31.2924 36.6984 32.3052 33.9177 32.7172C31.1542 33.1291 28.322 32.9575 25.6271 32.1851C23.5158 31.6014 21.3016 31.4641 19.1388 31.7731C16.976 32.082 14.8819 32.8373 13.011 33.9873C11.14 35.1374 9.52649 36.6479 8.27346 38.4502C7.02042 40.2525 6.14502 42.2779 5.71589 44.4235C5.28677 46.5692 5.28677 48.7834 5.75022 50.929C6.21368 53.0746 7.10625 55.1001 8.37645 56.8852C9.64664 58.6704 11.2773 60.1809 13.1483 61.3138C15.0192 62.4467 17.1134 63.1848 19.2933 63.4594C21.4389 63.734 23.6188 63.5795 25.6958 62.9959C28.3735 62.2407 31.1885 62.069 33.9521 62.481C36.7156 62.893 39.3418 63.9057 41.6762 65.4162C45.1435 67.6991 49.2116 68.9178 53.3655 68.9178C54.2066 68.9178 55.0648 68.8663 55.9059 68.7805C60.6777 68.1969 65.1063 66.0341 68.5049 62.6183C71.8864 59.2025 74.032 54.7568 74.5641 49.985C74.9074 46.9983 74.6156 43.9601 73.6887 41.0936C72.7618 38.2271 71.2513 35.5837 69.2258 33.3522C68.831 32.906 68.4191 32.5112 68.0243 32.1336V28.6319C71.2856 31.138 73.8603 34.4508 75.4738 38.2442C77.0873 42.0377 77.6881 46.1744 77.2246 50.2768V50.2939Z" fill="black"/>
</svg>
